<svg width="16" height="16" viewBox="0 0 16 16" fill="none" xmlns="http://www.w3.org/2000/svg">
<path d="M11.5 1.5H4.5C3.94772 1.5 3.5 1.94772 3.5 2.5V13.5C3.5 14.0523 3.94772 14.5 4.5 14.5H11.5C12.0523 14.5 12.5 14.0523 12.5 13.5V2.5C12.5 1.94772 12.0523 1.5 11.5 1.5Z" stroke="#389F7F" stroke-width="0.8" stroke-linecap="round" stroke-linejoin="round"/>
<path d="M5 3.5H10.9997V5.5H5V3.5Z" stroke="#389F7F" stroke-width="0.8" stroke-linecap="round" stroke-linejoin="round"/>
<path d="M5.25 7.40039C5.4433 7.40039 5.59961 7.5567 5.59961 7.75C5.59961 7.9433 5.4433 8.09961 5.25 8.09961C5.0567 8.09961 4.90039 7.9433 4.90039 7.75C4.90039 7.5567 5.0567 7.40039 5.25 7.40039Z" fill="#389F7F" stroke="#389F7F" stroke-width="0.8"/>
<path d="M8 8.5C8.41421 8.5 8.75 8.16421 8.75 7.75C8.75 7.33579 8.41421 7 8 7C7.58579 7 7.25 7.33579 7.25 7.75C7.25 8.16421 7.58579 8.5 8 8.5Z" fill="#389F7F"/>
<path d="M10.75 8.5C11.1642 8.5 11.5 8.16421 11.5 7.75C11.5 7.33579 11.1642 7 10.75 7C10.3358 7 10 7.33579 10 7.75C10 8.16421 10.3358 8.5 10.75 8.5Z" fill="#389F7F"/>
<path d="M5.25 11C5.66421 11 6 10.6642 6 10.25C6 9.83579 5.66421 9.5 5.25 9.5C4.83579 9.5 4.5 9.83579 4.5 10.25C4.5 10.6642 4.83579 11 5.25 11Z" fill="#389F7F"/>
<path d="M8 11C8.41421 11 8.75 10.6642 8.75 10.25C8.75 9.83579 8.41421 9.5 8 9.5C7.58579 9.5 7.25 9.83579 7.25 10.25C7.25 10.6642 7.58579 11 8 11Z" fill="#389F7F"/>
<path d="M5.25 13.5C5.66421 13.5 6 13.1642 6 12.75C6 12.3358 5.66421 12 5.25 12C4.83579 12 4.5 12.3358 4.5 12.75C4.5 13.1642 4.83579 13.5 5.25 13.5Z" fill="#389F7F"/>
<path d="M8 13.5C8.41421 13.5 8.75 13.1642 8.75 12.75C8.75 12.3358 8.41421 12 8 12C7.58579 12 7.25 12.3358 7.25 12.75C7.25 13.1642 7.58579 13.5 8 13.5Z" fill="#389F7F"/>
<path d="M11.5 10.25C11.5 9.83579 11.1642 9.5 10.75 9.5C10.3358 9.5 10 9.83579 10 10.25V12.75C10 13.1642 10.3358 13.5 10.75 13.5C11.1642 13.5 11.5 13.1642 11.5 12.75V10.25Z" fill="#389F7F"/>
</svg>
