<svg width="16" height="16" viewBox="0 0 16 16" fill="none" xmlns="http://www.w3.org/2000/svg">
<g clip-path="url(#clip0_7497_20669)">
<path d="M8 0.5C3.86379 0.5 0.5 3.86379 0.5 8C0.5 12.1362 3.86379 15.5 8 15.5C12.1362 15.5 15.5 12.1362 15.5 8C15.5 3.86379 12.1362 0.5 8 0.5ZM8 1.5C11.5958 1.5 14.5039 4.40423 14.5039 8C14.5039 11.5958 11.5958 14.5039 8 14.5039C4.40423 14.5039 1.5 11.5958 1.5 8C1.5 4.40423 4.40423 1.5 8 1.5ZM7.99316 4.00293C7.86107 4.00526 7.73526 4.05976 7.64322 4.15455C7.55119 4.24933 7.5004 4.37668 7.50195 4.50879V4.92969C6.69463 5.08114 6.00391 5.60101 6.00391 6.50195C6.00391 7.12695 6.28566 7.63245 6.66406 7.92676C7.04246 8.22107 7.46973 8.35156 7.84473 8.47656C8.21973 8.60156 8.54344 8.72107 8.72754 8.86426C8.91164 9.00744 9 9.12793 9 9.50293C9 10.3363 7.00391 10.3363 7.00391 9.50293C7.00538 9.43633 6.99354 9.37012 6.96908 9.30816C6.94462 9.2462 6.90802 9.18976 6.86145 9.14214C6.81487 9.09452 6.75925 9.05668 6.69785 9.03085C6.63646 9.00502 6.57052 8.99171 6.50391 8.99171C6.4373 8.99171 6.37136 9.00502 6.30996 9.03085C6.24856 9.05668 6.19294 9.09452 6.14637 9.14214C6.09979 9.18976 6.0632 9.2462 6.03873 9.30816C6.01427 9.37012 6.00243 9.43633 6.00391 9.50293C6.00391 10.4032 6.69524 10.924 7.50195 11.0762V11.4951C7.50048 11.5617 7.51232 11.6279 7.53678 11.6899C7.56124 11.7518 7.59784 11.8083 7.64441 11.8559C7.69099 11.9035 7.74661 11.9414 7.80801 11.9672C7.8694 11.993 7.93534 12.0063 8.00195 12.0063C8.06856 12.0063 8.1345 11.993 8.1959 11.9672C8.2573 11.9414 8.31292 11.9035 8.35949 11.8559C8.40607 11.8083 8.44266 11.7518 8.46712 11.6899C8.49159 11.6279 8.50343 11.5617 8.50195 11.4951V11.0762C9.30881 10.9241 10.001 10.4033 10.001 9.50293C10.001 8.87793 9.71824 8.37244 9.33984 8.07812C8.96144 7.78381 8.53418 7.65234 8.15918 7.52734C7.78418 7.40234 7.46047 7.28381 7.27637 7.14062C7.09227 6.99744 7.00391 6.87695 7.00391 6.50195C7.00391 5.66862 9 5.66862 9 6.50195C9 6.63469 9.05273 6.76199 9.14659 6.85585C9.24045 6.94971 9.36775 7.00244 9.50049 7.00244C9.63323 7.00244 9.76053 6.94971 9.85439 6.85585C9.94825 6.76199 10.001 6.63469 10.001 6.50195C10.001 5.60236 9.30857 5.08301 8.50195 4.93066V4.50879C8.50274 4.44189 8.4901 4.37552 8.46477 4.3136C8.43944 4.25167 8.40195 4.19546 8.3545 4.14829C8.30706 4.10112 8.25063 4.06395 8.18857 4.03899C8.1265 4.01402 8.06006 4.00176 7.99316 4.00293Z" fill="black"/>
</g>
<defs>
<clipPath id="clip0_7497_20669">
<rect width="16" height="16" fill="white"/>
</clipPath>
</defs>
</svg>
