<svg width="73" height="72" viewBox="0 0 73 72" fill="none" xmlns="http://www.w3.org/2000/svg">
<path d="M36.5 10C22.1714 10 10.5 21.6714 10.5 36C10.5 50.3286 22.1714 62 36.5 62C50.8286 62 62.5 50.3286 62.5 36C62.5 21.6714 50.8286 10 36.5 10Z" fill="#DEDEDE"/>
<path d="M36.5004 10C35.622 10 34.7568 10.0464 33.9004 10.132C47.0129 11.4435 57.3004 22.5499 57.3004 36C57.3004 49.4501 47.0129 60.5565 33.9004 61.868C34.7568 61.9536 35.622 62 36.5004 62C50.829 62 62.5004 50.3286 62.5004 36C62.5004 21.6714 50.829 10 36.5004 10Z" fill="#1F1F1F"/>
<path d="M36.5004 20.4004C35.8108 20.4004 35.1495 20.6743 34.6619 21.1619C34.1743 21.6495 33.9004 22.3108 33.9004 23.0004V33.4004H23.5004C22.8108 33.4004 22.1495 33.6743 21.6619 34.1619C21.1743 34.6495 20.9004 35.3108 20.9004 36.0004C20.9004 36.69 21.1743 37.3513 21.6619 37.8389C22.1495 38.3265 22.8108 38.6004 23.5004 38.6004H33.9004V49.0004C33.9004 49.69 34.1743 50.3513 34.6619 50.8389C35.1495 51.3265 35.8108 51.6004 36.5004 51.6004C37.19 51.6004 37.8513 51.3265 38.3389 50.8389C38.8265 50.3513 39.1004 49.69 39.1004 49.0004V38.6004H49.5004C50.19 38.6004 50.8513 38.3265 51.3389 37.8389C51.8265 37.3513 52.1004 36.69 52.1004 36.0004C52.1004 35.3108 51.8265 34.6495 51.3389 34.1619C50.8513 33.6743 50.19 33.4004 49.5004 33.4004H39.1004V23.0004C39.1004 22.3108 38.8265 21.6495 38.3389 21.1619C37.8513 20.6743 37.19 20.4004 36.5004 20.4004Z" fill="white"/>
</svg>
