<svg width="73" height="72" viewBox="0 0 73 72" fill="none" xmlns="http://www.w3.org/2000/svg">
<g clip-path="url(#clip0_572_4061)">
<path d="M17.2565 31.959C19.787 30.5505 21.5 27.8505 21.5 24.75C21.5 20.193 17.807 16.5 13.25 16.5C8.693 16.5 5 20.193 5 24.75C5 27.852 6.713 30.5505 9.2435 31.959C4.2005 33.3795 0.5 38.0025 0.5 43.5V51C0.5 54.3135 3.1865 57 6.5 57H20C23.3135 57 26 54.3135 26 51V43.5C26 38.0025 22.2995 33.3795 17.2565 31.959Z" fill="#DEDEDE"/>
<path d="M17.8484 17.9014C18.7319 19.2154 19.2494 20.7979 19.2494 22.5004C19.2494 27.0574 15.5564 30.7504 10.9994 30.7504C9.29689 30.7504 7.71439 30.2344 6.40039 29.3494C7.88239 31.5514 10.3964 33.0004 13.2494 33.0004C17.8064 33.0004 21.4994 29.3074 21.4994 24.7504C21.4994 21.8974 20.0504 19.3834 17.8484 17.9014Z" fill="#1F1F1F"/>
<path d="M20.8466 33.6523C22.1996 35.5948 22.9991 37.9528 22.9991 40.4998V50.9998C22.9991 52.6573 21.6566 53.9998 19.9991 53.9998H3.49906C2.62006 53.9998 1.79056 53.8003 1.03906 53.4598C1.97956 55.5433 4.06456 56.9998 6.49906 56.9998H19.9991C23.3126 56.9998 25.9991 54.3133 25.9991 50.9998V43.4998C25.9991 39.4198 23.9591 35.8198 20.8466 33.6523Z" fill="#1F1F1F"/>
<path d="M63.7565 31.959C66.287 30.5505 68 27.8505 68 24.75C68 20.193 64.307 16.5 59.75 16.5C55.193 16.5 51.5 20.193 51.5 24.75C51.5 27.852 53.213 30.5505 55.7435 31.959C50.7005 33.3795 47 38.0025 47 43.5V51C47 54.3135 49.6865 57 53 57H66.5C69.8135 57 72.5 54.3135 72.5 51V43.5C72.5 38.0025 68.7995 33.3795 63.7565 31.959Z" fill="#DEDEDE"/>
<path d="M64.3484 17.9014C65.2319 19.2154 65.7494 20.7979 65.7494 22.5004C65.7494 27.0574 62.0564 30.7504 57.4994 30.7504C55.7969 30.7504 54.2144 30.2344 52.9004 29.3494C54.3824 31.5514 56.8964 33.0004 59.7494 33.0004C64.3064 33.0004 67.9994 29.3074 67.9994 24.7504C67.9994 21.8974 66.5504 19.3834 64.3484 17.9014Z" fill="#1F1F1F"/>
<path d="M67.3466 33.6523C68.6996 35.5948 69.4991 37.9528 69.4991 40.4998V50.9998C69.4991 52.6573 68.1566 53.9998 66.4991 53.9998H49.9991C49.1201 53.9998 48.2906 53.8003 47.5391 53.4598C48.4796 55.5433 50.5646 56.9998 52.9991 56.9998H66.4991C69.8126 56.9998 72.4991 54.3133 72.4991 50.9998V43.4998C72.4991 39.4198 70.4591 35.8198 67.3466 33.6523Z" fill="#1F1F1F"/>
<path d="M40.781 30.5805C44.444 28.941 47 25.272 47 21C47 15.201 42.299 10.5 36.5 10.5C30.701 10.5 26 15.201 26 21C26 25.272 28.556 28.941 32.219 30.5805C25.1855 32.469 20 38.8695 20 46.5V55.5C20 58.8135 22.6865 61.5 26 61.5H47C50.3135 61.5 53 58.8135 53 55.5V46.5C53 38.871 47.8145 32.469 40.781 30.5805Z" fill="#F4F4F4"/>
<path d="M46.5581 33.4414C48.7076 36.2269 49.9991 39.7099 49.9991 43.5004V55.5004C49.9991 57.1579 48.6566 58.5004 46.9991 58.5004H22.9991C22.1201 58.5004 21.2906 58.3009 20.5391 57.9604C21.4796 60.0439 23.5646 61.5004 25.9991 61.5004H46.9991C50.3126 61.5004 52.9991 58.8139 52.9991 55.5004V46.5004C52.9991 41.1784 50.4686 36.4594 46.5581 33.4414Z" fill="#1F1F1F"/>
<path d="M40.5406 11.3086C42.6541 13.0966 43.9981 15.7651 43.9981 18.7501C43.9981 24.1351 39.6331 28.5001 34.2481 28.5001C31.2631 28.5001 28.5961 27.1561 26.8066 25.0426C28.3906 28.8346 32.1316 31.5001 36.4981 31.5001C42.2971 31.5001 46.9981 26.7991 46.9981 21.0001C46.9981 16.6336 44.3326 12.8926 40.5406 11.3086Z" fill="#1F1F1F"/>
</g>
<defs>
<clipPath id="clip0_572_4061">
<rect width="72" height="72" fill="white" transform="translate(0.5)"/>
</clipPath>
</defs>
</svg>
