<svg width="72" height="72" viewBox="0 0 72 72" fill="none" xmlns="http://www.w3.org/2000/svg">
<path d="M61.6732 9.73029L59.1841 7.24114C54.5555 2.61257 47.0161 2.61257 42.3772 7.24114L34.3029 15.3154C30.0138 19.6046 29.7052 26.3726 33.3566 31.032L31.0423 33.3463C26.3829 29.6949 19.6149 30.0034 15.3258 34.2926L7.2412 42.3771C2.61263 47.0057 2.61263 54.5451 7.2412 59.184L9.73035 61.6731C14.3589 66.3017 21.8983 66.3017 26.5372 61.6731L34.6115 53.5989C38.9006 49.3097 39.2092 42.5417 35.5578 37.8823L37.8721 35.568C42.5315 39.2194 49.2995 38.9109 53.5886 34.6217L61.6629 26.5474C66.3121 21.8983 66.3121 14.3589 61.6732 9.73029ZM30.0858 49.0731L22.0115 57.1474C19.8721 59.2869 16.3955 59.2869 14.2561 57.1474L11.7669 54.6583C9.62749 52.5189 9.62749 49.0423 11.7669 46.9029L19.8412 38.8286C21.6206 37.0491 24.3361 36.7714 26.4241 37.9646L25.1075 39.2811H28.0389L30.0755 41.3177C32.2252 43.4571 32.2252 46.9337 30.0858 49.0731ZM57.1475 22.0114L49.0732 30.0857C46.9338 32.2251 43.4572 32.2251 41.3178 30.0857L38.8286 27.5966C36.6892 25.4571 36.6892 21.9806 38.8286 19.8411L46.9029 11.7669C49.0423 9.62743 52.5189 9.62743 54.6583 11.7669L57.1475 14.256C59.2869 16.3954 59.2869 19.872 57.1475 22.0114Z" fill="#1F1F1F"/>
<path d="M39.8778 37.6971L37.3887 35.208C32.7601 30.5794 32.7601 23.04 37.3887 18.4011L45.463 10.3268C50.0915 5.69826 57.631 5.69826 62.2698 10.3268L64.759 12.816C69.3875 17.4446 69.3875 24.984 64.759 29.6228L56.6847 37.6971C52.0458 42.3257 44.5064 42.336 39.8778 37.6971ZM57.7441 14.8526C55.6047 12.7131 52.1281 12.7131 49.9887 14.8526L41.9144 22.9268C39.775 25.0663 39.775 28.5428 41.9144 30.6823L44.4035 33.1714C46.543 35.3108 50.0195 35.3108 52.159 33.1714L60.2332 25.0971C62.3727 22.9577 62.3727 19.4811 60.2332 17.3417L57.7441 14.8526Z" fill="#DEDEDE"/>
<path d="M12.816 64.7588L10.3269 62.2697C5.69833 57.6411 5.69833 50.1017 10.3269 45.4628L18.4012 37.3885C23.0298 32.76 30.5692 32.76 35.208 37.3885L37.6972 39.8777C42.3258 44.5063 42.3258 52.0457 37.6972 56.6845L29.6229 64.7588C24.984 69.3977 17.4446 69.3977 12.816 64.7588ZM30.6823 41.9143C28.5429 39.7748 25.0663 39.7748 22.9269 41.9143L14.8526 49.9885C12.7132 52.128 12.7132 55.6045 14.8526 57.744L17.3418 60.2331C19.4812 62.3725 22.9578 62.3725 25.0972 60.2331L33.1715 52.1588C35.3109 50.0194 35.3109 46.5428 33.1715 44.4034L30.6823 41.9143Z" fill="#DEDEDE"/>
<path d="M27.6892 47.3966C26.4446 46.152 26.4446 44.1257 27.6892 42.8709L42.8812 27.6789C44.1257 26.4343 46.152 26.4343 47.4069 27.6789C48.6617 28.9234 48.6514 30.9497 47.4069 32.2046L32.2149 47.3966C30.96 48.6514 28.9337 48.6514 27.6892 47.3966Z" fill="#1F1F1F"/>
<path d="M61.4263 50.1531C61.3749 50.1531 61.3132 50.1429 61.2618 50.1223L51.1098 46.6971C50.8423 46.6046 50.6983 46.3166 50.7909 46.0491C50.8835 45.7817 51.1715 45.6377 51.4389 45.7303L61.5909 49.1554C61.8583 49.248 62.0023 49.536 61.9098 49.8034C61.8378 50.0194 61.6423 50.1531 61.4263 50.1531Z" fill="#1F1F1F"/>
<path d="M58.2069 59.9143C58.0732 59.9143 57.9395 59.8629 57.8469 59.76L47.7875 49.7006C47.5818 49.4949 47.5818 49.176 47.7875 48.9703C47.9932 48.7646 48.312 48.7646 48.5177 48.9703L58.5772 59.0297C58.7829 59.2354 58.7829 59.5543 58.5772 59.76C58.4743 59.8629 58.3406 59.9143 58.2069 59.9143Z" fill="#1F1F1F"/>
<path d="M48.4458 63.1337C48.2298 63.1337 48.0344 63 47.9624 62.784L44.5372 52.632C44.4447 52.3646 44.5887 52.0663 44.8561 51.984C45.1235 51.8914 45.4218 52.0354 45.5041 52.3029L48.9292 62.4549C49.0218 62.7223 48.8778 63.0206 48.6104 63.1029C48.5589 63.1234 48.5075 63.1337 48.4458 63.1337Z" fill="#1F1F1F"/>
<path d="M21.6 27.2674C21.5486 27.2674 21.4869 27.2571 21.4355 27.2365L11.2835 23.8114C11.016 23.7188 10.872 23.4308 10.9646 23.1634C11.0572 22.896 11.3452 22.752 11.6126 22.8445L21.7646 26.2697C22.032 26.3623 22.176 26.6503 22.0835 26.9177C22.0115 27.1234 21.8057 27.2674 21.6 27.2674Z" fill="#1F1F1F"/>
<path d="M24.7167 24.1406C24.5829 24.1406 24.4492 24.0892 24.3567 23.9863L14.2972 13.9269C14.0915 13.7212 14.0915 13.4023 14.2972 13.1966C14.5029 12.9909 14.8218 12.9909 15.0275 13.1966L25.0869 23.256C25.2927 23.4617 25.2927 23.7806 25.0869 23.9863C24.9841 24.0892 24.8504 24.1406 24.7167 24.1406Z" fill="#1F1F1F"/>
<path d="M27.8331 21.024C27.6171 21.024 27.4217 20.8903 27.3497 20.6743L23.9246 10.5223C23.832 10.2548 23.976 9.95656 24.2434 9.87427C24.5109 9.7817 24.7989 9.9257 24.8914 10.1931L28.3166 20.3451C28.4091 20.6126 28.2651 20.9108 27.9977 20.9931C27.9463 21.0137 27.8949 21.024 27.8331 21.024Z" fill="#1F1F1F"/>
</svg>
