<svg width="73" height="72" viewBox="0 0 73 72" fill="none" xmlns="http://www.w3.org/2000/svg">
<path d="M30.2305 39.0234L22.584 40.4121C16.7527 41.4723 12.5 46.5731 12.5 52.5V61.5C12.5 63.9675 14.5325 66 17 66H56C58.4675 66 60.5 63.9675 60.5 61.5V52.5C60.5 46.5731 56.2473 41.4723 50.416 40.4121L42.7695 39.0234C42.503 38.9747 42.2282 38.9991 41.9744 39.0941C41.7206 39.189 41.4973 39.3508 41.3281 39.5625L36.5 45.5977L31.6719 39.5625C31.5027 39.3508 31.2794 39.189 31.0256 39.0941C30.7718 38.9991 30.497 38.9747 30.2305 39.0234Z" fill="#DEDEDE"/>
<path d="M42.7695 39.0234C42.3531 38.9674 41.9323 39.0885 41.6094 39.3574L47.416 40.4121C53.2473 41.4723 57.5 46.5731 57.5 52.5V61.5C57.5 63.9675 55.4675 66 53 66H56C58.4675 66 60.5 63.9675 60.5 61.5V52.5C60.5 46.5731 56.2473 41.4723 50.416 40.4121L42.7695 39.0234Z" fill="#1F1F1F"/>
<path d="M36.5 6C28.2335 6 21.5 12.7335 21.5 21C21.5 29.2665 28.2335 36 36.5 36C44.7665 36 51.5 29.2665 51.5 21C51.5 12.7335 44.7665 6 36.5 6Z" fill="#DEDEDE"/>
<path d="M36.5 6C35.9932 6 35.4941 6.02676 35 6.07617C42.5649 6.83281 48.5 13.2403 48.5 21C48.5 28.7597 42.5649 35.1672 35 35.9238C35.4941 35.9732 35.9932 36 36.5 36C44.7665 36 51.5 29.2665 51.5 21C51.5 12.7335 44.7665 6 36.5 6Z" fill="#1F1F1F"/>
</svg>
