<svg width="80" height="80" viewBox="0 0 80 80" fill="none" xmlns="http://www.w3.org/2000/svg">
<path fill-rule="evenodd" clip-rule="evenodd" d="M28.3987 26.2931C30.0036 26.9337 31.4687 27.7836 32.8204 28.8517C33.955 29.7481 34.2531 31.3153 33.5304 32.5639C32.1922 34.8761 33.8645 37.769 36.5354 37.7654C37.9808 37.7634 39.1923 38.8133 39.3981 40.242C39.642 41.9362 39.6422 43.6448 39.3981 45.339C39.1923 46.7679 37.9808 47.8176 36.5354 47.8156C33.8639 47.8119 32.1917 50.704 33.5304 53.0172C34.2533 54.2661 33.9553 55.8326 32.8204 56.7294C31.4694 57.797 30.0029 58.6475 28.3987 59.2879C27.0583 59.8229 25.5479 59.2983 24.8272 58.0448C23.4981 55.7334 20.1465 55.7334 18.8173 58.0448C18.0972 59.2973 16.587 59.8234 15.2458 59.2879C13.6409 58.6473 12.1756 57.7975 10.824 56.7294C9.6892 55.8326 9.39123 54.2659 10.114 53.0172C11.4528 50.7042 9.78139 47.812 7.10904 47.8156C5.66373 47.8176 4.45217 46.7678 4.24654 45.339C4.00248 43.6444 4.00248 41.9367 4.24639 40.242C4.45217 38.8131 5.66357 37.7634 7.10904 37.7654C9.77889 37.7692 11.4523 34.8764 10.114 32.5639C9.39123 31.315 9.6892 29.7486 10.824 28.8519C12.175 27.7842 13.6415 26.9334 15.2458 26.2931C16.5862 25.7581 18.0967 26.2828 18.8173 27.5364C20.1464 29.8479 23.4979 29.8478 24.8272 27.5364C25.5475 26.2837 27.0576 25.7576 28.3987 26.2931ZM25.3562 39.2565C23.4047 37.305 20.2401 37.305 18.2886 39.2565C16.337 41.2081 16.3372 44.3726 18.2886 46.3242C20.2401 48.2758 23.4047 48.2758 25.3562 46.3242C27.3078 44.3726 27.3078 41.2081 25.3562 39.2565Z" fill="#101010"/>
<path fill-rule="evenodd" clip-rule="evenodd" d="M26.7601 59.4402C25.9703 59.2822 25.2576 58.7935 24.827 58.0446C24.0556 56.703 22.6028 56.1404 21.2597 56.3561C19.9165 56.1404 18.4637 56.703 17.6923 58.0446C17.2619 58.7932 16.5492 59.2821 15.759 59.4402C15.5865 59.4058 15.4148 59.3552 15.2458 59.2877C13.6409 58.6471 12.1756 57.7972 10.824 56.7291C9.6892 55.8324 9.39123 54.2657 10.114 53.0169C11.4528 50.7039 9.78139 47.8118 7.10904 47.8153C5.66373 47.8174 4.45217 46.7675 4.24654 45.3388C4.00248 43.6441 4.00248 41.9364 4.24639 40.2418C4.45217 38.8129 5.66357 37.7632 7.10904 37.7652C9.77889 37.7689 11.4523 34.8761 10.114 32.5636C9.39123 31.3147 9.6892 29.7483 10.824 28.8516C12.175 27.7839 13.6415 26.9332 15.2458 26.2929C15.4148 26.2254 15.5867 26.1747 15.7592 26.1404C16.549 26.2983 17.2617 26.7871 17.6923 27.5361C18.4637 28.8777 19.9164 29.4405 21.2595 29.2247C22.6028 29.4405 24.0556 28.8779 24.827 27.5361C25.2575 26.7875 25.9701 26.2985 26.7603 26.1405C26.9328 26.1749 27.1045 26.2255 27.2736 26.293C28.8784 26.9336 30.3436 27.7835 31.6953 28.8516C32.8298 29.748 33.128 31.3152 32.4053 32.5638C31.067 34.876 32.7394 37.7689 35.4103 37.7653C36.8556 37.7633 38.0672 38.8132 38.273 40.2419C38.5169 41.9361 38.517 43.6447 38.273 45.3389C38.0672 46.7678 36.8556 47.8175 35.4103 47.8155C32.7387 47.8118 31.0665 50.7039 32.4053 53.0171C33.1281 54.266 32.8301 55.8325 31.6953 56.7293C30.3442 57.7969 28.8778 58.6474 27.2736 59.2878C27.1045 59.3552 26.9326 59.4058 26.7601 59.4402ZM21.2595 37.8249C19.8001 37.6605 18.2823 38.1375 17.1633 39.2566C15.2117 41.2082 15.2119 44.3727 17.1633 46.3243C18.2823 47.4433 19.8001 47.9203 21.2595 47.756C22.7189 47.9203 24.2369 47.4433 25.3559 46.3243C27.3075 44.3727 27.3075 41.2082 25.3559 39.2566C24.2369 38.1375 22.7189 37.6605 21.2595 37.8249Z" fill="#ECECEC"/>
<path fill-rule="evenodd" clip-rule="evenodd" d="M56.9705 18.6123C58.3197 19.1507 59.547 19.8628 60.6834 20.7607C61.6795 21.5478 61.9408 22.9226 61.3066 24.0182C60.2425 25.8565 61.5708 28.1543 63.6945 28.1514C64.9627 28.1496 66.0261 29.0714 66.2066 30.3246C66.4117 31.7482 66.4117 33.1801 66.2066 34.6037C66.0261 35.8573 64.9627 36.7789 63.6945 36.7771C61.5712 36.7742 60.2427 39.0718 61.3066 40.9103C61.9408 42.006 61.6794 43.3809 60.6833 44.1678C59.547 45.0656 58.3194 45.7776 56.9705 46.3162C55.7947 46.7856 54.4691 46.3251 53.8366 45.2253C52.7808 43.3892 50.1166 43.3893 49.0608 45.2253C48.4289 46.3242 47.1036 46.7859 45.927 46.3162C44.5777 45.7776 43.3506 45.0659 42.2141 44.1678C41.2181 43.3807 40.9567 42.006 41.5909 40.9103C42.6544 39.0729 41.3255 36.7742 39.203 36.7771C37.9348 36.7789 36.8714 35.8571 36.6909 34.6037C36.4859 33.1803 36.4858 31.7481 36.6908 30.3246C36.8712 29.0712 37.9347 28.1495 39.2028 28.1512C41.3258 28.1542 42.6545 25.856 41.5908 24.0181C40.9566 22.9223 41.218 21.5476 42.2139 20.7606C43.3503 19.8624 44.5777 19.1506 45.9269 18.612C47.1036 18.1423 48.4287 18.6039 49.0606 19.7029C50.1162 21.539 52.7808 21.539 53.8364 19.7029C54.4686 18.6043 55.7937 18.1426 56.9705 18.6123ZM54.2973 29.6157C51.7663 27.0846 47.4205 28.8864 47.4205 32.4643C47.4205 36.0424 51.7663 37.844 54.2973 35.3129C55.8705 33.7398 55.8705 31.1887 54.2973 29.6157Z" fill="#101010"/>
<path fill-rule="evenodd" clip-rule="evenodd" d="M55.4639 46.4353C54.7984 46.2826 54.2019 45.8607 53.8366 45.2253C53.2017 44.121 51.985 43.6814 50.8862 43.9053C49.7875 43.6812 48.5708 44.121 47.9358 45.2253C47.5706 45.8603 46.9741 46.2824 46.3084 46.4351C46.1803 46.4059 46.0527 46.3664 45.927 46.3162C44.5777 45.7776 43.3506 45.0659 42.2141 44.1678C41.2181 43.3807 40.9567 42.006 41.5909 40.9103C42.6544 39.0729 41.3255 36.7742 39.203 36.7771C37.9348 36.7789 36.8714 35.8571 36.6909 34.6037C36.4859 33.1803 36.4858 31.7481 36.6908 30.3246C36.8713 29.0712 37.9347 28.1495 39.2028 28.1512C41.3258 28.1542 42.6545 25.856 41.5908 24.0181C40.9566 22.9223 41.218 21.5476 42.2139 20.7606C43.3503 19.8624 44.5777 19.1506 45.9269 18.612C46.0527 18.5618 46.1802 18.5223 46.3083 18.4931C46.9739 18.6457 47.5705 19.0679 47.9356 19.7031C48.5705 20.8073 49.7873 21.2471 50.8861 21.0232C51.9848 21.2471 53.2016 20.8074 53.8364 19.7032C54.2016 19.0682 54.7981 18.646 55.4636 18.4932C55.5917 18.5224 55.7192 18.562 55.845 18.6121C57.1942 19.1506 58.4216 19.8626 59.558 20.7606C60.5541 21.5476 60.8153 22.9224 60.1811 24.0181C59.117 25.8564 60.4453 28.1542 62.5691 28.1512C63.8372 28.1495 64.9006 29.0712 65.0811 30.3245C65.2863 31.7481 65.2863 33.1799 65.0811 34.6035C64.9006 35.8571 63.8372 36.7787 62.5691 36.777C60.4458 36.774 59.1172 39.0717 60.1811 40.9101C60.8153 42.0059 60.5539 43.3807 59.5578 44.1676C58.4216 45.0654 57.1939 45.7774 55.8448 46.316C55.7195 46.3665 55.592 46.406 55.4639 46.4353ZM50.9214 28.4732C48.6633 28.1504 46.2953 29.8231 46.2953 32.4642C46.2953 35.1054 48.6631 36.7781 50.9213 36.4551C52.0813 36.6182 53.3234 36.2864 54.2972 35.3128C55.8703 33.7398 55.8703 31.1887 54.2972 29.6156C53.3236 28.642 52.0814 28.3101 50.9214 28.4732Z" fill="#ECECEC"/>
<path fill-rule="evenodd" clip-rule="evenodd" d="M48.5247 49.731C49.6522 50.1812 50.6722 50.7726 51.6219 51.5231C52.4972 52.2148 52.7269 53.4229 52.1696 54.3856C51.3443 55.8113 52.3747 57.5929 54.0214 57.5906C55.1357 57.589 56.0703 58.3995 56.2289 59.5004C56.4002 60.689 56.4002 61.8802 56.2289 63.069C56.0705 64.1699 55.1355 64.9806 54.0214 64.979C52.3746 64.9767 51.3443 66.7582 52.1696 68.184C52.7274 69.1477 52.4949 70.3565 51.6218 71.0465C50.6721 71.797 49.6519 72.3885 48.5246 72.8385C47.491 73.2512 46.3263 72.8452 45.7711 71.8798C44.9528 70.4568 42.8858 70.4568 42.0675 71.8798C41.5124 72.8454 40.3477 73.2512 39.3141 72.8385C38.1866 72.3885 37.1668 71.797 36.2169 71.0465C35.3416 70.3548 35.1119 69.1467 35.6691 68.184C36.4944 66.7582 35.4639 64.9767 33.8172 64.979C32.7033 64.9806 31.7683 64.1701 31.6099 63.0691C31.4386 61.8802 31.4386 60.6896 31.6099 59.5006C31.7685 58.3995 32.703 57.5892 33.8174 57.5907C35.4643 57.5929 36.4946 55.8115 35.6693 54.3857C35.1113 53.4215 35.3436 52.2135 36.2169 51.5232C37.1663 50.7729 38.1871 50.1809 39.3141 49.731C40.3471 49.3188 41.5119 49.7234 42.0675 50.6898C42.8857 52.1127 44.953 52.1127 45.7711 50.6898C46.3269 49.7234 47.4918 49.3188 48.5247 49.731ZM46.1727 59.0315C44.1708 57.0296 40.733 58.4543 40.733 61.2848C40.733 64.1152 44.1707 65.5399 46.1727 63.5381C47.4169 62.2937 47.4169 60.2759 46.1727 59.0315Z" fill="#101010"/>
<path fill-rule="evenodd" clip-rule="evenodd" d="M47.1333 72.9261C46.5758 72.7795 46.0796 72.4159 45.7711 71.8797C45.2546 70.9814 44.2403 70.6505 43.3568 70.8862C42.4732 70.6505 41.4591 70.9812 40.9425 71.8797C40.6343 72.4159 40.1378 72.7794 39.5803 72.9261C39.491 72.9027 39.4019 72.8736 39.3141 72.8384C38.1866 72.3884 37.1668 71.7969 36.2169 71.0464C35.3416 70.3547 35.1119 69.1466 35.6691 68.1839C36.4944 66.7581 35.4639 64.9766 33.8172 64.9789C32.7033 64.9805 31.7683 64.17 31.6099 63.0691C31.4386 61.8802 31.4386 60.6895 31.6099 59.5005C31.7685 58.3994 32.703 57.5891 33.8174 57.5906C35.4643 57.5928 36.4946 55.8114 35.6693 54.3856C35.1113 53.4214 35.3436 52.2134 36.2169 51.5231C37.1663 50.7728 38.1871 50.1808 39.3141 49.7309C39.4021 49.6958 39.491 49.6669 39.5805 49.6434C40.1379 49.79 40.6341 50.1533 40.9425 50.6898C41.4589 51.5881 42.4732 51.9192 43.3568 51.6833C44.2403 51.9191 45.2547 51.5881 45.7711 50.6898C46.0796 50.1533 46.576 49.79 47.1332 49.6434C47.2227 49.6669 47.3116 49.6959 47.3996 49.7311C48.5271 50.1812 49.5471 50.7727 50.4968 51.5231C51.3721 52.2148 51.6018 53.423 51.0444 54.3856C50.2191 55.8114 51.2496 57.593 52.8963 57.5906C54.0105 57.5891 54.9452 58.3995 55.1038 59.5005C55.275 60.6891 55.275 61.8803 55.1038 63.0691C54.9454 64.17 54.0104 64.9806 52.8963 64.9791C51.2496 64.9767 50.2191 66.7583 51.0444 68.1841C51.6022 69.1478 51.3697 70.3566 50.4966 71.0466C49.5469 71.797 48.5268 72.3886 47.3994 72.8386C47.3118 72.8737 47.2227 72.9028 47.1333 72.9261ZM43.3835 58.1469C41.5633 57.8155 39.608 59.1502 39.608 61.2848C39.608 63.4195 41.5633 64.7542 43.3835 64.4228C44.3344 64.5926 45.3691 64.3416 46.1727 63.5381C47.4169 62.2939 47.4169 60.2759 46.1727 59.0317C45.3691 58.2281 44.3344 57.977 43.3835 58.1469Z" fill="#ECECEC"/>
<path fill-rule="evenodd" clip-rule="evenodd" d="M73.3574 39.8205C73.0482 38.8444 74.5307 38.3741 74.8405 39.3505C76.543 44.7072 76.206 50.2892 74.2011 55.1888C72.3461 59.7219 69.0657 63.6702 64.6538 66.3161L68.0625 66.9161C69.0757 67.0938 68.8055 68.6314 67.7939 68.4542L62.4463 67.513C62.0216 67.4389 61.7374 67.0344 61.8116 66.6097L62.5954 61.2586C62.7441 60.242 64.2882 60.468 64.1396 61.4844L63.6064 65.1245C67.8491 62.6559 70.9977 58.9122 72.761 54.603C74.6319 50.0302 74.9464 44.8202 73.3574 39.8205ZM10.3625 23.1156C10.1569 23.4931 9.6841 23.6325 9.3066 23.4269C8.9291 23.2213 8.78973 22.7484 8.99535 22.3709C11.6911 17.4355 15.9593 13.8191 20.8864 11.8811C25.4422 10.0892 30.5639 9.73282 35.5288 11.0955L33.6036 8.2136C33.3643 7.85625 33.4599 7.37266 33.8172 7.13329C34.1746 6.89407 34.6582 6.98969 34.8975 7.34688L37.9136 11.862C38.1488 12.2133 38.0605 12.6866 37.7182 12.9298L33.2921 16.075C32.9416 16.3244 32.455 16.2425 32.2057 15.8919C31.9563 15.5414 32.0383 15.0548 32.3888 14.8055L35.3905 12.6728C30.6754 11.3139 25.7914 11.6277 21.4539 13.3336C16.8571 15.1419 12.8758 18.5142 10.3625 23.1156Z" fill="#101010"/>
<path fill-rule="evenodd" clip-rule="evenodd" d="M73.3572 39.8205C73.1961 39.3119 73.5214 38.9408 73.9139 38.84C74.1335 38.9004 74.3271 39.0624 74.4185 39.3507C76.121 44.7074 75.7839 50.2894 73.7791 55.189C71.9243 59.7221 68.6436 63.6704 64.2318 66.3163L67.6405 66.9163C68.5216 67.0707 68.4319 68.2535 67.7285 68.4429L62.4461 67.5132C62.0214 67.4391 61.7372 67.0346 61.8114 66.6099L62.5952 61.2588C62.6479 60.8985 62.876 60.6944 63.1419 60.6261C63.4924 60.713 63.7864 61.014 63.7175 61.4846L63.1844 65.1247C63.34 65.0341 63.4941 64.9416 63.6469 64.8477L63.6063 65.1247C67.8489 62.6561 70.9975 58.9124 72.7608 54.6032C74.6318 50.0302 74.9463 44.8202 73.3572 39.8205ZM9.94051 23.1157C9.83598 23.3075 9.66238 23.4379 9.46754 23.4927C9.4127 23.4772 9.35879 23.4554 9.3066 23.4269C8.9291 23.2213 8.78973 22.7485 8.99535 22.371C11.6911 17.4355 15.9593 13.8191 20.8864 11.8811C23.5072 10.8504 26.3154 10.2947 29.173 10.268C31.1457 10.2855 33.1386 10.5554 35.1069 11.0955L35.0174 10.9616C35.188 11.0043 35.3585 11.0488 35.5288 11.0955L33.6036 8.21364C33.3643 7.8563 33.4599 7.3727 33.8172 7.13333C33.8874 7.08645 33.9624 7.05239 34.0393 7.03067C34.2116 7.07895 34.3682 7.18661 34.4757 7.34692L37.4918 11.8621C37.7269 12.2133 37.6386 12.6866 37.2963 12.9299L32.8702 16.075C32.7952 16.1285 32.7138 16.1666 32.6299 16.1904C32.4644 16.144 32.313 16.0429 32.2057 15.8921C31.9563 15.5416 32.0383 15.055 32.3888 14.8057L35.3905 12.673C33.3364 12.081 31.2504 11.8066 29.1913 11.8263C26.3786 11.7982 23.6089 12.3204 21.0321 13.3338C16.435 15.1419 12.4538 18.5143 9.94051 23.1157Z" fill="#101010"/>
</svg>
