<svg width="73" height="72" viewBox="0 0 73 72" fill="none" xmlns="http://www.w3.org/2000/svg">
<path d="M14 12C9.87564 12 6.5 15.3756 6.5 19.5V52.5C6.5 56.6244 9.87564 60 14 60H59C63.1244 60 66.5 56.6244 66.5 52.5V25.5C66.5 23.0325 64.4675 21 62 21H38C36.6255 21 35.3464 20.3155 34.584 19.1719L31.9121 15.1641C30.5953 13.1888 28.374 12 26 12H14Z" fill="#DEDEDE"/>
<path d="M23 12C25.374 12 27.5953 13.1888 28.9121 15.1641L31.584 19.1719C32.3464 20.3155 33.6255 21 35 21H38C36.6255 21 35.3464 20.3155 34.584 19.1719L31.9121 15.1641C30.5953 13.1888 28.374 12 26 12H23ZM59 21C61.4675 21 63.5 23.0325 63.5 25.5V52.5C63.5 56.6244 60.1244 60 56 60H59C63.1244 60 66.5 56.6244 66.5 52.5V25.5C66.5 23.0325 64.4675 21 62 21H59Z" fill="#1F1F1F"/>
<path d="M36.5 30C36.1022 30 35.7207 30.158 35.4394 30.4393C35.1581 30.7206 35 31.1022 35 31.5V45.8789L30.0606 40.9395C29.7793 40.6582 29.3978 40.5002 29 40.5002C28.6022 40.5002 28.2208 40.6582 27.9395 40.9395C27.6582 41.2207 27.5002 41.6022 27.5002 42C27.5002 42.3978 27.6582 42.7793 27.9395 43.0605L35.4395 50.5605C35.7208 50.8417 36.1023 50.9997 36.5 50.9997C36.8978 50.9997 37.2792 50.8417 37.5606 50.5605L45.0606 43.0605C45.3418 42.7793 45.4998 42.3978 45.4998 42C45.4998 41.6022 45.3418 41.2207 45.0606 40.9395C44.7793 40.6582 44.3978 40.5002 44 40.5002C43.6022 40.5002 43.2208 40.6582 42.9395 40.9395L38 45.8789V31.5C38 31.1022 37.842 30.7206 37.5607 30.4393C37.2794 30.158 36.8978 30 36.5 30Z" fill="white"/>
</svg>
