<svg width="24" height="24" viewBox="0 0 24 24" fill="none" xmlns="http://www.w3.org/2000/svg">
<path d="M2.99922 14.0889C3.22422 14.0889 3.44697 13.9884 3.59397 13.7964L3.92022 13.3726C4.40847 16.2691 6.43722 18.7471 9.31722 19.7469C10.2037 20.0544 11.1135 20.2021 12.0112 20.2021C14.6992 20.2021 17.286 18.8761 18.8347 16.5414C19.0635 16.1964 18.969 15.7306 18.624 15.5019C18.2775 15.2716 17.814 15.3676 17.5837 15.7126C15.897 18.2581 12.6997 19.3351 9.80997 18.3301C7.41222 17.4976 5.73972 15.4104 5.38272 12.9864L6.02472 13.4806C6.35397 13.7319 6.82422 13.6719 7.07622 13.3434C7.32897 13.0149 7.26822 12.5446 6.93972 12.2919C6.93972 12.2919 5.16597 10.9261 5.16147 10.9231C4.78872 10.6359 4.25847 10.4746 3.92097 10.9149L2.40597 12.8821C2.15322 13.2106 2.21397 13.6809 2.54247 13.9336C2.67822 14.0379 2.83947 14.0889 2.99922 14.0889Z" fill="#FC547A"/>
<path d="M5.37661 8.49753C5.72086 8.72627 6.1866 8.63177 6.41685 8.28677C8.10361 5.74202 11.3039 4.66502 14.1906 5.66927C16.5884 6.50177 18.2609 8.58903 18.6179 11.013L17.9759 10.5188C17.6466 10.2668 17.1764 10.3268 16.9244 10.656C16.6716 10.9845 16.7324 11.4548 17.0609 11.7075C17.0609 11.7075 18.8346 13.0725 18.8391 13.0763C19.2186 13.368 19.7369 13.5315 20.0796 13.0845L21.5946 11.1173C21.8474 10.7888 21.7866 10.3185 21.4581 10.0658C21.1296 9.81302 20.6586 9.87452 20.4066 10.203L20.0804 10.6268C19.5921 7.73027 17.5634 5.25227 14.6834 4.25252C11.1434 3.02402 7.23136 4.34178 5.16585 7.45727C4.9371 7.80302 5.03161 8.26802 5.37661 8.49753Z" fill="#FC547A"/>
</svg>
