<svg width="141" height="140" viewBox="0 0 141 140" fill="none" xmlns="http://www.w3.org/2000/svg">
<rect x="0.5" width="140" height="140" rx="70" fill="#FAFAFA"/>
<g clip-path="url(#clip0_9699_30370)">
<path fill-rule="evenodd" clip-rule="evenodd" d="M60.9902 49.3911H100.241C103.959 49.3911 107 52.4542 107 56.1978V87.9925C107 91.7363 103.958 94.7992 100.241 94.7992H95.1276V101.824C95.1276 102.127 94.9534 102.386 94.6737 102.498C94.394 102.611 94.0908 102.543 93.8837 102.323L86.8026 94.7992H67.7496C64.0321 94.7992 60.9902 91.7363 60.9902 87.9925V49.3911Z" fill="#BBBBBB"/>
<path fill-rule="evenodd" clip-rule="evenodd" d="M104.117 87.9925C104.117 91.7361 101.075 94.7994 97.3575 94.7994H100.241C103.958 94.7994 107 91.7363 107 87.9925V56.1978C107 52.4541 103.959 49.3911 100.241 49.3911H97.3575C101.075 49.3911 104.117 52.4542 104.117 56.1978V87.9925ZM92.2441 94.7994V100.581L93.8835 102.323C94.0906 102.543 94.3937 102.611 94.6735 102.498C94.9532 102.386 95.1273 102.127 95.1273 101.824V94.7994H92.2441Z" fill="#1F1F1F"/>
<path d="M88.7041 37.3983C92.4497 37.3983 95.5136 40.4838 95.5137 44.2548V76.0497C95.5137 79.8207 92.4498 82.9061 88.7041 82.9061H55.7197L48.6533 90.4149C48.4322 90.6499 48.1065 90.7213 47.8076 90.6014C47.509 90.4815 47.3232 90.204 47.3232 89.8807V82.9061H42.2598C38.5141 82.9061 35.4502 79.8207 35.4502 76.0497V44.2548C35.4503 40.4838 38.5142 37.3983 42.2598 37.3983H88.7041Z" fill="#ECECEC" stroke="#BBBBBB" stroke-width="0.1"/>
<path fill-rule="evenodd" clip-rule="evenodd" d="M48.6159 90.3803L55.6971 82.8563H52.8139L47.3721 88.6386V89.8811C47.3721 90.1843 47.5462 90.4431 47.8259 90.5553C48.1058 90.6675 48.4088 90.6004 48.6159 90.3803ZM92.58 49.3911V76.0497C92.58 79.7934 89.5384 82.8563 85.8206 82.8563H88.7038C92.4215 82.8563 95.4632 79.7934 95.4632 76.0497V49.3911V44.2549C95.4632 40.5112 92.4215 37.4482 88.7038 37.4482H85.8206C89.5384 37.4482 92.58 40.5112 92.58 44.2549V49.3911Z" fill="#1F1F1F"/>
<path fill-rule="evenodd" clip-rule="evenodd" d="M45.6112 51.7393C44.9743 51.7393 44.458 51.2193 44.458 50.578C44.458 49.9366 44.9743 49.4167 45.6112 49.4167H85.3525C85.9895 49.4167 86.5057 49.9366 86.5057 50.578C86.5057 51.2194 85.9895 51.7393 85.3525 51.7393H45.6112ZM45.6112 70.8878C44.9743 70.8878 44.458 70.3679 44.458 69.7265C44.458 69.0851 44.9743 68.5652 45.6112 68.5652H56.5555C57.1924 68.5652 57.7087 69.0851 57.7087 69.7265C57.7087 70.3679 57.1924 70.8878 56.5555 70.8878H45.6112ZM62.438 70.8878C61.8011 70.8878 61.2848 70.3679 61.2848 69.7265C61.2848 69.0851 61.8012 68.5652 62.438 68.5652H71.0566C71.6935 68.5652 72.2098 69.0851 72.2098 69.7265C72.2098 70.3679 71.6935 70.8878 71.0566 70.8878H62.438ZM76.3235 70.8878C75.6866 70.8878 75.1703 70.3679 75.1703 69.7265C75.1703 69.0851 75.6866 68.5652 76.3235 68.5652H85.3527C85.9896 68.5652 86.5059 69.0851 86.5059 69.7265C86.5059 70.3679 85.9896 70.8878 85.3527 70.8878H76.3235ZM45.6112 61.3135C44.9743 61.3135 44.458 60.7936 44.458 60.1522C44.458 59.5108 44.9743 58.9909 45.6112 58.9909H56.5555C57.1924 58.9909 57.7087 59.5108 57.7087 60.1522C57.7087 60.7936 57.1924 61.3135 56.5555 61.3135H45.6112ZM62.438 61.3135C61.8011 61.3135 61.2848 60.7936 61.2848 60.1522C61.2848 59.5108 61.8012 58.9909 62.438 58.9909H85.3525C85.9895 58.9909 86.5057 59.5108 86.5057 60.1522C86.5057 60.7936 85.9895 61.3135 85.3525 61.3135H62.438Z" fill="#5F5F5F"/>
</g>
<defs>
<clipPath id="clip0_9699_30370">
<rect width="72" height="72" fill="white" transform="translate(35 34)"/>
</clipPath>
</defs>
</svg>
