<svg width="101" height="101" viewBox="0 0 101 101" fill="none" xmlns="http://www.w3.org/2000/svg">
<g clip-path="url(#clip0_9955_1396)">
<path d="M29.7081 17.1238C24.9041 16.1626 20.1854 19.3078 19.2242 24.1118L11.5333 62.55C10.5721 67.3541 13.7173 72.0727 18.5213 73.0339L70.937 83.5216C75.7411 84.4828 80.4597 81.3376 81.4209 76.5336L87.7135 45.0841C88.2886 42.21 86.3948 39.3689 83.5207 38.7938L55.5657 33.2004C53.9647 32.8801 52.6343 31.7846 52.0128 30.2749L49.8346 24.9839C48.7611 22.3762 46.4509 20.4738 43.6857 19.9205L29.7081 17.1238Z" fill="#F0F0F0"/>
<path d="M40.1909 19.2214C42.9561 19.7747 45.2664 21.6771 46.3399 24.2848L48.518 29.5757C49.1396 31.0855 50.47 32.1809 52.0709 32.5013L55.5653 33.2004C53.9643 32.8801 52.6339 31.7847 52.0124 30.2749L49.8343 24.9839C48.7608 22.3762 46.4505 20.4739 43.6853 19.9206L40.1909 19.2214ZM80.026 38.0947C82.9001 38.6698 84.7939 41.5109 84.2188 44.385L77.9262 75.8345C76.965 80.6385 72.2463 83.7837 67.4423 82.8225L70.9367 83.5216C75.7407 84.4829 80.4594 81.3377 81.4206 76.5336L87.7132 45.0842C88.2882 42.2101 86.3945 39.3689 83.5204 38.7939L80.026 38.0947Z" fill="#1F1F1F"/>
</g>
<defs>
<clipPath id="clip0_9955_1396">
<rect width="85.5274" height="85.5274" fill="white" transform="translate(16.7803) rotate(11.3147)"/>
</clipPath>
</defs>
</svg>
