<svg width="73" height="72" viewBox="0 0 73 72" fill="none" xmlns="http://www.w3.org/2000/svg">
<path d="M59.6902 23.2357C59.6902 18.4618 57.7938 13.8835 54.4181 10.5078C51.0425 7.13214 46.4641 5.23572 41.6902 5.23572C36.9163 5.23572 32.3379 7.13214 28.9623 10.5078C25.5866 13.8835 23.6902 18.4618 23.6902 23.2357C23.6902 44.2357 14.6902 50.2357 14.6902 50.2357H68.6902C68.6902 50.2357 59.6902 44.2357 59.6902 23.2357Z" stroke="#1F1F1F" stroke-width="2" stroke-linecap="round" stroke-linejoin="round"/>
<path d="M58.803 22.9584C58.803 18.2581 56.8524 13.7502 53.3804 10.4266C49.9084 7.10293 45.1994 5.23572 40.2892 5.23572C35.3791 5.23572 30.67 7.10293 27.198 10.4266C23.726 13.7502 21.7754 18.2581 21.7754 22.9584C21.7754 36.6463 17.7187 43.8617 14.9763 47.1756C14.3389 47.9459 14.9446 49.5425 15.9444 49.5425H64.6341C65.6339 49.5425 66.2395 47.9459 65.6021 47.1756C62.8598 43.8617 58.803 36.6463 58.803 22.9584Z" fill="#ECECEC"/>
<path d="M41.6901 63C41.1626 63.9092 40.4056 64.664 39.4947 65.1886C38.5839 65.7132 37.5512 65.9894 36.5001 65.9894C35.4489 65.9894 34.4162 65.7132 33.5054 65.1886C32.5945 64.664 31.8375 63.9092 31.3101 63" stroke="#1F1F1F" stroke-width="1.5" stroke-linecap="round" stroke-linejoin="round"/>
<path d="M41.6901 61C41.1626 61.9092 40.4056 62.664 39.4947 63.1886C38.5839 63.7132 37.5512 63.9894 36.5001 63.9894C35.4489 63.9894 34.4162 63.7132 33.5054 63.1886C32.5945 62.664 31.8375 61.9092 31.3101 61" stroke="#ECECEC" stroke-width="1.5" stroke-linecap="round" stroke-linejoin="round"/>
</svg>
