<svg width="72" height="72" viewBox="0 0 72 72" fill="none" xmlns="http://www.w3.org/2000/svg">
<path d="M13.5 12C9.37564 12 6 15.3756 6 19.5V52.5C6 56.6244 9.37564 60 13.5 60H58.5C62.6244 60 66 56.6244 66 52.5V25.5C66 23.0325 63.9675 21 61.5 21H37.5C36.1255 21 34.8464 20.3155 34.084 19.1719L31.4121 15.1641C30.0953 13.1888 27.874 12 25.5 12H13.5Z" fill="#DEDEDE"/>
<path d="M22.5 12C24.874 12 27.0953 13.1888 28.4121 15.1641L31.084 19.1719C31.8464 20.3155 33.1255 21 34.5 21H37.5C36.1255 21 34.8464 20.3155 34.084 19.1719L31.4121 15.1641C30.0953 13.1888 27.874 12 25.5 12H22.5ZM58.5 21C60.9675 21 63 23.0325 63 25.5V52.5C63 56.6244 59.6244 60 55.5 60H58.5C62.6244 60 66 56.6244 66 52.5V25.5C66 23.0325 63.9675 21 61.5 21H58.5Z" fill="#1F1F1F"/>
<path d="M36 30C35.6022 30 35.2207 30.158 34.9394 30.4393C34.6581 30.7206 34.5 31.1022 34.5 31.5V45.8789L29.5606 40.9395C29.2793 40.6582 28.8978 40.5002 28.5 40.5002C28.1022 40.5002 27.7208 40.6582 27.4395 40.9395C27.1582 41.2207 27.0002 41.6022 27.0002 42C27.0002 42.3978 27.1582 42.7793 27.4395 43.0605L34.9395 50.5605C35.2208 50.8417 35.6023 50.9997 36 50.9997C36.3978 50.9997 36.7792 50.8417 37.0606 50.5605L44.5606 43.0605C44.8418 42.7793 44.9998 42.3978 44.9998 42C44.9998 41.6022 44.8418 41.2207 44.5606 40.9395C44.2793 40.6582 43.8978 40.5002 43.5 40.5002C43.1022 40.5002 42.7208 40.6582 42.4395 40.9395L37.5 45.8789V31.5C37.5 31.1022 37.342 30.7206 37.0607 30.4393C36.7794 30.158 36.3978 30 36 30Z" fill="white"/>
</svg>
