<svg width="20" height="20" viewBox="0 0 20 20" fill="none" xmlns="http://www.w3.org/2000/svg">
<g clip-path="url(#clip0_2730_35106)">
<path d="M14.791 10.6524V5.41699C14.791 4.72664 14.2314 4.16699 13.541 4.16699H4.79102C4.10066 4.16699 3.54102 4.72664 3.54102 5.41699V14.167C3.54102 14.8573 4.10066 15.417 4.79102 15.417H10.445" stroke="#1F1F1F" stroke-width="0.75" stroke-linecap="round" stroke-linejoin="round"/>
<path d="M11.666 2.91699V5.41699" stroke="#1F1F1F" stroke-width="0.75" stroke-linecap="round" stroke-linejoin="round"/>
<path d="M6.66602 2.91699V5.41699" stroke="#1F1F1F" stroke-linecap="round" stroke-linejoin="round"/>
<path d="M3.54102 7.91699H14.791" stroke="#1F1F1F" stroke-width="0.75" stroke-linecap="round" stroke-linejoin="round"/>
<path d="M14.5827 19.0277C16.8839 19.0277 18.7493 17.1622 18.7493 14.861C18.7493 12.5598 16.8839 10.6943 14.5827 10.6943C12.2815 10.6943 10.416 12.5598 10.416 14.861C10.416 17.1622 12.2815 19.0277 14.5827 19.0277Z" stroke="#FAFAFA" stroke-width="2" stroke-linecap="round" stroke-linejoin="round"/>
<path d="M14.5827 19.0277C16.8839 19.0277 18.7493 17.1622 18.7493 14.861C18.7493 12.5598 16.8839 10.6943 14.5827 10.6943C12.2815 10.6943 10.416 12.5598 10.416 14.861C10.416 17.1622 12.2815 19.0277 14.5827 19.0277Z" stroke="#1F1F1F" stroke-width="0.75" stroke-linecap="round" stroke-linejoin="round"/>
<path d="M12.916 14.8613L14.166 16.1113L16.666 13.6113" stroke="#1F1F1F" stroke-width="0.75" stroke-linecap="round" stroke-linejoin="round"/>
</g>
<defs>
<clipPath id="clip0_2730_35106">
<rect width="20" height="20" fill="white"/>
</clipPath>
</defs>
</svg>
