<svg width="20" height="20" viewBox="0 0 20 20" fill="none" xmlns="http://www.w3.org/2000/svg">
<path d="M15.416 9.16699C15.416 5.71521 12.6178 2.91699 9.16602 2.91699C5.71424 2.91699 2.91602 5.71521 2.91602 9.16699C2.91602 12.6188 5.71424 15.417 9.16602 15.417" stroke="#1F1F1F" stroke-width="0.75" stroke-linecap="round" stroke-linejoin="round"/>
<path d="M13.5827 18.1947C15.8839 18.1947 17.7493 16.3292 17.7493 14.028C17.7493 11.7268 15.8839 9.86133 13.5827 9.86133C11.2815 9.86133 9.41602 11.7268 9.41602 14.028C9.41602 16.3292 11.2815 18.1947 13.5827 18.1947Z" stroke="#FAFAFA" stroke-width="2" stroke-linecap="round" stroke-linejoin="round"/>
<path d="M13.5827 18.1947C15.8839 18.1947 17.7493 16.3292 17.7493 14.028C17.7493 11.7268 15.8839 9.86133 13.5827 9.86133C11.2815 9.86133 9.41602 11.7268 9.41602 14.028C9.41602 16.3292 11.2815 18.1947 13.5827 18.1947Z" stroke="#1F1F1F" stroke-width="0.75" stroke-linecap="round" stroke-linejoin="round"/>
<path d="M11.916 14.0283L13.166 15.2783L15.666 12.7783" stroke="#1F1F1F" stroke-width="0.75" stroke-linecap="round" stroke-linejoin="round"/>
<path d="M9.16797 5.14355V8.89355L6.66797 10.1436" stroke="#1F1F1F" stroke-width="0.75" stroke-linecap="round" stroke-linejoin="round"/>
</svg>
