<svg width="141" height="140" viewBox="0 0 141 140" fill="none" xmlns="http://www.w3.org/2000/svg">
<rect x="0.5" width="140" height="140" rx="70" fill="#FAFAFA"/>
<path d="M42.4678 41.3431H98.5322C100.161 41.3431 101.576 42.2604 102.287 43.6077V43.6087C102.601 44.2 102.778 44.873 102.778 45.5892V56.6448H38.2217V45.5892C38.2218 43.9604 39.1389 42.5448 40.4863 41.8343H40.4873C41.0785 41.5204 41.7517 41.3431 42.4678 41.3431Z" fill="white" stroke="#BBBBBB" stroke-width="0.2"/>
<path d="M40.44 41.7462V56.7445H38.1221V45.5895C38.1221 43.9221 39.0608 42.4734 40.44 41.7462Z" fill="#1F1F1F"/>
<path d="M50.0007 65.4106H57.4542C57.8542 65.4106 58.1786 65.7349 58.1786 66.1349V73.5884C58.1786 73.9884 57.8542 74.3128 57.4542 74.3128H50.0007C49.6007 74.3128 49.2764 73.9884 49.2764 73.5884V66.1349C49.2764 65.7349 49.6007 65.4106 50.0007 65.4106Z" fill="#E6E6E6"/>
<path d="M50.0007 76.4858H57.4542C57.8542 76.4858 58.1786 76.8102 58.1786 77.2102V84.6651C58.1786 85.0651 57.8542 85.3895 57.4542 85.3895H50.0007C49.6007 85.3895 49.2764 85.0651 49.2764 84.6651V77.2102C49.2764 76.8102 49.6007 76.4858 50.0007 76.4858Z" fill="#E6E6E6"/>
<path d="M50.0007 87.5625H57.4542C57.8542 87.5625 58.1786 87.8869 58.1786 88.2868V95.7404C58.1786 96.1403 57.8542 96.4647 57.4542 96.4647H50.0007C49.6007 96.4647 49.2764 96.1403 49.2764 95.7404V88.2868C49.2764 87.8869 49.6007 87.5625 50.0007 87.5625Z" fill="#E6E6E6"/>
<path d="M61.0769 65.4106H68.6898C69.0897 65.4106 69.4141 65.7349 69.4141 66.1349V73.5884C69.4141 73.9884 69.0897 74.3128 68.6898 74.3128H61.0769C60.6769 74.3128 60.3525 73.9884 60.3525 73.5884V66.1349C60.3525 65.7349 60.6769 65.4106 61.0769 65.4106Z" fill="#E6E6E6"/>
<path d="M61.0769 76.4858H68.6898C69.0897 76.4858 69.4141 76.8102 69.4141 77.2102V84.6651C69.4141 85.0651 69.0897 85.3895 68.6898 85.3895H61.0769C60.6769 85.3895 60.3525 85.0651 60.3525 84.6651V77.2102C60.3525 76.8102 60.6769 76.4858 61.0769 76.4858Z" fill="#E6E6E6"/>
<path d="M61.0769 87.5625H68.6898C69.0897 87.5625 69.4141 87.8869 69.4141 88.2868V95.7404C69.4141 96.1403 69.0897 96.4647 68.6898 96.4647H61.0769C60.6769 96.4647 60.3525 96.1403 60.3525 95.7404V88.2868C60.3525 87.8869 60.6769 87.5625 61.0769 87.5625Z" fill="#E6E6E6"/>
<path d="M72.3113 65.4106H79.9241C80.3241 65.4106 80.6485 65.7349 80.6485 66.1349V73.5884C80.6485 73.9884 80.3241 74.3128 79.9241 74.3128H72.3113C71.9113 74.3128 71.5869 73.9884 71.5869 73.5884V66.1349C71.5869 65.7349 71.9113 65.4106 72.3113 65.4106Z" fill="#E6E6E6"/>
<path d="M72.3113 76.4858H79.9241C80.3241 76.4858 80.6485 76.8102 80.6485 77.2102V84.6651C80.6485 85.0651 80.3241 85.3895 79.9241 85.3895H72.3113C71.9113 85.3895 71.5869 85.0651 71.5869 84.6651V77.2102C71.5869 76.8102 71.9113 76.4858 72.3113 76.4858Z" fill="#E6E6E6"/>
<path d="M72.3113 87.5625H79.9241C80.3241 87.5625 80.6485 87.8869 80.6485 88.2868V95.7404C80.6485 96.1403 80.3241 96.4647 79.9241 96.4647H72.3113C71.9113 96.4647 71.5869 96.1403 71.5869 95.7404V88.2868C71.5869 87.8869 71.9113 87.5625 72.3113 87.5625Z" fill="#E6E6E6"/>
<path d="M91.7235 66.1349V73.5884C91.7235 73.9884 91.3991 74.3128 90.9992 74.3128H83.5456C83.1457 74.3128 82.8213 73.9884 82.8213 73.5884V66.1349C82.8213 65.7349 83.1457 65.4106 83.5456 65.4106H90.9992C91.3991 65.4106 91.7235 65.7349 91.7235 66.1349Z" fill="#E6E6E6"/>
<path d="M83.5456 76.4858H90.9992C91.3991 76.4858 91.7235 76.8102 91.7235 77.2102V84.6651C91.7235 85.0651 91.3991 85.3895 90.9992 85.3895H83.5456C83.1457 85.3895 82.8213 85.0651 82.8213 84.6651V77.2102C82.8213 76.8102 83.1457 76.4858 83.5456 76.4858Z" fill="#E6E6E6"/>
<path d="M83.5456 87.5625H90.9992C91.3991 87.5625 91.7235 87.8869 91.7235 88.2868V95.7404C91.7235 96.1403 91.3991 96.4647 90.9992 96.4647H83.5456C83.1457 96.4647 82.8213 96.1403 82.8213 95.7404V88.2868C82.8213 87.8869 83.1457 87.5625 83.5456 87.5625Z" fill="#E6E6E6"/>
<path d="M102.778 55.83V101.654C102.778 103.999 100.877 105.9 98.5322 105.9H42.4678C40.1228 105.9 38.2218 103.999 38.2217 101.654V55.83H102.778Z" fill="white" stroke="#BBBBBB" stroke-width="0.2"/>
<path d="M55.5062 35.4487V47.0382C55.5062 47.8379 54.8571 48.4869 54.0575 48.4869H49.7114C48.9117 48.4869 48.2627 47.8379 48.2627 47.0382V35.4487C48.2627 34.649 48.9117 34 49.7114 34H54.0575C54.8571 34 55.5062 34.649 55.5062 35.4487Z" fill="#E6E6E6"/>
<path d="M49.2764 65.4106H58.1786V74.3128H49.2764V65.4106Z" fill="#BBBBBB"/>
<path d="M82.8213 65.4106H91.7235V74.3128H82.8213V65.4106Z" fill="#BBBBBB"/>
<path d="M60.3516 65.4106H69.4131V74.3128H60.3516V65.4106Z" fill="#BBBBBB"/>
<path d="M49.2764 76.4858H58.1786V85.3894H49.2764V76.4858Z" fill="#BBBBBB"/>
<path d="M82.8213 76.4858H91.7235V85.3894H82.8213V76.4858Z" fill="#E6E6E6"/>
<path d="M60.3516 76.4858H69.4131V85.3894H60.3516V76.4858Z" fill="#BBBBBB"/>
<path d="M49.2764 87.5625H58.1786V96.4647H49.2764V87.5625Z" fill="#E6E6E6"/>
<path d="M82.8213 87.5625H91.7235V96.4647H82.8213V87.5625Z" fill="#E6E6E6"/>
<path d="M60.3516 87.5625H69.4131V96.4647H60.3516V87.5625Z" fill="#E6E6E6"/>
<path d="M71.5869 65.4106H80.6485V74.3128H71.5869V65.4106Z" fill="#BBBBBB"/>
<path d="M71.5869 76.4858H80.6485V85.3894H71.5869V76.4858Z" fill="#BBBBBB"/>
<path d="M71.5869 87.5625H80.6485V96.4647H71.5869V87.5625Z" fill="#E6E6E6"/>
<path d="M92.7376 35.4487V47.0382C92.7376 47.8379 92.0886 48.4869 91.2889 48.4869H86.9428C86.1432 48.4869 85.4941 47.8379 85.4941 47.0382V35.4487C85.4941 34.649 86.1432 34 86.9428 34H91.2889C92.0886 34 92.7376 34.649 92.7376 35.4487Z" fill="#E6E6E6"/>
<path d="M38.1221 55.7304V101.654C38.1221 104.054 40.0677 106 42.4681 106H44.0733C42.0466 105.632 40.5124 103.859 40.5124 101.726V58.8045C40.6761 58.3627 41.1006 58.0483 41.5989 58.0483H102.879V55.8028V55.7304H38.1221Z" fill="#ECECEC"/>
<path d="M38.1221 55.7304V101.654C38.1221 104.054 40.0677 106 42.4681 106H44.0733C42.0466 105.632 40.5124 103.859 40.5124 101.726V58.8045C40.6761 58.3627 41.1006 58.0483 41.5989 58.0483H102.879V55.8028V55.7304H38.1221Z" fill="#1F1F1F"/>
<path d="M52.0293 48.4869H49.7114C48.9117 48.4869 48.2627 47.8379 48.2627 47.0382V35.4487C48.2627 34.649 48.9117 34 49.7114 34H50.5806V47.0382C50.5806 47.8379 51.2296 48.4869 52.0293 48.4869Z" fill="#1F1F1F"/>
<path d="M89.2607 48.4869H86.9428C86.1432 48.4869 85.4941 47.8379 85.4941 47.0382V35.4487C85.4941 34.649 86.1432 34 86.9428 34H87.812V47.0382C87.812 47.8379 88.4611 48.4869 89.2607 48.4869Z" fill="#1F1F1F"/>
</svg>
