<svg width="12" height="18" viewBox="0 0 12 18" fill="none" xmlns="http://www.w3.org/2000/svg">
<path d="M6 11.4062C4.4375 11.4062 3.39062 10.2422 3.39062 8.57812V3.35156C3.39062 1.67969 4.4375 0.523438 6 0.523438C7.55469 0.523438 8.60156 1.67969 8.60156 3.35156V8.57812C8.60156 10.2422 7.55469 11.4062 6 11.4062ZM0.40625 8.70312V7.11719C0.40625 6.78906 0.664062 6.53125 0.992188 6.53125C1.32812 6.53125 1.58594 6.78906 1.58594 7.11719V8.65625C1.58594 11.3203 3.32031 13.0859 6 13.0859C8.67188 13.0859 10.4062 11.3203 10.4062 8.65625V7.11719C10.4062 6.78906 10.6719 6.53125 11 6.53125C11.3281 6.53125 11.5859 6.78906 11.5859 7.11719V8.70312C11.5859 11.7656 9.57031 13.9141 6.58594 14.1641V15.9844H9.48438C9.8125 15.9844 10.0781 16.25 10.0781 16.5781C10.0781 16.9062 9.8125 17.1641 9.48438 17.1641H2.50781C2.17969 17.1641 1.91406 16.9062 1.91406 16.5781C1.91406 16.25 2.17969 15.9844 2.50781 15.9844H5.40625V14.1641C2.42969 13.9141 0.40625 11.7656 0.40625 8.70312Z" fill="#BBBBBB"/>
</svg>