<svg width="26" height="27" viewBox="0 0 26 27" fill="none" xmlns="http://www.w3.org/2000/svg">
<path d="M24 3.00024V19.0003H16V26.9999H0.000188528L0.0001875 19.0002L0 19.0003V11.0001H8.00001V3.00024H24Z" fill="#9DD6E3"/>
<path d="M0 26.9998H8.00001V18.9998H0V26.9998Z" fill="#3F72AB"/>
<path d="M16 19.0002H24V11H16V19.0002Z" fill="#00A9D1"/>
<path d="M8 11.0003H16V3.00024H8V11.0003Z" fill="#00A9D1"/>
<path d="M8 19H16V11H8V19Z" fill="#2191C4"/>
<path d="M16 11.0003H24V3.00024H16V11.0003Z" fill="#3F72AB"/>
<path d="M26.4999 3.9947L26.5001 3.99471L26.5 3.98102C26.4894 3.02396 26.1289 2.19517 25.4367 1.52014C24.7565 0.847967 23.9367 0.500244 23.0001 0.500244C22.0405 0.500244 21.2053 0.844901 20.5213 1.52148C19.8366 2.19873 19.4909 3.02983 19.5002 3.9866C19.491 4.95822 19.8342 5.79939 20.5213 6.47901C21.2053 7.15559 22.0405 7.50024 23.0001 7.50024C23.6231 7.50024 24.2028 7.34522 24.7283 7.03276L24.7283 7.03277L24.7309 7.03121C25.2548 6.7154 25.6765 6.29207 25.991 5.7666C26.3207 5.2312 26.4895 4.6369 26.4999 3.9947Z" fill="#66BB6A" stroke="#FAFAFA"/>
</svg>