<svg width="36" height="32" viewBox="0 0 36 32" fill="none" xmlns="http://www.w3.org/2000/svg">
<rect x="0.5" y="0.5" width="35" height="31" rx="5.5" fill="white"/>
<rect x="0.5" y="0.5" width="35" height="31" rx="5.5" stroke="#389F7F"/>
<g clip-path="url(#clip0_4716_21550)">
<path d="M18 18C19.1046 18 20 17.1046 20 16C20 14.8954 19.1046 14 18 14C16.8954 14 16 14.8954 16 16C16 17.1046 16.8954 18 18 18Z" stroke="#389F7F" stroke-linecap="round" stroke-linejoin="round"/>
<path d="M22.9332 18C22.8444 18.201 22.818 18.4241 22.8572 18.6404C22.8964 18.8566 22.9995 19.0562 23.1532 19.2133L23.1932 19.2533C23.3171 19.3771 23.4155 19.5242 23.4826 19.686C23.5497 19.8479 23.5842 20.0214 23.5842 20.1966C23.5842 20.3718 23.5497 20.5453 23.4826 20.7072C23.4155 20.8691 23.3171 21.0161 23.1932 21.14C23.0693 21.2639 22.9223 21.3623 22.7604 21.4294C22.5986 21.4965 22.4251 21.531 22.2498 21.531C22.0746 21.531 21.9011 21.4965 21.7392 21.4294C21.5774 21.3623 21.4303 21.2639 21.3065 21.14L21.2665 21.1C21.1094 20.9463 20.9098 20.8432 20.6936 20.804C20.4773 20.7647 20.2542 20.7912 20.0532 20.88C19.856 20.9645 19.6878 21.1048 19.5694 21.2836C19.4509 21.4625 19.3874 21.6721 19.3865 21.8866V22C19.3865 22.3536 19.246 22.6927 18.996 22.9428C18.7459 23.1928 18.4068 23.3333 18.0532 23.3333C17.6995 23.3333 17.3604 23.1928 17.1104 22.9428C16.8603 22.6927 16.7198 22.3536 16.7198 22V21.94C16.7147 21.7193 16.6432 21.5053 16.5148 21.3258C16.3864 21.1462 16.207 21.0095 15.9998 20.9333C15.7988 20.8445 15.5757 20.8181 15.3594 20.8573C15.1432 20.8965 14.9436 20.9996 14.7865 21.1533L14.7465 21.1933C14.6227 21.3173 14.4756 21.4156 14.3138 21.4827C14.1519 21.5498 13.9784 21.5843 13.8032 21.5843C13.6279 21.5843 13.4544 21.5498 13.2926 21.4827C13.1307 21.4156 12.9837 21.3173 12.8598 21.1933C12.7359 21.0695 12.6375 20.9224 12.5704 20.7605C12.5033 20.5987 12.4688 20.4252 12.4688 20.25C12.4688 20.0747 12.5033 19.9012 12.5704 19.7394C12.6375 19.5775 12.7359 19.4305 12.8598 19.3066L12.8998 19.2666C13.0535 19.1095 13.1566 18.9099 13.1958 18.6937C13.2351 18.4774 13.2086 18.2544 13.1198 18.0533C13.0353 17.8561 12.895 17.6879 12.7161 17.5695C12.5373 17.451 12.3277 17.3875 12.1132 17.3866H11.9998C11.6462 17.3866 11.3071 17.2461 11.057 16.9961C10.807 16.7461 10.6665 16.4069 10.6665 16.0533C10.6665 15.6997 10.807 15.3605 11.057 15.1105C11.3071 14.8604 11.6462 14.72 11.9998 14.72H12.0598C12.2805 14.7148 12.4945 14.6434 12.674 14.515C12.8536 14.3866 12.9903 14.2071 13.0665 14C13.1552 13.7989 13.1817 13.5758 13.1425 13.3596C13.1033 13.1433 13.0002 12.9437 12.8465 12.7866L12.8065 12.7466C12.6825 12.6228 12.5842 12.4757 12.5171 12.3139C12.45 12.152 12.4155 11.9785 12.4155 11.8033C12.4155 11.6281 12.45 11.4546 12.5171 11.2927C12.5842 11.1308 12.6825 10.9838 12.8065 10.86C12.9303 10.736 13.0774 10.6376 13.2393 10.5705C13.4011 10.5034 13.5746 10.4689 13.7498 10.4689C13.9251 10.4689 14.0986 10.5034 14.2604 10.5705C14.4223 10.6376 14.5693 10.736 14.6932 10.86L14.7332 10.9C14.8903 11.0537 15.0898 11.1567 15.3061 11.196C15.5224 11.2352 15.7454 11.2087 15.9465 11.12H15.9998C16.197 11.0355 16.3652 10.8951 16.4836 10.7163C16.6021 10.5374 16.6656 10.3278 16.6665 10.1133V9.99996C16.6665 9.64634 16.807 9.3072 17.057 9.05715C17.3071 8.8071 17.6462 8.66663 17.9998 8.66663C18.3535 8.66663 18.6926 8.8071 18.9426 9.05715C19.1927 9.3072 19.3332 9.64634 19.3332 9.99996V10.06C19.334 10.2745 19.3976 10.4841 19.516 10.6629C19.6345 10.8418 19.8027 10.9821 19.9998 11.0666C20.2009 11.1554 20.424 11.1818 20.6402 11.1426C20.8565 11.1034 21.0561 11.0003 21.2132 10.8466L21.2532 10.8066C21.377 10.6827 21.5241 10.5843 21.6859 10.5172C21.8478 10.4501 22.0213 10.4156 22.1965 10.4156C22.3717 10.4156 22.5452 10.4501 22.7071 10.5172C22.869 10.5843 23.016 10.6827 23.1398 10.8066C23.2638 10.9305 23.3622 11.0775 23.4292 11.2394C23.4963 11.4012 23.5309 11.5747 23.5309 11.75C23.5309 11.9252 23.4963 12.0987 23.4292 12.2605C23.3622 12.4224 23.2638 12.5695 23.1398 12.6933L23.0998 12.7333C22.9461 12.8904 22.843 13.09 22.8038 13.3062C22.7646 13.5225 22.7911 13.7455 22.8798 13.9466V14C22.9643 14.1971 23.1047 14.3653 23.2835 14.4838C23.4624 14.6022 23.672 14.6658 23.8865 14.6666H23.9998C24.3535 14.6666 24.6926 14.8071 24.9426 15.0572C25.1927 15.3072 25.3332 15.6463 25.3332 16C25.3332 16.3536 25.1927 16.6927 24.9426 16.9428C24.6926 17.1928 24.3535 17.3333 23.9998 17.3333H23.9398C23.7253 17.3341 23.5157 17.3977 23.3369 17.5162C23.158 17.6346 23.0177 17.8028 22.9332 18Z" stroke="#389F7F" stroke-linecap="round" stroke-linejoin="round"/>
</g>
<defs>
<clipPath id="clip0_4716_21550">
<rect width="16" height="16" fill="white" transform="translate(10 8)"/>
</clipPath>
</defs>
</svg>