<svg width="24" height="24" viewBox="0 0 24 24" fill="none" xmlns="http://www.w3.org/2000/svg">
<path d="M20.4844 12.569H18.1351C17.8154 12.569 17.5058 12.6127 17.2112 12.693C16.63 11.5506 15.4435 10.7656 14.0763 10.7656H9.92367C8.55647 10.7656 7.36997 11.5506 6.78881 12.693C6.4942 12.6127 6.18464 12.569 5.86491 12.569H3.51562C1.57711 12.569 0 14.1461 0 16.0846V19.8402C0 21.0033 0.946266 21.9495 2.10938 21.9495H21.8906C23.0537 21.9495 24 21.0033 24 19.8402V16.0846C24 14.1461 22.4229 12.569 20.4844 12.569ZM6.40805 14.2813V20.5433H2.10938C1.72167 20.5433 1.40625 20.2279 1.40625 19.8402V16.0847C1.40625 14.9216 2.35252 13.9753 3.51562 13.9753H5.86491C6.05578 13.9753 6.24061 14.0012 6.41658 14.049C6.41152 14.1259 6.40805 14.2033 6.40805 14.2813ZM16.1857 20.5433H7.8143V14.2813C7.8143 13.1182 8.76056 12.1719 9.92367 12.1719H14.0763C15.2394 12.1719 16.1857 13.1182 16.1857 14.2813V20.5433ZM22.5938 19.8402C22.5938 20.2279 22.2783 20.5433 21.8906 20.5433H17.592V14.2813C17.592 14.2032 17.5885 14.1258 17.5834 14.0489C17.7594 14.0012 17.9442 13.9753 18.1351 13.9753H20.4844C21.6475 13.9753 22.5938 14.9215 22.5938 16.0846V19.8402Z" fill="#1F1F1F"/>
<path d="M4.69032 5.92969C2.96771 5.92969 1.56628 7.33111 1.56628 9.05372C1.56624 10.7763 2.96771 12.1777 4.69032 12.1777C6.41288 12.1777 7.81435 10.7763 7.81435 9.05372C7.81435 7.33111 6.41292 5.92969 4.69032 5.92969ZM4.69027 10.7715C3.74307 10.7715 2.97249 10.0009 2.97249 9.05372C2.97249 8.10652 3.74307 7.33594 4.69027 7.33594C5.63747 7.33594 6.40805 8.10652 6.40805 9.05372C6.40805 10.0009 5.63747 10.7715 4.69027 10.7715Z" fill="#1F1F1F"/>
<path d="M11.9999 2.04883C9.69857 2.04883 7.82629 3.92111 7.82629 6.22248C7.82629 8.52386 9.69857 10.3961 11.9999 10.3961C14.3013 10.3961 16.1736 8.52386 16.1736 6.22248C16.1736 3.92116 14.3013 2.04883 11.9999 2.04883ZM11.9999 8.98989C10.474 8.98989 9.23254 7.74845 9.23254 6.22248C9.23254 4.69656 10.474 3.45508 11.9999 3.45508C13.5259 3.45508 14.7674 4.69652 14.7674 6.22248C14.7674 7.74845 13.5259 8.98989 11.9999 8.98989Z" fill="#1F1F1F"/>
<path d="M19.3097 5.92969C17.5871 5.92969 16.1857 7.33111 16.1857 9.05372C16.1857 10.7763 17.5871 12.1777 19.3097 12.1777C21.0323 12.1777 22.4337 10.7763 22.4337 9.05372C22.4337 7.33111 21.0323 5.92969 19.3097 5.92969ZM19.3097 10.7715C18.3625 10.7715 17.5919 10.0009 17.5919 9.05372C17.592 8.10652 18.3625 7.33594 19.3097 7.33594C20.2569 7.33594 21.0275 8.10652 21.0275 9.05372C21.0275 10.0009 20.2569 10.7715 19.3097 10.7715Z" fill="#1F1F1F"/>
</svg>
