<svg width="36" height="36" viewBox="0 0 36 36" fill="none" xmlns="http://www.w3.org/2000/svg">
<g filter="url(#filter0_d_612_20941)">
<circle cx="18" cy="17" r="16" fill="white"/>
</g>
<path opacity="0.4" fill-rule="evenodd" clip-rule="evenodd" d="M25.3245 24C25.7877 24 26.1827 23.8333 26.5096 23.5C26.8365 23.1667 27 22.7733 27 22.32V12.32C27 11.8667 26.8365 11.4733 26.5096 11.14C26.1827 10.8067 25.7877 10.64 25.3245 10.64H22.607L21.0541 9H15.9459L14.393 10.64H11.6755C11.2123 10.64 10.8173 10.8067 10.4904 11.14C10.1635 11.4733 10 11.8667 10 12.32V22.32C10 22.7733 10.1635 23.1667 10.4904 23.5C10.8173 23.8333 11.2123 24 11.6755 24H25.3245ZM18.5 21.5C17.7236 21.5 17.0084 21.3133 16.3546 20.94C15.7007 20.5667 15.1831 20.06 14.8017 19.42C14.4203 18.78 14.2296 18.08 14.2296 17.32C14.2296 16.56 14.4203 15.86 14.8017 15.22C15.1831 14.58 15.7007 14.0733 16.3546 13.7C17.0084 13.3267 17.7236 13.14 18.5 13.14C19.2764 13.14 19.9916 13.3267 20.6454 13.7C21.2993 14.0733 21.8169 14.58 22.1983 15.22C22.5797 15.86 22.7704 16.56 22.7704 17.32C22.7704 18.08 22.5797 18.78 22.1983 19.42C21.8169 20.06 21.2993 20.5667 20.6454 20.94C19.9916 21.3133 19.2764 21.5 18.5 21.5ZM19.8588 19.62C19.4433 19.86 18.9904 19.98 18.5 19.98C18.0096 19.98 17.5567 19.86 17.1412 19.62C16.7258 19.38 16.3954 19.0567 16.1502 18.65C15.905 18.2433 15.7825 17.8 15.7825 17.32C15.7825 16.84 15.905 16.3967 16.1502 15.99C16.3954 15.5833 16.7258 15.26 17.1412 15.02C17.5567 14.78 18.0096 14.66 18.5 14.66C18.9904 14.66 19.4433 14.78 19.8588 15.02C20.2742 15.26 20.6046 15.5833 20.8498 15.99C21.095 16.3967 21.2175 16.84 21.2175 17.32C21.2175 17.8 21.095 18.2433 20.8498 18.65C20.6046 19.0567 20.2742 19.38 19.8588 19.62Z" fill="#1F1F1F"/>
<defs>
<filter id="filter0_d_612_20941" x="0" y="0" width="36" height="36" filterUnits="userSpaceOnUse" color-interpolation-filters="sRGB">
<feFlood flood-opacity="0" result="BackgroundImageFix"/>
<feColorMatrix in="SourceAlpha" type="matrix" values="0 0 0 0 0 0 0 0 0 0 0 0 0 0 0 0 0 0 127 0" result="hardAlpha"/>
<feOffset dy="1"/>
<feGaussianBlur stdDeviation="1"/>
<feColorMatrix type="matrix" values="0 0 0 0 0.113725 0 0 0 0 0.145098 0 0 0 0 0.176471 0 0 0 0.1 0"/>
<feBlend mode="normal" in2="BackgroundImageFix" result="effect1_dropShadow_612_20941"/>
<feBlend mode="normal" in="SourceGraphic" in2="effect1_dropShadow_612_20941" result="shape"/>
</filter>
</defs>
</svg>
