<svg width="64" height="64" viewBox="0 0 64 64" fill="none" xmlns="http://www.w3.org/2000/svg">
<path d="M31.8454 49.7342C31.8454 53.1652 33.1018 56.3084 35.1809 58.7273C33.2059 59.0989 31.1673 59.2927 29.0853 59.2927C20.5852 59.2927 12.8369 56.0684 7 50.7752V50.7564C7 41.9527 12.1515 34.3533 19.6034 30.8066C22.404 33.6 25.6832 35.1051 29.0853 35.1051C32.4888 35.1051 35.7665 33.6 38.5686 30.8066C41.1841 32.0515 43.5162 33.7952 45.4407 35.9163C37.9223 36.0364 31.8454 42.1883 31.8454 49.7342Z" fill="#C2EFFF"/>
<path d="M29.0851 3C35.8314 3 41.301 8.46818 41.301 15.2145C41.301 21.9622 35.8314 31.1896 29.0851 31.1896C22.3388 31.1896 16.8691 21.9622 16.8691 15.2145C16.8691 8.46818 22.3388 3 29.0851 3Z" fill="#FAE9D7"/>
<path d="M45.6662 61.5291C52.1814 61.5291 57.463 56.2475 57.463 49.7323C57.463 43.2171 52.1814 37.9355 45.6662 37.9355C39.151 37.9355 33.8694 43.2171 33.8694 49.7323C33.8694 56.2475 39.151 61.5291 45.6662 61.5291Z" fill="#FB9F91"/>
<path d="M53.8221 48.6484H37.5098V50.8172H53.8221V48.6484Z" fill="white"/>
<path d="M46.7503 41.5762H44.5815V57.8885H46.7503V41.5762Z" fill="white"/>
</svg>
