<svg width="32" height="32" viewBox="0 0 32 32" fill="none" xmlns="http://www.w3.org/2000/svg">
<path d="M12 3H6C4.34315 3 3 4.34315 3 6V12C3 13.6569 4.34315 15 6 15H12C13.6569 15 15 13.6569 15 12V6C15 4.34315 13.6569 3 12 3Z" fill="#389F7F"/>
<path d="M26 3H20C18.3431 3 17 4.34315 17 6V12C17 13.6569 18.3431 15 20 15H26C27.6569 15 29 13.6569 29 12V6C29 4.34315 27.6569 3 26 3Z" fill="#389F7F"/>
<path d="M12 17H6C4.34315 17 3 18.3431 3 20V26C3 27.6569 4.34315 29 6 29H12C13.6569 29 15 27.6569 15 26V20C15 18.3431 13.6569 17 12 17Z" fill="#389F7F"/>
<path d="M23 29C26.3137 29 29 26.3137 29 23C29 19.6863 26.3137 17 23 17C19.6863 17 17 19.6863 17 23C17 26.3137 19.6863 29 23 29Z" fill="#66BB6A"/>
</svg>
