<svg width="30" height="28" viewBox="0 0 30 28" fill="none" xmlns="http://www.w3.org/2000/svg">
<path d="M8.93326 11.5445H4.39551C4.11377 11.5445 3.88535 11.7729 3.88535 12.0547C3.88535 12.3365 4.11377 12.5648 4.39551 12.5648H8.93326C9.21499 12.5648 9.44341 12.3365 9.44341 12.0547C9.44341 11.7729 9.21499 11.5445 8.93326 11.5445Z" fill="#1F1F1F" stroke="#1F1F1F" stroke-width="0.2"/>
<path d="M8.93326 9.50547H4.39551C4.11377 9.50547 3.88535 9.73382 3.88535 10.0156C3.88535 10.2974 4.11377 10.5258 4.39551 10.5258H8.93326C9.21499 10.5258 9.44341 10.2974 9.44341 10.0156C9.44341 9.73382 9.21499 9.50547 8.93326 9.50547Z" fill="#1F1F1F" stroke="#1F1F1F" stroke-width="0.2"/>
<path d="M25.0755 14.6697C24.8565 14.5611 24.628 14.4665 24.3968 14.3884M25.0755 14.6697C25.1404 14.7018 25.2185 14.6889 25.27 14.6374C25.6563 14.2511 26.2843 14.2513 26.6703 14.6372L24.3968 14.3884M25.0755 14.6697L25.1199 14.5801C25.1199 14.5801 25.1199 14.5801 25.12 14.5801M25.0755 14.6697L25.12 14.5801M24.3968 14.3884C24.3287 14.3654 24.283 14.3011 24.283 14.2283C24.283 13.6825 23.8388 13.2383 23.2929 13.2383H21.976C21.4301 13.2383 20.986 13.6825 20.986 14.2283C20.986 14.3011 20.9402 14.3654 20.8723 14.3884L24.3968 14.3884ZM25.12 14.5801C25.1461 14.593 25.178 14.588 25.1993 14.5667C25.6246 14.1414 26.3159 14.1415 26.741 14.5665L26.741 14.5665L27.6723 15.4976L27.6723 15.4977C28.0973 15.9228 28.0973 16.6142 27.6723 17.0393L27.6016 16.9686M25.12 14.5801L27.6016 16.9686M27.6016 16.9686C27.5499 17.0203 27.537 17.0984 27.5691 17.1633M27.6016 16.9686L27.8504 21.3664C27.8734 21.2985 27.9377 21.2527 28.0104 21.2527C28.5563 21.2527 29.0005 20.8086 29.0005 20.2627V18.9458C29.0005 18.3999 28.5563 17.9557 28.0104 17.9557C27.9376 17.9557 27.8734 17.91 27.8504 17.8421M27.6016 16.9686L27.6723 17.0393C27.6507 17.0608 27.6458 17.0927 27.6587 17.1189M27.6016 16.9686L27.6587 17.1189M27.5691 17.1633C27.6776 17.3823 27.7723 17.6107 27.8504 17.8421M27.5691 17.1633L27.6587 17.119C27.6587 17.119 27.6587 17.1189 27.6587 17.1189M27.5691 17.1633L27.6587 17.1189M27.8504 17.8421L27.9451 17.8101C27.9451 17.8101 27.9451 17.8101 27.9451 17.8101M27.8504 17.8421L27.9451 17.8101M27.9451 17.8101C27.9541 17.8367 27.9798 17.8557 28.0104 17.8557C28.6115 17.8557 29.1005 18.3446 29.1005 18.9458V20.2627C29.1005 20.8638 28.6115 21.3527 28.0104 21.3527C27.9798 21.3527 27.9541 21.3718 27.9451 21.3984C27.8655 21.634 27.7692 21.8665 27.6587 22.0896L27.6587 22.0896C27.6457 22.1157 27.6507 22.1477 27.6721 22.169M27.9451 17.8101L27.6721 22.169M27.6721 22.169C28.0984 22.5952 28.0981 23.2849 27.6722 23.7107C27.6722 23.7107 27.6722 23.7107 27.6722 23.7107L26.7411 24.6419C26.315 25.068 25.6255 25.0678 25.1995 24.6419C25.1778 24.6202 25.1459 24.6154 25.1201 24.6282L25.12 24.6283C24.8968 24.7389 24.6643 24.8352 24.4288 24.9147L24.4287 24.9148C24.4021 24.9237 24.383 24.9494 24.383 24.9801C24.383 25.5812 23.8941 26.0701 23.2929 26.0701H21.976C21.3749 26.0701 20.886 25.5812 20.886 24.9801L27.6721 22.169ZM28.0801 20.2654C28.0786 20.3025 28.0478 20.3324 28.0104 20.3324C27.5427 20.3324 27.1278 20.6295 26.9784 21.0719L26.9784 21.0719C26.9135 21.2643 26.8347 21.4543 26.7444 21.6365L26.7444 21.6365C26.5368 22.0556 26.6197 22.5594 26.9508 22.8906L26.9508 22.8906C26.978 22.9178 26.978 22.9619 26.9508 22.9892L26.0196 23.9204L28.0801 20.2654ZM28.0801 20.2654V20.2626V18.9457C28.0801 18.9074 28.0487 18.876 28.0103 18.876C27.5427 18.876 27.1278 18.5789 26.9784 18.1364L26.9784 18.1364C26.9134 17.944 26.8347 17.754 26.7444 17.5719L26.7444 17.5719C26.5368 17.1527 26.6197 16.6488 26.9506 16.3179M28.0801 20.2654L27.0213 16.3887M26.9506 16.3179L27.0213 16.3887M26.9506 16.3179C26.9506 16.318 26.9506 16.318 26.9506 16.318L27.0213 16.3887M26.9506 16.3179C26.9779 16.2906 26.9778 16.2462 26.9507 16.219M27.0213 16.3887C27.0876 16.3223 27.0876 16.2146 27.0214 16.1484M26.9507 16.219L26.9507 16.2191L27.0214 16.1484M26.9507 16.219L27.0214 16.1484M26.9507 16.219L26.0196 15.288L26.0195 15.2879C25.9924 15.2608 25.948 15.2608 25.9209 15.2879L25.9209 15.288C25.5899 15.619 25.0859 15.7019 24.6669 15.4943L24.6669 15.4943C24.4846 15.404 24.2947 15.3253 24.1023 15.2604L24.1023 15.2604C23.6598 15.1108 23.3627 14.696 23.3627 14.2283C23.3627 14.19 23.3313 14.1586 23.2929 14.1586H21.976C21.9377 14.1586 21.9063 14.19 21.9063 14.2283C21.9063 14.696 21.6092 15.1109 21.1668 15.2603L21.1668 15.2603C20.9743 15.3253 20.7844 15.404 20.6022 15.4943C20.1831 15.702 19.6792 15.619 19.3483 15.2881C19.321 15.2608 19.2766 15.2609 19.2495 15.288L18.3183 16.2191C18.2912 16.2462 18.2912 16.2907 18.3183 16.3179C18.6493 16.6488 18.7322 17.1527 18.5246 17.5718L18.5246 17.5718C18.4343 17.754 18.3556 17.944 18.2907 18.1364L18.2906 18.1364C18.1411 18.5789 17.7263 18.876 17.2587 18.876C17.2203 18.876 17.1889 18.9074 17.1889 18.9457V20.2626C17.1889 20.301 17.2203 20.3324 17.2587 20.3324C17.7263 20.3324 18.1413 20.6294 18.2907 21.0719L18.2907 21.0719C18.3556 21.2643 18.4343 21.4543 18.5247 21.6366C18.5247 21.6366 18.5247 21.6366 18.5247 21.6366L18.4351 21.681L27.0214 16.1484M24.667 23.714C25.0858 23.5063 25.5898 23.5892 25.9207 23.9202C25.9207 23.9202 25.9207 23.9202 25.9207 23.9202L24.667 23.714ZM24.667 23.714C24.4847 23.8043 24.2947 23.883 24.1023 23.948L24.667 23.714ZM17.6103 17.1188C17.4998 17.3419 17.4035 17.5745 17.3239 17.8099L17.3239 17.8099C17.3149 17.8366 17.2892 17.8557 17.2586 17.8557C16.6575 17.8557 16.1686 18.3446 16.1686 18.9457V20.2626C16.1686 20.8637 16.6575 21.3527 17.2586 21.3527C17.2892 21.3527 17.3149 21.3718 17.3239 21.3984L17.6103 17.1188ZM20.1492 24.6284C20.3722 24.7388 20.6047 24.8352 20.8402 24.9147L17.3239 21.3984C17.4034 21.6339 17.4998 21.8664 17.6103 22.0895L17.6104 22.0896C17.6233 22.1156 17.6183 22.1475 17.5968 22.1691C17.1708 22.595 17.1707 23.2847 17.5968 23.7107L18.528 24.6418C18.528 24.6418 18.528 24.6418 18.528 24.6418C18.9539 25.0678 19.6434 25.068 20.0697 24.6417C20.0911 24.6203 20.123 24.6153 20.149 24.6283L20.1492 24.6284ZM18.3184 22.9892C18.2913 22.9622 18.2908 22.9181 18.3186 22.8903L21.1348 24.0428L21.1668 23.948C21.1668 23.948 21.1668 23.948 21.1668 23.948C20.9744 23.883 20.7844 23.8043 20.6023 23.7141C20.4485 23.6378 20.2831 23.6007 20.119 23.6007C19.8365 23.6007 19.5577 23.7109 19.3482 23.9204C19.321 23.9475 19.2769 23.9477 19.2496 23.9204L19.2496 23.9203L18.3184 22.9892Z" fill="#1F1F1F" stroke="#1F1F1F" stroke-width="0.2"/>
<path d="M22.634 16.7066C21.0359 16.7066 19.7359 18.0066 19.7359 19.6047C19.7359 21.2027 21.0359 22.5027 22.634 22.5027C24.232 22.5027 25.532 21.2027 25.532 19.6047C25.532 18.0066 24.232 16.7066 22.634 16.7066ZM22.634 21.4824C21.5987 21.4824 20.7563 20.6399 20.7563 19.6047C20.7563 18.5694 21.5987 17.727 22.634 17.727C23.6693 17.727 24.5117 18.5694 24.5117 19.6047C24.5117 20.6399 23.6693 21.4824 22.634 21.4824Z" fill="#1F1F1F" stroke="#1F1F1F" stroke-width="0.2"/>
<path d="M15.9757 22.8912H15.9757L2.87775 22.8956H2.87774H2.87771H2.87769H2.87768H2.87766H2.87765H2.87763H2.87762H2.8776H2.87759H2.87757H2.87756H2.87754H2.87753H2.87751H2.8775H2.87748H2.87747H2.87746H2.87744H2.87743C2.34852 22.8956 1.92037 22.4676 1.92037 21.9384V8.42331C1.92037 7.89567 2.34979 7.4662 2.87748 7.4662H15.4972C16.269 7.4662 16.9747 7.01281 17.2956 6.3109L18.5762 3.50976C18.7314 3.17029 19.0732 2.95064 19.4465 2.95059L25.2609 2.94961H25.2611C25.7899 2.94961 26.2181 3.37752 26.2181 3.90667L26.2191 13.1854C26.2191 13.4672 26.4475 13.6955 26.7293 13.6955C27.011 13.6955 27.2394 13.4671 27.2394 13.1853L27.2384 3.90654C27.2383 2.81398 26.3542 1.9293 25.2611 1.9293H25.2611H25.261H25.261H25.261H25.261H25.261H25.261H25.2609H25.2609H25.2609H25.2609H25.2609H25.2609H25.2609H25.2608H25.2608H25.2608H25.2608H25.2608H25.2608H25.2607H25.2607H25.2607H25.2607H25.2607L19.4463 1.93028C18.6747 1.93045 17.9691 2.38378 17.6482 3.08557L17.4571 3.50346L2.878 3.49948H2.87797H2.87797H2.87797H2.87797H2.87796H2.87796H2.87796H2.87796H2.87796H2.87796H2.87796H2.87796H2.87796H2.87796H2.87796H2.87795H2.87795H2.87795H2.87795H2.87795H2.87795H2.87795H2.87795H2.87795H2.87795H2.87794H2.87794H2.87794H2.87794H2.87794H2.87794H2.87794H2.87794H2.87794H2.87794H2.87794H2.87793H2.87793H2.87793H2.87793H2.87793H2.87793H2.87793H2.87793H2.87793H2.87793H2.87792H2.87792H2.87792H2.87792H2.87792H2.87792H2.87792H2.87792H2.87792H2.87792H2.87791H2.87791H2.87791H2.87791H2.87791H2.87791H2.87791H2.87791H2.87791H2.87791H2.87791H2.8779H2.8779H2.8779H2.8779H2.8779H2.8779H2.8779H2.8779H2.8779H2.8779H2.87789H2.87789H2.87789H2.87789H2.87789H2.87789H2.87789H2.87789H2.87789H2.87789H2.87789H2.87788H2.87788H2.87788H2.87788H2.87788H2.87788H2.87788H2.87788H2.87788H2.87788H2.87787H2.87787H2.87787H2.87787H2.87787H2.87787H2.87787H2.87787H2.87787H2.87787H2.87786H2.87786H2.87786H2.87786H2.87786H2.87786H2.87786H2.87786H2.87786H2.87786H2.87786H2.87785H2.87785H2.87785H2.87785H2.87785H2.87785H2.87785H2.87785H2.87785H2.87785H2.87784H2.87784H2.87784H2.87784H2.87784H2.87784H2.87784H2.87784H2.87784H2.87784H2.87784H2.87783H2.87783H2.87783H2.87783H2.87783H2.87783H2.87783H2.87783H2.87783H2.87783H2.87782H2.87782H2.87782H2.87782H2.87782H2.87782H2.87782H2.87782H2.87782H2.87782H2.87782H2.87781H2.87781H2.87781H2.87781H2.87781H2.87781H2.87781H2.87781H2.87781H2.87781H2.8778H2.8778H2.8778H2.8778H2.8778H2.8778H2.8778H2.8778H2.8778H2.8778H2.87779H2.87779H2.87779H2.87779H2.87779H2.87779H2.87779H2.87779H2.87779H2.87779H2.87779H2.87778H2.87778H2.87778H2.87778H2.87778H2.87778H2.87778H2.87778H2.87778H2.87778H2.87777H2.87777H2.87777H2.87777H2.87777H2.87777H2.87777H2.87777H2.87777H2.87777H2.87776H2.87776H2.87776H2.87776H2.87776H2.87776H2.87776H2.87776H2.87776H2.87776H2.87776H2.87775H2.87775H2.87775H2.87775H2.87775H2.87775H2.87775H2.87775H2.87775H2.87775H2.87774H2.87774H2.87774H2.87774H2.87774H2.87774H2.87774H2.87774H2.87774H2.87774H2.87774H2.87773H2.87773H2.87773H2.87773H2.87773H2.87773H2.87773H2.87773H2.87773H2.87773H2.87772H2.87772H2.87772H2.87772H2.87772H2.87772H2.87772H2.87772H2.87772H2.87772H2.87771H2.87771H2.87771H2.87771H2.87771H2.87771H2.87771H2.87771H2.87771H2.87771H2.87771H2.8777H2.8777H2.8777H2.8777H2.8777H2.8777H2.8777H2.8777H2.8777H2.8777H2.87769H2.87769H2.87769H2.87769H2.87769H2.87769H2.87769H2.87769H2.87769H2.87769H2.87769H2.87768H2.87768H2.87768H2.87768H2.87768H2.87768H2.87768H2.87768H2.87768H2.87768H2.87767H2.87767H2.87767H2.87767H2.87767H2.87767H2.87767H2.87767H2.87767H2.87767H2.87767H2.87766H2.87766H2.87766H2.87766H2.87766H2.87766H2.87766H2.87766H2.87766H2.87766H2.87765H2.87765H2.87765H2.87765H2.87765H2.87765H2.87765H2.87765H2.87765H2.87765H2.87764H2.87764H2.87764H2.87764H2.87764H2.87764H2.87764H2.87764H2.87764H2.87764H2.87764H2.87763H2.87763H2.87763H2.87763H2.87763H2.87763H2.87763H2.87763H2.87763H2.87763H2.87762H2.87762H2.87762H2.87762H2.87762H2.87762H2.87762H2.87762H2.87762H2.87762H2.87762H2.87761H2.87761H2.87761H2.87761H2.87761H2.87761H2.87761H2.87761H2.87761H2.87761H2.8776H2.8776H2.8776H2.8776H2.8776H2.8776H2.8776H2.8776H2.8776H2.8776H2.87759H2.87759H2.87759H2.87759H2.87759H2.87759H2.87759H2.87759H2.87759H2.87759H2.87759H2.87758H2.87758H2.87758H2.87758H2.87758H2.87758H2.87758H2.87758H2.87758H2.87758H2.87757H2.87757H2.87757H2.87757H2.87757H2.87757H2.87757H2.87757H2.87757H2.87757H2.87757H2.87756H2.87756H2.87756H2.87756H2.87756H2.87756H2.87756H2.87756H2.87756H2.87756H2.87755H2.87755H2.87755H2.87755H2.87755H2.87755H2.87755H2.87755H2.87755H2.87755H2.87754H2.87754H2.87754H2.87754H2.87754H2.87754H2.87754H2.87754H2.87754H2.87754H2.87754H2.87753H2.87753H2.87753H2.87753H2.87753H2.87753H2.87753H2.87753H2.87753H2.87753H2.87752H2.87752H2.87752H2.87752H2.87752H2.87752H2.87752H2.87752H2.87752H2.87752H2.87752H2.87751H2.87751H2.87751H2.87751H2.87751H2.87751H2.87751H2.87751H2.87751H2.87751H2.8775H2.8775H2.8775H2.8775H2.8775H2.8775H2.8775H2.8775H2.8775H2.8775H2.87749H2.87749H2.87749H2.87749H2.87749H2.87749H2.87749H2.87749H2.87749H2.87749H2.87749H2.87748H2.87748H2.87748H2.87748H2.87748H2.87748H2.87748H2.87748H2.87748C1.78485 3.49948 0.9 4.38369 0.9 5.47691V21.9384C0.9 23.031 1.78415 23.9159 2.87737 23.9159H2.87797H2.878L15.976 23.9115C16.2577 23.9114 16.4861 23.6829 16.486 23.4011C16.4859 23.1195 16.2575 22.8912 15.9758 22.8912H15.9758H15.9758H15.9758H15.9758H15.9758H15.9758H15.9757ZM2.87748 4.5198H2.87772H2.87775L16.9907 4.52369L16.3676 5.88672C16.2124 6.22628 15.8705 6.44588 15.4972 6.44588H2.87742C2.53046 6.44588 2.20407 6.53588 1.92031 6.69353V5.47691C1.92031 4.94795 2.34827 4.5198 2.87748 4.5198Z" fill="#1F1F1F" stroke="#1F1F1F" stroke-width="0.2"/>
</svg>
