<svg width="24" height="24" viewBox="0 0 24 24" fill="none" xmlns="http://www.w3.org/2000/svg">
<path d="M4.5 3H9C9.82843 3 10.5 3.67157 10.5 4.5V9C10.5 9.82843 9.82843 10.5 9 10.5H4.5C3.67157 10.5 3 9.82843 3 9V4.5C3 3.67157 3.67157 3 4.5 3Z" stroke="#1F1F1F" stroke-width="1.5"/>
<path d="M15 3H19.5C20.3284 3 21 3.67157 21 4.5V9C21 9.82843 20.3284 10.5 19.5 10.5H15C14.1716 10.5 13.5 9.82843 13.5 9V4.5C13.5 3.67157 14.1716 3 15 3Z" stroke="#1F1F1F" stroke-width="1.5"/>
<path d="M4.5 13.5H9C9.82843 13.5 10.5 14.1716 10.5 15V19.5C10.5 20.3284 9.82843 21 9 21H4.5C3.67157 21 3 20.3284 3 19.5V15C3 14.1716 3.67157 13.5 4.5 13.5Z" stroke="#1F1F1F" stroke-width="1.5"/>
<path d="M21 17.25C21 19.3211 19.3211 21 17.25 21C15.1789 21 13.5 19.3211 13.5 17.25C13.5 15.1789 15.1789 13.5 17.25 13.5C19.3211 13.5 21 15.1789 21 17.25Z" stroke="#1F1F1F" stroke-width="1.5"/>
</svg>
