<svg width="73" height="72" viewBox="0 0 73 72" fill="none" xmlns="http://www.w3.org/2000/svg">
  <g clip-path="url(#a)">
    <path d="M17.257 31.959A8.25 8.25 0 0 0 13.25 16.5a8.25 8.25 0 0 0-4.008 15.459C4.201 33.379.5 38.002.5 43.5V51a6 6 0 0 0 6 6H20a6 6 0 0 0 6-6v-7.5c0-5.498-3.7-10.12-8.744-11.541" fill="#DEDEDE"/>
    <path d="M17.848 17.901A8.25 8.25 0 0 1 6.4 29.35a8.25 8.25 0 1 0 11.448-11.448m2.999 15.75a11.94 11.94 0 0 1 2.152 6.848V51a3 3 0 0 1-3 3H3.5a5.9 5.9 0 0 1-2.46-.54A5.99 5.99 0 0 0 6.5 57H20a6 6 0 0 0 6-6v-7.5c0-4.08-2.04-7.68-5.152-9.848" fill="#1F1F1F"/>
    <path d="M63.757 31.959A8.25 8.25 0 0 0 59.75 16.5a8.25 8.25 0 0 0-4.007 15.459C50.7 33.379 47 38.002 47 43.5V51a6 6 0 0 0 6 6h13.5a6 6 0 0 0 6-6v-7.5c0-5.498-3.7-10.12-8.743-11.541" fill="#DEDEDE"/>
    <path d="M64.348 17.901A8.25 8.25 0 0 1 52.9 29.35a8.25 8.25 0 1 0 11.448-11.448m2.999 15.75a11.94 11.94 0 0 1 2.152 6.848V51a3 3 0 0 1-3 3H50a5.9 5.9 0 0 1-2.46-.54A5.99 5.99 0 0 0 53 57h13.5a6 6 0 0 0 6-6v-7.5c0-4.08-2.04-7.68-5.152-9.848" fill="#1F1F1F"/>
    <path d="M40.781 30.58C44.444 28.942 47 25.273 47 21c0-5.799-4.701-10.5-10.5-10.5S26 15.201 26 21c0 4.272 2.556 7.941 6.219 9.58C25.186 32.47 20 38.87 20 46.5v9a6 6 0 0 0 6 6h21a6 6 0 0 0 6-6v-9c0-7.629-5.185-14.031-12.219-15.92" fill="#F4F4F4"/>
    <path d="M46.558 33.441A16.4 16.4 0 0 1 50 43.501v12a3 3 0 0 1-3 3H23a5.9 5.9 0 0 1-2.46-.54A5.99 5.99 0 0 0 26 61.5h21a6 6 0 0 0 6-6v-9c0-5.323-2.53-10.042-6.44-13.06m-6.02-22.131a9.72 9.72 0 0 1 3.458 7.441 9.75 9.75 0 0 1-9.75 9.75 9.72 9.72 0 0 1-7.441-3.457c1.584 3.792 5.325 6.457 9.691 6.457 5.8 0 10.5-4.7 10.5-10.5 0-4.366-2.665-8.107-6.457-9.691" fill="#1F1F1F"/>
  </g>
  <defs>
    <clipPath id="a">
      <path fill="#fff" d="M.5 0h72v72H.5z"/>
    </clipPath>
  </defs>
</svg>
