<svg width="21" height="17" viewBox="0 0 21 17" fill="none" xmlns="http://www.w3.org/2000/svg">
<path d="M16.4894 0.48148C16.8386 0.796184 17.0347 1.16273 17.0603 1.62463C17.0604 1.66822 17.0604 1.71182 17.0604 1.75674C17.0606 1.80655 17.0608 1.85635 17.0611 1.90767C17.0611 1.96079 17.0612 2.01392 17.0612 2.06865C17.0623 2.18165 17.0634 2.29465 17.0645 2.40765C17.0662 2.58543 17.0674 2.76318 17.0674 2.94097C17.0676 3.11282 17.0696 3.28459 17.0718 3.45643C17.0714 3.50976 17.071 3.5631 17.0706 3.61806C17.0675 3.90285 17.0675 3.90285 17.2302 4.12646C17.4134 4.17961 17.5654 4.1939 17.7571 4.19504C17.8626 4.1968 17.8626 4.1968 17.9702 4.1986C18.0798 4.19932 18.0798 4.19932 18.1917 4.20006C18.9679 4.20526 19.552 4.26799 20.1547 4.76186C20.5724 5.17905 20.6886 5.59666 20.6821 6.1603C20.6652 6.63522 20.4994 6.98513 20.1547 7.33008C19.2703 8.06623 18.1878 7.91864 17.0533 7.91864C17.0719 9.49007 17.0905 11.0615 17.1097 12.6806C17.3441 12.7917 17.4479 12.8009 17.7035 12.8022C17.7761 12.8033 17.8486 12.8044 17.9234 12.8055C18.0746 12.8071 18.2259 12.8079 18.3771 12.8085C19.0835 12.8205 19.6997 12.9396 20.2111 13.4296C20.6511 13.9449 20.7147 14.4459 20.6623 15.0883C20.548 15.5841 20.225 15.9484 19.7882 16.2286C19.1724 16.5461 18.4439 16.5584 17.7593 16.558C17.6787 16.5584 17.5981 16.5588 17.5174 16.5592C17.3501 16.5599 17.1828 16.56 17.0155 16.5597C16.803 16.5594 16.5905 16.561 16.378 16.5632C16.2121 16.5646 16.0462 16.5647 15.8803 16.5645C15.802 16.5646 15.7237 16.5651 15.6454 16.5661C14.8982 16.5743 14.333 16.4088 13.79 15.9126C13.6157 15.7257 13.4932 15.5302 13.388 15.3023C13.3696 15.2639 13.3511 15.2256 13.3322 15.1861C13.1239 14.6331 13.1459 13.9707 13.1478 13.3915C13.1477 13.3169 13.1475 13.2423 13.1472 13.1677C13.1467 12.9667 13.1469 12.7658 13.1473 12.5649C13.1475 12.3941 13.1473 12.2234 13.1471 12.0526C13.1465 11.5494 13.147 11.0463 13.1479 10.5431C13.1483 10.3068 13.1485 10.0705 13.1487 9.83424C13.1525 5.43728 13.1525 5.43728 13.2016 3.28863C13.2047 3.1507 13.2074 3.01276 13.2099 2.87482C13.214 2.66427 13.2191 2.45378 13.2253 2.24328C13.2283 2.13523 13.2304 2.02716 13.2324 1.91909C13.2459 1.5369 13.3007 1.24341 13.5007 0.909518C13.5333 0.854341 13.5659 0.799164 13.5994 0.742315C13.9083 0.367828 14.2447 0.127735 14.7343 0.0166576C15.4096 -0.0474163 15.9545 0.0662736 16.4894 0.48148Z" fill="#EE8C21"/>
<path d="M5.15724 6.02706C5.21142 6.02635 5.26559 6.02565 5.32141 6.02492C5.49922 6.02283 5.67701 6.02157 5.85483 6.0205C5.91608 6.02006 5.97732 6.01963 6.04042 6.01918C6.36467 6.01695 6.68892 6.01542 7.01318 6.01441C7.3458 6.01323 7.67834 6.00955 8.01094 6.0053C8.26876 6.00248 8.52655 6.0016 8.78439 6.00122C8.90688 6.0007 9.02938 5.99947 9.15186 5.99747C10.0868 5.98315 10.7389 6.11685 11.4777 6.68471C11.9325 7.10718 12.2889 7.70121 12.3239 8.31631C12.3242 8.38954 12.3242 8.38954 12.3244 8.46426C12.3248 8.5205 12.3251 8.57675 12.3254 8.6347C12.3255 8.72684 12.3255 8.72684 12.3256 8.82085C12.3259 8.88577 12.3262 8.9507 12.3265 9.0176C12.3271 9.19559 12.3276 9.37359 12.3278 9.55159C12.328 9.66298 12.3282 9.77437 12.3285 9.88577C12.3292 10.2348 12.3298 10.5839 12.33 10.9329C12.3303 11.3348 12.3312 11.7367 12.3329 12.1386C12.3341 12.4499 12.3347 12.7612 12.3347 13.0724C12.3348 13.258 12.3351 13.4436 12.3361 13.6292C12.3372 13.8367 12.337 14.0441 12.3366 14.2516C12.3371 14.3124 12.3377 14.3731 12.3382 14.4358C12.3348 15.0557 12.1701 15.5661 11.7526 16.0514C11.292 16.4263 10.828 16.5267 10.2301 16.5329C9.78102 16.4882 9.29345 16.2631 8.98953 15.9444C8.76822 15.6641 8.59746 15.3857 8.57762 15.03C8.5948 14.9278 8.5948 14.9278 8.71815 14.7974C8.84495 14.7305 8.97266 14.6683 9.10231 14.6068C9.17653 14.4659 9.16617 14.3595 9.16575 14.2021C9.1656 14.1445 9.16546 14.0869 9.16531 14.0276C9.15817 13.844 9.1327 13.6698 9.09262 13.4903C9.1202 13.1655 9.45494 12.9304 9.69088 12.7207C10.0648 12.3776 10.3075 12.0515 10.3993 11.557C10.3318 11.5746 10.2644 11.5923 10.1949 11.6105C9.99564 11.6582 9.81616 11.6738 9.60982 11.664C9.59005 11.6176 9.57028 11.5713 9.5499 11.5235C9.44959 11.3577 9.41143 11.3146 9.25981 11.2096C8.98273 10.9907 8.83861 10.7052 8.67234 10.4066C8.40405 9.90249 8.40405 9.9025 8.0309 9.4703C7.87416 9.43761 7.87416 9.43761 7.71019 9.46027C7.37093 9.47822 7.10689 9.42142 6.79033 9.30978C6.75311 9.39807 6.7159 9.48635 6.67755 9.57731C6.43255 9.55089 6.30545 9.50546 6.11365 9.36329C6.00199 9.32458 5.88932 9.28824 5.77531 9.25628C5.7474 9.07089 5.7474 9.07089 5.71892 8.88175C4.68898 8.87402 4.68898 8.87402 3.80167 9.25628C3.77608 9.31697 3.7505 9.37767 3.72414 9.4402C3.62769 9.64082 3.6111 9.6562 3.42104 9.7512C3.0699 9.93472 2.85476 10.293 2.73027 10.6474C2.67334 11.0394 2.68485 11.3317 2.93115 11.6606C3.01233 11.7528 3.09563 11.8432 3.18138 11.9315C3.21308 11.9671 3.24477 12.0027 3.27742 12.0394C3.41875 12.1787 3.51482 12.2469 3.72083 12.2659C3.82778 12.2637 3.9347 12.2601 4.04155 12.2553C4.65705 12.2445 5.22518 12.7054 5.65042 13.0902C5.95899 13.4001 6.09548 13.6986 6.11365 14.1252C6.03612 14.2991 6.03612 14.2991 5.94448 14.4462C5.90722 14.719 5.96312 14.8827 6.10154 15.1215C6.21591 15.334 6.29881 15.558 6.38723 15.7811C6.42843 15.885 6.47175 15.9881 6.51785 16.09C6.57597 16.241 6.55728 16.3276 6.50838 16.4794C6.33401 16.6449 5.79732 16.5493 5.5453 16.5499C4.93805 16.5492 4.37741 16.5132 3.80167 16.3189C3.76169 16.3057 3.72171 16.2925 3.68052 16.2789C2.25447 15.7955 1.20207 14.8475 0.538994 13.5626C0.517769 13.5187 0.496543 13.4748 0.474675 13.4296C0.432587 13.343 0.432587 13.343 0.389649 13.2545C0.295422 13.0439 0.238819 12.8297 0.185677 12.607C0.176155 12.5694 0.166632 12.5317 0.156821 12.4929C-0.162645 11.1849 3.61204e-05 9.79667 0.699573 8.62467C1.52894 7.37475 2.79043 6.44401 4.31594 6.09647C4.59758 6.03857 4.86985 6.02871 5.15724 6.02706Z" fill="#08713E"/>
</svg>
