<svg width="20" height="24" viewBox="0 0 20 24" fill="none" xmlns="http://www.w3.org/2000/svg">
<path d="M14.6187 0C14.6746 0 14.7304 0 14.7894 0C14.9264 1.69253 14.2804 2.95719 13.4953 3.87301C12.7249 4.78251 11.67 5.6646 9.96373 5.53076C9.84991 3.86247 10.497 2.69161 11.2811 1.77789C12.0083 0.92636 13.3414 0.168621 14.6187 0Z" fill="black"/>
<path d="M19.7836 17.6167C19.7836 17.6335 19.7836 17.6483 19.7836 17.6641C19.3041 19.1164 18.6201 20.361 17.7855 21.516C17.0235 22.5647 16.0898 23.9758 14.4225 23.9758C12.9819 23.9758 12.025 23.0494 10.5485 23.0241C8.98662 22.9989 8.12771 23.7987 6.6997 24C6.53635 24 6.373 24 6.21281 24C5.1642 23.8483 4.31793 23.0178 3.70141 22.2696C1.88347 20.0585 0.478647 17.2025 0.217285 13.5477C0.217285 13.1893 0.217285 12.8321 0.217285 12.4738C0.327943 9.85803 1.59892 7.7313 3.28829 6.7006C4.17987 6.15259 5.40553 5.68572 6.77031 5.89439C7.35521 5.98502 7.95276 6.18526 8.47654 6.38339C8.97292 6.57414 9.59365 6.91243 10.1817 6.89452C10.5801 6.88292 10.9763 6.67531 11.3779 6.52882C12.554 6.10411 13.7069 5.61722 15.2266 5.84591C17.053 6.12202 18.3493 6.93351 19.1502 8.18552C17.6052 9.16879 16.3838 10.6505 16.5925 13.1809C16.778 15.4794 18.1143 16.8242 19.7836 17.6167Z" fill="black"/>
</svg>