<svg width="22" height="17" viewBox="0 0 22 17" fill="none" xmlns="http://www.w3.org/2000/svg">
<path d="M8.41323 0.00396342C8.80075 0.00303615 8.80075 0.00303616 9.19609 0.00209016C9.74046 0.00165189 10.2848 0.00283418 10.8292 0.0055409C11.6597 0.00900003 12.49 0.00556899 13.3205 0.00143945C13.8509 0.00186644 14.3813 0.00269433 14.9116 0.00396342C15.1586 0.00265549 15.4055 0.00134756 15.66 0C17.2008 0.0134568 18.5516 0.0818115 19.7748 1.15321C19.8894 1.2998 20.0041 1.44639 20.1221 1.59743C20.2405 1.74402 20.3589 1.89061 20.4809 2.04165C21.4487 3.47414 21.0337 5.71393 20.7726 7.33525C20.6848 7.81028 20.5944 8.2848 20.5013 8.75877C20.4584 8.99698 20.4156 9.23519 20.3714 9.48062C19.9461 11.7147 19.3176 13.9034 17.4106 15.2498C15.8799 16.1188 14.5296 16.1851 12.8049 16.1708C12.5258 16.1715 12.2467 16.1726 11.9675 16.1739C11.3862 16.1755 10.8051 16.1733 10.2238 16.1682C9.48276 16.162 8.74217 16.1656 8.00119 16.172C7.28807 16.1769 6.57505 16.1735 5.86192 16.1708C5.46601 16.1741 5.46601 16.1741 5.0621 16.1774C3.54312 16.1567 2.46922 16.0061 1.30682 14.9509C0.201486 13.7231 -0.0260898 12.8222 0.00225891 11.1788C0.0826112 9.95596 0.291913 8.76679 0.530428 7.56703C0.614185 7.14164 0.691593 6.71536 0.768695 6.28864C1.15058 4.32188 1.64644 2.76219 3.15044 1.42243C3.27692 1.30555 3.40339 1.18866 3.53371 1.06824C5.10081 0.0113997 6.5921 -0.00568197 8.41323 0.00396342Z" fill="#F47921"/>
<path d="M8.41323 0.00396342C8.80075 0.00303616 8.80075 0.00303616 9.19609 0.00209016C9.74046 0.00165189 10.2848 0.00283418 10.8292 0.0055409C11.6597 0.00900003 12.49 0.00556899 13.3205 0.00143945C13.8509 0.00186644 14.3813 0.00269433 14.9116 0.00396342C15.1586 0.00265549 15.4055 0.00134756 15.66 0C17.2008 0.0134568 18.5516 0.0818115 19.7748 1.15321C19.8894 1.2998 20.0041 1.44639 20.1221 1.59743C20.2405 1.74402 20.3589 1.89061 20.4809 2.04165C21.4487 3.47414 21.0337 5.71393 20.7726 7.33525C20.6848 7.81028 20.5944 8.2848 20.5013 8.75877C20.4584 8.99698 20.4156 9.23519 20.3714 9.48062C19.9461 11.7147 19.3176 13.9034 17.4106 15.2498C15.8799 16.1188 14.5296 16.1851 12.8049 16.1708C12.5258 16.1715 12.2467 16.1726 11.9675 16.1739C11.3862 16.1755 10.8051 16.1733 10.2238 16.1682C9.48276 16.162 8.74217 16.1656 8.00119 16.172C7.28807 16.1769 6.57505 16.1735 5.86192 16.1708C5.46601 16.1741 5.46601 16.1741 5.0621 16.1774C3.54312 16.1567 2.46922 16.0061 1.30682 14.9509C0.201486 13.7231 -0.0260898 12.8222 0.00225891 11.1788C0.0826112 9.95596 0.291913 8.76679 0.530428 7.56703C0.614185 7.14164 0.691593 6.71536 0.768695 6.28864C1.15058 4.32188 1.64644 2.76219 3.15044 1.42243C3.27692 1.30555 3.40339 1.18866 3.53371 1.06824C5.1008 0.0113997 6.5921 -0.00568197 8.41323 0.00396342ZM3.31633 3.66203C2.8095 4.77163 2.6264 5.91463 2.41822 7.1165C2.33033 7.59944 2.24235 8.08236 2.15426 8.56526C2.09816 8.88453 2.09816 8.88453 2.04093 9.21024C1.95082 9.69387 1.84212 10.1661 1.72523 10.6433C1.6147 11.6694 1.63019 12.3895 2.09134 13.3221C2.66975 14.0003 3.05796 14.269 3.93441 14.3609C4.23718 14.3624 4.23718 14.3624 4.54607 14.3639C4.77583 14.366 5.00559 14.368 5.24232 14.3701C5.48967 14.3699 5.73701 14.3697 5.99186 14.3695C6.24724 14.3705 6.50262 14.3714 6.76573 14.3723C7.30613 14.3736 7.84653 14.3737 8.38693 14.3728C9.21201 14.3721 10.0369 14.3771 10.862 14.3826C11.3873 14.3831 11.9126 14.3832 12.438 14.383C12.8071 14.386 12.8071 14.386 13.1837 14.389C14.6531 14.3805 15.8226 14.3249 16.9816 13.3036C17.0774 13.1809 17.1731 13.0582 17.2717 12.9317C17.3702 12.8101 17.4686 12.6885 17.57 12.5632C18.3768 11.3032 18.5312 9.78115 18.8015 8.32801C18.8495 8.08202 18.8975 7.83604 18.947 7.5826C19.4316 5.23398 19.4316 5.23398 19.063 2.91662C18.4376 2.18687 17.8123 1.85937 16.863 1.74797C16.1735 1.71648 15.4866 1.70631 14.7964 1.70428C14.4157 1.70105 14.4157 1.70105 14.0273 1.69776C13.4912 1.69449 12.9551 1.69297 12.4189 1.69308C11.602 1.69167 10.7856 1.67993 9.96878 1.66768C9.44673 1.66578 8.92467 1.6645 8.40261 1.66389C8.16001 1.65925 7.9174 1.65461 7.66744 1.64982C5.76124 1.66627 4.60865 2.22522 3.31633 3.66203Z" fill="#FDFBFA"/>
<path d="M4.86326 5.90503C5.73405 6.20871 6.3228 6.63976 7.02068 7.25115C7.22105 7.42272 7.42142 7.5943 7.62786 7.77108C7.98424 8.0788 8.34012 8.38714 8.69513 8.69654C8.83725 8.81481 8.97937 8.93308 9.12579 9.05494C9.24823 9.15989 9.37066 9.26483 9.49681 9.37296C10.0496 9.64912 10.3399 9.51366 10.9302 9.35109C11.3616 9.15247 11.7871 8.93983 12.2075 8.71757C12.5677 8.52912 12.5677 8.52912 12.9352 8.33687C13.1865 8.20391 13.4378 8.07084 13.6891 7.93766C14.1841 7.67609 14.6796 7.41581 15.1756 7.15608C15.5041 6.98218 15.5041 6.98218 15.8393 6.80477C16.3695 6.55116 16.3695 6.55116 16.7879 6.55116C16.4288 10.8395 16.4288 10.8395 15.6932 11.8641C15.1903 12.2544 14.864 12.2303 14.2377 12.2278C14.0165 12.2284 13.7952 12.2291 13.5672 12.2297C13.3286 12.2271 13.0899 12.2244 12.8441 12.2217C12.5994 12.2213 12.3546 12.2209 12.1025 12.2205C11.5851 12.219 11.0677 12.216 10.5504 12.2116C9.75516 12.2049 8.96002 12.2028 8.16476 12.2015C7.663 12.1995 7.16123 12.1973 6.65947 12.1948C6.41999 12.1938 6.1805 12.1929 5.93376 12.192C5.71382 12.1899 5.49387 12.1878 5.26726 12.1857C5.07264 12.1842 4.87803 12.1828 4.67751 12.1813C4.23564 12.151 4.23564 12.151 4.02644 11.9356C3.95241 10.5511 4.16269 9.30148 4.44485 7.95113C4.48476 7.75345 4.52467 7.55577 4.56579 7.3521C4.66347 6.8694 4.76265 6.38709 4.86326 5.90503Z" fill="#FEFAF7"/>
<path d="M6.74622 4.18201C9.92194 4.18201 13.0977 4.18201 16.3696 4.18201C15.3699 4.95394 14.3214 5.56218 13.2316 6.18772C12.9185 6.37367 12.9185 6.37367 12.599 6.56337C12.3979 6.67845 12.1967 6.79353 11.9894 6.9121C11.8063 7.01852 11.6232 7.12494 11.4345 7.23459C10.9303 7.41269 10.9303 7.41269 10.4966 7.26608C10.3636 7.17231 10.2305 7.07854 10.0935 6.98193C9.89436 6.84197 9.89436 6.84197 9.69122 6.69919C9.55537 6.59454 9.41952 6.48989 9.27955 6.38207C9.05707 6.21069 9.05707 6.21069 8.83009 6.03586C8.67745 5.91717 8.52481 5.79848 8.36755 5.6762C8.21168 5.55667 8.0558 5.43715 7.89521 5.31401C7.74796 5.20004 7.60072 5.08607 7.44901 4.96864C7.24665 4.81203 7.24665 4.81203 7.04021 4.65225C6.94319 4.56815 6.84617 4.48404 6.74622 4.39739C6.74622 4.32631 6.74622 4.25524 6.74622 4.18201Z" fill="#FEFCFA"/>
</svg>
