<svg width="24" height="24" viewBox="0 0 24 24" fill="none" xmlns="http://www.w3.org/2000/svg">
<path d="M21.1064 5.75553H19.2725V13.7572C19.2559 15.0441 18.1888 16.0835 16.8884 16.1H9.83617L9.66945 16.265C9.86951 16.9414 10.4697 17.4199 11.1866 17.4364H14.1375L18.4556 21V17.4199H21.1064C21.94 17.4199 22.757 16.6609 22.757 15.836V7.19088C22.757 6.36596 21.94 5.75553 21.1064 5.75553ZM16.8884 3.0003H2.60051C1.76691 3.0003 1 3.66024 1 4.48515V13.7407C1 14.5656 1.76691 15.2751 2.60051 15.2751H5.30138V18.8882L9.55274 15.2751H16.8884C17.7387 15.2586 18.4389 14.5821 18.4723 13.7407V4.48515C18.4223 3.64374 17.722 2.9838 16.8884 3.0003Z" fill="#00A5FF"/>
</svg>
