<svg width="18" height="12" viewBox="0 0 18 12" fill="none" xmlns="http://www.w3.org/2000/svg">
<path d="M8.04087 1.5047C5.43714 0.21713 2.20924 1.17455 0.853878 3.66715C-0.501482 6.14323 0.497205 9.21358 3.11876 10.5011C4.42062 11.1449 5.86515 11.2275 7.16701 10.8313C7.16701 10.8313 7.43452 10.7983 8.09437 10.4351C8.09437 10.4351 7.54152 10.1215 6.89951 9.13104C6.89951 9.13104 6.89951 9.13104 6.89951 9.11453C5.97215 9.46119 4.8843 9.46119 3.93911 8.98248C2.19141 8.1241 1.51373 6.0772 2.42325 4.42647C3.33277 2.77576 5.47281 2.11547 7.22052 2.99035C8.27271 3.50207 8.93255 4.45949 9.09306 5.49944L10.8943 6.39084C11.0548 4.42647 10.0026 2.47862 8.04087 1.5047Z" fill="#29C3EC"/>
<path d="M9.96678 10.5012C12.5883 11.7888 15.7984 10.7984 17.1538 8.30577C18.5091 5.81318 17.4748 2.75932 14.8532 1.48826C13.5514 0.844479 12.1068 0.77845 10.805 1.17462C10.805 1.17462 10.5375 1.20764 9.87762 1.5708C9.87762 1.5708 10.4305 1.88444 11.0725 2.85836C11.0725 2.85836 11.0725 2.85836 11.0725 2.87487C11.9998 2.51171 13.0699 2.52822 14.0329 2.99042C15.7806 3.8488 16.4583 5.87921 15.5666 7.54644C14.6571 9.21367 12.517 9.85746 10.7693 9.01558C9.71711 8.50386 9.05726 7.56295 8.87893 6.52299L7.07772 5.6481C6.93505 7.59596 8.00507 9.54382 9.96678 10.5012Z" fill="#8DC63F"/>
</svg>
