<svg width="9" height="19" viewBox="0 0 9 19" fill="none" xmlns="http://www.w3.org/2000/svg">
<path d="M7.09237 8.83479C7.24823 8.83479 7.40349 8.85987 7.56016 8.88525L7.70424 8.90784C8.17376 8.95283 8.55316 8.60908 8.55316 8.16282C8.55316 7.80504 8.28766 7.49354 7.92696 7.42317C7.64216 7.35739 7.3287 7.32684 6.94047 7.32684C6.1642 7.32684 5.51737 7.55852 5.06969 7.99692C4.57254 8.48418 4.30968 9.23099 4.30968 10.1565V10.571H3.93211C3.51908 10.571 3.17017 10.9129 3.17017 11.3177C3.17017 11.7445 3.50486 12.0789 3.93211 12.0789H4.30968V17.9995C4.30968 18.4602 4.69233 18.835 5.16266 18.835C5.63249 18.835 6.00061 18.468 6.00061 17.9995V12.0789H7.76074C8.18931 12.0789 8.53802 11.744 8.53802 11.3326C8.53802 10.914 8.19663 10.5861 7.76074 10.5861H5.98547V10.2164C5.98547 9.24791 6.3165 8.83479 7.09237 8.83479Z" fill="#1F1F1F"/>
<path d="M3.61444 8.14697C3.59402 8.25007 2.1505 8.00704 1.5434 7.412C0.936302 6.81795 0.82931 6.22321 0.00782403 5.97838C0.00782403 5.97838 0.84577 5.50456 1.79335 6.3283C1.79335 6.3283 1.68626 5.27904 0.329306 4.7892C0.329306 4.7892 0.910087 4.33139 1.90989 4.71615C1.90989 4.71615 1.69144 3.32692 0 2.89927C0 2.89927 0.534043 2.22342 2.11554 3.04179C1.13067 2.48646 0.728009 2.15047 0.563813 1.43441C0.431014 0.854594 0.6958 0.346931 0.91405 -1.90735e-06C0.91405 -1.90735e-06 0.918216 0.852503 1.48873 1.30274C2.07876 1.76811 3.07044 1.88743 3.24652 3.59354C3.24652 3.59354 3.60489 2.79278 3.06922 1.6031C3.06922 1.6031 4.29693 2.1242 4.2571 3.56498C4.2571 3.56498 4.91927 3.2684 4.8834 2.04438C4.8834 2.04438 5.68528 2.55075 5.57808 3.98496C5.57808 3.98496 5.9338 3.08618 6.93513 3.21526C6.93513 3.21526 6.3446 3.91042 6.46571 4.63613C6.58855 5.3709 6.37041 6.23913 6.37041 6.23913C6.37041 6.23913 4.05124 5.91857 3.61444 8.14697Z" fill="#DF3B8D"/>
</svg>
