<svg width="18" height="22" viewBox="0 0 18 22" fill="none" xmlns="http://www.w3.org/2000/svg">
<path d="M16.3438 11.3475C16.1923 11.2306 16.0009 11.1293 15.7697 11.0435L11.8227 9.5624C12.038 9.57799 12.2453 9.58579 12.4447 9.58579C13.7763 9.58579 14.8766 9.26618 15.7378 8.61917C17.6036 7.22381 17.5559 4.85403 17.5559 4.76049C17.5478 4.45647 17.2847 4.20702 16.9737 4.22261C16.6627 4.23041 16.4076 4.48765 16.4235 4.79167C16.4235 4.80726 16.4634 6.68593 15.052 7.7383C14.7171 7.98775 14.3264 8.17484 13.8879 8.29956C15.1477 7.12247 15.2115 5.37632 15.2115 5.29057C15.2195 4.98655 14.9723 4.72931 14.6613 4.72151C14.3504 4.71372 14.0872 4.95537 14.0793 5.25939C14.0793 5.27498 14.0234 6.87302 12.8433 7.70712C12.5962 7.87861 12.3171 8.01113 12.0061 8.09688C12.9151 7.15365 12.9629 5.85183 12.9629 5.78947C12.9709 5.48545 12.7237 5.22821 12.4128 5.22041C12.1018 5.21262 11.8387 5.45427 11.8307 5.75829C11.8307 5.77388 11.7749 6.95097 10.9297 7.55121C10.3954 7.93318 9.62995 7.99554 8.64919 7.80845C7.34151 7.559 6.51224 7.08349 6.17735 6.38191C5.67501 5.33734 6.40061 4.02773 6.41656 4.00434C6.59198 3.70033 6.48035 3.31056 6.16938 3.13906C5.8584 2.96757 5.45972 3.0689 5.2843 3.38072C5.24443 3.45088 4.43112 4.87742 4.78993 6.35073C4.55072 6.12467 4.36733 5.88301 4.23975 5.61018C3.54604 4.16025 4.54275 2.39071 4.5587 2.35953C4.73412 2.05551 4.62248 1.66575 4.31151 1.49425C4.00054 1.32275 3.60186 1.42409 3.42644 1.73591C3.37859 1.82165 2.25431 3.79387 2.88423 5.71931C2.47757 5.36852 2.18254 4.97876 1.99118 4.54222C1.23368 2.84284 2.40581 1.00315 2.41378 0.979761C2.60515 0.683539 2.51744 0.293773 2.21444 0.0988904C1.91144 -0.0881972 1.51276 -0.00244875 1.31341 0.293773C1.24962 0.395112 -0.241451 2.71032 0.787152 5.03332C1.5606 6.77947 3.50617 7.98775 6.56806 8.63476C6.81524 8.69712 7.77208 8.91539 7.87574 8.93878C7.85979 8.93878 7.84385 8.93878 7.84385 8.93878L3.92878 9.21161C3.92878 9.21161 4.32746 11.4021 7.30164 10.0925L1.15394 14.4111C-0.719871 15.9935 -0.0979253 18.5816 1.49681 19.252C2.48554 19.6651 5.03712 20.8032 7.03851 21.6997C7.6764 19.7275 9.74955 12.244 13.8002 13.1716C14.0234 13.8108 14.6374 14.2708 15.371 14.2708C16.288 14.2708 17.0295 13.5458 17.0295 12.6493C17.0215 12.1193 16.7504 11.6437 16.3438 11.3475ZM10.0446 11.3865C9.70968 11.3865 9.43061 11.1215 9.43061 10.7863C9.43061 10.4589 9.70171 10.186 10.0446 10.186C10.3795 10.186 10.6585 10.4511 10.6585 10.7863C10.6585 11.1137 10.3795 11.3865 10.0446 11.3865Z" fill="#37C1EA"/>
</svg>
