<svg width="21" height="20" viewBox="0 0 21 20" fill="none" xmlns="http://www.w3.org/2000/svg">
<path d="M15.3499 10.4836C15.3051 10.8606 15.1328 11.2097 14.8627 11.4706C14.5971 11.75 14.247 11.9298 13.8691 11.9809C12.2775 12.1329 10.6806 12.2193 9.08224 12.24C8.45531 12.2473 7.85619 12.5056 7.41356 12.9595L5.31517 15.1048V13.4101C5.31449 13.0742 5.18976 12.7511 4.96595 12.5052C4.74214 12.2593 4.43575 12.1089 4.10808 12.084C3.69719 12.0539 3.28292 12.0184 2.87347 11.9794C2.49553 11.9283 2.14546 11.7486 1.8798 11.4691C1.61133 11.2091 1.44019 10.8613 1.396 10.486C1.20866 8.00851 1.20866 5.51992 1.396 3.04241C1.43981 2.66541 1.61171 2.31609 1.88173 2.05539C2.14737 1.77581 2.49743 1.59587 2.8754 1.5446C6.53208 1.19371 10.2129 1.19371 13.8695 1.5446C14.2475 1.59587 14.5976 1.77581 14.8632 2.05539C15.1332 2.31627 15.3056 2.6654 15.3504 3.04241C15.536 5.51917 15.5358 8.00682 15.3499 10.4836Z" fill="#5E34F1" stroke="#5E34F1" stroke-width="0.80508"/>
<path d="M15.8569 19.3198C15.741 19.3198 15.6263 19.2963 15.5194 19.2509C15.4124 19.2054 15.3153 19.1388 15.2335 19.0548L12.5012 16.2635C12.2901 16.0457 12.0035 15.9216 11.7035 15.9181C10.7519 15.9062 10.3111 15.8939 9.5757 15.8441C9.41474 15.8262 9.26678 15.7454 9.16271 15.6186C9.05864 15.4919 9.00653 15.3289 9.01725 15.1638C9.02797 14.9986 9.10069 14.8442 9.22024 14.7325C9.33978 14.6209 9.49689 14.5609 9.65874 14.5649C10.3651 14.6142 10.7929 14.6251 11.7185 14.6364C12.3457 14.6431 12.9452 14.9015 13.3877 15.356L15.4856 17.5003V15.8095C15.4863 15.4738 15.6109 15.1506 15.8346 14.9048C16.0583 14.6589 16.3646 14.5084 16.6922 14.4834C17.1031 14.4528 17.5183 14.4178 17.9268 14.3788C18.3055 14.3277 18.6564 14.1478 18.9229 13.868C19.1927 13.6072 19.3648 13.258 19.4091 12.881C19.5964 10.4035 19.5964 7.91491 19.4091 5.4374C19.3579 5.10415 19.2162 4.79229 19.0002 4.53727C18.7841 4.28226 18.5024 4.09433 18.187 3.99487C18.034 3.94068 17.9075 3.82816 17.8337 3.68081C17.76 3.53346 17.7448 3.36269 17.7914 3.20418C17.8379 3.04566 17.9426 2.91167 18.0836 2.83021C18.2245 2.74874 18.3908 2.7261 18.5477 2.76702C19.1052 2.9404 19.6015 3.27546 19.9763 3.73152C20.3511 4.18758 20.5883 4.74504 20.6592 5.33623C20.8513 7.88093 20.8513 10.437 20.6592 12.9817C20.5794 13.6609 20.2792 14.2933 19.8066 14.7777C19.334 15.2621 18.7162 15.5707 18.0519 15.6541H18.0475C17.6299 15.6935 17.205 15.7296 16.7849 15.7606C16.7733 15.7623 16.7627 15.7683 16.755 15.7773C16.7474 15.7864 16.7433 15.798 16.7434 15.81V18.4167C16.7433 18.5356 16.7203 18.6532 16.6757 18.7629C16.6311 18.8727 16.5658 18.9723 16.4834 19.0562C16.4011 19.1401 16.3033 19.2066 16.1958 19.2518C16.0883 19.2971 15.9731 19.3202 15.8569 19.3198Z" fill="#FF3964"/>
<path d="M16.5995 2.94064C16.5195 2.26157 16.2193 1.62947 15.7467 1.14525C15.2741 0.661029 14.6564 0.352622 13.9922 0.269268H13.9869C10.2519 -0.0897559 6.49212 -0.0897559 2.75711 0.269268H2.7518C2.08732 0.352713 1.46939 0.661405 0.996753 1.14602C0.524112 1.63063 0.224041 2.26319 0.14449 2.94261C-0.0481633 5.48729 -0.0481633 8.04339 0.14449 10.5881C0.224745 11.2669 0.525127 11.8986 0.997707 12.3826C1.47029 12.8665 2.08783 13.1747 2.7518 13.258H2.75711C3.17476 13.2984 3.59965 13.334 4.01972 13.3641C4.03132 13.3657 4.04193 13.3717 4.04957 13.3808C4.05721 13.3898 4.06136 13.4014 4.06124 13.4134V16.0211C4.06128 16.1993 4.11312 16.3734 4.21018 16.5214C4.30724 16.6693 4.44514 16.7845 4.60636 16.8522C4.71358 16.8974 4.82837 16.9209 4.94434 16.9213C5.05997 16.9213 5.17447 16.8979 5.28126 16.8526C5.38806 16.8073 5.48506 16.7409 5.56672 16.6573L8.30053 13.864C8.51151 13.646 8.79815 13.5218 9.09817 13.5185C10.7094 13.4988 12.3554 13.4105 13.9873 13.2545H13.9927C14.6568 13.1712 15.2745 12.8627 15.7472 12.3785C16.2198 11.8943 16.52 11.2622 16.6 10.5831C16.7919 8.03941 16.7917 5.48434 16.5995 2.94064ZM15.3499 10.4834C15.3051 10.8604 15.1327 11.2096 14.8627 11.4705C14.5971 11.7499 14.247 11.9297 13.8691 11.9808C12.2775 12.1328 10.6806 12.2192 9.08224 12.2399C8.45531 12.2472 7.85619 12.5055 7.41356 12.9594L5.31516 15.1047V13.41C5.31448 13.0741 5.18976 12.7509 4.96595 12.5051C4.74214 12.2592 4.43574 12.1088 4.10808 12.0839C3.69718 12.0538 3.28291 12.0183 2.87347 11.9793C2.49553 11.9282 2.14546 11.7484 1.8798 11.469C1.61132 11.209 1.44019 10.8612 1.396 10.4859C1.20865 8.00841 1.20865 5.51981 1.396 3.0423C1.4398 2.6653 1.61171 2.31598 1.88173 2.05528C2.14737 1.77571 2.49742 1.59577 2.8754 1.5445C6.53207 1.1936 10.2129 1.1936 13.8695 1.5445C14.2475 1.59577 14.5976 1.77571 14.8632 2.05528C15.1332 2.31616 15.3056 2.6653 15.3504 3.0423C15.536 5.51906 15.5358 8.00671 15.3499 10.4834Z" fill="#5E34F1"/>
<path d="M6.07943 9.37167C5.96824 9.37173 5.85965 9.33732 5.768 9.27297L3.39536 7.61428C3.32127 7.56238 3.26066 7.49281 3.21879 7.4116C3.17691 7.33038 3.15503 7.23996 3.15503 7.14815C3.15503 7.05635 3.17691 6.96593 3.21879 6.88471C3.26066 6.8035 3.32127 6.73393 3.39536 6.68204L5.768 5.02286C5.88895 4.9383 6.03781 4.90632 6.18183 4.93395C6.32584 4.96157 6.45323 5.04655 6.53595 5.17017C6.61867 5.29379 6.64996 5.44594 6.62293 5.59314C6.59591 5.74034 6.51277 5.87054 6.39182 5.9551L4.68597 7.14791L6.39182 8.34072C6.48909 8.40896 6.56244 8.50722 6.60117 8.62112C6.63989 8.73502 6.64195 8.85859 6.60705 8.97378C6.57215 9.08896 6.50211 9.18971 6.40718 9.2613C6.31225 9.33289 6.1974 9.37156 6.07943 9.37167Z" fill="white"/>
<path d="M18.9229 13.868C19.1928 13.6072 19.3648 13.258 19.4091 12.881C19.5964 10.4035 19.5964 7.91492 19.4091 5.43741C19.3579 5.10416 19.2162 4.7923 19.0002 4.53728C18.7841 4.28227 18.5024 4.09434 18.1871 3.99488C18.0674 3.95845 17.9612 3.88605 17.8824 3.78711C18.0896 6.65392 18.0861 9.53259 17.8718 12.3989C17.8181 12.8426 17.6149 13.2533 17.2972 13.5606C16.984 13.8901 16.5714 14.1022 16.1258 14.1627C14.2428 14.3423 12.3438 14.4445 10.4834 14.4677C10.243 14.4719 10.004 14.5072 9.77222 14.5728C10.4149 14.6147 10.8451 14.6261 11.7219 14.6369C12.3491 14.6436 12.9486 14.902 13.3911 15.3565L15.489 17.5008V15.8095C15.4896 15.4743 15.6138 15.1517 15.8368 14.9059C16.0598 14.6601 16.3652 14.5093 16.6922 14.4835C17.1031 14.4529 17.5183 14.4178 17.9268 14.3788C18.3055 14.3277 18.6564 14.1478 18.9229 13.868Z" fill="#FF3964"/>
<path d="M10.6664 9.37167C10.5484 9.37156 10.4336 9.33289 10.3386 9.2613C10.2437 9.18971 10.1737 9.08896 10.1388 8.97378C10.1039 8.85859 10.1059 8.73502 10.1447 8.62112C10.1834 8.50722 10.2567 8.40896 10.354 8.34072L12.0599 7.14791L10.354 5.9551C10.233 5.87054 10.1499 5.74034 10.1229 5.59314C10.0959 5.44594 10.1271 5.29379 10.2099 5.17017C10.2926 5.04655 10.42 4.96157 10.564 4.93395C10.708 4.90632 10.8569 4.9383 10.9778 5.02286L13.3505 6.68204C13.4246 6.73393 13.4852 6.8035 13.527 6.88471C13.5689 6.96593 13.5908 7.05635 13.5908 7.14815C13.5908 7.23996 13.5689 7.33038 13.527 7.4116C13.4852 7.49281 13.4246 7.56238 13.3505 7.61428L10.9778 9.27297C10.8861 9.33726 10.7776 9.37167 10.6664 9.37167Z" fill="white"/>
<path d="M7.56422 11.0289C7.4802 11.029 7.39727 11.0095 7.32174 10.9719C7.2462 10.9343 7.18005 10.8796 7.12833 10.8119C7.0766 10.7442 7.04066 10.6654 7.02324 10.5814C7.00581 10.4974 7.00737 10.4104 7.02779 10.3271L8.65108 3.69089C8.68661 3.54561 8.77716 3.4207 8.90279 3.34365C9.02843 3.2666 9.17887 3.24372 9.32101 3.28004C9.46315 3.31637 9.58535 3.40891 9.66074 3.53733C9.73612 3.66574 9.75851 3.8195 9.72297 3.96479L8.10016 10.6025C8.06997 10.7244 8.00087 10.8325 7.9038 10.9097C7.80673 10.987 7.68723 11.0289 7.56422 11.0289Z" fill="white"/>
</svg>
