<svg width="11" height="12" viewBox="0 0 11 12" fill="none" xmlns="http://www.w3.org/2000/svg">
<path d="M0.439941 11.8988V0.160004H5.72242C6.47146 0.160004 7.14782 0.322124 7.75154 0.646324C8.36646 0.970524 8.84718 1.41772 9.19374 1.98792C9.54034 2.54688 9.71362 3.18416 9.71362 3.89964C9.71362 4.63752 9.54034 5.30272 9.19374 5.89524C8.84718 6.4766 8.37202 6.935 7.7683 7.27036C7.16462 7.60576 6.48262 7.77348 5.72242 7.77348H3.15662V11.8988H0.439941ZM6.94662 11.8988L3.96158 6.5996L6.87954 6.18036L10.1999 11.8988H6.94662ZM3.15662 5.5934H5.47086C5.76154 5.5934 6.0131 5.53192 6.2255 5.40892C6.4491 5.27476 6.61678 5.09032 6.72858 4.85552C6.85158 4.62076 6.91306 4.35244 6.91306 4.0506C6.91306 3.74872 6.84598 3.486 6.71182 3.2624C6.57766 3.02764 6.38202 2.84876 6.1249 2.72576C5.87894 2.6028 5.57706 2.54132 5.2193 2.54132H3.15662V5.5934Z" fill="black"/>
</svg>
