<svg width="20" height="20" viewBox="0 0 20 20" fill="none" xmlns="http://www.w3.org/2000/svg">
<path fill-rule="evenodd" clip-rule="evenodd" d="M18.9784 7.13855C18.9074 7.03536 18.7893 6.98242 18.6702 6.98242H11.8888L15.2704 1.58512C15.3575 1.44652 15.3624 1.25681 15.2567 1.1047C15.1849 1.00139 15.0656 0.9487 14.946 0.9487H9.10641C8.5201 0.9487 7.97227 1.26265 7.64386 1.78676L1.00728 12.3798C0.920458 12.5186 0.916805 12.7083 1.0214 12.8604C1.09227 12.9635 1.21039 13.0163 1.3296 13.0163H8.10755L4.72558 18.4149C4.66469 18.5123 4.64606 18.6348 4.67383 18.7516C4.71657 18.9326 4.87706 19.0513 5.05009 19.0513H10.8863C11.477 19.0513 12.029 18.7349 12.3597 18.2069L15.6108 13.0163L18.9922 7.61897C19.0792 7.48037 19.0828 7.29041 18.9784 7.13855Z" fill="#4E48E0"/>
<path fill-rule="evenodd" clip-rule="evenodd" d="M15.6119 13.0151L12.36 18.2068C12.0293 18.735 11.4772 19.0512 10.8867 19.0512H5.05046C4.87743 19.0512 4.71694 18.9326 4.67419 18.7516C4.64643 18.6348 4.66506 18.5123 4.72595 18.4149L8.10853 13.0151H15.6119Z" fill="#4E48E0"/>
<path fill-rule="evenodd" clip-rule="evenodd" d="M11.8846 6.98245H18.6704C18.7895 6.98245 18.9076 7.03539 18.9786 7.13846C19.0832 7.29044 19.0793 7.48027 18.9926 7.619L15.6112 13.0163H8.10498L11.8846 6.98245Z" fill="#1C81C1"/>
<path fill-rule="evenodd" clip-rule="evenodd" d="M1.32957 13.0163C1.21048 13.0163 1.09236 12.9635 1.02149 12.8604C0.916774 12.7083 0.920427 12.5186 1.00737 12.38L7.64395 1.78676C7.97224 1.26265 8.52019 0.9487 9.10638 0.9487H14.946C15.0656 0.9487 15.185 1.00151 15.2567 1.1047C15.3623 1.25681 15.3574 1.44652 15.2705 1.58524L8.10825 13.0163H1.32957Z" fill="#5CC4CD"/>
</svg>
