<svg width="23" height="18" viewBox="0 0 23 18" fill="none" xmlns="http://www.w3.org/2000/svg">
<path d="M20.4036 3.2087C19.521 3.2087 18.7321 3.63913 18.2507 4.2913L15.0012 8.72609C14.8809 8.89565 14.6803 9 14.4663 9C14.1053 9 13.8111 8.71304 13.8111 8.36087C13.8111 8.23043 13.8512 8.1 13.9181 8.0087L16.6594 4.00435C16.9402 3.6 17.1007 3.10435 17.1007 2.56957C17.1007 1.14783 15.9239 0 14.4663 0H0.66626V2.56957H12.4873C12.4873 3.27391 11.8989 3.86087 11.1634 3.86087H0.66626C0.66626 4.77391 0.866842 5.64783 1.21452 6.43043H9.83957C9.83957 7.13478 9.2512 7.72174 8.51573 7.72174H1.9901C3.1936 9.28696 5.10582 10.2913 7.27211 10.2913H10.5216C10.8826 10.2913 11.1768 10.5783 11.1768 10.9304C11.1768 11.2826 10.8826 11.5696 10.5216 11.5696H7.25874L2.84592 18H10.8291C14.4797 18 17.5821 15.6783 18.6652 12.4696L20.1495 8.07391C20.6309 6.65217 21.5135 5.4 22.6635 4.44783C22.2088 3.70435 21.3664 3.2087 20.4036 3.2087ZM20.4036 4.96956C20.1361 4.96956 19.9088 4.74783 19.9088 4.48696C19.9088 4.22609 20.1361 4.00435 20.4036 4.00435C20.671 4.00435 20.8984 4.22609 20.8984 4.48696C20.8984 4.76087 20.671 4.96956 20.4036 4.96956Z" fill="#0089FF"/>
</svg>
