<svg width="24" height="24" viewBox="0 0 24 24" fill="none" xmlns="http://www.w3.org/2000/svg">
<path d="M15.1672 0.915289L13.5836 4.87411L15.1672 8.04117L16.9486 3.8844H20.7095V18.1362C20.7095 18.73 20.5116 19.1259 20.1157 19.5217C19.7198 19.9176 19.126 20.1156 18.7301 20.1156C18.3342 20.1156 17.5425 19.9176 17.3445 19.3238L15.1672 14.3753L11.4063 6.2597L9.82276 2.8947C9.031 1.11323 7.05158 0.519409 5.666 0.519409C4.28041 0.519409 3.09276 1.11323 2.10306 2.10294C1.11335 3.09264 0.519531 4.28029 0.519531 5.66587V23.0847H8.23923L10.2186 18.73L8.63511 15.5629L6.45776 19.9176H3.29071V5.66587C3.29071 5.07205 3.48865 4.67617 3.88453 4.28029C4.28041 3.88441 4.87423 3.68646 5.27012 3.68646C5.46806 3.68646 6.45776 3.68646 6.85364 4.67617L8.63511 8.43705L9.22894 9.62469L12.7919 17.9382C13.3857 19.3238 14.1775 20.9073 14.3754 21.5012C14.9692 22.8867 16.7507 23.4806 18.3342 23.4806C18.928 23.4806 19.7198 23.2826 20.3136 23.0847C20.9075 22.8867 21.5013 22.4909 21.8972 21.897C22.293 21.5012 22.6889 20.9073 23.0848 20.3135C23.2827 19.7197 23.4807 18.9279 23.4807 18.3341V0.915289H15.1672Z" fill="#EC6225"/>
</svg>
