<svg width="24" height="24" viewBox="0 0 24 24" fill="none" xmlns="http://www.w3.org/2000/svg">
<path d="M14.613 5.95276V10.0605L16.05 10.9643C16.1019 10.9757 16.1557 10.9757 16.2075 10.9643L22.386 6.79876C22.3815 6.5966 22.3076 6.40215 22.1766 6.24809C22.0456 6.09402 21.8656 5.98974 21.6668 5.95276H14.613Z" fill="#0072C6"/>
<path d="M14.6131 11.5928L15.9233 12.4928C15.9847 12.5301 16.0551 12.5499 16.1269 12.5499C16.1988 12.5499 16.2692 12.5301 16.3306 12.4928C16.1056 12.6285 22.3853 8.45926 22.3853 8.45926V16.0088C22.4017 16.1617 22.3844 16.3164 22.3348 16.4621C22.2851 16.6077 22.2042 16.7407 22.0978 16.8518C21.9913 16.9629 21.8619 17.0493 21.7185 17.1052C21.5752 17.161 21.4213 17.1848 21.2678 17.175H14.6123L14.6131 11.5928Z" fill="#0072C6"/>
<path d="M7.83004 9.69902C7.61233 9.69797 7.3984 9.75583 7.21091 9.86648C7.02342 9.97712 6.86936 10.1364 6.76504 10.3275C6.48012 10.834 6.34342 11.4105 6.37054 11.991C6.34093 12.5703 6.47782 13.146 6.76504 13.65C6.86892 13.8332 7.01919 13.9859 7.20076 14.0926C7.38232 14.1994 7.58879 14.2564 7.7994 14.2581C8.01001 14.2598 8.21736 14.206 8.40059 14.1022C8.58383 13.9983 8.73651 13.8481 8.84329 13.6665C9.12737 13.1648 9.26143 12.5922 9.22954 12.0165C9.26207 11.4228 9.13244 10.8314 8.85454 10.3058C8.75523 10.1209 8.60731 9.9667 8.42676 9.85977C8.2462 9.75283 8.03987 9.69725 7.83004 9.69902Z" fill="#0072C6"/>
<path d="M1.61475 3.86625V19.9365L13.8397 22.5V1.5L1.61475 3.86625ZM9.79575 14.6182C9.56706 14.9406 9.26298 15.2022 8.91002 15.3801C8.55706 15.558 8.16593 15.6469 7.77075 15.639C7.38551 15.6458 7.00431 15.5595 6.65958 15.3874C6.31486 15.2153 6.01679 14.9625 5.79075 14.6505C5.25464 13.902 4.98645 12.9947 5.0295 12.075C4.98389 11.1102 5.25692 10.1572 5.8065 9.363C6.03807 9.03445 6.34692 8.76791 6.70582 8.5869C7.06472 8.40588 7.46264 8.31594 7.8645 8.325C8.24695 8.31733 8.62543 8.40365 8.96673 8.57639C9.30803 8.74913 9.60172 9.00302 9.822 9.31575C10.3527 10.0805 10.6164 10.9989 10.572 11.9288C10.6188 12.8865 10.3457 13.8327 9.79575 14.6182Z" fill="#0072C6"/>
</svg>
