<svg width="23" height="19" viewBox="0 0 23 19" fill="none" xmlns="http://www.w3.org/2000/svg">
<path d="M11.2619 0.886473C9.42319 0.89319 7.72731 1.53816 6.35726 2.62497C4.98782 3.71112 3.94358 5.23913 3.4094 7.00916C3.38777 7.0817 3.35438 7.14831 3.31234 7.207C3.26906 7.26635 3.21713 7.31713 3.15839 7.35802C2.31138 7.94561 1.6146 8.75676 1.14349 9.71366C0.671761 10.6699 0.425695 11.7719 0.480101 12.9405C0.558002 14.63 1.27765 16.1198 2.37444 17.1848C3.47061 18.2506 4.94454 18.8922 6.53099 18.8864H11.32H16.109C17.6949 18.8804 19.1645 18.2189 20.2544 17.1374C21.3444 16.0545 22.0542 14.5516 22.121 12.8607C22.1686 11.6921 21.9145 10.5921 21.4366 9.63848C20.9593 8.68554 20.2575 7.87966 19.4074 7.29933C19.3475 7.25778 19.2949 7.207 19.2523 7.14897C19.209 7.09027 19.1762 7.02432 19.1539 6.95178C18.608 5.18571 17.5545 3.66562 16.177 2.5887C14.8008 1.51244 13.1006 0.879341 11.2619 0.886473ZM11.2693 3.13202C12.6264 3.12683 13.9148 3.60693 14.9615 4.43391C16.0089 5.26155 16.8132 6.43607 17.2033 7.82163L17.2874 8.12169L17.3721 8.42175C17.3944 8.49957 17.4296 8.57079 17.476 8.6341C17.5217 8.69741 17.5792 8.75083 17.6448 8.79238L17.8976 8.95131L18.1511 9.1109C18.7576 9.49208 19.238 10.0256 19.5601 10.6521C19.8823 11.2779 20.0455 11.9961 20.0189 12.7479C19.9799 13.8393 19.5193 14.8068 18.8139 15.5025C18.1079 16.1983 17.1557 16.6223 16.1325 16.6256L11.3126 16.6441L6.49265 16.6613C5.46944 16.6652 4.51423 16.2484 3.80385 15.5573C3.09348 14.8668 2.62793 13.9026 2.58156 12.8119C2.54941 12.0601 2.70892 11.3412 3.0267 10.7121C3.34449 10.0836 3.82178 9.54681 4.42644 9.16102L4.67869 9.00011L4.93032 8.8392C4.99523 8.79699 5.05211 8.74292 5.09787 8.67961C5.14362 8.6163 5.17886 8.54375 5.19988 8.46594L5.28272 8.16522L5.36557 7.86516C5.7458 6.47696 6.54335 5.29584 7.58511 4.46095C8.62626 3.62605 9.91162 3.13672 11.2693 3.13202Z" fill="#03A94A"/>
<path d="M9.62978 8.58324C9.62978 8.71513 9.58032 8.83516 9.49933 8.92221C9.41834 9.00926 9.30643 9.06334 9.18216 9.064L8.73022 9.06531L8.27765 9.06729C8.154 9.06729 8.0421 9.01388 7.96049 8.92748C7.87888 8.84175 7.82818 8.72239 7.82756 8.59049L7.82571 8.10776L7.82385 7.62502C7.82385 7.49313 7.87393 7.3731 7.95492 7.28605C8.03591 7.199 8.14782 7.14492 8.27209 7.14427L8.72403 7.14295L9.1766 7.14097C9.30025 7.14097 9.41216 7.19504 9.49377 7.28078C9.57538 7.36717 9.62607 7.48653 9.62669 7.61843L9.62855 8.10116L9.62978 8.58324ZM12.1886 8.58324C12.1892 8.71513 12.1391 8.83516 12.0581 8.92221C11.9771 9.00926 11.8652 9.06334 11.7409 9.064L11.289 9.06531L10.8364 9.06729C10.7128 9.06729 10.6009 9.01388 10.5193 8.92748C10.4377 8.84175 10.387 8.72239 10.3863 8.59049L10.3845 8.10776L10.3832 7.62502C10.3826 7.49313 10.4327 7.3731 10.5137 7.28605C10.5947 7.199 10.7072 7.14492 10.8309 7.14427L11.2828 7.14295L11.7354 7.14097C11.859 7.14097 11.9709 7.19504 12.0525 7.28078C12.1342 7.36717 12.1849 7.48653 12.1855 7.61843L12.1873 8.10116L12.1886 8.58324ZM14.7479 8.5839C14.7479 8.71579 14.6978 8.83582 14.6168 8.92287C14.5358 9.00992 14.4239 9.064 14.2997 9.06466L13.8477 9.06597L13.3952 9.0673C13.2715 9.06795 13.159 9.01454 13.0774 8.92814C12.9958 8.84241 12.9451 8.72239 12.9451 8.59049L12.9432 8.10776L12.942 7.62568C12.9414 7.49313 12.9914 7.3731 13.0724 7.28605C13.1534 7.199 13.2653 7.14492 13.3896 7.14427L13.8415 7.14295L14.2941 7.14097C14.4184 7.13833 14.5321 7.18845 14.6156 7.27352C14.6991 7.35794 14.7528 7.47598 14.7559 7.60854V7.61381V7.61843L14.7516 8.10116L14.7479 8.5839ZM9.63096 11.3119C9.63096 11.4438 9.5815 11.5639 9.49989 11.6509C9.41889 11.738 9.30761 11.792 9.18334 11.7927L8.73139 11.794L8.27883 11.796C8.15518 11.796 8.04327 11.7426 7.96166 11.6562C7.88005 11.5705 7.82935 11.4511 7.82812 11.3192L7.82688 10.8358L7.82503 10.3537C7.82503 10.2218 7.87511 10.1018 7.9561 10.0148C8.03709 9.92771 8.14899 9.87363 8.27265 9.87297L8.72521 9.871L9.17777 9.86968C9.30143 9.86968 9.41333 9.92375 9.49494 10.0095C9.57655 10.0959 9.62725 10.2152 9.62787 10.3471L9.62972 10.8299L9.63096 11.3119ZM12.1897 11.3119C12.1897 11.4438 12.1403 11.5639 12.0593 11.6509C11.9783 11.738 11.8664 11.792 11.7421 11.7927L11.2902 11.794L10.8376 11.796C10.714 11.796 10.6021 11.7426 10.5204 11.6562C10.4388 11.5705 10.3881 11.4511 10.3875 11.3192L10.3857 10.8358L10.3838 10.3537C10.3838 10.2218 10.4339 10.1018 10.5149 10.0148C10.5959 9.92771 10.7078 9.87363 10.832 9.87297L11.284 9.871L11.7366 9.86968C11.8602 9.86968 11.9721 9.92375 12.0537 10.0095C12.1353 10.0959 12.186 10.2152 12.1866 10.3471L12.1885 10.8299L12.1897 11.3119ZM14.7485 11.3119C14.7485 11.4438 14.6991 11.5639 14.6181 11.6509C14.5371 11.738 14.4252 11.792 14.3009 11.7927L13.849 11.794L13.3964 11.796C13.2727 11.796 13.1602 11.7432 13.0786 11.6569C12.997 11.5711 12.9463 11.4511 12.9463 11.3192L12.9444 10.8358L12.9426 10.3537C12.9426 10.2218 12.9921 10.1018 13.0737 10.0148C13.1547 9.92771 13.2666 9.87363 13.3908 9.87297L13.8428 9.871L14.2953 9.86968C14.419 9.86968 14.5309 9.92375 14.6125 10.0095C14.6941 10.0959 14.7448 10.2152 14.7454 10.3471L14.7473 10.8299L14.7485 11.3119ZM9.6322 14.0401C9.63281 14.172 9.58273 14.2926 9.50174 14.3797C9.42075 14.4661 9.30884 14.5208 9.18457 14.5208L8.73263 14.5221L8.28006 14.5235C8.15579 14.5241 8.04389 14.4707 7.96228 14.3843C7.88067 14.2986 7.82997 14.1792 7.82935 14.0467L7.82812 13.5639L7.82626 13.0818C7.82626 12.9499 7.87634 12.8299 7.95733 12.7429C8.03833 12.6558 8.15023 12.6017 8.27388 12.6011L8.72583 12.5991L9.17901 12.5978C9.30266 12.5971 9.41457 12.6512 9.49618 12.7369C9.57779 12.8233 9.62848 12.9434 9.6291 13.0752L9.63034 13.558L9.6322 14.0401ZM12.191 14.0401C12.1916 14.172 12.1415 14.2926 12.0605 14.3797C11.9795 14.4661 11.8676 14.5208 11.7434 14.5208L11.2914 14.5221L10.8388 14.5235C10.7146 14.5241 10.6027 14.4707 10.5211 14.3843C10.4395 14.2986 10.3888 14.1792 10.3881 14.0467L10.3869 13.5639L10.385 13.0818C10.385 12.9499 10.4351 12.8299 10.5161 12.7429C10.5971 12.6558 10.709 12.6017 10.8327 12.6011L11.2852 12.5991L11.7378 12.5978C11.8614 12.5971 11.9733 12.6512 12.055 12.7369C12.1366 12.8233 12.1873 12.9434 12.1879 13.0752L12.1897 13.558L12.191 14.0401ZM14.7497 14.0401C14.7503 14.172 14.7002 14.2926 14.6192 14.3797C14.5383 14.4661 14.4263 14.5208 14.3021 14.5208L13.8501 14.5221L13.3976 14.5235C13.2733 14.5241 13.1614 14.4707 13.0798 14.3843C12.9982 14.2986 12.9475 14.1792 12.9469 14.0467L12.9456 13.5639L12.9438 13.0818C12.9438 12.9499 12.9932 12.8293 13.0742 12.7422C13.1552 12.6552 13.2677 12.6011 13.392 12.6011L13.8439 12.5991L14.2965 12.5978C14.4202 12.5971 14.5321 12.6512 14.6137 12.7369C14.6953 12.8233 14.746 12.9434 14.7466 13.0752L14.7485 13.558L14.7497 14.0401Z" fill="#03A94A"/>
</svg>
