<svg width="18" height="20" viewBox="0 0 18 20" fill="none" xmlns="http://www.w3.org/2000/svg">
<path d="M15.2739 1.44232C16.2385 2.24445 16.9733 3.21182 17.1518 4.46805C17.1709 4.7696 17.1761 5.06704 17.1728 5.36915C17.1719 5.47603 17.171 5.5829 17.17 5.69301C17.1228 7.33393 16.4115 8.61908 15.2977 9.82508C13.6988 11.2818 11.4921 12.0375 9.33592 12.0011C9.31664 12.1586 9.31664 12.1586 9.29698 12.3193C8.53517 18.2795 8.53517 18.2795 7.37358 19.2993C6.55738 19.9068 5.74404 19.8801 4.75091 19.825C3.6587 19.6395 2.70699 18.8787 2.0784 18.0107C1.06953 16.4342 0.82139 14.6376 0.826241 12.8079C0.826229 12.7377 0.826217 12.6676 0.826205 12.5952C0.829368 11.2922 0.971937 10.0472 1.26232 8.77375C1.27775 8.70256 1.29318 8.63136 1.30909 8.55801C1.52877 7.56262 1.90993 6.65507 2.35873 5.74201C2.44045 5.57541 2.44045 5.57541 2.52382 5.40544C3.81829 2.91614 5.90717 1.32887 8.58408 0.458991C10.7306 -0.123845 13.4985 0.0650827 15.2739 1.44232Z" fill="#1F1F1F"/>
<path d="M10.1423 2.61362C10.2658 2.61248 10.2658 2.61248 10.3917 2.61133C11.464 2.61463 12.3493 2.85211 13.1633 3.58163C13.7402 4.20499 13.9151 4.90255 13.9037 5.73688C13.903 5.81349 13.9022 5.89011 13.9015 5.96904C13.8686 7.13766 13.4485 8.13788 12.6092 8.95775C11.7388 9.57157 10.7483 10.0558 9.65997 10.0558C9.71475 9.56318 9.78971 9.07676 9.87406 8.58831C9.89602 8.45964 9.91797 8.33096 9.93989 8.20229C9.9736 8.00459 10.0076 7.80699 10.0428 7.60955C10.2122 6.65503 10.2767 5.75393 10.2462 4.78526C9.65806 4.53572 9.1212 4.52556 8.4876 4.59006C8.03118 4.80232 7.83035 5.0253 7.60832 5.46848C7.52459 5.77241 7.47027 6.07993 7.41636 6.39036C7.39179 6.52545 7.39179 6.52545 7.36672 6.66327C7.18793 7.6577 7.0278 8.65531 6.86948 9.65316C6.69983 10.7218 6.52454 11.7856 6.30579 12.8454C6.20111 13.3808 6.12767 13.9201 6.05126 14.4601C5.69415 16.8599 5.69415 16.8599 5.06818 17.3759C4.7873 17.4003 4.7873 17.4003 4.482 17.2783C3.744 16.6232 3.44019 15.4896 3.30963 14.5455C3.29737 14.2874 3.28911 14.0319 3.28635 13.7738C3.2854 13.7002 3.28445 13.6267 3.28348 13.5509C3.28104 13.3131 3.27981 13.0753 3.2791 12.8374C3.27884 12.7564 3.27859 12.6754 3.27832 12.592C3.27788 11.2874 3.37065 10.0544 3.70042 8.78695C3.74273 8.61238 3.74273 8.61238 3.7859 8.43428C4.15067 7.1019 4.78872 5.85822 5.65437 4.78526C5.72691 4.68461 5.79945 4.58396 5.87419 4.48025C7.04038 3.26225 8.46401 2.59829 10.1423 2.61362Z" fill="#FAFAFA"/>
</svg>
