<svg width="19" height="18" viewBox="0 0 19 18" fill="none" xmlns="http://www.w3.org/2000/svg">
<path d="M14.6308 14.1537C13.6128 15.1377 11.6226 15.7238 9.30482 15.7238C6.98704 15.7238 4.99458 15.1377 3.97967 14.1537C2.96475 13.1697 2.3522 11.2437 2.3522 9.00147C2.3522 6.75924 2.96175 4.83466 3.97891 3.84991C4.9961 2.86519 6.98929 2.27623 9.30781 2.27623C11.6264 2.27623 13.6158 2.86519 14.6337 3.84991C15.6516 4.83466 16.2567 6.75995 16.2567 9.00147C16.2567 11.2429 15.6449 13.169 14.6308 14.1537ZM18.6067 9C18.6067 7.21999 18.061 5.47991 17.0388 3.99987C16.0165 2.51983 14.5635 1.36628 12.8636 0.68509C11.1636 0.00389965 9.29303 -0.174331 7.48832 0.172936C5.68367 0.520205 4.02598 1.37737 2.72488 2.63604C1.42379 3.89472 0.537734 5.49838 0.178765 7.24419C-0.180206 8.99001 0.00403089 10.7996 0.708177 12.4442C1.41233 14.0887 2.60475 15.4943 4.13468 16.4832C5.66463 17.4722 7.46331 18 9.30336 18C10.5251 18 11.7348 17.7672 12.8636 17.3149C13.9923 16.8626 15.0179 16.1997 15.8818 15.3639C16.7457 14.5282 17.4309 13.5361 17.8985 12.4442C18.366 11.3522 18.6067 10.1819 18.6067 9Z" fill="#FC6423"/>
<path d="M11.0981 7.74039V10.2004C11.0987 10.3354 11.0439 10.4652 10.9457 10.5612C10.8476 10.6572 10.7141 10.7117 10.5745 10.7127H8.02416C7.88531 10.7136 7.75175 10.6612 7.65286 10.5669C7.55396 10.4726 7.49785 10.3442 7.49683 10.2098C7.49683 10.2067 7.49683 10.2035 7.49688 10.2004V7.74039C7.49658 7.67331 7.50995 7.60681 7.53619 7.54475C7.56248 7.48265 7.60111 7.42619 7.64992 7.37854C7.69873 7.33093 7.75679 7.29304 7.82073 7.26713C7.88467 7.24117 7.95331 7.22772 8.02264 7.22743L8.02416 7.22739H10.5716C10.6409 7.22758 10.7095 7.24098 10.7735 7.26684C10.8375 7.29271 10.8956 7.33046 10.9445 7.37802C10.9934 7.42562 11.0321 7.48204 11.0584 7.54409C11.0848 7.6061 11.0982 7.67255 11.0981 7.73968V7.74039Z" fill="#FC6423"/>
<path d="M13.659 4.75341C12.9379 4.05591 11.226 3.60443 9.29711 3.60443C7.36825 3.60443 5.65622 4.05591 4.93521 4.75341C4.21424 5.45091 3.74829 7.10923 3.74829 8.97592C3.74829 10.8426 4.21125 12.501 4.93521 13.1992C5.65921 13.8974 7.36825 14.3474 9.29711 14.3474C11.226 14.3474 12.9379 13.8959 13.659 13.1992C14.38 12.5024 14.8466 10.8426 14.8466 8.97592C14.8466 7.10923 14.3836 5.44726 13.659 4.75341ZM11.9746 11.5488C11.8251 11.6935 11.3651 12.1378 9.28208 12.1378C7.19914 12.1378 6.73918 11.6957 6.58961 11.5488C6.44 11.4019 5.98086 10.9599 5.98086 8.94409C5.98086 6.92833 6.43779 6.48411 6.58961 6.3394C6.74143 6.19469 7.19542 5.75331 9.28208 5.75331C11.3688 5.75331 11.8206 6.19251 11.9746 6.3394C12.1287 6.48624 12.5797 6.92833 12.5797 8.94409C12.5797 10.9599 12.1235 11.3998 11.9746 11.5459V11.5488Z" fill="#FC6423"/>
</svg>
