<svg width="24" height="22" viewBox="0 0 24 22" fill="none" xmlns="http://www.w3.org/2000/svg">
<path d="M20.8192 9.30651C20.8192 8.85914 20.8192 8.85914 20.8192 9.30651C20.3718 8.47551 19.9882 8.03151 19.1579 7.64526C17.8829 6.81426 16.2179 5.53626 12.8305 4.70526C11.1693 4.25789 9.89053 4.25789 9.05953 4.70526C6.50315 5.15264 4.84078 5.98026 4.01053 6.36651H3.56315C3.37255 6.56385 3.14416 6.72079 2.89161 6.82797C2.63906 6.93516 2.36751 6.9904 2.09315 6.9904C1.8188 6.9904 1.54725 6.93516 1.2947 6.82797C1.04214 6.72079 0.813758 6.56385 0.623153 6.36651C0.425818 6.17591 0.26888 5.94752 0.161693 5.69497C0.0545072 5.44242 -0.000732422 5.17087 -0.000732422 4.89651C-0.000732422 4.62216 0.0545072 4.35061 0.161693 4.09805C0.26888 3.8455 0.425818 3.61712 0.623153 3.42651C0.623153 3.42651 3.17953 0.870136 8.22815 0.486511C9.8894 0.486511 11.6155 0.486511 13.2772 0.933886C20.8822 2.20889 23.8222 7.26126 23.8222 7.70864C24.2695 8.53964 23.8222 9.81764 22.9912 10.265H22.1602C22.0964 10.1375 21.2017 9.68976 20.8177 9.30651H20.8192ZM16.1542 13.5245L15.3232 12.6935C14.9395 12.3099 13.6619 11.4185 11.9358 11.0323H9.82678C8.16553 11.0323 7.2704 11.8633 7.2704 11.8633C6.4394 12.6943 5.60915 12.6943 4.71403 11.8633C3.88303 11.0323 3.88303 10.202 4.71403 9.30689C4.71403 9.30689 6.37528 7.64564 9.37978 7.19789H12.3198C16.9855 8.02889 18.6472 10.9689 19.0945 11.4166C19.5419 12.2476 19.0945 13.0779 18.2635 13.5256H17.8124C16.9814 14.8006 16.1512 14.3566 16.1512 13.5256L16.1542 13.5245ZM14.4922 17.7425C14.4922 19.8515 12.3832 21.5135 10.2734 21.5135C7.71703 21.5135 6.05465 19.8523 6.05465 17.7425C6.05465 15.6328 8.16365 13.9715 10.2734 13.9715C12.766 13.9078 14.4922 15.6328 14.4922 17.7425Z" fill="#FF8800"/>
</svg>
