<svg width="20" height="19" viewBox="0 0 20 19" fill="none" xmlns="http://www.w3.org/2000/svg">
<path d="M15.1449 1.33979C17.0541 2.77048 18.4094 4.66796 19.1304 7.05583C19.4075 10.3143 19.1628 12.8313 17.1874 15.4155C15.6247 17.2186 14.1075 18.3264 11.78 18.604C9.25439 18.6683 7.47883 18.3282 5.31399 16.7731C5.13863 16.5845 4.96327 16.3958 4.78259 16.2015C4.27351 16.1847 4.27351 16.1847 3.70319 16.2908C3.49221 16.3217 3.28122 16.3527 3.06385 16.3846C2.84191 16.4185 2.61997 16.4524 2.3913 16.4873C1.9431 16.5425 1.49473 16.5961 1.04619 16.6481C0.700949 16.6893 0.355705 16.7306 0 16.7731C0.558104 15.8392 1.09353 15.0175 1.81008 14.2187C2.47906 13.4059 2.47906 13.4059 2.34148 12.4861C2.30654 12.3199 2.27161 12.1538 2.23561 11.9826C1.79256 9.40635 1.90296 6.74484 3.1884 4.48361C6.02497 0.347433 10.7609 -1.44039 15.1449 1.33979Z" fill="#5B8F29"/>
<path d="M11.1592 6.77005C12.3867 6.77005 13.6142 6.77005 14.879 6.77005C14.879 8.19906 14.879 8.19906 14.5136 8.82425C13.8941 9.97765 13.7505 11.1828 13.5505 12.4861C13.0244 12.4861 12.4983 12.4861 11.9563 12.4861C11.7483 10.7409 12.4589 9.62676 13.2848 8.19906C12.5833 8.19906 11.8819 8.19906 11.1592 8.19906C11.1592 7.72749 11.1592 7.25591 11.1592 6.77005Z" fill="#F1F4EB"/>
<path d="M6.3772 6.77005C7.60473 6.77005 8.83226 6.77005 10.097 6.77005C9.9654 8.12887 9.68986 9.25615 9.21998 10.5234C8.99585 11.1672 8.86704 11.8077 8.76849 12.4861C8.24241 12.4861 7.71632 12.4861 7.1743 12.4861C7.29808 10.855 7.68911 9.86832 8.50279 8.48486C7.80135 8.39055 7.0999 8.29623 6.3772 8.19906C6.3772 7.72749 6.3772 7.25591 6.3772 6.77005Z" fill="#F1F5EC"/>
</svg>
