<svg width="20" height="21" viewBox="0 0 20 21" fill="none" xmlns="http://www.w3.org/2000/svg">
<path d="M19.75 10.3644C19.75 16.0522 15.3507 20.6536 9.91278 20.6536C4.47481 20.6536 0.0755615 16.0522 0.0755615 10.3644C0.0755615 4.67666 4.47481 0.0753174 9.91278 0.0753174C15.3304 0.0753174 19.75 4.67666 19.75 10.3644Z" fill="#5E3678"/>
<path d="M9.89346 20.6962C15.3489 20.6962 19.7714 16.0705 19.7714 10.3644C19.7714 4.65838 15.3489 0.0327148 9.89346 0.0327148C4.43801 0.0327148 0.0155029 4.65838 0.0155029 10.3644C0.0155029 16.0705 4.43801 20.6962 9.89346 20.6962Z" fill="#5E3678"/>
<path d="M9.89307 10.3644L13.5591 8.23419L19.4044 13.219L9.89307 10.3644Z" fill="url(#paint0_linear_306_148)"/>
<path d="M13.5588 8.23413L19.4041 13.2189L18.8135 12.8994L13.5588 8.40455V8.23413Z" fill="#E53121"/>
<path d="M9.89307 10.3644L13.5591 8.23419L13.5387 8.40461L10.2189 10.3218L9.89307 10.3644Z" fill="#F08465"/>
<path d="M19.4044 13.219L9.89307 10.3645L10.2393 10.3219L18.8138 12.8995L19.4044 13.219Z" fill="#B82B18"/>
<path d="M9.89307 10.3645L13.5591 8.23426L12.6222 0.416229L9.89307 10.3645Z" fill="#F5B0AC"/>
<path d="M12.6222 0.416229L9.89307 10.3645L10.1171 10.0876L12.5815 1.09791L12.6222 0.416229Z" fill="#D47785"/>
<path d="M13.5585 8.23419L12.6217 0.416168L12.5809 1.09785L13.4363 8.14898L13.5585 8.23419Z" fill="#D99E9B"/>
<path d="M9.89307 10.3644L13.5591 8.2342L13.4165 8.14899L10.0967 10.0662L9.89307 10.3644Z" fill="#F9D1CD"/>
<path d="M11.9291 14.1989L7.16321 20.3127L7.46871 19.6949L11.7661 14.1776L11.9291 14.1989Z" fill="#F9F9FC"/>
<path d="M9.89307 10.3644L11.9298 14.1989L11.7668 14.1776L9.9338 10.7053L9.89307 10.3644Z" fill="#F3F2F9"/>
<path d="M7.16321 20.3127L9.89237 10.3645L9.93311 10.7266L7.46871 19.695L7.16321 20.3127Z" fill="#DCDAEE"/>
<path d="M9.89307 10.3644L11.9298 14.1989L19.4044 13.219L9.89307 10.3644Z" fill="#2B2B85"/>
<path d="M19.4044 13.219L9.89307 10.3644L10.1578 10.5988L18.7527 13.1764L19.4044 13.219Z" fill="#484293"/>
<path d="M11.9299 14.1989L19.4046 13.219L18.7528 13.1764L12.0114 14.0711L11.9299 14.1989Z" fill="#24236F"/>
<path d="M9.89307 10.3644L11.9298 14.1989L12.0112 14.0498L10.1782 10.5775L9.89307 10.3644Z" fill="#8F88C0"/>
<path d="M9.89282 10.3645L6.22678 12.4947L0.38147 7.50995L9.89282 10.3645Z" fill="url(#paint1_linear_306_148)"/>
<path d="M6.22677 12.4947L0.38147 7.50995L0.97211 7.82949L6.24714 12.3243L6.22677 12.4947Z" fill="#BBB7DB"/>
<path d="M9.89334 10.3645L6.22729 12.4947L6.24766 12.3243L9.56747 10.4071L9.89334 10.3645Z" fill="#B0AAD4"/>
<path d="M0.38147 7.50995L9.89282 10.3645L9.54658 10.4071L0.97211 7.82949L0.38147 7.50995Z" fill="#D1CCE6"/>
<path d="M9.89334 10.3645L6.22729 12.4947L7.16417 20.3127L9.89334 10.3645Z" fill="#FFDD00"/>
<path d="M7.16321 20.3127L9.89237 10.3645L9.66834 10.6414L7.22431 19.6311L7.16321 20.3127Z" fill="#DBBB85"/>
<path d="M6.22729 12.4947L7.16417 20.3127L7.20491 19.631L6.3495 12.5799L6.22729 12.4947Z" fill="#EBC536"/>
<path d="M9.89334 10.3645L6.22729 12.4947L6.36986 12.5799L9.68967 10.6627L9.89334 10.3645Z" fill="#FFE167"/>
<path d="M9.89289 10.3644L7.8562 6.52999L12.6221 0.416168L9.89289 10.3644Z" fill="#E53121"/>
<path d="M7.8562 6.52999L12.6221 0.416168L12.3166 1.03394L8.01914 6.55129L7.8562 6.52999Z" fill="#EA583C"/>
<path d="M9.89289 10.3645L7.8562 6.53L8.01914 6.5513L9.85216 10.0236L9.89289 10.3645Z" fill="#D42F1E"/>
<path d="M12.622 0.416168L9.89278 10.3644L9.85205 10.0023L12.3164 1.03394L12.622 0.416168Z" fill="#C22C1A"/>
<path d="M9.89282 10.3645L7.85613 6.53L0.38147 7.50991L9.89282 10.3645Z" fill="#F3F2F9"/>
<path d="M0.38147 7.50995L9.89282 10.3645L9.62805 10.1302L1.03321 7.57386L0.38147 7.50995Z" fill="#F9F8FB"/>
<path d="M7.85613 6.53L0.38147 7.50991L1.03321 7.55252L7.77466 6.65781L7.85613 6.53Z" fill="#DCDAEE"/>
<path d="M9.89257 10.3645L7.85588 6.53006L7.77441 6.67918L9.60744 10.1515L9.89257 10.3645Z" fill="#F9F9FC"/>
<path d="M17.0212 3.1855C15.7992 1.86474 14.292 0.927429 12.6219 0.416168L13.5588 8.23419L17.0212 3.1855Z" fill="url(#paint2_linear_306_148)"/>
<path d="M12.6219 0.416168L13.5588 8.23419L13.6403 7.87205L12.7645 0.458773C12.7238 0.458773 12.6627 0.437471 12.6219 0.416168Z" fill="#8F88C0"/>
<path d="M16.92 3.07895L13.6613 7.87202L13.5798 8.23416L17.0218 3.16416C16.9811 3.14286 16.9607 3.10025 16.92 3.07895Z" fill="#A59FCE"/>
<path d="M17.0212 3.1855C15.7992 1.86474 14.292 0.927429 12.6219 0.416168L12.8052 0.757009C14.3124 1.24697 15.6566 2.12037 16.7768 3.29201L17.0212 3.1855Z" fill="url(#paint3_linear_306_148)"/>
<path d="M13.5588 8.23431L17.0008 3.16431C18.2025 4.46376 19.0579 6.08275 19.4856 7.85086L13.5588 8.23431Z" fill="url(#paint4_linear_306_148)"/>
<path d="M17.0212 3.18549L13.5588 8.23418L13.8236 8.08507L17.1027 3.292C17.0823 3.24939 17.0416 3.20679 17.0212 3.18549Z" fill="#ED6F50"/>
<path d="M19.4659 7.72296L13.8446 8.0851L13.5798 8.23422L19.5066 7.85078C19.4862 7.80817 19.4659 7.76557 19.4659 7.72296Z" fill="#A62714"/>
<path d="M19.2009 7.74435C18.7936 6.16796 18.0197 4.71939 16.9606 3.50515L17.0217 3.16431C18.2233 4.46376 19.0787 6.08275 19.5064 7.85086L19.2009 7.74435Z" fill="url(#paint5_linear_306_148)"/>
<path d="M13.5588 8.23425L19.4856 7.8508C19.8929 9.555 19.8929 11.387 19.4041 13.1977L13.5588 8.23425Z" fill="url(#paint6_linear_306_148)"/>
<path d="M19.5066 7.8721L13.5798 8.25555L13.9261 8.36206L19.5473 7.99992C19.527 7.95731 19.5066 7.91471 19.5066 7.8721Z" fill="#D1CEE8"/>
<path d="M19.4041 13.219C19.4245 13.1764 19.4245 13.1125 19.4449 13.0699L13.9051 8.36204L13.5588 8.25552L19.4041 13.219Z" fill="#F3F2F9"/>
<path d="M19.2206 12.8782C19.6279 11.2379 19.6279 9.5763 19.2613 8.02122L19.5057 7.8721C19.9131 9.5763 19.9131 11.4083 19.4243 13.219L19.2206 12.8782Z" fill="url(#paint7_linear_306_148)"/>
<path d="M3.02917 2.92987C1.80715 4.14411 0.890643 5.6992 0.38147 7.50991L7.85613 6.53L3.02917 2.92987Z" fill="url(#paint8_linear_306_148)"/>
<path d="M0.38147 7.50992L7.85613 6.53L7.50989 6.44479L0.422204 7.3608C0.422204 7.40341 0.401837 7.46731 0.38147 7.50992Z" fill="#FFCB00"/>
<path d="M2.92749 3.01505L7.51005 6.42345L7.85628 6.50866L3.02932 2.92984C2.98859 2.95114 2.96822 2.99375 2.92749 3.01505Z" fill="#FFDD00"/>
<path d="M3.02917 2.92987C1.76642 4.18672 0.870276 5.76311 0.38147 7.50991L0.70734 7.31819C1.17578 5.7418 2.01082 4.33584 3.131 3.1642C3.15137 3.1855 3.02917 2.92987 3.02917 2.92987Z" fill="#FFF8C7"/>
<path d="M7.85638 6.53L3.02942 2.92987C4.2718 1.67302 5.81969 0.778316 7.51014 0.330963L7.85638 6.53Z" fill="url(#paint9_linear_306_148)"/>
<path d="M3.02942 2.92987L7.87674 6.53L7.73418 6.25306L3.13125 2.82336C3.09052 2.86596 3.04979 2.88727 3.02942 2.92987ZM7.36757 0.352266L7.71381 6.23176L7.85638 6.50869L7.51014 0.330963L7.36757 0.352266Z" fill="#E53121"/>
<path d="M7.38743 0.650501C5.88028 1.07655 4.49533 1.88605 3.33442 2.99378L3.00854 2.92987C4.25093 1.67302 5.79881 0.778316 7.48927 0.330963L7.38743 0.650501Z" fill="url(#paint10_linear_306_148)"/>
<path d="M7.85661 6.53001L7.51038 0.330976C9.13973 -0.0950743 10.8913 -0.0950744 12.6225 0.416186L7.85661 6.53001Z" fill="url(#paint11_linear_306_148)"/>
<path d="M7.51038 0.330966L7.87698 6.53L7.97881 6.16786L7.63258 0.288361C7.59184 0.309663 7.55111 0.309663 7.51038 0.330966Z" fill="#1E398E"/>
<path d="M12.6218 0.416171C12.5811 0.394868 12.52 0.394868 12.4793 0.373566L7.97818 6.16785L7.87634 6.52999L12.6218 0.416171Z" fill="#2F2482"/>
<path d="M12.2966 0.607849C10.7283 0.181799 9.13973 0.181799 7.65294 0.565244L7.51038 0.309614C9.13973 -0.116437 10.8913 -0.116437 12.6225 0.394824L12.2966 0.607849Z" fill="url(#paint12_linear_306_148)"/>
<path d="M2.78442 17.5647C3.98607 18.8641 5.51359 19.8228 7.18368 20.3127L6.2468 12.4947L2.78442 17.5647Z" fill="#2B2B85"/>
<path d="M7.16349 20.3127L6.22661 12.4947L6.14514 12.8568L7.04129 20.2701C7.08202 20.2914 7.12275 20.2914 7.16349 20.3127Z" fill="#24236F"/>
<path d="M2.86589 17.6499L6.1246 12.8568L6.20607 12.4947L2.78442 17.5647L2.86589 17.6499Z" fill="#5B549F"/>
<path d="M2.78442 17.5647C3.98607 18.8642 5.51359 19.8228 7.18368 20.3127L7.00038 19.9719C5.49322 19.4819 4.14901 18.6085 3.02883 17.4369L2.78442 17.5647Z" fill="url(#paint13_linear_306_148)"/>
<path d="M6.22719 12.4947L2.78518 17.5647C1.58815 16.2499 0.732758 14.6365 0.300415 12.8781L6.22719 12.4947Z" fill="url(#paint14_linear_306_148)"/>
<path d="M2.78518 17.5647L6.22719 12.4947L5.96242 12.6438L2.68335 17.4582C2.72408 17.4795 2.74445 17.5221 2.78518 17.5647Z" fill="#B0AAD4"/>
<path d="M0.320782 13.006L5.94205 12.6438L6.20682 12.4947L0.300415 12.8781C0.300415 12.9207 0.320782 12.9633 0.320782 13.006Z" fill="#DAD8ED"/>
<path d="M0.605919 12.9847C1.01326 14.5611 1.7872 16.0096 2.84628 17.2239L2.78518 17.5647C1.58815 16.2499 0.732758 14.6365 0.300415 12.8782L0.605919 12.9847Z" fill="url(#paint15_linear_306_148)"/>
<path d="M6.22682 12.4947L0.300044 12.8782C-0.107294 11.174 -0.107294 9.34193 0.381512 7.53122L6.22682 12.4947Z" fill="#E53121"/>
<path d="M0.299401 12.8781L6.22617 12.4947L5.87994 12.3882L0.258667 12.729C0.279034 12.7716 0.279034 12.8142 0.299401 12.8781Z" fill="#CA2D0A"/>
<path d="M0.381508 7.50995C0.361141 7.55255 0.361141 7.61646 0.340774 7.65907L5.88058 12.3882L6.22681 12.4947L0.381508 7.50995ZM0.56481 7.85079C0.157472 9.49108 0.157472 11.1527 0.524077 12.7078L0.279674 12.8569C-0.127665 11.1101 -0.0869308 9.25676 0.381508 7.50995L0.56481 7.85079Z" fill="#ED6F50"/>
<path d="M16.7773 17.8204C18.0196 16.5635 18.9362 14.9658 19.4046 13.219L11.9299 14.1989L16.7773 17.8204Z" fill="url(#paint16_linear_306_148)"/>
<path d="M19.4046 13.219L11.9299 14.1989L12.2762 14.2842L19.3639 13.3468C19.3842 13.3255 19.3842 13.2616 19.4046 13.219Z" fill="#7B73B3"/>
<path d="M16.8587 17.7138L12.2762 14.3054L11.9299 14.2202L16.7773 17.8203C16.7976 17.7777 16.8384 17.7351 16.8587 17.7138Z" fill="#D1CEE8"/>
<path d="M16.7769 17.8203C17.9785 16.6061 18.9154 15.0297 19.4042 13.219L19.0783 13.4107C18.6099 14.9871 17.7748 16.393 16.6547 17.5647L16.7769 17.8203Z" fill="#655EA5"/>
<path d="M11.9299 14.1989L16.7773 17.799C15.5349 19.0559 13.987 19.9506 12.2965 20.3979L11.9299 14.1989Z" fill="url(#paint17_linear_306_148)"/>
<path d="M16.7773 17.8203L11.9299 14.1989L12.0725 14.4758L16.6551 17.9056C16.6958 17.8843 16.7365 17.8416 16.7773 17.8203ZM12.4187 20.3766L12.0725 14.4971L11.9299 14.2202L12.2965 20.4192C12.3373 20.3979 12.378 20.3766 12.4187 20.3766Z" fill="#E53121"/>
<path d="M12.398 20.0997C13.9051 19.6736 15.2901 18.8641 16.451 17.7564L16.7769 17.8203C15.5345 19.0772 13.9866 19.9719 12.2961 20.4192L12.398 20.0997Z" fill="url(#paint18_linear_306_148)"/>
<path d="M11.9297 14.1989L12.2963 20.3979C10.6669 20.824 8.91539 20.824 7.1842 20.3127L11.9297 14.1989Z" fill="url(#paint19_linear_306_148)"/>
<path d="M12.2963 20.3979L11.9297 14.1989L11.8279 14.561L12.1741 20.4405C12.1945 20.4192 12.2556 20.4192 12.2963 20.3979Z" fill="#F5B0AC"/>
<path d="M7.16321 20.3127L7.30578 20.3553L11.8272 14.561L11.9291 14.1989L7.16321 20.3127Z" fill="#FAD9D5"/>
<path d="M7.48908 20.121C9.05733 20.5471 10.646 20.5471 12.1327 20.1636L12.2753 20.4193C10.5848 20.8666 8.83329 20.824 7.16321 20.3341L7.48908 20.121Z" fill="url(#paint20_linear_306_148)"/>
<defs>
<linearGradient id="paint0_linear_306_148" x1="14.1104" y1="10.0264" x2="17.9113" y2="11.0525" gradientUnits="userSpaceOnUse">
<stop stop-color="#E53121"/>
<stop offset="1" stop-color="#C22C1A"/>
</linearGradient>
<linearGradient id="paint1_linear_306_148" x1="0.440956" y1="9.15695" x2="9.97918" y2="11.7318" gradientUnits="userSpaceOnUse">
<stop stop-color="#DCDAEE"/>
<stop offset="1" stop-color="#8F88C0"/>
</linearGradient>
<linearGradient id="paint2_linear_306_148" x1="16.6872" y1="5.33322" x2="11.6319" y2="4.03825" gradientUnits="userSpaceOnUse">
<stop stop-color="#7B73B3"/>
<stop offset="1" stop-color="#C6C2E2"/>
</linearGradient>
<linearGradient id="paint3_linear_306_148" x1="17.1257" y1="3.14417" x2="12.4937" y2="0.58724" gradientUnits="userSpaceOnUse">
<stop stop-color="#6C62A8"/>
<stop offset="1" stop-color="#CBCAE6"/>
</linearGradient>
<linearGradient id="paint4_linear_306_148" x1="14.7705" y1="4.47015" x2="17.6569" y2="9.25018" gradientUnits="userSpaceOnUse">
<stop stop-color="#E53121"/>
<stop offset="1" stop-color="#A62714"/>
</linearGradient>
<linearGradient id="paint5_linear_306_148" x1="17.0317" y1="3.19243" x2="19.8288" y2="7.82447" gradientUnits="userSpaceOnUse">
<stop stop-color="#E84D2C"/>
<stop offset="1" stop-color="#811F08"/>
</linearGradient>
<linearGradient id="paint6_linear_306_148" x1="16.2175" y1="7.16699" x2="18.7163" y2="13.7308" gradientUnits="userSpaceOnUse">
<stop stop-color="#F3F2F9"/>
<stop offset="1" stop-color="#BBB7DB"/>
</linearGradient>
<linearGradient id="paint7_linear_306_148" x1="18.6183" y1="10.2916" x2="20.1749" y2="10.7183" gradientUnits="userSpaceOnUse">
<stop stop-color="white"/>
<stop offset="1" stop-color="#BBB7DB"/>
</linearGradient>
<linearGradient id="paint8_linear_306_148" x1="1.60028" y1="5.18902" x2="7.9081" y2="6.89183" gradientUnits="userSpaceOnUse">
<stop stop-color="#FFF098"/>
<stop offset="1" stop-color="#FFD530"/>
</linearGradient>
<linearGradient id="paint9_linear_306_148" x1="3.35692" y1="1.78337" x2="9.05707" y2="3.7671" gradientUnits="userSpaceOnUse">
<stop stop-color="#F4A286"/>
<stop offset="1" stop-color="#E53121"/>
</linearGradient>
<linearGradient id="paint10_linear_306_148" x1="2.92178" y1="2.98803" x2="7.70171" y2="0.349511" gradientUnits="userSpaceOnUse">
<stop stop-color="#F4A286"/>
<stop offset="1" stop-color="#E53121"/>
</linearGradient>
<linearGradient id="paint11_linear_306_148" x1="7.32712" y1="2.61314" x2="12.0975" y2="3.90091" gradientUnits="userSpaceOnUse">
<stop stop-color="#4464AC"/>
<stop offset="1" stop-color="#1D3584"/>
</linearGradient>
<linearGradient id="paint12_linear_306_148" x1="7.56577" y1="0.303862" x2="12.686" y2="0.303862" gradientUnits="userSpaceOnUse">
<stop stop-color="#4464AC"/>
<stop offset="0.373" stop-color="#2F4B97"/>
<stop offset="0.728" stop-color="#223B89"/>
<stop offset="1" stop-color="#1D3584"/>
</linearGradient>
<linearGradient id="paint13_linear_306_148" x1="2.55428" y1="18.1094" x2="7.44986" y2="19.4516" gradientUnits="userSpaceOnUse">
<stop stop-color="#5B62A2"/>
<stop offset="0.152" stop-color="#4C579A"/>
<stop offset="0.482" stop-color="#31438C"/>
<stop offset="0.776" stop-color="#213783"/>
<stop offset="1" stop-color="#1B3380"/>
</linearGradient>
<linearGradient id="paint14_linear_306_148" x1="3.25056" y1="12.5286" x2="3.72303" y2="17.6916" gradientUnits="userSpaceOnUse">
<stop stop-color="white"/>
<stop offset="1" stop-color="#DAD8ED"/>
</linearGradient>
<linearGradient id="paint15_linear_306_148" x1="-0.28493" y1="14.6733" x2="3.32299" y2="15.6624" gradientUnits="userSpaceOnUse">
<stop stop-color="white"/>
<stop offset="1" stop-color="#D1CEE8"/>
</linearGradient>
<linearGradient id="paint16_linear_306_148" x1="12.4832" y1="13.8638" x2="19.1613" y2="15.6665" gradientUnits="userSpaceOnUse">
<stop stop-color="#D1CEE8"/>
<stop offset="1" stop-color="#7B73B3"/>
</linearGradient>
<linearGradient id="paint17_linear_306_148" x1="11.835" y1="14.2036" x2="15.0957" y2="19.6035" gradientUnits="userSpaceOnUse">
<stop stop-color="#E53121"/>
<stop offset="1" stop-color="#B02916"/>
</linearGradient>
<linearGradient id="paint18_linear_306_148" x1="12.2354" y1="20.5571" x2="17.0152" y2="17.9185" gradientUnits="userSpaceOnUse">
<stop stop-color="#E53121"/>
<stop offset="1" stop-color="#9D2511"/>
</linearGradient>
<linearGradient id="paint19_linear_306_148" x1="9.25308" y1="16.938" x2="12.7449" y2="20.2764" gradientUnits="userSpaceOnUse">
<stop stop-color="#F5B0AC"/>
<stop offset="1" stop-color="#EF8495"/>
</linearGradient>
<linearGradient id="paint20_linear_306_148" x1="7.2347" y1="20.4254" x2="12.3545" y2="20.4254" gradientUnits="userSpaceOnUse">
<stop stop-color="#F5B0AC"/>
<stop offset="1" stop-color="#EE788F"/>
</linearGradient>
</defs>
</svg>
