<svg width="24" height="24" viewBox="0 0 24 24" fill="none" xmlns="http://www.w3.org/2000/svg">
<g clip-path="url(#clip0_306_134)">
<path d="M12 0C18.624 0 24 5.376 24 12C24 18.624 18.624 24 12 24C5.376 24 0 18.624 0 12C0 5.376 5.376 0 12 0ZM12 3.168C7.104 3.168 3.168 7.104 3.168 12C3.168 16.896 7.104 20.832 12 20.832C16.896 20.832 20.832 16.896 20.832 12C20.832 7.104 16.896 3.168 12 3.168ZM14.976 12.48C16.3545 12.48 17.472 13.5975 17.472 14.976C17.472 16.3545 16.3545 17.472 14.976 17.472C13.5975 17.472 12.48 16.3545 12.48 14.976C12.48 13.5975 13.5975 12.48 14.976 12.48ZM9.024 12.48C10.4025 12.48 11.52 13.5975 11.52 14.976C11.52 16.3545 10.4025 17.472 9.024 17.472C7.6455 17.472 6.528 16.3545 6.528 14.976C6.528 13.5975 7.6455 12.48 9.024 12.48ZM14.976 6.528C16.3545 6.528 17.472 7.6455 17.472 9.024C17.472 10.4025 16.3545 11.52 14.976 11.52C13.5975 11.52 12.48 10.4025 12.48 9.024C12.48 7.6455 13.5975 6.528 14.976 6.528ZM9.024 6.528C10.4025 6.528 11.52 7.6455 11.52 9.024C11.52 10.4025 10.4025 11.52 9.024 11.52C7.6455 11.52 6.528 10.4025 6.528 9.024C6.528 7.6455 7.6455 6.528 9.024 6.528Z" fill="#F12E45"/>
</g>
<defs>
<clipPath id="clip0_306_134">
<rect width="24" height="24" fill="white"/>
</clipPath>
</defs>
</svg>
