<svg width="16" height="16" viewBox="0 0 24 24" fill="none" xmlns="http://www.w3.org/2000/svg">
<g clip-path="url(#clip0_28_1484)">
<path d="M9.76852 22.7814C9.20355 22.7814 8.66999 22.5494 8.28704 22.1326L0.532452 13.8393C-0.214662 13.0401 -0.0865573 12.0092 0.371864 11.3422C0.898767 10.5755 1.81542 10.2884 2.653 10.628H2.65305L8.6407 13.0556L20.6172 1.7729C21.5118 0.930208 22.6296 1.15857 23.2895 1.7272C24.0845 2.41225 24.2285 3.4827 23.6396 4.33031L11.4213 21.9223C11.074 22.423 10.5233 22.7345 9.91045 22.7765C9.86302 22.7797 9.81563 22.7814 9.76852 22.7814ZM1.93622 11.4221C1.58799 11.4221 1.30975 11.6327 1.14443 11.8732C0.916439 12.205 0.798646 12.7513 1.21723 13.199L8.97458 21.4953C9.1984 21.7389 9.51517 21.8642 9.84633 21.8413C10.1735 21.8188 10.4668 21.6535 10.6511 21.3878L22.8696 3.79548C23.2522 3.24486 23.0052 2.71979 22.6774 2.43742C22.3405 2.14704 21.7671 1.97755 21.26 2.45533L9.06467 13.9441C8.93127 14.0697 8.73698 14.1062 8.56715 14.0374L2.3008 11.4968C2.17274 11.4449 2.05068 11.4221 1.93622 11.4221Z" fill="#020288"/>
<path fill-rule="evenodd" clip-rule="evenodd" d="M4.27539 14.0676L9.70482 19.8743L18.3023 7.49557L9.20464 16.0661L4.27539 14.0676Z" fill="#A4FBC4"/>
</g>
<defs>
<clipPath id="clip0_28_1484">
<rect width="24" height="24" fill="white"/>
</clipPath>
</defs>
</svg>
