<svg width="49" height="48" viewBox="0 0 49 48" fill="none" xmlns="http://www.w3.org/2000/svg">
<path d="M14.5 25.3449L22.9001 32.0001L35.7001 16.0001M24.5001 46.4001C21.5585 46.4001 18.6457 45.8207 15.928 44.695C13.2103 43.5693 10.7409 41.9193 8.66091 39.8393C6.58087 37.7593 4.9309 35.2899 3.8052 32.5722C2.67949 29.8545 2.1001 26.9417 2.1001 24.0001C2.1001 21.0585 2.67949 18.1457 3.8052 15.428C4.9309 12.7103 6.58087 10.2409 8.66091 8.16091C10.7409 6.08087 13.2103 4.4309 15.928 3.3052C18.6457 2.17949 21.5585 1.6001 24.5001 1.6001C30.4409 1.6001 36.1385 3.96009 40.3393 8.16091C44.5401 12.3617 46.9001 18.0592 46.9001 24.0001C46.9001 29.9409 44.5401 35.6385 40.3393 39.8393C36.1385 44.0401 30.4409 46.4001 24.5001 46.4001Z" stroke="#47B881" stroke-width="3"/>
</svg>
