<svg width="622" height="110" viewBox="0 0 622 110" fill="none" xmlns="http://www.w3.org/2000/svg">
<path d="M8.16903 37L0.677557 10.8182H6.72443L11.0582 29.0099H11.2756L16.0568 10.8182H21.2344L26.0028 29.0483H26.233L30.5668 10.8182H36.6136L29.1222 37H23.7273L18.7415 19.8821H18.5369L13.5639 37H8.16903ZM46.3136 37.3835C44.2937 37.3835 42.555 36.9744 41.0977 36.1562C39.6488 35.3295 38.5323 34.1619 37.7482 32.6534C36.9641 31.1364 36.5721 29.3423 36.5721 27.2713C36.5721 25.2514 36.9641 23.4787 37.7482 21.9531C38.5323 20.4276 39.636 19.2386 41.0593 18.3864C42.4911 17.5341 44.1701 17.108 46.0962 17.108C47.3917 17.108 48.5977 17.3168 49.7141 17.7344C50.8391 18.1435 51.8192 18.7614 52.6545 19.5881C53.4982 20.4148 54.1545 21.4545 54.6232 22.7074C55.092 23.9517 55.3264 25.4091 55.3264 27.0795V28.5753H38.7454V25.2003H50.1999C50.1999 24.4162 50.0295 23.7216 49.6886 23.1165C49.3477 22.5114 48.8746 22.0384 48.2695 21.6974C47.6729 21.348 46.9783 21.1733 46.1857 21.1733C45.359 21.1733 44.6261 21.3651 43.9869 21.7486C43.3562 22.1236 42.8619 22.6307 42.5039 23.2699C42.146 23.9006 41.9627 24.6037 41.9542 25.3793V28.5881C41.9542 29.5597 42.1332 30.3991 42.4911 31.1065C42.8576 31.8139 43.3732 32.3594 44.038 32.7429C44.7028 33.1264 45.4911 33.3182 46.4031 33.3182C47.0082 33.3182 47.5621 33.233 48.065 33.0625C48.5678 32.892 48.9982 32.6364 49.3562 32.2955C49.7141 31.9545 49.9869 31.5369 50.1744 31.0426L55.2113 31.375C54.9556 32.5852 54.4315 33.642 53.6389 34.5455C52.8548 35.4403 51.8406 36.1392 50.5962 36.642C49.3604 37.1364 47.9329 37.3835 46.3136 37.3835ZM64.3263 10.8182V37H58.8803V10.8182H64.3263ZM77.5611 37.3835C75.5497 37.3835 73.8196 36.9574 72.3707 36.1051C70.9304 35.2443 69.8224 34.0511 69.0469 32.5256C68.2798 31 67.8963 29.2443 67.8963 27.2585C67.8963 25.2472 68.2841 23.483 69.0597 21.9659C69.8438 20.4403 70.956 19.2514 72.3963 18.3991C73.8366 17.5384 75.5497 17.108 77.5355 17.108C79.2486 17.108 80.7486 17.419 82.0355 18.0412C83.3224 18.6634 84.3409 19.5369 85.0909 20.6619C85.8409 21.7869 86.2543 23.108 86.331 24.625H81.1918C81.0469 23.6449 80.6634 22.8565 80.0412 22.2599C79.4276 21.6548 78.6222 21.3523 77.625 21.3523C76.7812 21.3523 76.044 21.5824 75.4134 22.0426C74.7912 22.4943 74.3054 23.1548 73.956 24.0241C73.6065 24.8935 73.4318 25.946 73.4318 27.1818C73.4318 28.4347 73.6023 29.5 73.9432 30.3778C74.2926 31.2557 74.7827 31.9247 75.4134 32.3849C76.044 32.8452 76.7812 33.0753 77.625 33.0753C78.2472 33.0753 78.8054 32.9474 79.2997 32.6918C79.8026 32.4361 80.2159 32.0653 80.5398 31.5795C80.8722 31.0852 81.0895 30.4929 81.1918 29.8026H86.331C86.2457 31.3026 85.8366 32.6236 85.1037 33.7656C84.3793 34.8991 83.3778 35.7855 82.0994 36.4247C80.821 37.0639 79.3082 37.3835 77.5611 37.3835ZM98.69 37.3835C96.7042 37.3835 94.9869 36.9616 93.538 36.1179C92.0977 35.2656 90.9854 34.081 90.2013 32.5639C89.4173 31.0384 89.0252 29.2699 89.0252 27.2585C89.0252 25.2301 89.4173 23.4574 90.2013 21.9403C90.9854 20.4148 92.0977 19.2301 93.538 18.3864C94.9869 17.5341 96.7042 17.108 98.69 17.108C100.676 17.108 102.389 17.5341 103.829 18.3864C105.278 19.2301 106.395 20.4148 107.179 21.9403C107.963 23.4574 108.355 25.2301 108.355 27.2585C108.355 29.2699 107.963 31.0384 107.179 32.5639C106.395 34.081 105.278 35.2656 103.829 36.1179C102.389 36.9616 100.676 37.3835 98.69 37.3835ZM98.7156 33.1648C99.619 33.1648 100.373 32.9091 100.978 32.3977C101.583 31.8778 102.039 31.1705 102.346 30.2756C102.662 29.3807 102.819 28.3622 102.819 27.2202C102.819 26.0781 102.662 25.0597 102.346 24.1648C102.039 23.2699 101.583 22.5625 100.978 22.0426C100.373 21.5227 99.619 21.2628 98.7156 21.2628C97.8036 21.2628 97.0366 21.5227 96.4144 22.0426C95.8008 22.5625 95.3363 23.2699 95.021 24.1648C94.7141 25.0597 94.5607 26.0781 94.5607 27.2202C94.5607 28.3622 94.7141 29.3807 95.021 30.2756C95.3363 31.1705 95.8008 31.8778 96.4144 32.3977C97.0366 32.9091 97.8036 33.1648 98.7156 33.1648ZM111.896 37V17.3636H117.086V20.8281H117.316C117.725 19.6776 118.407 18.7699 119.362 18.1051C120.316 17.4403 121.458 17.108 122.788 17.108C124.135 17.108 125.281 17.4446 126.227 18.1179C127.173 18.7827 127.804 19.6861 128.119 20.8281H128.324C128.724 19.7031 129.449 18.804 130.497 18.1307C131.554 17.4489 132.802 17.108 134.243 17.108C136.075 17.108 137.562 17.6918 138.704 18.8594C139.855 20.0185 140.43 21.6634 140.43 23.794V37H134.997V24.8679C134.997 23.777 134.707 22.9588 134.127 22.4134C133.548 21.8679 132.824 21.5952 131.954 21.5952C130.966 21.5952 130.194 21.9105 129.64 22.5412C129.086 23.1634 128.809 23.9858 128.809 25.0085V37H123.529V24.7528C123.529 23.7898 123.252 23.0227 122.699 22.4517C122.153 21.8807 121.433 21.5952 120.538 21.5952C119.933 21.5952 119.387 21.7486 118.902 22.0554C118.424 22.3537 118.045 22.7756 117.764 23.321C117.483 23.858 117.342 24.4886 117.342 25.2131V37H111.896ZM153.681 37.3835C151.661 37.3835 149.922 36.9744 148.465 36.1562C147.016 35.3295 145.9 34.1619 145.115 32.6534C144.331 31.1364 143.939 29.3423 143.939 27.2713C143.939 25.2514 144.331 23.4787 145.115 21.9531C145.9 20.4276 147.003 19.2386 148.426 18.3864C149.858 17.5341 151.537 17.108 153.463 17.108C154.759 17.108 155.965 17.3168 157.081 17.7344C158.206 18.1435 159.186 18.7614 160.022 19.5881C160.865 20.4148 161.522 21.4545 161.99 22.7074C162.459 23.9517 162.694 25.4091 162.694 27.0795V28.5753H146.113V25.2003H157.567C157.567 24.4162 157.397 23.7216 157.056 23.1165C156.715 22.5114 156.242 22.0384 155.637 21.6974C155.04 21.348 154.346 21.1733 153.553 21.1733C152.726 21.1733 151.993 21.3651 151.354 21.7486C150.723 22.1236 150.229 22.6307 149.871 23.2699C149.513 23.9006 149.33 24.6037 149.321 25.3793V28.5881C149.321 29.5597 149.5 30.3991 149.858 31.1065C150.225 31.8139 150.74 32.3594 151.405 32.7429C152.07 33.1264 152.858 33.3182 153.77 33.3182C154.375 33.3182 154.929 33.233 155.432 33.0625C155.935 32.892 156.365 32.6364 156.723 32.2955C157.081 31.9545 157.354 31.5369 157.542 31.0426L162.578 31.375C162.323 32.5852 161.799 33.642 161.006 34.5455C160.222 35.4403 159.208 36.1392 157.963 36.642C156.728 37.1364 155.3 37.3835 153.681 37.3835ZM172.406 39.52H208.406V3.52H172.406V39.52ZM237.688 17.3636V21.4545H225.863V17.3636H237.688ZM228.548 12.6591H233.994V30.9659C233.994 31.4687 234.07 31.8608 234.224 32.142C234.377 32.4148 234.59 32.6065 234.863 32.7173C235.144 32.8281 235.468 32.8835 235.835 32.8835C236.09 32.8835 236.346 32.8622 236.602 32.8196C236.857 32.7685 237.053 32.7301 237.19 32.7045L238.046 36.7571C237.773 36.8423 237.39 36.9403 236.896 37.0511C236.401 37.1705 235.8 37.2429 235.093 37.2685C233.781 37.3196 232.63 37.1449 231.641 36.7443C230.661 36.3437 229.898 35.7216 229.353 34.8778C228.808 34.0341 228.539 32.9687 228.548 31.6818V12.6591ZM249.897 37.3835C247.911 37.3835 246.194 36.9616 244.745 36.1179C243.305 35.2656 242.192 34.081 241.408 32.5639C240.624 31.0384 240.232 29.2699 240.232 27.2585C240.232 25.2301 240.624 23.4574 241.408 21.9403C242.192 20.4148 243.305 19.2301 244.745 18.3864C246.194 17.5341 247.911 17.108 249.897 17.108C251.883 17.108 253.596 17.5341 255.036 18.3864C256.485 19.2301 257.602 20.4148 258.386 21.9403C259.17 23.4574 259.562 25.2301 259.562 27.2585C259.562 29.2699 259.17 31.0384 258.386 32.5639C257.602 34.081 256.485 35.2656 255.036 36.1179C253.596 36.9616 251.883 37.3835 249.897 37.3835ZM249.923 33.1648C250.826 33.1648 251.58 32.9091 252.185 32.3977C252.79 31.8778 253.246 31.1705 253.553 30.2756C253.869 29.3807 254.026 28.3622 254.026 27.2202C254.026 26.0781 253.869 25.0597 253.553 24.1648C253.246 23.2699 252.79 22.5625 252.185 22.0426C251.58 21.5227 250.826 21.2628 249.923 21.2628C249.011 21.2628 248.244 21.5227 247.621 22.0426C247.008 22.5625 246.543 23.2699 246.228 24.1648C245.921 25.0597 245.768 26.0781 245.768 27.2202C245.768 28.3622 245.921 29.3807 246.228 30.2756C246.543 31.1705 247.008 31.8778 247.621 32.3977C248.244 32.9091 249.011 33.1648 249.923 33.1648ZM285.74 18.348C285.638 17.3168 285.199 16.5156 284.424 15.9446C283.648 15.3736 282.596 15.0881 281.266 15.0881C280.363 15.0881 279.6 15.2159 278.978 15.4716C278.355 15.7187 277.878 16.0639 277.546 16.5071C277.222 16.9503 277.06 17.4531 277.06 18.0156C277.043 18.4844 277.141 18.8935 277.354 19.2429C277.576 19.5923 277.878 19.8949 278.262 20.1506C278.645 20.3977 279.088 20.6151 279.591 20.8026C280.094 20.9815 280.631 21.1349 281.202 21.2628L283.554 21.8253C284.696 22.081 285.745 22.4219 286.699 22.848C287.654 23.2741 288.48 23.7983 289.179 24.4205C289.878 25.0426 290.419 25.7756 290.803 26.6193C291.195 27.4631 291.395 28.4304 291.404 29.5213C291.395 31.1236 290.986 32.5128 290.176 33.6889C289.375 34.8565 288.216 35.7642 286.699 36.4119C285.191 37.0511 283.371 37.3707 281.24 37.3707C279.127 37.3707 277.286 37.0469 275.718 36.3991C274.158 35.7514 272.939 34.7926 272.061 33.5227C271.192 32.2443 270.736 30.6634 270.694 28.7798H276.05C276.11 29.6577 276.361 30.3906 276.804 30.9787C277.256 31.5582 277.857 31.9972 278.607 32.2955C279.365 32.5852 280.222 32.7301 281.176 32.7301C282.114 32.7301 282.928 32.5937 283.618 32.321C284.317 32.0483 284.858 31.669 285.242 31.1832C285.625 30.6974 285.817 30.1392 285.817 29.5085C285.817 28.9205 285.642 28.4261 285.293 28.0256C284.952 27.625 284.449 27.2841 283.784 27.0028C283.128 26.7216 282.323 26.4659 281.368 26.2358L278.517 25.5199C276.31 24.983 274.567 24.1435 273.289 23.0014C272.01 21.8594 271.375 20.321 271.384 18.3864C271.375 16.8011 271.797 15.4162 272.65 14.2315C273.51 13.0469 274.691 12.1222 276.191 11.4574C277.691 10.7926 279.395 10.4602 281.304 10.4602C283.248 10.4602 284.944 10.7926 286.392 11.4574C287.85 12.1222 288.983 13.0469 289.793 14.2315C290.603 15.4162 291.02 16.7884 291.046 18.348H285.74ZM298.898 37L293.555 17.3636H299.065L302.107 30.5568H302.286L305.457 17.3636H310.864L314.086 30.4801H314.252L317.244 17.3636H322.741L317.41 37H311.644L308.269 24.6506H308.026L304.651 37H298.898ZM325.646 37V17.3636H331.092V37H325.646ZM328.382 14.8324C327.572 14.8324 326.877 14.5639 326.298 14.027C325.727 13.4815 325.441 12.8295 325.441 12.071C325.441 11.321 325.727 10.6776 326.298 10.1406C326.877 9.59517 327.572 9.32244 328.382 9.32244C329.191 9.32244 329.882 9.59517 330.453 10.1406C331.032 10.6776 331.322 11.321 331.322 12.071C331.322 12.8295 331.032 13.4815 330.453 14.027C329.882 14.5639 329.191 14.8324 328.382 14.8324ZM346.014 17.3636V21.4545H333.895V17.3636H346.014ZM336.669 37V15.9446C336.669 14.5213 336.946 13.3409 337.5 12.4034C338.062 11.4659 338.83 10.7628 339.801 10.294C340.773 9.82528 341.876 9.59091 343.112 9.59091C343.947 9.59091 344.71 9.65483 345.401 9.78267C346.099 9.91051 346.619 10.0256 346.96 10.1278L345.989 14.2188C345.776 14.1506 345.511 14.0866 345.196 14.027C344.889 13.9673 344.574 13.9375 344.25 13.9375C343.449 13.9375 342.891 14.125 342.575 14.5C342.26 14.8665 342.102 15.3821 342.102 16.0469V37H336.669ZM359.786 17.3636V21.4545H347.961V17.3636H359.786ZM350.645 12.6591H356.091V30.9659C356.091 31.4687 356.168 31.8608 356.321 32.142C356.475 32.4148 356.688 32.6065 356.961 32.7173C357.242 32.8281 357.566 32.8835 357.932 32.8835C358.188 32.8835 358.444 32.8622 358.699 32.8196C358.955 32.7685 359.151 32.7301 359.287 32.7045L360.144 36.7571C359.871 36.8423 359.488 36.9403 358.993 37.0511C358.499 37.1705 357.898 37.2429 357.191 37.2685C355.878 37.3196 354.728 37.1449 353.739 36.7443C352.759 36.3437 351.996 35.7216 351.451 34.8778C350.905 34.0341 350.637 32.9687 350.645 31.6818V12.6591ZM369.252 33.4205L369.112 34.8267C369.001 35.9517 368.788 37.0724 368.473 38.1889C368.166 39.3139 367.842 40.3324 367.501 41.2443C367.169 42.1563 366.9 42.8722 366.696 43.392H363.167C363.295 42.8892 363.47 42.1861 363.691 41.2827C363.913 40.3878 364.122 39.3821 364.318 38.2656C364.514 37.1491 364.637 36.0114 364.689 34.8523L364.752 33.4205H369.252ZM387.329 37L379.838 10.8182H385.885L390.218 29.0099H390.436L395.217 10.8182H400.395L405.163 29.0483H405.393L409.727 10.8182H415.774L408.282 37H402.887L397.902 19.8821H397.697L392.724 37H387.329ZM424.08 25.6477V37H418.634V10.8182H423.927V20.8281H424.157C424.6 19.669 425.316 18.7614 426.305 18.1051C427.293 17.4403 428.533 17.108 430.025 17.108C431.388 17.108 432.577 17.4062 433.592 18.0028C434.614 18.5909 435.407 19.4389 435.969 20.5469C436.54 21.6463 436.822 22.9631 436.813 24.4972V37H431.367V25.4688C431.376 24.2585 431.069 23.3168 430.447 22.6435C429.833 21.9702 428.972 21.6335 427.864 21.6335C427.123 21.6335 426.467 21.7912 425.896 22.1065C425.333 22.4219 424.89 22.8821 424.566 23.4872C424.251 24.0838 424.089 24.804 424.08 25.6477ZM450.048 37.3835C448.028 37.3835 446.289 36.9744 444.832 36.1562C443.383 35.3295 442.267 34.1619 441.483 32.6534C440.699 31.1364 440.306 29.3423 440.306 27.2713C440.306 25.2514 440.699 23.4787 441.483 21.9531C442.267 20.4276 443.37 19.2386 444.794 18.3864C446.225 17.5341 447.904 17.108 449.831 17.108C451.126 17.108 452.332 17.3168 453.449 17.7344C454.574 18.1435 455.554 18.7614 456.389 19.5881C457.233 20.4148 457.889 21.4545 458.358 22.7074C458.826 23.9517 459.061 25.4091 459.061 27.0795V28.5753H442.48V25.2003H453.934C453.934 24.4162 453.764 23.7216 453.423 23.1165C453.082 22.5114 452.609 22.0384 452.004 21.6974C451.407 21.348 450.713 21.1733 449.92 21.1733C449.093 21.1733 448.36 21.3651 447.721 21.7486C447.091 22.1236 446.596 22.6307 446.238 23.2699C445.88 23.9006 445.697 24.6037 445.689 25.3793V28.5881C445.689 29.5597 445.868 30.3991 446.225 31.1065C446.592 31.8139 447.108 32.3594 447.772 32.7429C448.437 33.1264 449.225 33.3182 450.137 33.3182C450.743 33.3182 451.297 33.233 451.799 33.0625C452.302 32.892 452.733 32.6364 453.091 32.2955C453.449 31.9545 453.721 31.5369 453.909 31.0426L458.946 31.375C458.69 32.5852 458.166 33.642 457.373 34.5455C456.589 35.4403 455.575 36.1392 454.331 36.642C453.095 37.1364 451.667 37.3835 450.048 37.3835ZM462.615 37V17.3636H467.895V20.7898H468.099C468.457 19.571 469.058 18.6506 469.902 18.0284C470.745 17.3977 471.717 17.0824 472.816 17.0824C473.089 17.0824 473.383 17.0994 473.699 17.1335C474.014 17.1676 474.291 17.2145 474.529 17.2741V22.1065C474.274 22.0298 473.92 21.9616 473.468 21.902C473.017 21.8423 472.603 21.8125 472.228 21.8125C471.427 21.8125 470.711 21.9872 470.081 22.3366C469.458 22.6776 468.964 23.1548 468.598 23.7685C468.24 24.3821 468.061 25.0895 468.061 25.8906V37H462.615ZM485.38 37.3835C483.36 37.3835 481.621 36.9744 480.164 36.1562C478.715 35.3295 477.599 34.1619 476.815 32.6534C476.031 31.1364 475.638 29.3423 475.638 27.2713C475.638 25.2514 476.031 23.4787 476.815 21.9531C477.599 20.4276 478.702 19.2386 480.126 18.3864C481.558 17.5341 483.237 17.108 485.163 17.108C486.458 17.108 487.664 17.3168 488.781 17.7344C489.906 18.1435 490.886 18.7614 491.721 19.5881C492.565 20.4148 493.221 21.4545 493.69 22.7074C494.158 23.9517 494.393 25.4091 494.393 27.0795V28.5753H477.812V25.2003H489.266C489.266 24.4162 489.096 23.7216 488.755 23.1165C488.414 22.5114 487.941 22.0384 487.336 21.6974C486.739 21.348 486.045 21.1733 485.252 21.1733C484.425 21.1733 483.692 21.3651 483.053 21.7486C482.423 22.1236 481.928 22.6307 481.57 23.2699C481.212 23.9006 481.029 24.6037 481.021 25.3793V28.5881C481.021 29.5597 481.2 30.3991 481.558 31.1065C481.924 31.8139 482.44 32.3594 483.104 32.7429C483.769 33.1264 484.558 33.3182 485.469 33.3182C486.075 33.3182 486.629 33.233 487.131 33.0625C487.634 32.892 488.065 32.6364 488.423 32.2955C488.781 31.9545 489.053 31.5369 489.241 31.0426L494.278 31.375C494.022 32.5852 493.498 33.642 492.705 34.5455C491.921 35.4403 490.907 36.1392 489.663 36.642C488.427 37.1364 486.999 37.3835 485.38 37.3835ZM2.27557 85V58.8182H19.9176V63.3821H7.81108V69.6207H19.0099V74.1847H7.81108V80.4361H19.9688V85H2.27557ZM29.6623 73.6477V85H24.2163V65.3636H29.4066V68.8281H29.6367C30.0714 67.6861 30.8001 66.7827 31.8228 66.1179C32.8455 65.4446 34.0856 65.108 35.543 65.108C36.9066 65.108 38.0955 65.4062 39.1097 66.0028C40.1239 66.5994 40.9123 67.4517 41.4748 68.5597C42.0373 69.6591 42.3185 70.9716 42.3185 72.4972V85H36.8725V73.4688C36.881 72.267 36.5742 71.3295 35.9521 70.6562C35.3299 69.9744 34.4734 69.6335 33.3825 69.6335C32.6495 69.6335 32.0018 69.7912 31.4393 70.1065C30.8853 70.4219 30.4506 70.8821 30.1353 71.4872C29.8285 72.0838 29.6708 72.804 29.6623 73.6477ZM55.4574 92.7727C53.6932 92.7727 52.1804 92.5298 50.919 92.044C49.6662 91.5668 48.669 90.9148 47.9276 90.0881C47.1861 89.2614 46.7045 88.3324 46.483 87.3011L51.5199 86.6236C51.6733 87.0156 51.9162 87.3821 52.2486 87.723C52.581 88.0639 53.0199 88.3366 53.5653 88.5412C54.1193 88.7543 54.7926 88.8608 55.5852 88.8608C56.7699 88.8608 57.7457 88.571 58.5128 87.9915C59.2884 87.4205 59.6761 86.4616 59.6761 85.1151V81.5227H59.446C59.2074 82.0682 58.8494 82.5838 58.3722 83.0696C57.8949 83.5554 57.2812 83.9517 56.5312 84.2585C55.7812 84.5653 54.8864 84.7188 53.8466 84.7188C52.3722 84.7188 51.0298 84.3778 49.8196 83.696C48.6179 83.0057 47.6591 81.9531 46.9432 80.5384C46.2358 79.1151 45.8821 77.3168 45.8821 75.1435C45.8821 72.919 46.2443 71.0611 46.9688 69.5696C47.6932 68.0781 48.6563 66.9616 49.858 66.2202C51.0682 65.4787 52.3935 65.108 53.8338 65.108C54.9332 65.108 55.8537 65.2955 56.5952 65.6705C57.3366 66.0369 57.9332 66.4972 58.3849 67.0511C58.8452 67.5966 59.1989 68.1335 59.446 68.6619H59.6506V65.3636H65.0582V85.1918C65.0582 86.8622 64.6491 88.2599 63.831 89.3849C63.0128 90.5099 61.8793 91.3537 60.4304 91.9162C58.9901 92.4872 57.3324 92.7727 55.4574 92.7727ZM55.5724 80.6278C56.4503 80.6278 57.1918 80.4105 57.7969 79.9759C58.4105 79.5327 58.8793 78.902 59.2031 78.0838C59.5355 77.2571 59.7017 76.2685 59.7017 75.1179C59.7017 73.9673 59.5398 72.9702 59.2159 72.1264C58.892 71.2741 58.4233 70.6136 57.8097 70.1449C57.196 69.6761 56.4503 69.4418 55.5724 69.4418C54.6776 69.4418 53.9233 69.6847 53.3097 70.1705C52.696 70.6477 52.2315 71.3125 51.9162 72.1648C51.6009 73.017 51.4432 74.0014 51.4432 75.1179C51.4432 76.2514 51.6009 77.2315 51.9162 78.0582C52.2401 78.8764 52.7045 79.5114 53.3097 79.9631C53.9233 80.4062 54.6776 80.6278 55.5724 80.6278ZM74.9915 85.3707C73.7386 85.3707 72.6222 85.1534 71.642 84.7188C70.6619 84.2756 69.8864 83.6236 69.3153 82.7628C68.7528 81.8935 68.4716 80.8111 68.4716 79.5156C68.4716 78.4247 68.6719 77.5085 69.0724 76.767C69.473 76.0256 70.0185 75.429 70.7088 74.9773C71.3991 74.5256 72.1832 74.1847 73.0611 73.9545C73.9474 73.7244 74.8764 73.5625 75.848 73.4688C76.9901 73.3494 77.9105 73.2386 78.6094 73.1364C79.3082 73.0256 79.8153 72.8636 80.1307 72.6506C80.446 72.4375 80.6037 72.1222 80.6037 71.7045V71.6278C80.6037 70.8182 80.348 70.1918 79.8366 69.7486C79.3338 69.3054 78.6179 69.0838 77.6889 69.0838C76.7088 69.0838 75.929 69.3011 75.3494 69.7358C74.7699 70.1619 74.3864 70.6989 74.1989 71.3466L69.1619 70.9375C69.4176 69.7443 69.9205 68.7131 70.6705 67.8438C71.4205 66.9659 72.3878 66.2926 73.5724 65.8239C74.7656 65.3466 76.1463 65.108 77.7145 65.108C78.8054 65.108 79.8494 65.2358 80.8466 65.4915C81.8523 65.7472 82.7429 66.1435 83.5185 66.6804C84.3026 67.2173 84.9205 67.9077 85.3722 68.7514C85.8239 69.5866 86.0497 70.5881 86.0497 71.7557V85H80.8849V82.277H80.7315C80.4162 82.8906 79.9943 83.4318 79.4659 83.9006C78.9375 84.3608 78.3026 84.723 77.5611 84.9872C76.8196 85.2429 75.9631 85.3707 74.9915 85.3707ZM76.5511 81.6122C77.3523 81.6122 78.0597 81.4545 78.6733 81.1392C79.2869 80.8153 79.7685 80.3807 80.1179 79.8352C80.4673 79.2898 80.642 78.6719 80.642 77.9815V75.8977C80.4716 76.0085 80.2372 76.1108 79.9389 76.2045C79.6491 76.2898 79.321 76.3707 78.9545 76.4474C78.5881 76.5156 78.2216 76.5795 77.8551 76.6392C77.4886 76.6903 77.1562 76.7372 76.858 76.7798C76.2188 76.8736 75.6605 77.0227 75.1832 77.2273C74.706 77.4318 74.3352 77.7088 74.071 78.0582C73.8068 78.3991 73.6747 78.8253 73.6747 79.3366C73.6747 80.0781 73.9432 80.6449 74.4801 81.0369C75.0256 81.4205 75.7159 81.6122 76.5511 81.6122ZM99.1214 92.7727C97.3572 92.7727 95.8445 92.5298 94.5831 92.044C93.3303 91.5668 92.3331 90.9148 91.5916 90.0881C90.8501 89.2614 90.3686 88.3324 90.147 87.3011L95.1839 86.6236C95.3374 87.0156 95.5803 87.3821 95.9126 87.723C96.245 88.0639 96.6839 88.3366 97.2294 88.5412C97.7834 88.7543 98.4567 88.8608 99.2493 88.8608C100.434 88.8608 101.41 88.571 102.177 87.9915C102.952 87.4205 103.34 86.4616 103.34 85.1151V81.5227H103.11C102.871 82.0682 102.513 82.5838 102.036 83.0696C101.559 83.5554 100.945 83.9517 100.195 84.2585C99.4453 84.5653 98.5504 84.7188 97.5107 84.7188C96.0362 84.7188 94.6939 84.3778 93.4837 83.696C92.282 83.0057 91.3232 81.9531 90.6072 80.5384C89.8999 79.1151 89.5462 77.3168 89.5462 75.1435C89.5462 72.919 89.9084 71.0611 90.6328 69.5696C91.3572 68.0781 92.3203 66.9616 93.522 66.2202C94.7322 65.4787 96.0575 65.108 97.4979 65.108C98.5973 65.108 99.5178 65.2955 100.259 65.6705C101.001 66.0369 101.597 66.4972 102.049 67.0511C102.509 67.5966 102.863 68.1335 103.11 68.6619H103.315V65.3636H108.722V85.1918C108.722 86.8622 108.313 88.2599 107.495 89.3849C106.677 90.5099 105.543 91.3537 104.094 91.9162C102.654 92.4872 100.996 92.7727 99.1214 92.7727ZM99.2365 80.6278C100.114 80.6278 100.856 80.4105 101.461 79.9759C102.075 79.5327 102.543 78.902 102.867 78.0838C103.2 77.2571 103.366 76.2685 103.366 75.1179C103.366 73.9673 103.204 72.9702 102.88 72.1264C102.556 71.2741 102.087 70.6136 101.474 70.1449C100.86 69.6761 100.114 69.4418 99.2365 69.4418C98.3416 69.4418 97.5874 69.6847 96.9737 70.1705C96.3601 70.6477 95.8956 71.3125 95.5803 72.1648C95.2649 73.017 95.1072 74.0014 95.1072 75.1179C95.1072 76.2514 95.2649 77.2315 95.5803 78.0582C95.9041 78.8764 96.3686 79.5114 96.9737 79.9631C97.5874 80.4062 98.3416 80.6278 99.2365 80.6278ZM122.005 85.3835C119.985 85.3835 118.246 84.9744 116.789 84.1562C115.34 83.3295 114.224 82.1619 113.44 80.6534C112.656 79.1364 112.263 77.3423 112.263 75.2713C112.263 73.2514 112.656 71.4787 113.44 69.9531C114.224 68.4276 115.327 67.2386 116.751 66.3864C118.183 65.5341 119.862 65.108 121.788 65.108C123.083 65.108 124.289 65.3168 125.406 65.7344C126.531 66.1435 127.511 66.7614 128.346 67.5881C129.19 68.4148 129.846 69.4545 130.315 70.7074C130.783 71.9517 131.018 73.4091 131.018 75.0795V76.5753H114.437V73.2003H125.891C125.891 72.4162 125.721 71.7216 125.38 71.1165C125.039 70.5114 124.566 70.0384 123.961 69.6974C123.364 69.348 122.67 69.1733 121.877 69.1733C121.05 69.1733 120.317 69.3651 119.678 69.7486C119.048 70.1236 118.553 70.6307 118.195 71.2699C117.837 71.9006 117.654 72.6037 117.646 73.3793V76.5881C117.646 77.5597 117.825 78.3991 118.183 79.1065C118.549 79.8139 119.065 80.3594 119.729 80.7429C120.394 81.1264 121.183 81.3182 122.094 81.3182C122.7 81.3182 123.254 81.233 123.756 81.0625C124.259 80.892 124.69 80.6364 125.048 80.2955C125.406 79.9545 125.678 79.5369 125.866 79.0426L130.903 79.375C130.647 80.5852 130.123 81.642 129.33 82.5455C128.546 83.4403 127.532 84.1392 126.288 84.642C125.052 85.1364 123.624 85.3835 122.005 85.3835ZM134.572 85V65.3636H139.762V68.8281H139.992C140.401 67.6776 141.083 66.7699 142.038 66.1051C142.992 65.4403 144.134 65.108 145.464 65.108C146.81 65.108 147.957 65.4446 148.903 66.1179C149.849 66.7827 150.479 67.6861 150.795 68.8281H150.999C151.4 67.7031 152.124 66.804 153.173 66.1307C154.229 65.4489 155.478 65.108 156.918 65.108C158.751 65.108 160.238 65.6918 161.38 66.8594C162.531 68.0185 163.106 69.6634 163.106 71.794V85H157.673V72.8679C157.673 71.777 157.383 70.9588 156.803 70.4134C156.224 69.8679 155.499 69.5952 154.63 69.5952C153.641 69.5952 152.87 69.9105 152.316 70.5412C151.762 71.1634 151.485 71.9858 151.485 73.0085V85H146.205V72.7528C146.205 71.7898 145.928 71.0227 145.374 70.4517C144.829 69.8807 144.109 69.5952 143.214 69.5952C142.609 69.5952 142.063 69.7486 141.577 70.0554C141.1 70.3537 140.721 70.7756 140.44 71.321C140.158 71.858 140.018 72.4886 140.018 73.2131V85H134.572ZM176.357 85.3835C174.337 85.3835 172.598 84.9744 171.141 84.1562C169.692 83.3295 168.575 82.1619 167.791 80.6534C167.007 79.1364 166.615 77.3423 166.615 75.2713C166.615 73.2514 167.007 71.4787 167.791 69.9531C168.575 68.4276 169.679 67.2386 171.102 66.3864C172.534 65.5341 174.213 65.108 176.139 65.108C177.435 65.108 178.641 65.3168 179.757 65.7344C180.882 66.1435 181.862 66.7614 182.697 67.5881C183.541 68.4148 184.197 69.4545 184.666 70.7074C185.135 71.9517 185.369 73.4091 185.369 75.0795V76.5753H168.788V73.2003H180.243C180.243 72.4162 180.072 71.7216 179.732 71.1165C179.391 70.5114 178.918 70.0384 178.312 69.6974C177.716 69.348 177.021 69.1733 176.229 69.1733C175.402 69.1733 174.669 69.3651 174.03 69.7486C173.399 70.1236 172.905 70.6307 172.547 71.2699C172.189 71.9006 172.006 72.6037 171.997 73.3793V76.5881C171.997 77.5597 172.176 78.3991 172.534 79.1065C172.901 79.8139 173.416 80.3594 174.081 80.7429C174.746 81.1264 175.534 81.3182 176.446 81.3182C177.051 81.3182 177.605 81.233 178.108 81.0625C178.611 80.892 179.041 80.6364 179.399 80.2955C179.757 79.9545 180.03 79.5369 180.217 79.0426L185.254 79.375C184.999 80.5852 184.474 81.642 183.682 82.5455C182.898 83.4403 181.884 84.1392 180.639 84.642C179.403 85.1364 177.976 85.3835 176.357 85.3835ZM194.369 73.6477V85H188.923V65.3636H194.114V68.8281H194.344C194.778 67.6861 195.507 66.7827 196.53 66.1179C197.553 65.4446 198.793 65.108 200.25 65.108C201.614 65.108 202.803 65.4062 203.817 66.0028C204.831 66.5994 205.619 67.4517 206.182 68.5597C206.744 69.6591 207.026 70.9716 207.026 72.4972V85H201.58V73.4688C201.588 72.267 201.281 71.3295 200.659 70.6562C200.037 69.9744 199.18 69.6335 198.089 69.6335C197.357 69.6335 196.709 69.7912 196.146 70.1065C195.592 70.4219 195.158 70.8821 194.842 71.4872C194.536 72.0838 194.378 72.804 194.369 73.6477ZM221.762 65.3636V69.4545H209.937V65.3636H221.762ZM212.622 60.6591H218.068V78.9659C218.068 79.4687 218.145 79.8608 218.298 80.142C218.451 80.4148 218.664 80.6065 218.937 80.7173C219.218 80.8281 219.542 80.8835 219.909 80.8835C220.164 80.8835 220.42 80.8622 220.676 80.8196C220.931 80.7685 221.127 80.7301 221.264 80.7045L222.12 84.7571C221.848 84.8423 221.464 84.9403 220.97 85.0511C220.475 85.1705 219.875 85.2429 219.167 85.2685C217.855 85.3196 216.704 85.1449 215.716 84.7443C214.735 84.3437 213.973 83.7216 213.427 82.8778C212.882 82.0341 212.613 80.9687 212.622 79.6818V60.6591ZM233.744 58.8182H240.571L247.781 76.4091H248.088L255.298 58.8182H262.125V85H256.756V67.9588H256.538L249.763 84.8722H246.107L239.331 67.8949H239.114V85H233.744V58.8182ZM275.532 85.3835C273.512 85.3835 271.774 84.9744 270.316 84.1562C268.868 83.3295 267.751 82.1619 266.967 80.6534C266.183 79.1364 265.791 77.3423 265.791 75.2713C265.791 73.2514 266.183 71.4787 266.967 69.9531C267.751 68.4276 268.855 67.2386 270.278 66.3864C271.71 65.5341 273.389 65.108 275.315 65.108C276.61 65.108 277.816 65.3168 278.933 65.7344C280.058 66.1435 281.038 66.7614 281.873 67.5881C282.717 68.4148 283.373 69.4545 283.842 70.7074C284.311 71.9517 284.545 73.4091 284.545 75.0795V76.5753H267.964V73.2003H279.419C279.419 72.4162 279.248 71.7216 278.907 71.1165C278.566 70.5114 278.093 70.0384 277.488 69.6974C276.892 69.348 276.197 69.1733 275.404 69.1733C274.578 69.1733 273.845 69.3651 273.206 69.7486C272.575 70.1236 272.081 70.6307 271.723 71.2699C271.365 71.9006 271.181 72.6037 271.173 73.3793V76.5881C271.173 77.5597 271.352 78.3991 271.71 79.1065C272.076 79.8139 272.592 80.3594 273.257 80.7429C273.922 81.1264 274.71 81.3182 275.622 81.3182C276.227 81.3182 276.781 81.233 277.284 81.0625C277.787 80.892 278.217 80.6364 278.575 80.2955C278.933 79.9545 279.206 79.5369 279.393 79.0426L284.43 79.375C284.174 80.5852 283.65 81.642 282.858 82.5455C282.074 83.4403 281.059 84.1392 279.815 84.642C278.579 85.1364 277.152 85.3835 275.532 85.3835ZM297.048 85.3835C295.028 85.3835 293.289 84.9744 291.832 84.1562C290.383 83.3295 289.267 82.1619 288.483 80.6534C287.699 79.1364 287.306 77.3423 287.306 75.2713C287.306 73.2514 287.699 71.4787 288.483 69.9531C289.267 68.4276 290.37 67.2386 291.794 66.3864C293.225 65.5341 294.904 65.108 296.831 65.108C298.126 65.108 299.332 65.3168 300.449 65.7344C301.574 66.1435 302.554 66.7614 303.389 67.5881C304.233 68.4148 304.889 69.4545 305.358 70.7074C305.826 71.9517 306.061 73.4091 306.061 75.0795V76.5753H289.48V73.2003H300.934C300.934 72.4162 300.764 71.7216 300.423 71.1165C300.082 70.5114 299.609 70.0384 299.004 69.6974C298.407 69.348 297.713 69.1733 296.92 69.1733C296.093 69.1733 295.36 69.3651 294.721 69.7486C294.091 70.1236 293.596 70.6307 293.238 71.2699C292.88 71.9006 292.697 72.6037 292.689 73.3793V76.5881C292.689 77.5597 292.868 78.3991 293.225 79.1065C293.592 79.8139 294.108 80.3594 294.772 80.7429C295.437 81.1264 296.225 81.3182 297.137 81.3182C297.743 81.3182 298.297 81.233 298.799 81.0625C299.302 80.892 299.733 80.6364 300.091 80.2955C300.449 79.9545 300.721 79.5369 300.909 79.0426L305.946 79.375C305.69 80.5852 305.166 81.642 304.373 82.5455C303.589 83.4403 302.575 84.1392 301.331 84.642C300.095 85.1364 298.667 85.3835 297.048 85.3835ZM320.059 65.3636V69.4545H308.234V65.3636H320.059ZM310.919 60.6591H316.365V78.9659C316.365 79.4687 316.441 79.8608 316.595 80.142C316.748 80.4148 316.961 80.6065 317.234 80.7173C317.515 80.8281 317.839 80.8835 318.206 80.8835C318.461 80.8835 318.717 80.8622 318.973 80.8196C319.228 80.7685 319.424 80.7301 319.561 80.7045L320.417 84.7571C320.145 84.8423 319.761 84.9403 319.267 85.0511C318.772 85.1705 318.172 85.2429 317.464 85.2685C316.152 85.3196 315.001 85.1449 314.012 84.7443C313.032 84.3437 312.27 83.7216 311.724 82.8778C311.179 82.0341 310.91 80.9687 310.919 79.6818V60.6591ZM339.699 70.9631L334.713 71.2699C334.628 70.8437 334.445 70.4602 334.163 70.1193C333.882 69.7699 333.511 69.4929 333.051 69.2884C332.599 69.0753 332.058 68.9688 331.428 68.9688C330.584 68.9688 329.872 69.1477 329.293 69.5057C328.713 69.8551 328.423 70.3239 328.423 70.9119C328.423 71.3807 328.611 71.777 328.986 72.1009C329.361 72.4247 330.004 72.6847 330.916 72.8807L334.47 73.5966C336.379 73.9886 337.803 74.6193 338.74 75.4886C339.678 76.358 340.146 77.5 340.146 78.9148C340.146 80.2017 339.767 81.331 339.009 82.3026C338.259 83.2741 337.227 84.0327 335.915 84.5781C334.611 85.1151 333.107 85.3835 331.402 85.3835C328.803 85.3835 326.732 84.8423 325.189 83.7599C323.655 82.669 322.756 81.1861 322.491 79.3111L327.848 79.0298C328.01 79.8224 328.402 80.4276 329.024 80.8452C329.646 81.2543 330.443 81.4588 331.415 81.4588C332.369 81.4588 333.136 81.2756 333.716 80.9091C334.304 80.5341 334.602 80.0526 334.611 79.4645C334.602 78.9702 334.393 78.5653 333.984 78.25C333.575 77.9261 332.945 77.679 332.092 77.5085L328.692 76.831C326.774 76.4474 325.347 75.7827 324.409 74.8366C323.48 73.8906 323.016 72.6847 323.016 71.2188C323.016 69.9574 323.357 68.8707 324.038 67.9588C324.729 67.0469 325.696 66.3438 326.94 65.8494C328.193 65.3551 329.659 65.108 331.338 65.108C333.818 65.108 335.77 65.6321 337.193 66.6804C338.625 67.7287 339.46 69.1562 339.699 70.9631ZM357.545 58.8182V85H352.01V58.8182H357.545ZM367.444 73.6477V85H361.998V65.3636H367.188V68.8281H367.418C367.853 67.6861 368.581 66.7827 369.604 66.1179C370.627 65.4446 371.867 65.108 373.324 65.108C374.688 65.108 375.877 65.4062 376.891 66.0028C377.905 66.5994 378.694 67.4517 379.256 68.5597C379.819 69.6591 380.1 70.9716 380.1 72.4972V85H374.654V73.4688C374.662 72.267 374.355 71.3295 373.733 70.6562C373.111 69.9744 372.255 69.6335 371.164 69.6335C370.431 69.6335 369.783 69.7912 369.221 70.1065C368.667 70.4219 368.232 70.8821 367.917 71.4872C367.61 72.0838 367.452 72.804 367.444 73.6477ZM389.838 73.6477V85H384.392V65.3636H389.582V68.8281H389.812C390.247 67.6861 390.976 66.7827 391.999 66.1179C393.021 65.4446 394.261 65.108 395.719 65.108C397.082 65.108 398.271 65.4062 399.286 66.0028C400.3 66.5994 401.088 67.4517 401.651 68.5597C402.213 69.6591 402.494 70.9716 402.494 72.4972V85H397.048V73.4688C397.057 72.267 396.75 71.3295 396.128 70.6562C395.506 69.9744 394.649 69.6335 393.558 69.6335C392.825 69.6335 392.178 69.7912 391.615 70.1065C391.061 70.4219 390.626 70.8821 390.311 71.4872C390.004 72.0838 389.847 72.804 389.838 73.6477ZM415.659 85.3835C413.673 85.3835 411.956 84.9616 410.507 84.1179C409.066 83.2656 407.954 82.081 407.17 80.5639C406.386 79.0384 405.994 77.2699 405.994 75.2585C405.994 73.2301 406.386 71.4574 407.17 69.9403C407.954 68.4148 409.066 67.2301 410.507 66.3864C411.956 65.5341 413.673 65.108 415.659 65.108C417.645 65.108 419.358 65.5341 420.798 66.3864C422.247 67.2301 423.363 68.4148 424.147 69.9403C424.931 71.4574 425.324 73.2301 425.324 75.2585C425.324 77.2699 424.931 79.0384 424.147 80.5639C423.363 82.081 422.247 83.2656 420.798 84.1179C419.358 84.9616 417.645 85.3835 415.659 85.3835ZM415.684 81.1648C416.588 81.1648 417.342 80.9091 417.947 80.3977C418.552 79.8778 419.008 79.1705 419.315 78.2756C419.63 77.3807 419.788 76.3622 419.788 75.2202C419.788 74.0781 419.63 73.0597 419.315 72.1648C419.008 71.2699 418.552 70.5625 417.947 70.0426C417.342 69.5227 416.588 69.2628 415.684 69.2628C414.772 69.2628 414.005 69.5227 413.383 70.0426C412.77 70.5625 412.305 71.2699 411.99 72.1648C411.683 73.0597 411.529 74.0781 411.529 75.2202C411.529 76.3622 411.683 77.3807 411.99 78.2756C412.305 79.1705 412.77 79.8778 413.383 80.3977C414.005 80.9091 414.772 81.1648 415.684 81.1648ZM446.539 65.3636L439.674 85H433.537L426.672 65.3636H432.425L436.503 79.4134H436.708L440.773 65.3636H446.539ZM454.398 85.3707C453.145 85.3707 452.028 85.1534 451.048 84.7188C450.068 84.2756 449.293 83.6236 448.722 82.7628C448.159 81.8935 447.878 80.8111 447.878 79.5156C447.878 78.4247 448.078 77.5085 448.479 76.767C448.879 76.0256 449.425 75.429 450.115 74.9773C450.805 74.5256 451.589 74.1847 452.467 73.9545C453.354 73.7244 454.283 73.5625 455.254 73.4688C456.396 73.3494 457.317 73.2386 458.016 73.1364C458.714 73.0256 459.222 72.8636 459.537 72.6506C459.852 72.4375 460.01 72.1222 460.01 71.7045V71.6278C460.01 70.8182 459.754 70.1918 459.243 69.7486C458.74 69.3054 458.024 69.0838 457.095 69.0838C456.115 69.0838 455.335 69.3011 454.756 69.7358C454.176 70.1619 453.793 70.6989 453.605 71.3466L448.568 70.9375C448.824 69.7443 449.327 68.7131 450.077 67.8438C450.827 66.9659 451.794 66.2926 452.979 65.8239C454.172 65.3466 455.553 65.108 457.121 65.108C458.212 65.108 459.256 65.2358 460.253 65.4915C461.259 65.7472 462.149 66.1435 462.925 66.6804C463.709 67.2173 464.327 67.9077 464.778 68.7514C465.23 69.5866 465.456 70.5881 465.456 71.7557V85H460.291V82.277H460.138C459.822 82.8906 459.401 83.4318 458.872 83.9006C458.344 84.3608 457.709 84.723 456.967 84.9872C456.226 85.2429 455.369 85.3707 454.398 85.3707ZM455.957 81.6122C456.759 81.6122 457.466 81.4545 458.08 81.1392C458.693 80.8153 459.175 80.3807 459.524 79.8352C459.874 79.2898 460.048 78.6719 460.048 77.9815V75.8977C459.878 76.0085 459.643 76.1108 459.345 76.2045C459.055 76.2898 458.727 76.3707 458.361 76.4474C457.994 76.5156 457.628 76.5795 457.261 76.6392C456.895 76.6903 456.562 76.7372 456.264 76.7798C455.625 76.8736 455.067 77.0227 454.589 77.2273C454.112 77.4318 453.741 77.7088 453.477 78.0582C453.213 78.3991 453.081 78.8253 453.081 79.3366C453.081 80.0781 453.349 80.6449 453.886 81.0369C454.432 81.4205 455.122 81.6122 455.957 81.6122ZM480.126 65.3636V69.4545H468.3V65.3636H480.126ZM470.985 60.6591H476.431V78.9659C476.431 79.4687 476.508 79.8608 476.661 80.142C476.815 80.4148 477.028 80.6065 477.3 80.7173C477.582 80.8281 477.906 80.8835 478.272 80.8835C478.528 80.8835 478.783 80.8622 479.039 80.8196C479.295 80.7685 479.491 80.7301 479.627 80.7045L480.484 84.7571C480.211 84.8423 479.827 84.9403 479.333 85.0511C478.839 85.1705 478.238 85.2429 477.531 85.2685C476.218 85.3196 475.067 85.1449 474.079 84.7443C473.099 84.3437 472.336 83.7216 471.79 82.8778C471.245 82.0341 470.977 80.9687 470.985 79.6818V60.6591ZM483.673 85V65.3636H489.119V85H483.673ZM486.409 62.8324C485.599 62.8324 484.905 62.5639 484.325 62.027C483.754 61.4815 483.469 60.8295 483.469 60.071C483.469 59.321 483.754 58.6776 484.325 58.1406C484.905 57.5952 485.599 57.3224 486.409 57.3224C487.219 57.3224 487.909 57.5952 488.48 58.1406C489.06 58.6776 489.349 59.321 489.349 60.071C489.349 60.8295 489.06 61.4815 488.48 62.027C487.909 62.5639 487.219 62.8324 486.409 62.8324ZM502.354 85.3835C500.368 85.3835 498.651 84.9616 497.202 84.1179C495.762 83.2656 494.65 82.081 493.865 80.5639C493.081 79.0384 492.689 77.2699 492.689 75.2585C492.689 73.2301 493.081 71.4574 493.865 69.9403C494.65 68.4148 495.762 67.2301 497.202 66.3864C498.651 65.5341 500.368 65.108 502.354 65.108C504.34 65.108 506.053 65.5341 507.493 66.3864C508.942 67.2301 510.059 68.4148 510.843 69.9403C511.627 71.4574 512.019 73.2301 512.019 75.2585C512.019 77.2699 511.627 79.0384 510.843 80.5639C510.059 82.081 508.942 83.2656 507.493 84.1179C506.053 84.9616 504.34 85.3835 502.354 85.3835ZM502.38 81.1648C503.283 81.1648 504.037 80.9091 504.642 80.3977C505.248 79.8778 505.703 79.1705 506.01 78.2756C506.326 77.3807 506.483 76.3622 506.483 75.2202C506.483 74.0781 506.326 73.0597 506.01 72.1648C505.703 71.2699 505.248 70.5625 504.642 70.0426C504.037 69.5227 503.283 69.2628 502.38 69.2628C501.468 69.2628 500.701 69.5227 500.078 70.0426C499.465 70.5625 499 71.2699 498.685 72.1648C498.378 73.0597 498.225 74.0781 498.225 75.2202C498.225 76.3622 498.378 77.3807 498.685 78.2756C499 79.1705 499.465 79.8778 500.078 80.3977C500.701 80.9091 501.468 81.1648 502.38 81.1648ZM521.006 73.6477V85H515.56V65.3636H520.75V68.8281H520.98C521.415 67.6861 522.144 66.7827 523.167 66.1179C524.189 65.4446 525.429 65.108 526.887 65.108C528.25 65.108 529.439 65.4062 530.453 66.0028C531.468 66.5994 532.256 67.4517 532.819 68.5597C533.381 69.6591 533.662 70.9716 533.662 72.4972V85H528.216V73.4688C528.225 72.267 527.918 71.3295 527.296 70.6562C526.674 69.9744 525.817 69.6335 524.726 69.6335C523.993 69.6335 523.346 69.7912 522.783 70.1065C522.229 70.4219 521.794 70.8821 521.479 71.4872C521.172 72.0838 521.015 72.804 521.006 73.6477ZM544.462 58.8182L543.963 77.1506H539.284L538.773 58.8182H544.462ZM541.624 85.3324C540.78 85.3324 540.055 85.0341 539.45 84.4375C538.845 83.8324 538.547 83.108 538.555 82.2642C538.547 81.429 538.845 80.7131 539.45 80.1165C540.055 79.5199 540.78 79.2216 541.624 79.2216C542.433 79.2216 543.145 79.5199 543.759 80.1165C544.372 80.7131 544.683 81.429 544.692 82.2642C544.683 82.8267 544.534 83.3423 544.244 83.8111C543.963 84.2713 543.592 84.642 543.132 84.9233C542.672 85.196 542.169 85.3324 541.624 85.3324Z" fill="#282828"/>
<path d="M359.5 109.5C389.833 101.667 468.8 88.7002 542 99.5002" stroke="#DE6680"/>
</svg>
