
<svg width="102" height="102" viewBox="0 0 102 102" fill="none" xmlns="http://www.w3.org/2000/svg">
<path fill-rule="evenodd" clip-rule="evenodd" d="M5.3125 38.25C5.3125 24.7535 16.2535 13.8125 29.75 13.8125C38.854 13.8125 46.7955 18.7909 51 26.1738C55.2045 18.7909 63.1461 13.8125 72.25 13.8125C85.7463 13.8125 96.6875 24.7535 96.6875 38.25C96.6875 44.7678 95.5209 51.2278 93.248 57.2636C91.5276 61.8324 89.1973 66.0947 86.3341 69.9125C85.278 71.321 83.28 71.6061 81.8716 70.55C80.4631 69.4939 80.1779 67.496 81.2341 66.0875C83.7275 62.7627 85.7692 59.0338 87.2818 55.0171C89.2806 49.7089 90.3125 44.0109 90.3125 38.25C90.3125 28.2744 82.2256 20.1875 72.25 20.1875C62.2744 20.1875 54.1875 28.2744 54.1875 38.25C54.1875 40.0104 52.7603 41.4375 51 41.4375C49.2397 41.4375 47.8125 40.0104 47.8125 38.25C47.8125 28.2744 39.7256 20.1875 29.75 20.1875C19.7744 20.1875 11.6875 28.2744 11.6875 38.25C11.6875 44.0109 12.7193 49.7089 14.7181 55.0171C16.7169 60.3254 19.6397 65.1296 23.3065 69.1632C26.9728 73.1961 31.3086 76.3772 36.0576 78.5408C40.8055 80.7041 45.8817 81.8125 51 81.8125C56.1183 81.8125 61.1945 80.7041 65.9426 78.5408C67.5444 77.8107 69.4348 78.5179 70.1645 80.1197C70.8947 81.7215 70.1875 83.612 68.5857 84.3421C63.0207 86.8777 57.0443 88.1875 51 88.1875C44.9557 88.1875 38.9791 86.8777 33.4143 84.3421C27.8506 81.807 22.8162 78.101 18.5894 73.4515C14.3632 68.8024 11.025 63.2995 8.75211 57.2636C6.47929 51.2278 5.3125 44.7678 5.3125 38.25Z" fill="#282828"/>
<path fill-rule="evenodd" clip-rule="evenodd" d="M29.75 39.3125C31.5104 39.3125 32.9375 40.7396 32.9375 42.5C32.9375 52.4756 41.0244 60.5625 51 60.5625C60.9756 60.5625 69.0625 52.4756 69.0625 42.5C69.0625 40.7396 70.4897 39.3125 72.25 39.3125C74.0103 39.3125 75.4375 40.7396 75.4375 42.5C75.4375 55.9963 64.4963 66.9375 51 66.9375C37.5035 66.9375 26.5625 55.9963 26.5625 42.5C26.5625 40.7396 27.9896 39.3125 29.75 39.3125Z" fill="#282828"/>
</svg>