<svg width="24" height="25" viewBox="0 0 24 25" fill="none" xmlns="http://www.w3.org/2000/svg">
<path d="M22.2562 17.3048C21.7927 17.8225 21.0862 18.1245 20.2647 18.1533C19.782 18.1705 19.2642 18.1791 18.6377 18.1791C18.2093 18.1791 17.7714 18.1763 17.3527 18.1734C17.033 18.1705 16.707 18.1676 16.3809 18.1676V18.1734H16.0741C15.6809 18.1734 15.2877 18.1734 14.8945 18.1763C14.5014 18.1791 14.1082 18.1791 13.715 18.1791C13.162 18.1791 12.7017 18.1763 12.2734 18.1734C11.2505 18.1619 10.445 17.8541 9.94951 17.2818C9.45405 16.7095 9.3134 15.93 9.54994 15.0327C9.87919 13.7816 10.7231 12.6369 11.9282 11.8115C13.1269 10.9889 14.6037 10.5374 16.0837 10.5374C16.1476 10.5374 16.2115 10.5374 16.2722 10.5402C19.5007 10.6236 22.2306 12.6484 22.7644 15.3577C22.905 16.0853 22.726 16.7785 22.2562 17.3048Z" fill="white" stroke="#FC547A" stroke-width="2"/>
<path d="M14.0862 6.87836C12.9745 5.75409 12.9843 3.94059 14.1082 2.82854C14.6482 2.29574 15.3739 2 16.1289 2H16.1435C17.7122 1.99756 18.9876 3.26847 18.99 4.84001V4.86445C19.0023 6.43354 17.7415 7.71912 16.1704 7.73134C16.1631 7.73134 16.1533 7.73134 16.146 7.73134H16.1289C15.3617 7.73134 14.6262 7.42583 14.0862 6.87836Z" fill="white" stroke="#FC547A" stroke-width="2"/>
<path d="M17.4008 21.0165C16.8711 21.5989 16.0637 21.9386 15.1249 21.971C14.5732 21.9904 13.9814 22.0001 13.2654 22.0001C12.7759 22.0001 12.2754 21.9969 11.7968 21.9936C11.4315 21.9904 11.0589 21.9871 10.6863 21.9871V21.9936H10.3355C9.88621 21.9936 9.43687 21.9936 8.98753 21.9969C8.53819 22.0001 8.08884 22.0001 7.6395 22.0001C7.0075 22.0001 6.48145 21.9969 5.99192 21.9936C4.8229 21.9807 3.9023 21.6345 3.33606 20.9906C2.76982 20.3467 2.60908 19.4698 2.87941 18.4603C3.25569 17.0528 4.22013 15.7651 5.59738 14.8365C6.96732 13.9111 8.65509 13.4031 10.3465 13.4031C10.4196 13.4031 10.4926 13.4031 10.562 13.4063C14.2518 13.5001 17.3716 15.778 17.9816 18.826C18.1424 19.6446 17.9378 20.4244 17.4008 21.0165Z" fill="white" stroke="white" stroke-width="5"/>
<path d="M7.77899 9.6298C6.35314 8.18787 6.36567 5.86196 7.80719 4.4357C8.49975 3.75234 9.43047 3.37305 10.3988 3.37305H10.4176C12.4295 3.36992 14.0653 4.99993 14.0684 7.01551V7.04685C14.0841 9.0593 12.4671 10.7081 10.4521 10.7238C10.4427 10.7238 10.4301 10.7238 10.4207 10.7238H10.3988C9.4148 10.7238 8.47155 10.332 7.77899 9.6298Z" fill="white" stroke="white" stroke-width="5"/>
<path d="M17.4008 21.0165C16.8711 21.5989 16.0637 21.9386 15.1249 21.971C14.5732 21.9904 13.9814 22.0001 13.2654 22.0001C12.7759 22.0001 12.2754 21.9969 11.7968 21.9936C11.4315 21.9904 11.0589 21.9871 10.6863 21.9871V21.9936H10.3355C9.88621 21.9936 9.43687 21.9936 8.98753 21.9969C8.53819 22.0001 8.08884 22.0001 7.6395 22.0001C7.0075 22.0001 6.48145 21.9969 5.99192 21.9936C4.8229 21.9807 3.9023 21.6345 3.33606 20.9906C2.76982 20.3467 2.60908 19.4698 2.87941 18.4603C3.25569 17.0528 4.22013 15.7651 5.59738 14.8365C6.96732 13.9111 8.65509 13.4031 10.3465 13.4031C10.4196 13.4031 10.4926 13.4031 10.562 13.4063C14.2518 13.5001 17.3716 15.778 17.9816 18.826C18.1424 19.6446 17.9378 20.4244 17.4008 21.0165Z" fill="white" stroke="#FC547A" stroke-width="2"/>
<path d="M7.77899 9.6298C6.35314 8.18787 6.36567 5.86196 7.80719 4.4357C8.49975 3.75234 9.43047 3.37305 10.3988 3.37305H10.4176C12.4295 3.36992 14.0653 4.99993 14.0684 7.01551V7.04685C14.0841 9.0593 12.4671 10.7081 10.4521 10.7238C10.4427 10.7238 10.4301 10.7238 10.4207 10.7238H10.3988C9.4148 10.7238 8.47155 10.332 7.77899 9.6298Z" fill="white" stroke="#FC547A" stroke-width="2"/>
</svg>
