<svg width="32" height="32" viewBox="0 0 32 32" fill="none" xmlns="http://www.w3.org/2000/svg">
<path d="M26.6663 16V29.3333H5.33301V16" stroke="#1F1F1F" stroke-width="1.5" stroke-linecap="round" stroke-linejoin="round"/>
<path d="M29.3337 9.33325H2.66699V15.9999H29.3337V9.33325Z" stroke="#1F1F1F" stroke-width="1.5" stroke-linecap="round" stroke-linejoin="round"/>
<path d="M16 29.3333V9.33325" stroke="#1F1F1F" stroke-width="1.5" stroke-linecap="round" stroke-linejoin="round"/>
<path d="M16.0003 9.33341H10.0003C9.11627 9.33341 8.26842 8.98222 7.6433 8.3571C7.01818 7.73198 6.66699 6.88414 6.66699 6.00008C6.66699 5.11603 7.01818 4.26818 7.6433 3.64306C8.26842 3.01794 9.11627 2.66675 10.0003 2.66675C14.667 2.66675 16.0003 9.33341 16.0003 9.33341Z" stroke="#1F1F1F" stroke-width="1.5" stroke-linecap="round" stroke-linejoin="round"/>
<path d="M16 9.33341H22C22.8841 9.33341 23.7319 8.98222 24.357 8.3571C24.9821 7.73198 25.3333 6.88414 25.3333 6.00008C25.3333 5.11603 24.9821 4.26818 24.357 3.64306C23.7319 3.01794 22.8841 2.66675 22 2.66675C17.3333 2.66675 16 9.33341 16 9.33341Z" stroke="#1F1F1F" stroke-width="1.5" stroke-linecap="round" stroke-linejoin="round"/>
</svg>
