<svg width="32" height="32" viewBox="0 0 32 32" fill="none" xmlns="http://www.w3.org/2000/svg">
<path d="M19.8603 22.105C19.7246 22.3389 19.5298 22.5331 19.2955 22.6681C19.0611 22.8031 18.7954 22.8742 18.5249 22.8742C18.2544 22.8742 17.9887 22.8031 17.7543 22.6681C17.52 22.5331 17.3252 22.3389 17.1895 22.105" stroke="#E2F3EF" stroke-width="1.26316" stroke-linecap="round" stroke-linejoin="round"/>
<path d="M20.5615 28.061C20.3959 28.3466 20.1581 28.5836 19.8721 28.7483C19.586 28.9131 19.2617 28.9998 18.9316 28.9998C18.6015 28.9998 18.2772 28.9131 17.9912 28.7483C17.7051 28.5836 17.4674 28.3466 17.3018 28.061" stroke="#1F1F1F" stroke-width="1.5074" stroke-linecap="round" stroke-linejoin="round"/>
<path d="M16.1537 2H6.02562C4.9069 2 4 2.90248 4 4.01576V20.1418C4 21.2551 4.9069 22.1576 6.02562 22.1576H16.1537C17.2725 22.1576 18.1794 21.2551 18.1794 20.1418V4.01576C18.1794 2.90248 17.2725 2 16.1537 2Z" stroke="#1F1F1F" stroke-width="1.5074" stroke-linecap="round" stroke-linejoin="round"/>
<path d="M23.49 15.2064C23.49 13.7157 22.9383 12.286 21.9564 11.232C20.9744 10.1779 19.6425 9.58569 18.2538 9.58569C16.865 9.58569 15.5332 10.1779 14.5512 11.232C13.5692 12.286 13.0175 13.7157 13.0175 15.2064C13.0175 21.7638 10.3994 23.6374 10.3994 23.6374H26.1081C26.1081 23.6374 23.49 21.7638 23.49 15.2064Z" fill="#FAFAFA" stroke="#FAFAFA" stroke-width="2.38011" stroke-linecap="round" stroke-linejoin="round"/>
<path d="M24.5841 16.1904C24.5841 14.6912 23.9885 13.2534 22.9284 12.1933C21.8683 11.1332 20.4305 10.5376 18.9313 10.5376C17.4321 10.5376 15.9943 11.1332 14.9342 12.1933C13.8741 13.2534 13.2785 14.6912 13.2785 16.1904C13.2785 22.7852 10.4521 24.6695 10.4521 24.6695H27.4104C27.4104 24.6695 24.5841 22.7852 24.5841 16.1904Z" stroke="#1F1F1F" stroke-width="1.5074" stroke-linecap="round" stroke-linejoin="round"/>
<path d="M7.20215 7.71216H12.9144" stroke="#1F1F1F" stroke-width="1.5074" stroke-linecap="round"/>
<path d="M7.20215 10.5684H11.0103" stroke="#1F1F1F" stroke-width="1.5074" stroke-linecap="round"/>
</svg>
