<svg width="86" height="32" viewBox="0 0 86 32" fill="none" xmlns="http://www.w3.org/2000/svg">
<path d="M24.3305 3.65718C24.8278 4.10532 25.107 4.62728 25.1435 5.28502C25.1435 5.3471 25.1435 5.40918 25.1436 5.47314C25.1439 5.54407 25.1442 5.615 25.1445 5.68807C25.1446 5.76372 25.1447 5.83936 25.1448 5.9173C25.1462 6.07822 25.1478 6.23913 25.1495 6.40004C25.1518 6.6532 25.1535 6.90632 25.1536 7.15949C25.1538 7.4042 25.1566 7.6488 25.1598 7.89349C25.1592 7.96945 25.1587 8.0454 25.1581 8.12366C25.1537 8.5292 25.1537 8.5292 25.3854 8.84762C25.6462 8.9233 25.8627 8.94365 26.1356 8.94528C26.2859 8.94778 26.2859 8.94778 26.4391 8.95034C26.5952 8.95137 26.5952 8.95137 26.7545 8.95242C27.8598 8.95983 28.6916 9.04916 29.5499 9.75242C30.1447 10.3465 30.3101 10.9412 30.3008 11.7438C30.2767 12.4201 30.0407 12.9184 29.5499 13.4096C28.2904 14.4578 26.749 14.2477 25.1335 14.2477C25.16 16.4854 25.1865 18.7231 25.2138 21.0286C25.5475 21.1869 25.6954 21.2001 26.0594 21.2018C26.1627 21.2034 26.266 21.205 26.3724 21.2066C26.5878 21.2089 26.8032 21.21 27.0186 21.2108C28.0244 21.2278 28.9019 21.3974 29.6302 22.0953C30.2567 22.8291 30.3473 23.5425 30.2726 24.4572C30.1099 25.1632 29.6499 25.682 29.028 26.081C28.1511 26.5331 27.1137 26.5506 26.1388 26.55C26.024 26.5506 25.9092 26.5512 25.7944 26.5518C25.5561 26.5528 25.3179 26.5529 25.0796 26.5525C24.777 26.552 24.4745 26.5544 24.1718 26.5575C23.9356 26.5594 23.6994 26.5596 23.4631 26.5594C23.3516 26.5595 23.2401 26.5602 23.1287 26.5616C22.0646 26.5733 21.2597 26.3376 20.4865 25.631C20.2383 25.3648 20.0638 25.0865 19.914 24.7619C19.8878 24.7073 19.8616 24.6527 19.8346 24.5965C19.538 23.809 19.5693 22.8657 19.5721 22.041C19.5719 21.9348 19.5716 21.8285 19.5712 21.7223C19.5705 21.4361 19.5708 21.15 19.5713 20.8639C19.5716 20.6207 19.5713 20.3776 19.571 20.1344C19.5702 19.4179 19.5709 18.7014 19.5721 17.9849C19.5727 17.6485 19.5731 17.312 19.5734 16.9755C19.5788 10.7142 19.5788 10.7142 19.6487 7.65455C19.6531 7.45814 19.6568 7.26171 19.6605 7.06528C19.6663 6.76547 19.6736 6.46573 19.6825 6.16598C19.6867 6.01212 19.6897 5.85823 19.6926 5.70434C19.7118 5.1601 19.7898 4.74217 20.0746 4.26671C20.121 4.18814 20.1674 4.10956 20.2152 4.02861C20.655 3.49534 21.1341 3.15345 21.8312 2.99528C22.7928 2.90404 23.5687 3.06593 24.3305 3.65718Z" fill="#EE8C21"/>
<path d="M8.1935 11.5539C8.27064 11.5529 8.34779 11.5519 8.42727 11.5509C8.68047 11.5479 8.93365 11.5461 9.18686 11.5446C9.27407 11.544 9.36128 11.5434 9.45114 11.5427C9.91287 11.5396 10.3746 11.5374 10.8363 11.5359C11.31 11.5343 11.7835 11.529 12.2571 11.523C12.6243 11.519 12.9914 11.5177 13.3585 11.5172C13.533 11.5164 13.7074 11.5147 13.8818 11.5118C15.2131 11.4914 16.1418 11.6818 17.1938 12.4904C17.8415 13.092 18.349 13.9379 18.3988 14.8138C18.3992 14.9181 18.3992 14.9181 18.3996 15.0245C18.4 15.1046 18.4005 15.1847 18.401 15.2672C18.4011 15.3984 18.4011 15.3984 18.4012 15.5323C18.4016 15.6247 18.402 15.7172 18.4024 15.8125C18.4034 16.0659 18.404 16.3194 18.4044 16.5729C18.4046 16.7315 18.4049 16.8901 18.4053 17.0487C18.4064 17.5458 18.4072 18.0428 18.4075 18.5398C18.4078 19.1122 18.4092 19.6845 18.4116 20.2568C18.4133 20.7 18.4141 21.1433 18.4142 21.5865C18.4143 21.8508 18.4148 22.1151 18.4162 22.3794C18.4178 22.6748 18.4174 22.9702 18.4169 23.2656C18.4177 23.3522 18.4184 23.4387 18.4192 23.5279C18.4143 24.4107 18.1798 25.1375 17.5853 25.8285C16.9293 26.3625 16.2686 26.5054 15.4172 26.5142C14.7777 26.4505 14.0834 26.13 13.6507 25.6762C13.3355 25.277 13.0923 24.8806 13.0641 24.3741C13.0886 24.2285 13.0886 24.2285 13.2642 24.0428C13.4448 23.9476 13.6266 23.859 13.8113 23.7714C13.9169 23.5708 13.9022 23.4193 13.9016 23.1952C13.9014 23.1132 13.9012 23.0312 13.901 22.9467C13.8908 22.6852 13.8545 22.4372 13.7975 22.1815C13.8367 21.7191 14.3134 21.3843 14.6494 21.0857C15.1818 20.5971 15.5275 20.1327 15.6581 19.4285C15.5621 19.4537 15.466 19.4788 15.367 19.5047C15.0834 19.5727 14.8278 19.5949 14.5339 19.5809C14.5058 19.5149 14.4776 19.4489 14.4486 19.3809C14.3058 19.1448 14.2514 19.0833 14.0355 18.9339C13.641 18.6221 13.4357 18.2156 13.199 17.7904C12.8169 17.0726 12.8169 17.0726 12.2856 16.4571C12.0624 16.4106 12.0624 16.4106 11.8289 16.4428C11.3458 16.4684 10.9698 16.3875 10.519 16.2285C10.466 16.3542 10.413 16.48 10.3584 16.6095C10.0095 16.5719 9.82854 16.5072 9.55542 16.3047C9.39642 16.2496 9.23598 16.1979 9.07363 16.1523C9.03388 15.8883 9.03388 15.8883 8.99333 15.619C7.5267 15.608 7.5267 15.608 6.26317 16.1523C6.22674 16.2388 6.1903 16.3252 6.15276 16.4142C6.01542 16.6999 5.99179 16.7218 5.72116 16.8571C5.22113 17.1184 4.91477 17.6287 4.7375 18.1333C4.65643 18.6916 4.67282 19.1078 5.02356 19.5762C5.13915 19.7073 5.25777 19.8361 5.37989 19.9619C5.42502 20.0125 5.47015 20.0632 5.51664 20.1154C5.7179 20.3138 5.85469 20.4109 6.14806 20.4381C6.30034 20.4348 6.4526 20.4297 6.60476 20.4229C7.48123 20.4075 8.29024 21.0639 8.89578 21.6119C9.33519 22.0531 9.52955 22.4782 9.55542 23.0857C9.44501 23.3333 9.44501 23.3333 9.31453 23.5428C9.26147 23.9312 9.34106 24.1643 9.53817 24.5044C9.70104 24.807 9.81908 25.126 9.945 25.4437C10.0037 25.5916 10.0654 25.7384 10.131 25.8836C10.2138 26.0985 10.1872 26.2218 10.1175 26.4381C9.86921 26.6737 9.10497 26.5376 8.7461 26.5384C7.88137 26.5374 7.08303 26.4861 6.26317 26.2095C6.20624 26.1907 6.14931 26.1719 6.09066 26.1525C4.05996 25.4642 2.56136 24.1142 1.61713 22.2845C1.58691 22.222 1.55668 22.1596 1.52554 22.0952C1.46561 21.9717 1.46561 21.9717 1.40447 21.8458C1.27029 21.5459 1.18969 21.2409 1.11401 20.9238C1.10045 20.8701 1.08689 20.8165 1.07292 20.7613C0.618004 18.8987 0.849661 16.9219 1.8458 15.2529C3.02681 13.4731 4.82317 12.1477 6.99549 11.6528C7.39654 11.5703 7.78425 11.5563 8.1935 11.5539Z" fill="#08713E"/>
<path d="M10.8403 11.581C11.4253 11.5667 12.0103 11.556 12.5955 11.5494C12.8674 11.5463 13.1391 11.542 13.4109 11.535C14.9446 11.4984 15.9788 11.5678 17.194 12.4905C17.8416 13.0921 18.3491 13.938 18.399 14.8139C18.3993 14.9182 18.3993 14.9182 18.3997 15.0246C18.4002 15.1047 18.4006 15.1848 18.4011 15.2673C18.4012 15.3985 18.4012 15.3985 18.4014 15.5324C18.402 15.671 18.402 15.671 18.4026 15.8125C18.4035 16.066 18.4041 16.3195 18.4045 16.5729C18.4047 16.7316 18.4051 16.8902 18.4054 17.0488C18.4065 17.5458 18.4073 18.0429 18.4076 18.5399C18.408 19.1122 18.4094 19.6845 18.4117 20.2569C18.4134 20.7001 18.4142 21.1433 18.4143 21.5866C18.4144 21.8509 18.4149 22.1152 18.4163 22.3795C18.4179 22.6749 18.4176 22.9703 18.417 23.2657C18.4178 23.3522 18.4185 23.4388 18.4193 23.528C18.4144 24.4108 18.1799 25.1376 17.5854 25.8286C16.9295 26.3626 16.2687 26.5055 15.4174 26.5143C14.7779 26.4506 14.0836 26.13 13.6508 25.6762C13.3356 25.2771 13.0925 24.8806 13.0642 24.3741C13.0887 24.2286 13.0887 24.2286 13.2644 24.0429C13.4449 23.9477 13.6268 23.8591 13.8114 23.7715C13.9171 23.5709 13.9023 23.4194 13.9017 23.1953C13.9015 23.1133 13.9013 23.0313 13.9011 22.9468C13.8909 22.6853 13.8547 22.4373 13.7976 22.1816C13.8369 21.7192 14.3135 21.3844 14.6495 21.0857C15.1819 20.5971 15.5276 20.1327 15.6583 19.4286C15.5142 19.4663 15.5142 19.4663 15.3672 19.5048C15.0835 19.5728 14.8279 19.5949 14.5341 19.581C14.5059 19.515 14.4778 19.449 14.4488 19.381C14.3085 19.1105 14.3085 19.1105 14.0422 18.9429C13.5056 18.5135 13.0778 17.8913 12.9738 17.2265C12.9333 16.6336 12.9643 16.0405 12.9933 15.4477C13.128 13.8104 13.128 13.8104 12.3699 12.4046C12.047 12.0963 11.6869 11.9374 11.2578 11.7962C11.0812 11.7334 11.0812 11.7334 10.8403 11.581Z" fill="#0F9246"/>
<path d="M81.7442 18.9714C81.8237 19.0469 81.8237 19.0469 81.9048 19.1238C81.923 19.0657 81.9412 19.0075 81.96 18.9476C82.094 18.6872 82.1901 18.6353 82.4669 18.5143C82.6952 18.4803 82.9186 18.4789 83.1494 18.4809C83.2393 18.4787 83.2393 18.4787 83.331 18.4763C83.6463 18.4766 83.7981 18.4937 84.0703 18.6592C84.3799 18.9626 84.3256 19.2621 84.3254 19.663C84.3257 19.7348 84.3259 19.8065 84.3262 19.8804C84.327 20.119 84.3271 20.3576 84.3272 20.5961C84.3275 20.7623 84.3277 20.9284 84.328 21.0946C84.3285 21.444 84.3287 21.7934 84.3286 22.1428C84.3286 22.5878 84.3297 23.0329 84.3311 23.4779C84.332 23.8218 84.3321 24.1657 84.3321 24.5096C84.3322 24.6735 84.3325 24.8373 84.3332 25.0012C84.3426 27.7307 84.3426 27.7307 83.4907 28.8238C82.5449 29.7008 81.3823 30.0786 80.0748 30.1003C78.8704 30.0382 77.7269 29.7333 76.883 28.8682C76.6732 28.6101 76.5158 28.3296 76.3641 28.0381C76.3351 27.9854 76.306 27.9326 76.276 27.8783C76.0853 27.4969 76.1206 27.0782 76.1233 26.6667C76.3942 26.6578 76.6652 26.6524 76.9363 26.6476C77.0127 26.6451 77.0891 26.6425 77.1678 26.6399C77.6362 26.6337 77.9291 26.6579 78.2913 26.9714C78.3945 27.1238 78.3945 27.1238 78.4569 27.2762C78.6218 27.624 78.8282 27.7996 79.1912 27.9679C79.7474 28.142 80.4873 28.1229 81.0315 27.9143C81.4802 27.6874 81.7519 27.3567 81.9048 26.8952C81.9158 26.6936 81.9201 26.501 81.9148 26.3C81.9141 26.2472 81.9134 26.1944 81.9126 26.14C81.9107 26.0108 81.9078 25.8816 81.9048 25.7524C81.8462 25.7992 81.7876 25.8461 81.7272 25.8943C81.5287 26.0386 81.3605 26.1325 81.1319 26.2238C81.0712 26.2485 81.0106 26.2731 80.9481 26.2985C80.2172 26.5751 79.1311 26.5532 78.3942 26.2946C77.3447 25.807 77.3447 25.807 77.1671 25.3714C77.1141 25.3714 77.0611 25.3714 77.0065 25.3714C76.142 24.3977 76.0608 23.0011 76.1233 21.7905C76.2372 20.7133 76.7331 19.7652 77.5627 19.017C78.8431 18.0812 80.4685 18.0164 81.7442 18.9714ZM78.8534 20.8762C78.7565 21.0748 78.6801 21.2766 78.6125 21.4857C78.5976 21.5296 78.5827 21.5735 78.5673 21.6187C78.397 22.4516 78.4688 23.3682 78.9651 24.0851C79.2054 24.3744 79.4417 24.5715 79.817 24.6857C80.3439 24.7395 80.7999 24.7239 81.2624 24.4571C81.7838 24.0376 82.0254 23.4599 82.0933 22.8241C82.1138 22.051 81.9973 21.2811 81.5033 20.6476C81.1341 20.291 80.7655 20.2382 80.2486 20.2238C79.6488 20.2232 79.2302 20.4324 78.8534 20.8762Z" fill="#08723E"/>
<path d="M42.423 3.9428C42.507 3.94123 42.591 3.93966 42.6775 3.93804C42.7588 3.93765 42.8401 3.93725 42.9239 3.93685C43.0353 3.93578 43.0353 3.93578 43.1489 3.93469C43.4817 3.97721 43.6927 4.12554 43.9295 4.34429C44.1522 4.67126 44.2636 5.01699 44.3903 5.38566C44.4539 5.56519 44.5177 5.74465 44.5816 5.92405C44.599 5.97289 44.6163 6.02174 44.6342 6.07206C44.8502 6.67831 45.0791 7.28017 45.3071 7.88244C45.8036 9.19443 46.2926 10.5088 46.7758 11.8253C46.7982 11.8863 46.8206 11.9474 46.8438 12.0103C46.8851 12.1228 46.9264 12.2353 46.9676 12.3479C47.0634 12.6087 47.1626 12.8674 47.2676 13.1249C47.3826 13.4258 47.4287 13.6263 47.3764 13.9428C47.0463 14.2042 46.7143 14.2061 46.3024 14.1999C46.2438 14.2008 46.1852 14.2017 46.1249 14.2026C45.7093 14.2005 45.4152 14.1297 45.0477 13.9428C44.7525 13.5666 44.6315 13.1542 44.4957 12.7062C44.388 12.4547 44.315 12.353 44.0842 12.1904C43.8376 12.1448 43.5945 12.1477 43.3439 12.1499C43.272 12.1497 43.2002 12.1494 43.1261 12.1491C42.9744 12.1489 42.8227 12.1494 42.671 12.1507C42.4388 12.1523 42.2069 12.1507 41.9747 12.1488C41.8272 12.149 41.6797 12.1493 41.5322 12.1499C41.4628 12.1493 41.3935 12.1487 41.322 12.1481C40.9304 12.1528 40.9304 12.1528 40.5925 12.3276C40.4814 12.4805 40.4087 12.6019 40.3509 12.7782C40.3324 12.8305 40.3138 12.8828 40.2947 12.9367C40.2583 13.0451 40.2223 13.1536 40.1868 13.2623C40.0428 13.6652 39.8782 13.853 39.5071 14.0952C39.1998 14.1924 38.9089 14.1854 38.5887 14.1857C38.5274 14.1866 38.466 14.1875 38.4029 14.1885C37.7731 14.19 37.7731 14.19 37.58 14.019C37.4793 13.6066 37.5187 13.3441 37.6715 12.9499C37.7002 12.8745 37.7002 12.8745 37.7294 12.7975C37.7922 12.6328 37.8567 12.4688 37.9212 12.3047C37.9658 12.1887 38.0102 12.0726 38.0545 11.9565C38.1456 11.7183 38.2373 11.4802 38.3294 11.2423C38.509 10.7777 38.6826 10.3111 38.8561 9.84446C38.9463 9.60211 39.0372 9.35997 39.1279 9.1178C39.2767 8.72038 39.4249 8.32273 39.5727 7.92495C39.7555 7.43299 39.9397 6.94154 40.1249 6.45039C40.1944 6.26551 40.2635 6.08049 40.3322 5.89533C40.4274 5.6393 40.5241 5.38386 40.6213 5.12852C40.649 5.05295 40.6767 4.97738 40.7052 4.89952C41.0431 4.02402 41.5113 3.94702 42.423 3.9428ZM42.3979 6.55233C42.2891 6.85821 42.1806 7.16421 42.0725 7.4703C42.0358 7.5739 41.999 7.67747 41.9622 7.78101C41.8549 8.08257 41.7494 8.38461 41.6464 8.68749C41.6118 8.7886 41.5767 8.88956 41.5412 8.99038C41.4902 9.13575 41.4415 9.28183 41.3929 9.42792C41.3641 9.51247 41.3353 9.59702 41.3056 9.68413C41.2525 9.90378 41.2525 9.90378 41.3616 10.0845C41.5576 10.2446 41.6596 10.2478 41.9161 10.2473C41.9939 10.2473 42.0718 10.2474 42.152 10.2474C42.2737 10.2451 42.2737 10.2451 42.3979 10.2428C42.5196 10.2436 42.5196 10.2436 42.6438 10.2444C43.0546 10.2544 43.0546 10.2544 43.4317 10.1265C43.5795 9.88835 43.5034 9.71182 43.4418 9.44756C43.3758 9.21684 43.3007 8.98957 43.2231 8.76215C43.2019 8.69864 43.1806 8.63513 43.1587 8.5697C43.0912 8.36854 43.0231 8.16758 42.955 7.96661C42.9089 7.82957 42.8628 7.69252 42.8168 7.55545C42.7044 7.22093 42.5914 6.88659 42.4782 6.55233C42.4517 6.55233 42.4252 6.55233 42.3979 6.55233Z" fill="#EE8C21"/>
<path d="M57.6219 15.675C57.7113 15.6748 57.8006 15.6746 57.8926 15.6744C57.9863 15.675 58.08 15.6756 58.1765 15.6762C58.2702 15.6756 58.3639 15.675 58.4604 15.6744C58.5497 15.6746 58.639 15.6748 58.7311 15.675C58.8133 15.6752 58.8955 15.6754 58.9803 15.6756C59.1802 15.6953 59.1802 15.6953 59.3408 15.8477C59.3632 16.0685 59.3632 16.0685 59.3664 16.3545C59.3672 16.4066 59.368 16.4586 59.3689 16.5122C59.3714 16.6846 59.3727 16.8569 59.3741 17.0292C59.3756 17.1486 59.3772 17.2679 59.3788 17.3873C59.3829 17.7017 59.3861 18.016 59.3891 18.3304C59.3923 18.6512 59.3964 18.9719 59.4004 19.2926C59.4082 19.922 59.415 20.5515 59.4211 21.181C59.5376 21.0587 59.654 20.9363 59.7703 20.814C59.8351 20.7458 59.8999 20.6777 59.9667 20.6075C60.1481 20.4145 60.3211 20.2172 60.4901 20.0143C60.7767 19.6785 61.0753 19.3561 61.3834 19.0381C61.4252 18.9948 61.467 18.9514 61.5101 18.9068C61.8101 18.6 61.8101 18.6 61.9907 18.5143C62.1773 18.5078 62.3641 18.5062 62.5509 18.5069C62.6334 18.507 62.6334 18.507 62.7176 18.5072C62.8936 18.5076 63.0695 18.5086 63.2454 18.5096C63.3646 18.5099 63.4837 18.5103 63.6029 18.5106C63.8953 18.5114 64.1876 18.5128 64.48 18.5143C64.4199 18.8697 64.3071 19.0239 64.0433 19.2857C63.8471 19.4824 63.675 19.66 63.5164 19.8857C63.4634 19.8857 63.4104 19.8857 63.3558 19.8857C63.3346 19.931 63.3133 19.9763 63.2915 20.023C63.1916 20.1967 63.0914 20.2995 62.9392 20.4334C62.7178 20.6391 62.5099 20.8499 62.3119 21.0762C62.2639 21.1306 62.2158 21.185 62.1663 21.2411C62.0409 21.4628 62.0828 21.5507 62.1513 21.7905C62.21 21.9158 62.2739 22.039 62.3417 22.1602C62.3808 22.2306 62.4199 22.301 62.4602 22.3736C62.5023 22.4483 62.5445 22.523 62.5879 22.6C62.6312 22.6776 62.6744 22.7552 62.7189 22.8351C62.8078 22.9945 62.8968 23.1537 62.986 23.3128C63.1039 23.5233 63.221 23.7342 63.3376 23.9453C63.3718 24.0072 63.406 24.0692 63.4413 24.133C63.5075 24.2529 63.5737 24.3728 63.6399 24.4927C63.7875 24.7593 63.9368 25.0245 64.0926 25.2869C64.1442 25.3745 64.1959 25.4622 64.2491 25.5524C64.294 25.6269 64.3389 25.7013 64.3852 25.778C64.485 25.9918 64.5003 26.131 64.48 26.3619C64.1428 26.5219 63.7011 26.4556 63.3307 26.4572C63.1932 26.4595 63.1932 26.4595 63.0529 26.4619C62.9644 26.4623 62.8758 26.4627 62.7846 26.4631C62.7036 26.4638 62.6226 26.4646 62.5392 26.4653C62.2604 26.432 62.1289 26.3786 61.9104 26.2096C61.7859 26.0193 61.6819 25.8401 61.581 25.6393C61.5519 25.5834 61.5227 25.5275 61.4927 25.4699C61.4 25.2915 61.3089 25.1125 61.2178 24.9334C61.156 24.8141 61.0941 24.6948 61.0321 24.5756C60.7772 24.0834 60.5284 23.5915 60.3044 23.0857C60.217 23.1535 60.1301 23.2219 60.0434 23.2905C59.995 23.3285 59.9466 23.3665 59.8967 23.4057C59.6215 23.6503 59.4385 23.8206 59.3773 24.1839C59.3748 24.3293 59.3748 24.3293 59.3722 24.4777C59.3709 24.5296 59.3695 24.5815 59.3682 24.6349C59.3643 24.7995 59.3626 24.964 59.3609 25.1286C59.3586 25.2407 59.3562 25.3527 59.3537 25.4648C59.3478 25.7384 59.3438 26.0121 59.3408 26.2857C59.0942 26.4213 58.9146 26.4576 58.6307 26.4584C58.5571 26.4586 58.4835 26.4588 58.4077 26.459C58.3314 26.4584 58.2551 26.4578 58.1765 26.4572C58.1002 26.4578 58.0239 26.4584 57.9453 26.459C57.8349 26.4587 57.8349 26.4587 57.7223 26.4584C57.6554 26.4582 57.5885 26.458 57.5195 26.4578C57.3172 26.4364 57.1905 26.3755 57.0122 26.2857C57.0084 24.9274 57.0056 23.5691 57.0038 22.2108C57.003 21.5801 57.0019 20.9494 57.0001 20.3188C56.9985 19.7692 56.9974 19.2197 56.9971 18.6702C56.9968 18.3791 56.9964 18.088 56.9952 17.7969C56.9941 17.5231 56.9938 17.2493 56.994 16.9755C56.9939 16.8267 56.9931 16.6779 56.9922 16.529C56.9924 16.441 56.9926 16.353 56.9929 16.2622C56.9927 16.1854 56.9926 16.1086 56.9924 16.0294C57.0338 15.6486 57.2806 15.6757 57.6219 15.675Z" fill="#08723E"/>
<path d="M52.2747 18.8952C52.8298 19.321 53.1713 19.9188 53.2611 20.5891C53.3235 21.1974 53.3345 21.8034 53.3377 22.4142C53.338 22.4678 53.3384 22.5214 53.3387 22.5766C53.3404 22.859 53.3415 23.1413 53.3423 23.4236C53.3432 23.7148 53.346 24.0059 53.3491 24.297C53.3512 24.5218 53.3519 24.7467 53.3522 24.9715C53.3526 25.0789 53.3535 25.1864 53.355 25.2938C53.3569 25.4432 53.3567 25.5927 53.3563 25.7422C53.3568 25.8272 53.3573 25.9121 53.3578 25.9996C53.3186 26.2095 53.3186 26.2095 53.1663 26.3511C52.9767 26.4487 52.8609 26.4675 52.6464 26.4684C52.5474 26.4688 52.5474 26.4688 52.4464 26.4693C52.344 26.468 52.344 26.468 52.2396 26.4666C52.1716 26.4675 52.1037 26.4684 52.0336 26.4693C51.6587 26.4676 51.3574 26.4657 51.0702 26.2095C51.0451 26.0047 51.0451 26.0047 51.0702 25.8285C51.0158 25.8644 50.9613 25.9002 50.9052 25.9371C49.8587 26.6014 48.8462 26.7307 47.6067 26.5547C47.0255 26.4095 46.5115 26.118 46.1369 25.6714C45.7124 24.9143 45.6943 24.1366 45.9311 23.3142C46.1908 22.6663 46.6394 22.3227 47.2792 22.0208C47.8114 21.801 48.3841 21.7269 48.9523 21.6333C49.1193 21.6055 49.2863 21.5775 49.4531 21.5487C49.604 21.5226 49.755 21.4976 49.9061 21.4725C50.406 21.3623 50.406 21.3623 50.8293 21.1047C50.8703 20.7107 50.8703 20.7107 50.739 20.3523C50.237 20.0666 49.7129 20.0703 49.1431 20.1142C48.7335 20.215 48.6089 20.4018 48.4003 20.7333C48.3618 20.801 48.3233 20.8688 48.2836 20.9386C48.1795 21.1047 48.1795 21.1047 48.0189 21.1809C47.8733 21.1874 47.7274 21.1891 47.5816 21.1883C47.452 21.188 47.452 21.188 47.3197 21.1876C47.2291 21.187 47.1386 21.1863 47.0452 21.1857C46.9541 21.1853 46.8629 21.185 46.7689 21.1846C46.5432 21.1837 46.3174 21.1825 46.0917 21.1809C46.1178 20.3781 46.2254 19.7004 46.82 19.0955C48.2413 17.9571 50.7614 18.0052 52.2747 18.8952ZM48.2899 23.5619C48.0915 23.9383 48.0484 24.2364 48.1895 24.638C48.3682 24.8755 48.4426 24.9288 48.7416 24.9904C49.2982 25.0574 49.7823 24.9544 50.2672 24.6857C50.6646 24.3436 50.9312 23.9776 50.9899 23.4666C50.9959 23.2125 50.9947 22.9588 50.9899 22.7047C50.232 22.7047 48.8579 23.0999 48.2899 23.5619Z" fill="#08723E"/>
<path d="M71.0143 6.36667C71.1136 6.36515 71.213 6.36363 71.3154 6.36206C72.1998 6.3625 73.0288 6.51396 73.7165 7.07411C74.828 8.2248 74.5405 10.1253 74.533 11.5654C74.5321 11.7787 74.5322 11.9921 74.5322 12.2054C74.5322 12.4605 74.5315 12.7157 74.5308 12.9708C74.5307 13.0662 74.5306 13.1616 74.5305 13.2599C74.53 13.3475 74.5295 13.435 74.529 13.5253C74.5287 13.6025 74.5283 13.6797 74.528 13.7592C74.5173 13.9429 74.5173 13.9429 74.437 14.0952C74.1029 14.2009 73.7882 14.1855 73.4383 14.1857C73.3693 14.1867 73.3003 14.1876 73.2292 14.1885C73.1292 14.1888 73.1292 14.1888 73.0271 14.189C72.9664 14.1893 72.9057 14.1896 72.8431 14.1899C72.6451 14.1687 72.518 14.1185 72.3492 14.0191C72.2489 13.8571 72.2489 13.8571 72.1886 13.7143C72.1525 13.7391 72.1164 13.764 72.0792 13.7896C71.3983 14.2285 70.7358 14.3428 69.9252 14.3476C69.8651 14.348 69.8051 14.3485 69.7432 14.3489C69.0413 14.3403 68.3804 14.1982 67.8588 13.7274C67.2701 13.1227 67.2471 12.5498 67.265 11.7616C67.2859 11.3703 67.3801 11.069 67.6116 10.7429C67.6646 10.6627 67.7176 10.5826 67.7722 10.5C68.5626 9.67437 70.0125 9.57844 71.0994 9.40533C71.1731 9.39326 71.2469 9.38119 71.3229 9.36876C71.3891 9.35824 71.4553 9.34773 71.5235 9.33689C71.7131 9.29382 71.8613 9.23838 72.028 9.14286C72.1421 8.92642 72.1336 8.77298 72.1083 8.53334C71.8789 8.21992 71.6096 8.15041 71.225 8.0762C70.8184 8.04864 70.4791 8.0796 70.1009 8.22858C69.913 8.43883 69.913 8.43883 69.7797 8.68572C69.5513 9.06072 69.5513 9.06072 69.3782 9.14286C69.2384 9.1493 69.0984 9.15103 68.9585 9.1503C68.8757 9.15006 68.7929 9.14981 68.7076 9.14956C68.5774 9.1486 68.5774 9.1486 68.4447 9.14763C68.3137 9.14711 68.3137 9.14711 68.18 9.14658C67.9637 9.14568 67.7475 9.14443 67.5313 9.14286C67.5161 8.42413 67.6481 7.71449 68.1737 7.16191C69.0519 6.49152 69.9124 6.36072 71.0143 6.36667ZM71.2552 10.8381C71.1847 10.8537 71.1142 10.8693 71.0415 10.8854C70.524 11.0058 70.01 11.1377 69.6213 11.5C69.4664 11.7949 69.4877 12.0989 69.5388 12.4191C69.6816 12.6175 69.775 12.6905 70.0055 12.781C70.5871 12.844 71.0357 12.769 71.5462 12.4952C71.8249 12.2612 72.0539 11.988 72.1886 11.6571C72.208 11.4073 72.208 11.4073 72.1987 11.1429C72.1972 11.0537 72.1958 10.9645 72.1943 10.8726C72.1924 10.8047 72.1905 10.7367 72.1886 10.6667C71.8719 10.6667 71.5614 10.767 71.2552 10.8381Z" fill="#EE8C21"/>
<path d="M74.6805 18.8399C75.238 19.3038 75.5318 19.8562 75.5824 20.5609C75.5923 20.9241 75.5884 21.2871 75.5848 21.6503C75.5844 21.7843 75.584 21.9182 75.5838 22.0522C75.5829 22.4028 75.5805 22.7534 75.5779 23.104C75.5754 23.4625 75.5743 23.8211 75.5731 24.1796C75.5705 24.8817 75.5664 25.5837 75.5613 26.2857C75.1715 26.4817 74.8323 26.4633 74.397 26.4619C74.3207 26.4631 74.2444 26.4644 74.1658 26.4656C74.0922 26.4657 74.0186 26.4657 73.9428 26.4658C73.8759 26.466 73.809 26.4662 73.74 26.4665C73.5005 26.43 73.4044 26.3727 73.2326 26.2095C73.1926 25.9855 73.1926 25.9855 73.1926 25.7083C73.1922 25.6577 73.1918 25.6071 73.1913 25.555C73.1905 25.4452 73.1905 25.3355 73.1912 25.2257C73.1922 25.0518 73.1913 24.8779 73.1899 24.704C73.1877 24.3971 73.1873 24.0903 73.1874 23.7835C73.1876 23.2932 73.1864 22.8029 73.1829 22.3126C73.1822 22.1417 73.1829 21.9708 73.1836 21.7999C73.1832 21.6943 73.1826 21.5888 73.182 21.4833C73.182 21.3916 73.1821 21.2999 73.1822 21.2054C73.1486 20.921 73.068 20.7386 72.9115 20.4953C72.5177 20.2219 72.0973 20.2032 71.6267 20.2667C71.1423 20.4788 70.7977 20.8814 70.5897 21.3443C70.4072 21.8865 70.3856 22.3982 70.3839 22.9646C70.3827 23.0597 70.3814 23.1549 70.3801 23.2529C70.377 23.5032 70.3748 23.7536 70.3731 24.0039C70.3706 24.3589 70.3664 24.7138 70.3622 25.0688C70.36 25.2573 70.3583 25.4459 70.3571 25.6345C70.3558 25.7612 70.3558 25.7612 70.3546 25.8905C70.354 25.9652 70.3535 26.0399 70.353 26.1168C70.3419 26.2857 70.3419 26.2857 70.2616 26.3619C69.9158 26.3812 69.5691 26.376 69.2227 26.3762C69.0759 26.3776 69.0759 26.3776 68.9262 26.379C68.7862 26.3793 68.7862 26.3793 68.6434 26.3795C68.5142 26.3799 68.5142 26.3799 68.3824 26.3804C68.1738 26.3619 68.1738 26.3619 68.0132 26.2095C67.9972 25.9743 67.9913 25.7458 67.9924 25.5104C67.9922 25.438 67.9919 25.3655 67.9916 25.2908C67.9909 25.0503 67.9914 24.8098 67.9919 24.5694C67.9918 24.4027 67.9916 24.2361 67.9914 24.0694C67.9912 23.7198 67.9915 23.3701 67.9923 23.0205C67.9932 22.5718 67.9927 22.1231 67.9917 21.6743C67.9911 21.3301 67.9913 20.9858 67.9917 20.6416C67.9918 20.4761 67.9917 20.3106 67.9913 20.1452C67.9909 19.914 67.9916 19.6829 67.9924 19.4518C67.9921 19.3831 67.9918 19.3143 67.9915 19.2435C67.9919 19.1805 67.9924 19.1176 67.9928 19.0528C67.9929 18.9981 67.993 18.9435 67.993 18.8872C68.0132 18.7429 68.0132 18.7429 68.1738 18.5143C68.3664 18.4859 68.3664 18.4859 68.6054 18.4866C68.6911 18.4867 68.7768 18.4867 68.8651 18.4868C68.955 18.488 69.0448 18.4892 69.1374 18.4905C69.2722 18.4901 69.2722 18.4901 69.4097 18.4897C70.0796 18.494 70.0796 18.494 70.2616 18.6667C70.307 18.869 70.3208 19.0698 70.3419 19.2762C70.375 19.2412 70.4081 19.2063 70.4423 19.1703C71.5187 18.0851 73.4058 17.9503 74.6805 18.8399Z" fill="#08723E"/>
<path d="M39.2234 15.7505C39.2994 15.7501 39.3754 15.7498 39.4538 15.7494C39.7048 15.7483 39.9557 15.7484 40.2067 15.7485C40.3814 15.7483 40.5561 15.7479 40.7308 15.7476C41.0969 15.747 41.4629 15.747 41.829 15.7474C42.2978 15.7479 42.7666 15.7466 43.2355 15.7448C43.5962 15.7437 43.957 15.7436 44.3178 15.7438C44.4906 15.7438 44.6634 15.7434 44.8363 15.7426C45.0781 15.7417 45.3198 15.7422 45.5616 15.7431C45.6328 15.7425 45.7041 15.7419 45.7774 15.7413C46.1818 15.7446 46.4652 15.7838 46.8141 16C47.0431 16.3758 47.0195 16.7976 46.9747 17.2191C46.8636 17.4538 46.7628 17.5725 46.5732 17.7524C46.3229 17.7743 46.3229 17.7743 46.0039 17.7786C45.9196 17.7803 45.9196 17.7803 45.8335 17.782C45.6535 17.7855 45.4735 17.7881 45.2935 17.7905C45.0568 17.7936 44.8202 17.7977 44.5836 17.8024C44.4783 17.8038 44.3729 17.8053 44.2643 17.8067C43.9919 17.8097 43.9919 17.8097 43.7628 17.981C43.689 18.1908 43.6724 18.3135 43.6725 18.5295C43.6723 18.5947 43.672 18.6598 43.6718 18.727C43.672 18.7982 43.6722 18.8694 43.6723 18.9429C43.6722 19.0181 43.672 19.0933 43.6719 19.1708C43.6716 19.3343 43.6714 19.4978 43.6714 19.6613C43.6711 20.0087 43.6694 20.356 43.6677 20.7034C43.6647 21.3504 43.6622 21.9975 43.6623 22.6445C43.6624 23.0943 43.6605 23.5441 43.6574 23.9939C43.6565 24.1654 43.6564 24.337 43.657 24.5085C43.6578 24.7483 43.6561 24.9881 43.6538 25.228C43.6547 25.2989 43.6555 25.3699 43.6563 25.4429C43.6505 25.786 43.64 25.9343 43.4132 26.2138C43.0792 26.4466 42.8184 26.4523 42.4127 26.4572C42.2679 26.4601 42.2679 26.4601 42.1201 26.4631C41.7348 26.4293 41.4669 26.3169 41.1932 26.0572C41.1724 25.9181 41.1724 25.9181 41.1714 25.7464C41.1702 25.6488 41.1702 25.6488 41.169 25.5493C41.169 25.4777 41.1689 25.4062 41.1689 25.3325C41.1682 25.2573 41.1675 25.1821 41.1668 25.1046C41.1647 24.855 41.1638 24.6053 41.1628 24.3557C41.1615 24.1826 41.1601 24.0095 41.1586 23.8364C41.155 23.3797 41.1522 22.923 41.1496 22.4664C41.1455 21.7362 41.1402 21.006 41.1345 20.2758C41.1327 20.0205 41.1314 19.7652 41.1301 19.5099C41.129 19.3532 41.128 19.1966 41.1268 19.04C41.1266 18.9689 41.1264 18.8979 41.1262 18.8246C41.1235 18.5085 41.117 18.213 41.0326 17.9048C40.7368 17.8168 40.4554 17.8178 40.1468 17.8152C40.0359 17.8134 39.9249 17.8116 39.814 17.8097C39.6401 17.807 39.4662 17.8048 39.2923 17.8038C39.1237 17.8026 38.9553 17.7995 38.7867 17.7962C38.6862 17.7951 38.5856 17.7939 38.482 17.7928C38.1778 17.7455 38.0843 17.6783 37.9009 17.4477C37.7476 17.0111 37.7634 16.5438 37.916 16.1096C38.2409 15.695 38.7258 15.7492 39.2234 15.7505Z" fill="#08723E"/>
<path d="M81.1167 6.37141C81.2172 6.36955 81.3176 6.36768 81.4211 6.36576C82.2519 6.3633 83.1028 6.48638 83.7659 7.00237C84.217 7.49468 84.5545 8.18254 84.5545 8.83808C84.4171 8.96843 84.2378 8.92419 84.0504 8.92439C83.9645 8.92449 83.8785 8.92459 83.7899 8.92469C83.6994 8.92439 83.6089 8.9241 83.5156 8.92379C83.4254 8.92409 83.3352 8.92438 83.2423 8.92469C83.1562 8.92459 83.0701 8.92449 82.9815 8.92439C82.9021 8.9243 82.8227 8.92422 82.7409 8.92413C82.547 8.91427 82.547 8.91427 82.3864 8.83808C82.3028 8.68644 82.2327 8.53117 82.1612 8.37409C82.0377 8.18675 81.9664 8.14417 81.744 8.07618C81.528 8.06152 81.3224 8.05489 81.1067 8.05713C81.0502 8.05654 80.9937 8.05595 80.9356 8.05534C80.5939 8.05656 80.2335 8.06178 79.9775 8.30475C79.9592 8.56542 79.9592 8.56542 80.0578 8.83808C80.7079 9.23222 81.5071 9.37448 82.2446 9.56723C84.1487 10.0674 84.1487 10.0674 84.6348 10.819C84.8882 11.4002 84.9034 12.1151 84.7308 12.7226C84.3745 13.4733 83.7316 13.881 82.9479 14.1783C81.7001 14.5384 80.0268 14.4439 78.8633 13.8905C78.1645 13.493 77.6942 13.0273 77.4882 12.2667C77.4586 12.0713 77.462 11.932 77.4882 11.7333C77.6488 11.5809 77.6488 11.5809 77.8587 11.5636C77.9886 11.5648 77.9886 11.5648 78.1212 11.5661C78.2617 11.5668 78.2617 11.5668 78.4051 11.5675C78.5033 11.5688 78.6015 11.5701 78.7027 11.5714C78.8016 11.5721 78.9004 11.5728 79.0023 11.5735C79.2471 11.5753 79.4918 11.5778 79.7366 11.5809C79.7508 11.6282 79.765 11.6755 79.7796 11.7242C79.7994 11.7862 79.8193 11.8481 79.8398 11.9119C79.8589 11.9733 79.8781 12.0348 79.8978 12.0981C80.0353 12.3891 80.2358 12.45 80.5396 12.5714C81.1033 12.7317 81.6952 12.6895 82.2425 12.4937C82.4048 12.4224 82.4048 12.4224 82.5219 12.2381C82.5547 11.9774 82.5414 11.8777 82.3864 11.6571C81.8881 11.3829 81.3933 11.2537 80.8357 11.1286C79.7097 10.8619 78.5146 10.5193 77.8746 9.52856C77.6346 8.95026 77.6573 8.28021 77.8881 7.70504C78.2445 6.99893 78.9148 6.73404 79.6557 6.46516C80.1292 6.34431 80.6304 6.37188 81.1167 6.37141Z" fill="#EE8C21"/>
<path d="M63.4659 6.37616C63.5836 6.37432 63.5836 6.37432 63.7037 6.37244C64.7141 6.3718 65.5785 6.68317 66.3165 7.34759C66.8213 7.86587 67.0475 8.44063 67.1295 9.14282C67.0765 9.21825 67.0236 9.29368 66.9689 9.3714C66.7591 9.39734 66.7591 9.39734 66.4966 9.39372C66.4029 9.39298 66.3092 9.39224 66.2127 9.39148C66.1145 9.38957 66.0162 9.38765 65.915 9.38568C65.7667 9.38413 65.7667 9.38413 65.6155 9.38256C65.3707 9.37986 65.1259 9.37609 64.8812 9.3714C64.8604 9.31866 64.8396 9.26593 64.8182 9.21159C64.7902 9.14264 64.7622 9.07369 64.7334 9.00265C64.706 8.9342 64.6786 8.86575 64.6503 8.79522C64.5337 8.55552 64.3967 8.43805 64.1585 8.30473C63.7035 8.16082 63.2121 8.17332 62.7583 8.31425C62.3677 8.58544 62.1898 8.93539 62.0707 9.3714C62.0456 9.66051 62.0447 9.94809 62.0456 10.2381C62.0443 10.3145 62.043 10.3909 62.0417 10.4696C62.0412 11.2025 62.2285 11.7784 62.7683 12.3285C63.1629 12.5208 63.594 12.5419 64.018 12.4238C64.3893 12.2726 64.5538 11.9939 64.7206 11.6571C64.7603 11.544 64.7603 11.544 64.8009 11.4285C65.038 11.2787 65.2328 11.2566 65.5138 11.2559C65.6248 11.2556 65.6248 11.2556 65.738 11.2553C65.8146 11.2559 65.8913 11.2565 65.9702 11.2571C66.0857 11.2562 66.0857 11.2562 66.2034 11.2553C66.3142 11.2556 66.3142 11.2556 66.4272 11.2559C66.4946 11.2561 66.5619 11.2563 66.6313 11.2564C66.8084 11.2762 66.8084 11.2762 67.0492 11.4285C66.9618 12.3576 66.5926 13.0134 65.8297 13.619C64.8939 14.2739 63.8431 14.4126 62.7131 14.3238C61.7476 14.154 61.0377 13.7538 60.4478 13.0113C59.8827 12.18 59.7106 11.2736 59.717 10.3C59.7174 10.2266 59.7179 10.1532 59.7183 10.0775C59.7366 9.05509 59.9706 8.02588 60.7207 7.24759C61.5223 6.55936 62.4197 6.37291 63.4659 6.37616Z" fill="#EE8C21"/>
<path d="M51.5518 3.96188C51.5518 4.48988 51.5518 5.01788 51.5518 5.56188C51.2186 5.61396 51.2186 5.61396 50.8853 5.66604C50.6525 5.70518 50.6525 5.70518 50.4277 5.86664C50.3813 6.01625 50.3813 6.01625 50.3725 6.18093C50.3642 6.27835 50.3559 6.37578 50.3474 6.47616C50.4199 6.47901 50.4925 6.48186 50.5672 6.48479C50.662 6.4898 50.7567 6.49481 50.8543 6.49997C50.9954 6.5066 50.9954 6.5066 51.1394 6.51337C51.3912 6.55235 51.3912 6.55235 51.5437 6.63658C51.6809 6.8605 51.6609 7.05809 51.6572 7.31426C51.6569 7.40854 51.6566 7.50283 51.6563 7.59997C51.6321 7.84759 51.6321 7.84759 51.4715 8.07616C51.2099 8.11515 51.2099 8.11515 50.8994 8.12854C50.7965 8.13355 50.6936 8.13856 50.5876 8.14372C50.5083 8.14657 50.4291 8.14942 50.3474 8.15235C50.3469 8.22439 50.3464 8.29643 50.3459 8.37065C50.3413 9.04893 50.3355 9.7272 50.3284 10.4055C50.3248 10.7542 50.3217 11.1029 50.3195 11.4516C50.3175 11.7881 50.3142 12.1245 50.3102 12.4609C50.3088 12.5894 50.3079 12.7178 50.3074 12.8463C50.3066 13.026 50.3044 13.2056 50.3018 13.3853C50.3019 13.4387 50.302 13.492 50.3021 13.5469C50.2976 13.7657 50.2922 13.9095 50.1556 14.0902C49.9784 14.2014 49.8537 14.1998 49.6422 14.1991C49.568 14.199 49.4938 14.199 49.4173 14.1989C49.34 14.1977 49.2627 14.1965 49.183 14.1952C49.1057 14.1955 49.0284 14.1957 48.9487 14.196C48.3721 14.1918 48.3721 14.1918 48.099 14.019C48.074 13.8304 48.0647 13.6603 48.0656 13.4714C48.0649 13.415 48.0642 13.3586 48.0635 13.3005C48.0614 13.1137 48.0611 12.927 48.0607 12.7402C48.0596 12.6107 48.0583 12.4813 48.0569 12.3519C48.0536 12.0108 48.0516 11.6698 48.0499 11.3288C48.047 10.7825 48.0422 10.2363 48.0372 9.69009C48.0356 9.49877 48.0347 9.30745 48.0339 9.11612C48.033 8.99952 48.0322 8.88292 48.0314 8.76632C48.0313 8.71269 48.0312 8.65906 48.0311 8.6038C48.0509 8.35672 48.0509 8.35672 47.9384 8.15235C47.7781 8.13644 47.6174 8.12433 47.4566 8.11426C46.9837 8.08463 46.9837 8.08463 46.8945 7.99997C46.8843 7.7848 46.8796 7.57232 46.8795 7.35712C46.8785 7.29696 46.8775 7.2368 46.8765 7.17482C46.8761 7.01802 46.8847 6.86126 46.8945 6.70474C47.0551 6.55235 47.0551 6.55235 47.2991 6.53747C47.3942 6.53924 47.4892 6.54101 47.5871 6.54283C47.6825 6.54421 47.778 6.54558 47.8763 6.547C47.9865 6.54965 47.9865 6.54965 48.099 6.55235C48.094 6.46435 48.0891 6.37635 48.0839 6.28569C48.085 5.72137 48.3604 5.2722 48.6611 4.79997C48.7141 4.79997 48.7671 4.79997 48.8217 4.79997C48.8217 4.74969 48.8217 4.6994 48.8217 4.64759C49.4577 4.11422 50.7164 3.56555 51.5518 3.96188Z" fill="#EE8C21"/>
<path d="M54.5627 15.6852C54.6523 15.6851 54.7419 15.685 54.8342 15.6849C54.9757 15.6853 54.9757 15.6853 55.1201 15.6857C55.2142 15.6855 55.3082 15.6852 55.4051 15.6849C55.5396 15.685 55.5396 15.685 55.6769 15.6852C55.7596 15.6852 55.8424 15.6853 55.9276 15.6854C56.1289 15.6953 56.1289 15.6953 56.2895 15.7715C56.2895 19.2412 56.2895 22.7109 56.2895 26.2857C55.9893 26.4282 55.8922 26.4576 55.5765 26.4584C55.4656 26.4587 55.4656 26.4587 55.3524 26.459C55.2374 26.4581 55.2374 26.4581 55.1201 26.4572C55.0047 26.4581 55.0047 26.4581 54.8869 26.459C54.8131 26.4588 54.7392 26.4586 54.6631 26.4584C54.5958 26.4582 54.5284 26.458 54.4591 26.4578C54.282 26.4381 54.282 26.4381 54.0411 26.2857C54.0113 26.103 54.0113 26.103 54.0116 25.8688C54.0112 25.7802 54.0107 25.6916 54.0103 25.6004C54.0114 25.4539 54.0114 25.4539 54.0125 25.3045C54.0124 25.201 54.0123 25.0975 54.012 24.994C54.0116 24.7126 54.0127 24.4311 54.014 24.1497C54.0153 23.8556 54.0152 23.5616 54.0152 23.2675C54.0155 22.7738 54.0167 22.28 54.0185 21.7862C54.0209 21.1517 54.0217 20.5171 54.022 19.8825C54.0224 19.3379 54.0234 18.7933 54.0245 18.2487C54.0248 18.0731 54.025 17.8976 54.0253 17.7221C54.0257 17.4467 54.0265 17.1714 54.0276 16.896C54.0282 16.7462 54.0283 16.5963 54.0285 16.4465C54.0289 16.3581 54.0294 16.2698 54.0298 16.1788C54.0301 16.1015 54.0303 16.0242 54.0306 15.9446C54.051 15.6101 54.2565 15.6855 54.5627 15.6852Z" fill="#09723E"/>
<path d="M25.1334 8.68567C25.202 8.72274 25.2707 8.75982 25.3413 8.79802C25.6346 8.92245 25.8246 8.94328 26.1435 8.94519C26.2933 8.9477 26.2933 8.9477 26.4461 8.95025C26.5496 8.95094 26.653 8.95163 26.7595 8.95234C27.8628 8.95976 28.6932 9.05038 29.5499 9.75234C30.1447 10.3464 30.3101 10.9411 30.3008 11.7437C30.2767 12.42 30.0407 12.9183 29.5499 13.4095C29.0359 13.8373 28.53 14.048 27.8636 14.1714C27.7821 14.1916 27.7821 14.1916 27.6989 14.2122C27.126 14.3281 26.5703 14.1021 26.0701 13.8473C25.5552 13.5188 25.1772 12.9988 25.0531 12.419C25.046 12.2961 25.0429 12.173 25.0428 12.0499C25.0425 11.9769 25.0423 11.904 25.042 11.8288C25.0422 11.7507 25.0423 11.6725 25.0425 11.5919C25.0424 11.5114 25.0423 11.4308 25.0423 11.3478C25.0422 11.1778 25.0423 11.0077 25.0427 10.8377C25.0431 10.5764 25.0427 10.315 25.0422 10.0537C25.0422 9.88865 25.0423 9.72362 25.0425 9.55859C25.0423 9.47994 25.0422 9.40129 25.042 9.32026C25.0422 9.24803 25.0425 9.17581 25.0428 9.10139C25.0428 9.03751 25.0429 8.97363 25.043 8.90781C25.0531 8.76186 25.0531 8.76186 25.1334 8.68567Z" fill="#DB2429"/>
<path d="M25.053 21.0286C25.1555 21.0656 25.1555 21.0656 25.2601 21.1035C25.5464 21.1842 25.777 21.2003 26.0749 21.2018C26.2291 21.2041 26.2291 21.2041 26.3864 21.2065C26.5997 21.2088 26.813 21.2099 27.0263 21.2107C28.0289 21.2278 28.9044 21.3999 29.63 22.0952C30.2566 22.8291 30.3471 23.5424 30.2724 24.4571C30.1263 25.0916 29.7443 25.5812 29.1969 25.9625C28.5832 26.3328 27.9543 26.5304 27.2211 26.4381C26.353 26.2126 25.6849 25.7157 25.2136 24.9905C25.0204 24.5686 25.0323 24.1732 25.0373 23.722C25.0375 23.6449 25.0378 23.5677 25.038 23.4882C25.0389 23.2429 25.0409 22.9977 25.043 22.7524C25.0438 22.5856 25.0445 22.4188 25.0452 22.2521C25.0469 21.8442 25.0496 21.4364 25.053 21.0286Z" fill="#DB2429"/>
<path d="M56.5301 6.40004C56.5301 7.10404 56.5301 7.80804 56.5301 8.53338C56.2386 8.53338 55.9471 8.53338 55.6468 8.53338C54.965 8.76777 54.5906 9.18091 54.272 9.7942C54.1362 10.1539 54.1546 10.5237 54.1553 10.9018C54.1536 11.0319 54.1536 11.0319 54.1519 11.1646C54.1485 11.4399 54.1473 11.7152 54.1462 11.9905C54.1439 12.2675 54.1411 12.5444 54.138 12.8213C54.1362 12.9933 54.1349 13.1653 54.1342 13.3372C54.1337 13.4146 54.1331 13.4919 54.1325 13.5716C54.1321 13.6739 54.1321 13.6739 54.1317 13.7783C54.1211 13.9429 54.1211 13.9429 54.0408 14.0953C53.6829 14.2085 53.3317 14.1855 52.9568 14.1858C52.8408 14.1872 52.8408 14.1872 52.7225 14.1886C52.6112 14.1888 52.6112 14.1888 52.4976 14.189C52.3958 14.1895 52.3958 14.1895 52.292 14.19C52.1137 14.1715 52.1137 14.1715 51.8728 14.0191C51.849 13.7853 51.8408 13.5668 51.8429 13.3328C51.8426 13.2617 51.8423 13.1905 51.842 13.1173C51.8413 12.8814 51.8424 12.6455 51.8436 12.4096C51.8436 12.2462 51.8436 12.0828 51.8435 11.9194C51.8435 11.5766 51.8443 11.2338 51.8458 10.891C51.8476 10.4508 51.8476 10.0106 51.8471 9.57042C51.8468 9.2329 51.8474 8.89538 51.8482 8.55786C51.8485 8.39552 51.8486 8.23318 51.8484 8.07084C51.8484 7.84425 51.8494 7.61769 51.8507 7.39112C51.8505 7.32351 51.8503 7.2559 51.8501 7.18625C51.8544 6.72223 51.8544 6.72223 52.0334 6.55242C52.2112 6.53271 52.2112 6.53271 52.4298 6.53219C52.5475 6.53189 52.5475 6.53189 52.6676 6.53159C52.7498 6.53218 52.832 6.53277 52.9167 6.53338C52.9988 6.53279 53.081 6.5322 53.1657 6.53159C53.2442 6.53179 53.3226 6.53198 53.4035 6.53219C53.4756 6.53236 53.5478 6.53253 53.6221 6.53271C53.7999 6.55242 53.7999 6.55242 53.9605 6.70481C53.9925 6.85629 54.0198 7.00876 54.0408 7.16195C54.0905 7.10695 54.1402 7.05195 54.1914 6.99528C54.898 6.34528 55.6002 6.36266 56.5301 6.40004Z" fill="#EE8C21"/>
<path d="M65.5716 18.494C65.661 18.4938 65.7503 18.4936 65.8423 18.4934C65.936 18.494 66.0297 18.4946 66.1262 18.4952C66.2199 18.4946 66.3136 18.494 66.4101 18.4934C66.4994 18.4936 66.5887 18.4938 66.6808 18.494C66.763 18.4942 66.8452 18.4944 66.93 18.4945C67.1299 18.5143 67.1299 18.5143 67.2905 18.6666C67.3103 18.8044 67.3103 18.8044 67.3099 18.9742C67.3101 19.0385 67.3103 19.1028 67.3105 19.1691C67.3099 19.2398 67.3094 19.3105 67.3088 19.3833C67.3088 19.4577 67.3088 19.532 67.3088 19.6086C67.3087 19.8551 67.3075 20.1017 67.3062 20.3482C67.3059 20.5188 67.3057 20.6894 67.3055 20.86C67.3049 21.3097 67.3033 21.7593 67.3016 22.209C67.2999 22.6676 67.2992 23.1262 67.2984 23.5848C67.2967 24.4851 67.2939 25.3854 67.2905 26.2857C67.0374 26.4131 66.8685 26.4576 66.5804 26.4583C66.5068 26.4585 66.4332 26.4587 66.3574 26.4589C66.2811 26.4583 66.2048 26.4577 66.1262 26.4571C66.0499 26.4577 65.9736 26.4583 65.895 26.4589C65.7846 26.4586 65.7846 26.4586 65.672 26.4583C65.6051 26.4581 65.5382 26.458 65.4692 26.4578C65.2669 26.4364 65.1402 26.3754 64.9619 26.2857C64.9582 25.2949 64.9553 24.3042 64.9536 23.3134C64.9527 22.8534 64.9516 22.3934 64.9498 21.9333C64.948 21.4897 64.9471 21.0461 64.9466 20.6025C64.9463 20.4329 64.9458 20.2633 64.9449 20.0938C64.9437 19.857 64.9436 19.6202 64.9436 19.3833C64.9431 19.3126 64.9425 19.2419 64.9419 19.1691C64.9421 19.1048 64.9423 19.0405 64.9426 18.9742C64.9424 18.9182 64.9423 18.8621 64.9421 18.8044C64.9921 18.4562 65.2707 18.4946 65.5716 18.494Z" fill="#09723F"/>
<path d="M57.5037 6.53209C57.5854 6.53189 57.6671 6.5317 57.7513 6.53149C57.837 6.53208 57.9226 6.53267 58.0109 6.53328C58.1389 6.5324 58.1389 6.5324 58.2695 6.53149C58.3922 6.53179 58.3922 6.53179 58.5174 6.53209C58.6301 6.53235 58.6301 6.53235 58.745 6.53261C58.9393 6.55233 58.9393 6.55233 59.1802 6.70471C59.2045 6.93584 59.2131 7.15146 59.2114 7.38281C59.2118 7.45307 59.2122 7.52332 59.2127 7.5957C59.2137 7.82878 59.213 8.06181 59.2122 8.29489C59.2124 8.4564 59.2126 8.61792 59.2129 8.77943C59.2133 9.11832 59.2128 9.4572 59.2116 9.7961C59.2103 10.231 59.211 10.6658 59.2125 11.1007C59.2134 11.4344 59.2131 11.7681 59.2125 12.1017C59.2123 12.2621 59.2125 12.4225 59.2131 12.5828C59.2137 12.8069 59.2127 13.0308 59.2114 13.2548C59.2121 13.3548 59.2121 13.3548 59.2129 13.4567C59.2078 13.9101 59.2078 13.9101 59.0695 14.0741C58.889 14.2089 58.7656 14.1998 58.5378 14.1991C58.46 14.199 58.3822 14.199 58.302 14.1989C58.1802 14.1971 58.1802 14.1971 58.056 14.1952C57.9749 14.1954 57.8937 14.1957 57.8101 14.1959C57.2049 14.1917 57.2049 14.1917 56.9319 14.019C56.908 13.7852 56.8998 13.5667 56.902 13.3327C56.9017 13.2616 56.9014 13.1904 56.9011 13.1172C56.9004 12.8813 56.9015 12.6454 56.9027 12.4095C56.9027 12.2461 56.9027 12.0827 56.9026 11.9193C56.9026 11.5765 56.9034 11.2337 56.9049 10.8909C56.9067 10.4507 56.9067 10.0105 56.9062 9.57032C56.9059 9.2328 56.9065 8.89528 56.9072 8.55776C56.9076 8.39542 56.9076 8.23308 56.9075 8.07074C56.9075 7.84415 56.9085 7.6176 56.9098 7.39102C56.9096 7.32341 56.9094 7.2558 56.9092 7.18615C56.9139 6.68265 56.9623 6.53333 57.5037 6.53209Z" fill="#EE8C21"/>
<path d="M33.9663 4.49524C34.0988 4.49524 34.2313 4.49524 34.3678 4.49524C34.3678 11.7364 34.3678 18.9775 34.3678 26.4381C34.2353 26.4381 34.1028 26.4381 33.9663 26.4381C33.9663 19.197 33.9663 11.9558 33.9663 4.49524Z" fill="#06723E"/>
<path d="M75.4482 3.57227C75.5386 3.57266 75.629 3.57306 75.7222 3.57347C75.8197 3.57372 75.9173 3.57397 76.0178 3.57422C76.1206 3.57486 76.2233 3.5755 76.3291 3.57615C76.4322 3.5765 76.5352 3.57684 76.6414 3.57719C76.897 3.5781 77.1526 3.57935 77.4082 3.58092C77.5866 3.91959 77.5069 4.38059 77.5085 4.75234C77.5102 4.84575 77.5118 4.93915 77.5135 5.03538C77.5172 5.85268 77.448 6.74959 76.8461 7.39044C76.7931 7.39044 76.7401 7.39044 76.6855 7.39044C76.6855 7.44072 76.6855 7.49101 76.6855 7.54282C76.2382 7.80022 75.8382 7.98996 75.3204 8.07615C75.2674 8.05101 75.2144 8.02587 75.1598 7.99996C75.1088 7.73272 75.0913 7.50337 75.1598 7.23806C75.3489 7.07088 75.5468 6.95678 75.768 6.83062C76.0596 6.64214 76.1162 6.49154 76.2037 6.17139C76.2064 6.04443 76.2069 5.91739 76.2037 5.79044C76.135 5.78582 76.0664 5.78121 75.9957 5.77645C75.907 5.77007 75.8183 5.76368 75.7269 5.75711C75.6384 5.75092 75.5499 5.74473 75.4587 5.73836C75.2401 5.71425 75.2401 5.71425 75.1598 5.63806C75.1518 5.49219 75.1493 5.34603 75.1491 5.19996C75.149 5.11118 75.1489 5.02239 75.1488 4.93092C75.1491 4.83742 75.1494 4.74392 75.1497 4.64758C75.1494 4.55408 75.1491 4.46058 75.1488 4.36425C75.1489 4.27546 75.149 4.18668 75.1491 4.0952C75.1492 4.01309 75.1493 3.93099 75.1494 3.84639C75.1637 3.58643 75.1733 3.58369 75.4482 3.57227Z" fill="#EE8C21"/>
<path d="M65.3225 15.6768C65.4459 15.6772 65.4459 15.6772 65.5717 15.6777C65.6611 15.6779 65.7504 15.678 65.8424 15.6782C65.9829 15.6796 65.9829 15.6796 66.1263 15.681C66.2668 15.6811 66.2668 15.6811 66.4102 15.6811C67.1075 15.6846 67.1075 15.6846 67.2906 15.7715C67.2976 16.073 67.3019 16.3746 67.3057 16.6762C67.3077 16.7622 67.3097 16.8481 67.3118 16.9366C67.3126 17.0186 67.3134 17.1007 67.3142 17.1851C67.3154 17.261 67.3167 17.3368 67.318 17.4149C67.309 17.476 67.2999 17.5371 67.2906 17.6C67.025 17.7681 66.9399 17.7719 66.6307 17.7726C66.5492 17.7728 66.4678 17.773 66.3838 17.7732C66.2988 17.7727 66.2139 17.7721 66.1263 17.7715C66.0413 17.772 65.9563 17.7726 65.8688 17.7732C65.7466 17.7729 65.7466 17.7729 65.6219 17.7726C65.5473 17.7725 65.4728 17.7723 65.3959 17.7721C65.2029 17.7524 65.2029 17.7524 64.962 17.6C64.9321 17.4243 64.9321 17.4243 64.9328 17.2072C64.9329 17.1293 64.9329 17.0514 64.933 16.9712C64.9343 16.8895 64.9355 16.8079 64.9369 16.7238C64.9366 16.6422 64.9364 16.5606 64.9361 16.4765C64.9417 15.712 64.9417 15.712 65.3225 15.6768Z" fill="#08723E"/>
<path d="M57.574 3.78929C57.6908 3.789 57.6908 3.789 57.8099 3.7887C57.8911 3.78929 57.9722 3.78987 58.0558 3.79048C58.137 3.78989 58.2181 3.7893 58.3017 3.7887C58.3796 3.78889 58.4574 3.78909 58.5376 3.78929C58.6088 3.78946 58.6801 3.78964 58.7534 3.78981C58.9391 3.80953 58.9391 3.80953 59.18 3.96191C59.2099 4.13066 59.2099 4.13066 59.2092 4.3381C59.2091 4.41255 59.2091 4.48699 59.209 4.5637C59.2077 4.64168 59.2064 4.71966 59.2051 4.80001C59.2055 4.91698 59.2055 4.91698 59.2059 5.03632C59.2014 5.61777 59.2014 5.61777 59.0194 5.79048C58.8268 5.80899 58.8268 5.80899 58.5878 5.80804C58.5021 5.80789 58.4164 5.80775 58.3281 5.8076C58.2382 5.80666 58.1484 5.80573 58.0558 5.80477C57.9211 5.80469 57.9211 5.80469 57.7836 5.80462C57.1148 5.80117 57.1148 5.80117 56.9316 5.71429C56.9247 5.42541 56.9204 5.13655 56.9166 4.84762C56.9146 4.76532 56.9126 4.68302 56.9105 4.59822C56.9097 4.51965 56.9089 4.44108 56.9081 4.36012C56.9062 4.2512 56.9062 4.2512 56.9043 4.14007C56.9133 4.08128 56.9223 4.02249 56.9316 3.96191C57.1933 3.7964 57.271 3.79002 57.574 3.78929Z" fill="#EE8C21"/>
<path d="M27.2211 14.1714C27.2211 14.1966 27.2211 14.2217 27.2211 14.2476C26.5321 14.2476 25.8431 14.2476 25.1333 14.2476C25.1333 14.1973 25.1333 14.147 25.1333 14.0952C25.3608 14.0782 25.5882 14.0625 25.8158 14.0476C25.8794 14.0427 25.943 14.0378 26.0084 14.0327C26.4486 14.0053 26.7983 14.0509 27.2211 14.1714Z" fill="#E97F22"/>
<path d="M26.6593 26.2095C26.8978 26.2849 27.1363 26.3603 27.382 26.438C27.382 26.4632 27.382 26.4883 27.382 26.5142C26.428 26.5142 25.4741 26.5142 24.4912 26.5142C24.4912 26.4891 24.4912 26.4639 24.4912 26.438C25.2067 26.4129 25.9221 26.3878 26.6593 26.3619C26.6593 26.3116 26.6593 26.2613 26.6593 26.2095Z" fill="#E67622"/>
<path d="M8.99365 21.4857C9.07315 21.4857 9.15264 21.4857 9.23455 21.4857C9.23455 21.536 9.23455 21.5863 9.23455 21.6381C9.15505 21.6381 9.07556 21.6381 8.99365 21.6381C8.99365 21.5878 8.99365 21.5375 8.99365 21.4857Z" fill="#1C8E55"/>
<path d="M11.1616 20.1143C11.2411 20.1143 11.3206 20.1143 11.4025 20.1143C11.4025 20.1645 11.4025 20.2148 11.4025 20.2666C11.323 20.2666 11.2435 20.2666 11.1616 20.2666C11.1616 20.2164 11.1616 20.1661 11.1616 20.1143Z" fill="#14894E"/>
<path d="M10.519 21.3334C10.572 21.3334 10.625 21.3334 10.6796 21.3334C10.6796 21.3837 10.6796 21.4339 10.6796 21.4858C10.6266 21.4858 10.5736 21.4858 10.519 21.4858C10.519 21.4355 10.519 21.3852 10.519 21.3334Z" fill="#009249"/>
<path d="M8.19043 20.2667C8.24343 20.2667 8.29642 20.2667 8.35103 20.2667C8.35103 20.317 8.35103 20.3673 8.35103 20.4191C8.29803 20.4191 8.24503 20.4191 8.19043 20.4191C8.19043 20.3688 8.19043 20.3185 8.19043 20.2667Z" fill="#249249"/>
</svg>
