<svg width="42" height="42" viewBox="0 0 42 42" fill="none" xmlns="http://www.w3.org/2000/svg">
<g clip-path="url(#clip0_8782_3541)">
<path d="M29.0826 6.10352e-05C29.1804 6.10352e-05 29.2781 6.10352e-05 29.3814 6.10352e-05C29.6212 2.96199 28.4906 5.17514 27.1166 6.77782C25.7684 8.36944 23.9223 9.91312 20.9364 9.67889C20.7372 6.75938 21.8696 4.71038 23.2418 3.11138C24.5143 1.62119 26.8473 0.295147 29.0826 6.10352e-05Z" fill="black"/>
<path d="M38.1214 30.8292C38.1214 30.8587 38.1214 30.8845 38.1214 30.9122C37.2823 33.4536 36.0854 35.6318 34.6247 37.6531C33.2913 39.4882 31.6572 41.9577 28.7395 41.9577C26.2184 41.9577 24.5438 40.3365 21.9599 40.2923C19.2267 40.248 17.7236 41.6478 15.2246 42.0001C14.9387 42.0001 14.6529 42.0001 14.3725 42.0001C12.5375 41.7345 11.0565 40.2812 9.97759 38.9718C6.79619 35.1024 4.33775 30.1044 3.88037 23.7084C3.88037 23.0814 3.88037 22.4561 3.88037 21.8291C4.07402 17.2516 6.29823 13.5298 9.25463 11.7261C10.8149 10.767 12.9598 9.95002 15.3482 10.3152C16.3717 10.4738 17.4175 10.8242 18.3341 11.1709C19.2027 11.5048 20.289 12.0968 21.3181 12.0654C22.0153 12.0451 22.7087 11.6818 23.4114 11.4255C25.4696 10.6822 27.4873 9.83014 30.1467 10.2304C33.3429 10.7136 35.6114 12.1337 37.013 14.3247C34.3093 16.0454 32.1718 18.6385 32.5369 23.0666C32.8615 27.089 35.2001 29.4423 38.1214 30.8292Z" fill="black"/>
</g>
<defs>
<clipPath id="clip0_8782_3541">
<rect width="42" height="42" fill="white"/>
</clipPath>
</defs>
</svg>