<svg width="138" height="29" viewBox="0 0 138 29" fill="none" xmlns="http://www.w3.org/2000/svg">
<g clip-path="url(#clip0_3026_2715)">
<path fill-rule="evenodd" clip-rule="evenodd" d="M39.3877 10.6018C39.7173 10.662 40.0383 10.7653 40.3419 10.8944C40.6541 11.0234 40.9404 11.1869 41.2179 11.3763C41.4868 11.5656 41.7383 11.7893 41.9639 12.0389C42.1952 12.297 42.4004 12.5753 42.5797 12.8736C42.759 13.1719 42.9064 13.4846 43.0221 13.8116C43.1435 14.1386 43.2302 14.4742 43.2823 14.8184C43.3343 15.1626 43.3517 15.5097 43.3343 15.8596C43.3517 16.2555 43.3343 16.6599 43.2649 17.0472C43.2042 17.443 43.0915 17.8303 42.9527 18.2003C42.8052 18.5703 42.6231 18.9317 42.4062 19.2674C42.1894 19.603 41.9378 19.9128 41.6516 20.1967C41.3567 20.4721 41.0271 20.7131 40.6715 20.9282C40.3245 21.1347 39.9515 21.3068 39.5699 21.4445C39.1796 21.5822 38.7806 21.6768 38.3816 21.7285C37.9739 21.7887 37.5662 21.8059 37.1499 21.7801C36.8203 21.7744 36.4878 21.7514 36.1524 21.7113C35.8228 21.6768 35.4932 21.6252 35.1636 21.5564C34.834 21.4875 34.5102 21.4043 34.1921 21.3068C33.8741 21.2036 33.5618 21.0888 33.2554 20.9626V5.05994H34.4263V12.2884C34.6779 12.0131 34.9554 11.7721 35.259 11.5484C35.5626 11.3332 35.8835 11.1525 36.2218 10.9976C36.5688 10.8513 36.9244 10.7309 37.2887 10.6534C37.653 10.576 38.0173 10.5329 38.3903 10.5329C38.7285 10.5243 39.0581 10.5415 39.3877 10.6018ZM41.2613 18.6133C41.4405 18.3495 41.5909 18.0683 41.7123 17.77C41.8337 17.4717 41.9234 17.1648 41.9812 16.8493C42.0332 16.5395 42.0564 16.2239 42.0506 15.9027C42.0564 15.6158 42.039 15.3318 41.9986 15.0507C41.9581 14.7696 41.8916 14.4943 41.7991 14.2246C41.7065 13.955 41.5909 13.6968 41.4521 13.4501C41.3133 13.1977 41.1514 12.9625 40.9664 12.7445C40.8045 12.5437 40.6194 12.3659 40.4112 12.211C40.2089 12.0561 39.9891 11.9241 39.752 11.8151C39.5207 11.7061 39.2779 11.6258 39.0234 11.5742C38.769 11.5225 38.5117 11.4967 38.2515 11.4967C36.9388 11.4967 35.6638 12.1995 34.4263 13.605V20.1881C34.6403 20.2742 34.8571 20.3488 35.0769 20.4119C35.3024 20.475 35.5279 20.5266 35.7534 20.5668C35.9789 20.6127 36.2074 20.6471 36.4387 20.67C36.6642 20.6872 36.8926 20.6987 37.1239 20.7044C37.4477 20.7159 37.7715 20.693 38.0953 20.6356C38.4134 20.584 38.7228 20.4979 39.0234 20.3774C39.3299 20.2627 39.619 20.1193 39.8908 19.9472C40.1626 19.7693 40.4141 19.5685 40.6454 19.3448C40.8767 19.1211 41.082 18.8772 41.2613 18.6133ZM63.3881 10.5846C63.6599 10.6305 63.923 10.705 64.1774 10.8083C64.4319 10.9116 64.6718 11.0406 64.8974 11.1955C65.1229 11.3447 65.3311 11.5197 65.5219 11.7205C65.7185 11.9442 65.8891 12.1852 66.0336 12.4433C66.184 12.6957 66.3054 12.9625 66.3979 13.2436C66.4962 13.5247 66.5656 13.8116 66.6061 14.1041C66.6466 14.4025 66.6581 14.6979 66.6408 14.9905V21.6166H65.4612V15.4294C65.4612 12.9223 64.4666 11.6688 62.4774 11.6688C61.0144 11.6688 59.8116 12.4433 58.8691 13.9923V21.6166H57.6981V10.7395H58.8691V12.6326H58.9211C59.1033 12.3142 59.3288 12.0217 59.5803 11.7635C59.8405 11.4967 60.1354 11.273 60.4564 11.0923C60.7773 10.903 61.1156 10.7653 61.4712 10.6706C61.8268 10.576 62.1998 10.5329 62.5641 10.5329C62.8417 10.5215 63.1163 10.5387 63.3881 10.5846ZM101.778 10.7739H102.958V21.6166H101.778V10.7739ZM101.778 5.09436H102.958V7.15964H101.778V5.09436ZM136.794 11.7205C136.991 11.9442 137.162 12.1823 137.306 12.4347C137.456 12.6871 137.578 12.9539 137.67 13.235C137.769 13.5104 137.838 13.7944 137.879 14.0869C137.919 14.3795 137.931 14.6721 137.913 14.9647V21.6252H136.699V15.4294C136.699 12.9166 135.71 11.6688 133.715 11.6688C132.301 11.6688 131.087 12.4433 130.107 13.9923V21.6252H128.945V5.10296H130.107V12.6585H130.159C130.341 12.3401 130.567 12.0475 130.827 11.7893C131.087 11.5225 131.373 11.2988 131.694 11.1181C132.015 10.9288 132.353 10.7911 132.718 10.6964C133.073 10.6018 133.438 10.5501 133.811 10.5587C134.082 10.5415 134.357 10.5559 134.635 10.6018C134.906 10.6477 135.17 10.7223 135.424 10.8255C135.684 10.9288 135.927 11.0579 136.153 11.2128C136.384 11.3677 136.595 11.5426 136.786 11.7377L136.794 11.7205ZM53.5694 20.67C53.5636 20.67 53.5549 20.67 53.5434 20.67C53.5376 20.67 53.5347 20.67 53.5347 20.67H53.5694ZM53.5434 20.67C53.6764 20.6471 53.8094 20.6213 53.9424 20.5926C54.0754 20.5582 54.2084 20.5209 54.3414 20.4807C54.4744 20.4348 54.6045 20.386 54.7317 20.3344C54.8589 20.2828 54.9832 20.2283 55.1046 20.1709V21.2896C54.937 21.3699 54.7635 21.4445 54.5842 21.5133C54.4107 21.5822 54.2315 21.6396 54.0464 21.6855C53.8614 21.7313 53.6735 21.7686 53.4826 21.7973C53.2976 21.8203 53.1097 21.8346 52.9189 21.8404H52.8755C52.8234 21.8461 52.7714 21.8432 52.7194 21.8317C52.6673 21.8203 52.6182 21.8031 52.5719 21.7801C52.5199 21.7572 52.4765 21.7285 52.4418 21.6941C52.4013 21.6596 52.3666 21.6195 52.3377 21.5736C52.303 21.4875 52.2712 21.4015 52.2423 21.3154C52.2134 21.2236 52.1903 21.1347 52.1729 21.0487C52.1556 20.9569 52.1411 20.8651 52.1295 20.7733C52.118 20.6815 52.1122 20.5868 52.1122 20.4893C51.8751 20.6958 51.6207 20.8794 51.3489 21.0401C51.0771 21.2064 50.7938 21.347 50.4989 21.4617C50.2097 21.5765 49.909 21.6654 49.5968 21.7285C49.2903 21.7916 48.9781 21.8289 48.66 21.8404C48.4692 21.8461 48.2784 21.8346 48.0876 21.8059C47.8909 21.7715 47.703 21.7199 47.5238 21.651C47.3445 21.5822 47.1739 21.4961 47.012 21.3929C46.8443 21.2896 46.6911 21.1691 46.5523 21.0314C46.4193 20.911 46.2979 20.7762 46.188 20.627C46.0781 20.4778 45.9856 20.3201 45.9104 20.1537C45.841 19.9873 45.7861 19.8124 45.7456 19.6288C45.7109 19.4509 45.6936 19.2702 45.6936 19.0866C45.6936 18.8027 45.7283 18.5187 45.7977 18.2433C45.8757 17.9679 45.9885 17.7098 46.136 17.4602C46.2747 17.2193 46.4569 16.9955 46.6651 16.7976C46.8732 16.5997 47.1074 16.4276 47.359 16.2899C47.7233 16.0949 48.0962 15.9256 48.4779 15.7822C48.8653 15.633 49.2585 15.5097 49.6575 15.4122C50.0565 15.3089 50.4613 15.2343 50.8718 15.1884C51.2824 15.1368 51.6958 15.111 52.1122 15.111V13.7341C52.1122 12.2483 51.2969 11.5053 49.6662 11.5053C49.3597 11.5283 49.0561 11.5742 48.7554 11.643C48.4547 11.7176 48.1627 11.8123 47.8794 11.927C47.596 12.0475 47.3243 12.188 47.064 12.3487C46.798 12.5093 46.5494 12.69 46.3181 12.8908V11.7033C46.5783 11.5254 46.8501 11.3677 47.1334 11.23C47.4226 11.0923 47.7146 10.9747 48.0095 10.8771C48.3102 10.7796 48.6167 10.7022 48.9289 10.6448C49.2412 10.5874 49.5563 10.553 49.8744 10.5415C50.0883 10.5358 50.3052 10.5444 50.5249 10.5674C50.7446 10.596 50.9586 10.6419 51.1667 10.705C51.3749 10.7681 51.5773 10.8456 51.7739 10.9374C51.9705 11.0349 52.1585 11.1439 52.3377 11.2644C52.4996 11.3906 52.6442 11.534 52.7714 11.6947C52.8986 11.8495 53.0027 12.0188 53.0837 12.2024C53.1704 12.386 53.2311 12.5781 53.2658 12.7789C53.3063 12.9797 53.3207 13.1805 53.3092 13.3813V20.1193C53.3092 20.4635 53.3872 20.6528 53.5434 20.67ZM52.0775 16.0834C51.7537 16.0604 51.4299 16.0576 51.106 16.0748C50.7822 16.0977 50.4613 16.1436 50.1432 16.2125C49.8252 16.2756 49.5129 16.3645 49.2065 16.4792C48.9 16.5882 48.6051 16.7173 48.3217 16.8665C48.1049 16.9697 47.9141 17.0988 47.7319 17.2537C47.5585 17.4086 47.4023 17.5807 47.2722 17.7786C47.1508 17.9679 47.0467 18.1831 46.9773 18.4068C46.9079 18.6306 46.8645 18.8543 46.8559 19.0866C46.8559 19.2129 46.8703 19.3333 46.8992 19.4481C46.9282 19.5685 46.9686 19.6833 47.0207 19.7923C47.0785 19.907 47.145 20.0103 47.2202 20.1021C47.2953 20.1996 47.3821 20.2857 47.4804 20.3602C47.5903 20.452 47.7059 20.5295 47.8273 20.5926C47.9546 20.6614 48.0847 20.7188 48.2177 20.7647C48.3507 20.8106 48.4865 20.8421 48.6253 20.8593C48.7641 20.8823 48.9058 20.8909 49.0503 20.8852C49.3337 20.8679 49.617 20.8221 49.9004 20.7475C50.1779 20.6786 50.4497 20.584 50.7157 20.4635C50.9759 20.343 51.2217 20.1996 51.453 20.0332C51.6901 19.8726 51.9098 19.689 52.1122 19.4825L52.0775 16.0834ZM98.2221 10.7567H99.3583L96.4006 20.2053C95.9929 21.522 95.3857 21.8145 94.9434 21.8145C94.527 21.8145 93.9199 21.5392 93.4862 20.2484L90.9361 12.6412C90.9187 12.5667 90.8956 12.4921 90.8667 12.4175C90.8436 12.3429 90.8117 12.2712 90.7713 12.2024C90.7366 12.1335 90.6961 12.0704 90.6498 12.0131C90.6036 11.9499 90.5544 11.8897 90.5024 11.8323C90.4446 11.884 90.3925 11.9413 90.3463 12.0044C90.3 12.0676 90.2566 12.1335 90.2161 12.2024C90.1814 12.2712 90.1497 12.3429 90.1207 12.4175C90.0918 12.4921 90.0687 12.5667 90.0513 12.6412L87.5013 20.2139C87.0849 21.5133 86.4777 21.7801 86.0441 21.7801C85.6104 21.7801 85.0032 21.4961 84.5869 20.1795L81.6204 10.7309H82.7654L85.6277 19.8525C85.6451 19.9328 85.6653 20.0074 85.6884 20.0763C85.7173 20.1508 85.7491 20.2225 85.7838 20.2914C85.8243 20.366 85.8648 20.4348 85.9053 20.4979C85.9515 20.561 86.0036 20.6213 86.0614 20.6786C86.1135 20.6213 86.1626 20.561 86.2089 20.4979C86.2551 20.4348 86.2956 20.3688 86.3303 20.3C86.3708 20.2312 86.4026 20.1623 86.4257 20.0935C86.4546 20.0189 86.4778 19.9443 86.4951 19.8697L89.0452 12.297C89.4615 11.0062 90.0947 10.7309 90.5111 10.7309C90.9187 10.7309 91.5346 11.0062 91.9683 12.297L94.5097 19.8869C94.527 19.9673 94.5502 20.0418 94.5791 20.1107C94.608 20.1853 94.6398 20.257 94.6745 20.3258C94.7092 20.3947 94.7497 20.4606 94.7959 20.5237C94.8422 20.5868 94.8942 20.6442 94.952 20.6958C95.0041 20.6442 95.0532 20.584 95.0995 20.5151C95.1458 20.452 95.1862 20.386 95.2209 20.3172C95.2556 20.2484 95.2874 20.1767 95.3163 20.1021C95.3395 20.0275 95.3597 19.9529 95.3771 19.8783L98.2221 10.7567ZM123.992 20.7044C124.171 20.693 124.345 20.6729 124.512 20.6442C124.686 20.6213 124.859 20.5868 125.033 20.5409C125.2 20.495 125.365 20.4405 125.527 20.3774C125.689 20.3143 125.848 20.2426 126.004 20.1623V21.281C125.831 21.3671 125.651 21.4445 125.466 21.5133C125.281 21.5822 125.093 21.6396 124.903 21.6855C124.712 21.7313 124.518 21.7686 124.321 21.7973C124.125 21.8203 123.928 21.8317 123.732 21.8317C123.57 21.8375 123.408 21.8289 123.246 21.8059C123.084 21.783 122.925 21.7457 122.769 21.6941C122.613 21.6424 122.462 21.5765 122.318 21.4961C122.179 21.4158 122.046 21.324 121.919 21.2208C121.797 21.1175 121.688 20.9999 121.589 20.8679C121.497 20.736 121.419 20.5983 121.355 20.4549C121.291 20.3057 121.245 20.1508 121.216 19.9902C121.187 19.8353 121.179 19.6775 121.19 19.5169V11.6688H118.215V10.7223H121.156V8.64836C121.156 7.12522 122.335 7.12522 122.335 7.12522V10.7395H125.423V11.686H122.335V18.1831C122.318 18.3552 122.312 18.5302 122.318 18.708C122.324 18.8801 122.338 19.0522 122.361 19.2243C122.379 19.3964 122.407 19.5685 122.448 19.7406C122.488 19.907 122.538 20.0734 122.595 20.2398C122.795 20.5323 123.255 20.7044 123.992 20.7044ZM78.1075 5.12017H79.2959V21.6424H78.1075V20.7905C77.8762 20.9626 77.6305 21.1146 77.3703 21.2466C77.1101 21.3843 76.8412 21.499 76.5636 21.5908C76.286 21.6826 76.0027 21.7514 75.7136 21.7973C75.4244 21.8432 75.1353 21.869 74.8462 21.8748C74.4732 21.8834 74.1089 21.849 73.7446 21.7801C73.389 21.7113 73.0334 21.608 72.6951 21.4703C72.3568 21.324 72.0272 21.1519 71.7236 20.9454C71.4287 20.7389 71.1425 20.4979 70.8909 20.2398C70.6307 19.973 70.3879 19.6804 70.1884 19.3706C69.9802 19.0522 69.8067 18.7252 69.6766 18.3724C69.5378 18.0282 69.4338 17.6668 69.3644 17.3053C69.3036 16.9353 69.2776 16.5653 69.2863 16.1866C69.2776 15.8166 69.3036 15.4466 69.3644 15.0852C69.4338 14.7151 69.5292 14.3623 69.6679 14.0095C69.8067 13.6653 69.9715 13.3383 70.1797 13.0199C70.3792 12.7101 70.6134 12.4175 70.8736 12.1593C71.1338 11.8926 71.4201 11.6602 71.7236 11.4537C72.0272 11.2472 72.3481 11.0751 72.6951 10.9374C73.0334 10.7997 73.389 10.6964 73.7533 10.6276C74.1176 10.5674 74.4819 10.5329 74.8549 10.5415C75.1382 10.553 75.4187 10.5788 75.6962 10.619C75.9796 10.6591 76.2571 10.7165 76.5289 10.7911C76.8065 10.8657 77.0783 10.9546 77.3442 11.0579C77.6045 11.1669 77.8589 11.2873 78.1075 11.4193V5.12017ZM78.1075 12.7015C77.8705 12.5408 77.6247 12.3974 77.3703 12.2712C77.1101 12.1507 76.8441 12.0475 76.5723 11.9614C76.3005 11.8754 76.0258 11.8094 75.7483 11.7635C75.4649 11.7176 75.1816 11.6918 74.8982 11.686C74.6033 11.6746 74.3142 11.6947 74.0309 11.7463C73.7417 11.7979 73.4642 11.8782 73.1982 11.9872C72.9264 12.0905 72.6691 12.2224 72.4262 12.3831C72.1833 12.5437 71.9607 12.7273 71.7583 12.9338C71.5559 13.1461 71.3738 13.3756 71.2119 13.6223C71.0557 13.8689 70.9228 14.13 70.8129 14.4053C70.7088 14.6807 70.6336 14.9618 70.5874 15.2487C70.5353 15.5355 70.5151 15.8252 70.5266 16.1178C70.5209 16.4276 70.544 16.7316 70.596 17.03C70.6481 17.3283 70.7319 17.618 70.8476 17.8991C70.9632 18.1859 71.1049 18.4556 71.2726 18.708C71.4403 18.9604 71.634 19.1956 71.8537 19.4136C72.0677 19.6259 72.3019 19.8152 72.5563 19.9816C72.8107 20.1537 73.0796 20.2943 73.363 20.4033C73.6463 20.518 73.9383 20.6012 74.239 20.6528C74.5339 20.7044 74.8346 20.7274 75.1411 20.7217C75.4071 20.7159 75.6702 20.6901 75.9304 20.6442C76.1964 20.5983 76.4537 20.5352 76.7024 20.4549C76.9568 20.3688 77.2026 20.2656 77.4397 20.1451C77.671 20.0246 77.8936 19.8869 78.1075 19.732V12.7015ZM114.78 5.11157H115.969V21.6596H114.78V20.8077C114.549 20.9798 114.303 21.1318 114.043 21.2638C113.789 21.3957 113.523 21.5076 113.245 21.5994C112.967 21.6855 112.684 21.7543 112.395 21.8059C112.112 21.8518 111.823 21.8748 111.528 21.8748C111.163 21.8748 110.799 21.849 110.435 21.7801C110.07 21.7113 109.724 21.608 109.385 21.4703C109.038 21.324 108.717 21.1519 108.414 20.9454C108.11 20.7389 107.833 20.4979 107.581 20.2398C107.312 19.973 107.078 19.6804 106.87 19.3706C106.67 19.0522 106.497 18.7252 106.358 18.3724C106.219 18.0282 106.115 17.6668 106.054 17.3053C105.985 16.9353 105.959 16.5653 105.968 16.1866C105.959 15.8166 105.985 15.4466 106.046 15.0852C106.107 14.7151 106.211 14.3537 106.349 14.0095C106.488 13.6653 106.653 13.3383 106.861 13.0199C107.061 12.7101 107.295 12.4175 107.555 12.1593C107.815 11.8926 108.093 11.6602 108.405 11.4537C108.709 11.2472 109.03 11.0751 109.377 10.9374C109.715 10.7997 110.07 10.6964 110.435 10.6276C110.79 10.5674 111.163 10.5329 111.528 10.5415C111.817 10.553 112.1 10.5788 112.378 10.619C112.661 10.6591 112.939 10.7165 113.21 10.7911C113.482 10.8657 113.751 10.9546 114.017 11.0579C114.277 11.1669 114.532 11.2873 114.78 11.4193V5.11157ZM114.78 12.6929C114.549 12.5322 114.306 12.3917 114.052 12.2712C113.797 12.145 113.534 12.0389 113.262 11.9528C112.991 11.8668 112.713 11.8008 112.43 11.7549C112.152 11.709 111.869 11.6832 111.58 11.6774C111.291 11.666 111.004 11.686 110.721 11.7377C110.432 11.7893 110.151 11.8668 109.88 11.97C109.614 12.079 109.359 12.2138 109.116 12.3745C108.873 12.5351 108.651 12.7187 108.448 12.9252C108.24 13.1375 108.058 13.367 107.902 13.6136C107.74 13.8603 107.607 14.1214 107.503 14.3967C107.393 14.6664 107.315 14.9475 107.269 15.2401C107.223 15.5269 107.205 15.8166 107.217 16.1092C107.205 16.4132 107.225 16.7173 107.277 17.0214C107.335 17.3197 107.419 17.6094 107.529 17.8905C107.645 18.1716 107.786 18.4412 107.954 18.6994C108.122 18.9518 108.313 19.187 108.527 19.405C108.74 19.6173 108.975 19.8066 109.229 19.973C109.484 20.1394 109.752 20.2799 110.036 20.3947C110.319 20.5094 110.611 20.5926 110.912 20.6442C111.213 20.6958 111.513 20.7188 111.814 20.7131C112.08 20.7073 112.343 20.6815 112.603 20.6356C112.869 20.5897 113.127 20.5266 113.375 20.4463C113.63 20.3602 113.875 20.257 114.112 20.1365C114.344 20.016 114.566 19.8783 114.78 19.7234V12.6929Z" fill="#079CEE"/>
<path d="M19.9064 7.32317C18.8829 7.10803 18.7702 7.63296 19.1778 8.59676C21.4937 13.6567 19.4294 18.5876 17.2349 19.8181C17.2233 19.778 17.2147 19.7378 17.2089 19.6976C17.1973 19.6575 17.1915 19.6145 17.1915 19.5686C17.1858 19.5284 17.18 19.4883 17.1742 19.4481C17.1742 19.4079 17.1742 19.3649 17.1742 19.319C16.914 16.9181 15.9946 14.8356 15.37 14.8356C14.8756 14.8356 15.1792 16.8837 15.0491 18.6994C14.2338 18.2261 13.7394 17.8819 12.8633 18.0368C11.6143 18.252 9.94892 20.8766 9.89688 20.4979C9.40247 17.4603 10.5908 12.7962 12.2388 12.2971C12.4903 12.1938 12.9674 12.581 13.9389 12.9511C14.7195 13.2522 14.6241 12.4778 14.2685 12.1852C13.9909 11.9873 13.6787 11.8238 13.349 11.7033C13.0194 11.5828 12.6725 11.514 12.3255 11.4882C11.9786 11.4623 11.623 11.4882 11.2847 11.557C10.9377 11.6258 10.6081 11.7463 10.2959 11.9012C7.81517 13.106 6.69625 18.5703 8.03202 20.8077C8.15923 21.0315 8.31247 21.238 8.49173 21.4273C8.6652 21.6166 8.85892 21.7859 9.07287 21.935C9.29261 22.0842 9.52391 22.2075 9.76677 22.3051C10.0096 22.4026 10.2583 22.4714 10.5127 22.5116C12.1781 22.7009 12.6985 22.3481 14.0256 20.7217C14.0719 20.7618 14.1181 20.7963 14.1644 20.8249C14.2164 20.8594 14.2685 20.8881 14.3205 20.911C14.3726 20.9339 14.4275 20.9569 14.4853 20.9798C14.5431 20.9971 14.601 21.0143 14.6588 21.0315C13.5659 24.3962 9.47186 27.2359 8.58714 26.754C4.30229 23.8626 5.49059 14.6119 8.51775 6.51427C8.65653 6.1471 8.79242 5.77708 8.92542 5.40418C9.05841 5.03128 9.18563 4.65551 9.30706 4.27688C9.4285 3.90398 9.54415 3.52821 9.65401 3.14958C9.76388 2.77094 9.87086 2.39231 9.97495 2.01367C10.426 -0.154873 7.6417 -0.610956 5.73346 0.998243C4.33698 2.16857 3.00122 4.85344 1.91699 8.0202C-1.54385 18.0712 -0.0693045 26.5303 6.12378 28.3718C13.2536 30.4801 16.6538 26.0742 17.1829 21.6425C17.2927 21.6539 17.3997 21.6654 17.5038 21.6769C17.6137 21.6884 17.7235 21.697 17.8334 21.7027C17.9433 21.7084 18.0531 21.7113 18.163 21.7113C18.2729 21.7113 18.3827 21.7113 18.4926 21.7113C20.6784 21.6597 23.8357 20.5324 24.7724 15.7478C25.475 12.1336 23.1418 7.95136 19.9064 7.32317Z" fill="#079CEE"/>
</g>
<defs>
<clipPath id="clip0_3026_2715">
<rect width="138" height="29" fill="white"/>
</clipPath>
</defs>
</svg>
