<svg width="70" height="33" viewBox="0 0 70 33" fill="none" xmlns="http://www.w3.org/2000/svg">
<g clip-path="url(#clip0_2375_5133)">
<path d="M69.3995 19.4438C69.3995 19.4438 68.7173 18.4852 68.5066 18.2118C68.3598 18.0327 68.1811 17.8225 67.7191 18.1383C66.6802 18.833 65.5145 19.475 64.0767 19.475C62.9739 19.475 62.0189 19.1912 61.3047 18.5804C61.6096 18.4428 61.9239 18.2957 62.2391 18.1166C63.9402 17.2004 65.3564 16.0212 66.0395 15.3368C69.3468 12.0198 68.3184 7.07098 64.2762 7.07098C60.4645 7.07098 57.4629 10.7878 57.4629 14.9267C57.4629 15.5471 57.5354 16.4425 57.7979 17.3795C57.5777 17.4851 56.0657 18.2222 54.26 19.2223C52.5588 17.9479 49.913 18.5172 49.913 18.5172C52.3697 15.0107 56.076 9.54537 56.3912 9.09289C56.6218 8.76585 56.5803 8.45007 56.3593 7.9448C56.076 7.33399 55.7928 7.22844 55.4146 7.22844H47.7187C47.4674 7.22844 47.268 7.34438 47.1937 7.62902C47.1203 7.91279 46.9631 8.89217 46.9321 9.2192C46.9001 9.55662 47.2153 9.76686 47.5408 9.76686H53.1158L48.0762 17.0006C48.0443 17.0326 48.0132 17.0637 47.9812 17.1061C47.2472 18.1694 46.1229 19.654 44.7793 19.654C43.939 19.654 42.9002 19.0536 42.9002 17.0845C42.9002 15.1577 43.6774 11.0828 44.2439 7.90241C44.3069 7.56499 44.1921 7.22844 43.6454 7.22844H42.2811C41.9659 7.22844 41.7871 7.41878 41.7457 7.69217C41.661 8.17667 41.5773 8.64992 41.5039 9.11365C40.832 7.81849 39.7509 7.0805 38.1965 7.0805C36.7475 7.0805 35.3408 7.61863 34.1863 8.77623C31.309 11.6616 31.8547 16.369 29.3678 18.8641C28.2961 19.9387 27.088 19.6116 27.088 17.4954C27.088 15.0842 28.012 12.3883 29.0629 9.8404C29.2512 9.38705 29.0517 9.0081 28.8522 8.72432C28.569 8.31337 28.4636 8.10227 27.9602 8.10227C27.1726 8.10227 25.9231 8.59801 23.4145 8.59801C22.8791 8.59801 22.3748 8.57638 21.912 8.54523C21.9439 8.16629 21.9439 7.91366 21.9552 7.81849C21.9759 7.46031 21.8498 7.23882 21.4716 7.23882H20.191C19.729 7.23882 19.6133 7.46031 19.5606 7.82887C19.3404 9.36628 18.9311 15.021 16.0961 17.8536C15.7705 18.1798 15.5711 18.2853 15.5711 18.2853C16.2748 16.9054 16.6531 15.0946 16.6531 13.6523C16.6531 9.60853 14.2697 7.10299 11.2672 7.10299C10.3536 7.10299 9.38728 7.39715 8.47452 7.96557C8.8942 5.50156 9.28279 3.19588 9.41923 2.41636C9.53494 1.75277 9.30351 1.41622 9.12563 1.14196C8.84066 0.70072 8.59023 0.5 8.21114 0.5H3.78034C3.52819 0.5 3.33994 0.679091 3.27604 0.963732C3.20264 1.2899 3.04548 2.15334 3.02475 2.55305C3.00316 2.90085 3.24495 3.03755 3.52819 3.03755H6.76213C6.24833 6.21879 5.26131 12.3788 4.96684 13.9257C4.59034 15.8949 3.19314 18.3061 0.842599 19.1704C0.548997 19.276 0.433283 19.5494 0.537771 19.866C0.643122 20.1818 1.05244 21.0028 1.17851 21.2131C1.30459 21.4346 1.57747 21.5713 1.82962 21.4873C3.0472 21.0548 4.1698 20.3609 5.05233 19.4758C5.27253 19.2552 5.48324 19.0129 5.68271 18.7491C6.73191 21.1292 8.89506 21.9935 11.0884 21.9935C13.5771 21.9935 16.2653 21.1188 18.1547 19.2336C20.3602 17.0222 21.273 13.379 21.6719 10.7895C22.2177 10.8622 22.8377 10.9253 23.4361 10.9253C24.9473 10.9253 26.2184 10.5992 26.2184 10.5992C26.2184 10.5992 24.696 14.6637 24.696 17.6546C24.696 21.0349 26.3126 21.9926 28.0871 21.9926C29.9239 21.9926 31.2157 20.6135 32.1285 18.897C32.3703 19.4334 32.7278 20.065 33.2105 20.5495C34.0395 21.3818 35.0688 21.9926 36.5593 21.9926C38.2604 21.9926 39.7198 21.0132 40.7595 19.4974C40.9478 20.1394 41.2319 20.6654 41.6204 21.0548C42.1446 21.5825 43.1109 21.9926 44.3078 21.9926C46.3759 21.9926 47.5832 20.4344 50.8067 20.4344C51.216 20.4344 51.5839 20.4976 51.9198 20.6135C50.4389 21.5185 49.0322 22.4875 48.1721 23.3509C45.515 26.0157 45.3889 29.5326 47.1324 31.2802C49.2524 33.4077 52.2557 32.3331 54.1452 30.4479C56.3498 28.2374 56.9905 24.0569 55.7202 21.2027C57.2634 20.392 58.5552 19.7925 58.8592 19.6445C59.8255 20.9605 61.4213 21.9926 64.0456 21.9926C65.9246 21.9926 67.8253 21.329 69.3054 20.2026C69.5161 20.0027 69.5679 19.6757 69.4004 19.4447L69.3995 19.4438ZM12.3803 18.538C11.781 19.1384 11.0461 19.4646 10.3009 19.4646C9.60834 19.4646 9.00991 19.1488 8.50561 18.6427C6.80444 16.9374 6.95125 12.7361 9.14635 10.5351C9.76551 9.91394 10.5211 9.55576 11.2879 9.55576C11.9805 9.55576 12.5789 9.86116 13.0832 10.3664C14.679 11.9774 14.7731 16.1371 12.3794 18.538H12.3803ZM36.7061 19.4542C34.8685 19.4542 33.6716 17.2324 34.0386 14.4942C34.4065 11.7568 36.1914 9.53499 38.0281 9.53499C39.7293 9.53499 40.8847 11.441 40.7586 13.8946C40.706 14.2519 40.6637 14.5893 40.6326 14.9259C40.1386 17.4643 38.4478 19.4542 36.7061 19.4542ZM52.0027 29.1C49.5986 31.5112 46.5331 28.4364 50.1125 24.8451C50.9216 24.0344 52.254 23.1398 53.6409 22.3188C54.4275 24.2767 53.8084 27.2883 52.0027 29.1ZM61.651 10.5879C63.4567 8.77624 65.4627 9.31351 65.4627 11.0724C65.4627 12.7889 63.4152 14.6421 60.9377 16.074C60.6959 16.2107 60.4118 16.3681 60.1286 16.5161C60.0336 16.0843 59.9818 15.6102 59.9818 15.0738C59.9714 13.5996 60.5906 11.6512 61.651 10.5879Z" fill="#1F1F1F"/>
</g>
<defs>
<clipPath id="clip0_2375_5133">
<rect width="69" height="32" fill="white" transform="translate(0.5 0.5)"/>
</clipPath>
</defs>
</svg>
