<svg width="80" height="25" viewBox="0 0 80 25" fill="none" xmlns="http://www.w3.org/2000/svg">
<g clip-path="url(#clip0_2375_5054)">
<path d="M65.3021 15.3343C65.3021 11.7072 67.5397 9.15627 70.7225 9.15627C73.9052 9.15627 76.1785 11.7057 76.1785 15.3343C76.1785 18.9628 73.9058 21.3678 70.7225 21.3678C67.5392 21.3678 65.3021 18.8529 65.3021 15.3343ZM61.9797 15.3343C61.9797 20.686 65.6167 24.4576 70.722 24.4576C75.8273 24.4576 79.5 20.686 79.5 15.3343C79.5 9.98252 75.863 6.06799 70.722 6.06799C65.581 6.06799 61.9797 9.91174 61.9797 15.3343ZM45.0182 6.28321L51.8731 24.2414H55.091L61.9455 6.28321H58.4833L53.5172 20.1473H53.4469L48.4808 6.28321H45.0182ZM31.6936 14.6871C31.9031 11.3822 34.0367 9.15627 36.9396 9.15627C39.4571 9.15627 41.3459 10.8088 41.6258 13.2874H35.82C33.7569 13.2874 32.6373 13.5388 31.7991 14.6886H31.6936V14.6877V14.6871ZM28.3716 15.2259C28.3716 20.5777 32.0438 24.4561 37.114 24.4561C40.5415 24.4561 43.5484 22.6606 44.8423 19.8222L42.0449 18.3849C41.066 20.2526 39.1772 21.3663 37.114 21.3663C34.6302 21.3663 32.3926 19.4264 32.3926 17.5586C32.3926 16.5894 33.0222 16.1575 33.9312 16.1575H45.0167V15.1883C45.0167 9.80037 41.6596 6.06498 36.8341 6.06498C32.0087 6.06498 28.3711 9.90873 28.3711 15.2244M18.8595 24.2393H22.0071V13.2147C22.0071 10.8443 23.4402 9.15578 25.4345 9.15578C26.2742 9.15578 27.1476 9.44321 27.5682 9.83755C27.8832 8.97517 28.3726 8.11429 29.1068 7.25192C28.2671 6.53404 26.834 6.06599 25.4345 6.06599C21.588 6.06599 18.8595 9.01129 18.8595 13.2132V24.2404V24.2393ZM3.6476 12.3534V3.58825H8.82328C10.5714 3.58825 11.7261 4.62972 11.7261 6.20997C11.7261 8.00543 10.2227 9.37048 7.14541 10.4119C5.04701 11.0937 4.10332 11.6686 3.7531 12.3519L3.6476 12.3529V12.3534ZM3.6476 21.1531V17.49C3.6476 15.8736 4.97668 14.2933 6.83036 13.6823C8.4745 13.1074 9.83725 12.5325 10.992 11.9229C12.5306 12.8576 13.4743 14.4724 13.4743 16.161C13.4743 19.034 10.8161 21.1531 7.21428 21.1531H3.6476ZM0.5 24.2414H7.49416C12.8105 24.2414 16.7963 20.8295 16.7963 16.304C16.7963 13.8253 15.5727 11.5994 13.4039 10.1621C14.5235 9.01227 15.0481 7.68336 15.0481 6.06699C15.0481 2.7274 12.7049 0.5 9.17349 0.5H0.5V24.2414Z" fill="#0B996E"/>
</g>
<defs>
<clipPath id="clip0_2375_5054">
<rect width="79" height="24" fill="white" transform="translate(0.5 0.5)"/>
</clipPath>
</defs>
</svg>
