<svg width="124" height="24" viewBox="0 0 124 24" fill="none" xmlns="http://www.w3.org/2000/svg">
<g clip-path="url(#clip0_2384_5672)">
<path d="M5.42309 0.226369C5.73348 0.227706 6.04388 0.229043 6.36368 0.23042C6.61086 0.230962 6.61086 0.230962 6.86304 0.231515C7.39119 0.232948 7.91932 0.236154 8.44746 0.239396C8.80477 0.240676 9.16208 0.241841 9.51939 0.242887C10.3969 0.245707 11.2744 0.250118 12.152 0.255354C12.171 1.40897 12.1772 2.44936 11.904 3.5745C11.8349 3.86676 11.8349 3.86676 11.7645 4.16493C11.7287 4.30711 11.6929 4.44929 11.656 4.59578C12.0511 4.6565 12.0511 4.6565 12.4542 4.71845C14.4066 5.04177 16.026 5.33631 17.608 6.63833C17.8535 6.80684 18.099 6.97535 18.352 7.14897C18.398 6.72243 18.398 6.72243 18.445 6.28727C18.6 5.36174 18.6 5.36174 19.096 4.8511C19.7591 4.78502 19.7591 4.78502 20.5917 4.78328C20.89 4.78262 21.1883 4.78196 21.4956 4.78128C21.8085 4.78326 22.1215 4.78523 22.444 4.78727C22.7569 4.78529 23.0699 4.78332 23.3924 4.78128C23.6906 4.78194 23.9889 4.7826 24.2962 4.78328C24.571 4.78386 24.8458 4.78443 25.1289 4.78502C25.792 4.8511 25.792 4.8511 26.288 5.36174C26.1659 7.58346 25.656 9.76157 25.2286 11.9382C25.1738 12.2232 25.119 12.5082 25.0625 12.8019C25.0121 13.0587 24.9618 13.3155 24.9099 13.5801C24.8059 14.2593 24.7793 14.8884 24.8 15.5745C25.7556 15.6889 26.1571 15.6795 26.9291 15.0601C27.6409 14.1542 27.832 13.3556 28.0114 12.2364C28.047 12.0411 28.0826 11.8457 28.1193 11.6445C28.2316 11.0244 28.3374 10.4034 28.4425 9.78195C28.5512 9.15804 28.6614 8.53445 28.7736 7.9112C28.843 7.52433 28.9102 7.13703 28.9749 6.74931C29.2088 5.41852 29.2088 5.41852 29.76 4.8511C30.2261 4.79313 30.2261 4.79313 30.7849 4.80123C30.9847 4.80288 31.1845 4.80452 31.3904 4.80622C31.7035 4.81264 31.7035 4.81264 32.023 4.81918C32.339 4.82264 32.339 4.82264 32.6614 4.82616C33.1823 4.83219 33.7031 4.84135 34.224 4.8511C34.3002 4.38555 34.3002 4.38555 34.378 3.91061C34.4454 3.50601 34.5129 3.10142 34.5805 2.69684C34.6306 2.38953 34.6306 2.38953 34.6817 2.076C34.9399 0.539596 34.9399 0.539596 35.216 0.255354C35.5966 0.231559 35.9783 0.225365 36.3596 0.226369C36.6029 0.226388 36.8462 0.226407 37.0968 0.226427C37.3614 0.227745 37.6259 0.229063 37.8984 0.23042C38.3025 0.230962 38.3025 0.230962 38.7147 0.231515C39.579 0.232949 40.4432 0.236155 41.3075 0.239396C41.8918 0.240676 42.4761 0.241841 43.0604 0.242887C44.4963 0.245709 45.9321 0.249987 47.368 0.255354C47.6105 1.14567 47.5861 1.74583 47.4232 2.66094C47.3549 3.05342 47.3549 3.05342 47.2851 3.45382C47.211 3.86111 47.211 3.86111 47.1355 4.27663C47.087 4.55211 47.0386 4.82758 46.9887 5.1114C46.8689 5.79096 46.7473 6.4701 46.624 7.14897C46.7793 7.00449 46.9347 6.86 47.0948 6.71114C47.3988 6.43023 47.3988 6.43023 47.709 6.14365C47.9104 5.95704 48.1118 5.77043 48.3193 5.57816C49.1593 4.83983 49.6676 4.80995 50.7566 4.77031C51.0348 4.75962 51.3129 4.74892 51.5995 4.7379C52.0368 4.72284 52.0368 4.72284 52.483 4.70748C52.9232 4.69094 52.9232 4.69094 53.3723 4.67407C54.0988 4.64693 54.8254 4.62088 55.552 4.59578C55.5632 4.44008 55.5745 4.28439 55.5861 4.12397C55.6039 3.91862 55.6217 3.71327 55.6401 3.5017C55.6647 3.19706 55.6647 3.19706 55.6897 2.88628C55.8753 1.89597 56.3367 1.45631 57.04 0.765992C58.0866 0.117237 59.0704 0.101217 60.264 0.255354C60.5299 0.397535 60.7959 0.539716 61.07 0.686205C61.4076 0.852083 61.4076 0.852083 61.752 1.02131C62.1712 0.776359 62.5837 0.519244 62.992 0.255354C64.1406 0.0773185 64.9939 0.132365 66.03 0.686205C66.255 0.79679 66.4801 0.907375 66.712 1.02131C67.1312 0.776359 67.5437 0.519244 67.952 0.255354C69.1006 0.0773185 69.9539 0.132365 70.99 0.686205C71.215 0.79679 71.4401 0.907375 71.672 1.02131C72.0912 0.776359 72.5037 0.519244 72.912 0.255354C74.0606 0.0773185 74.9139 0.132365 75.95 0.686205C76.175 0.79679 76.4001 0.907375 76.632 1.02131C77.0512 0.776359 77.4637 0.519244 77.872 0.255354C79.0206 0.0773185 79.8739 0.132365 80.91 0.686205C81.135 0.79679 81.3601 0.907375 81.592 1.02131C82.0112 0.776359 82.4237 0.519244 82.832 0.255354C84.2592 0.0377697 85.0829 0.253091 86.304 1.02131C86.9737 0.856213 86.9737 0.856213 87.544 0.510673C88.8364 -0.154626 90.9006 0.175258 92.3399 0.165967C92.8195 0.161744 93.2991 0.154782 93.7787 0.145023C94.4712 0.131007 95.1633 0.125449 95.8558 0.12171C96.069 0.115922 96.2822 0.110134 96.5018 0.104171C97.5544 0.107965 98.2415 0.168837 99.0771 0.862921C99.6953 1.53121 99.9916 1.9164 100.192 2.80855C100.115 6.03175 99.1137 9.37084 98.456 12.5107C97.8831 12.6792 97.3102 12.8477 96.72 13.0213C96.8427 13.2056 96.9655 13.3899 97.092 13.5798C97.8063 15.0647 97.6915 16.9576 97.3012 18.5266C96.428 20.7587 94.8945 22.3906 92.797 23.4277C90.4231 24.2898 87.5968 23.9265 85.1221 23.8943C84.4758 23.8915 83.8295 23.8893 83.1832 23.8877C81.6629 23.883 80.1427 23.8705 78.6224 23.855C76.8897 23.8378 75.157 23.8295 73.4242 23.8218C69.864 23.8059 66.304 23.779 62.744 23.7447C62.6621 23.4919 62.5803 23.2392 62.496 22.9788C62.2288 23.1012 61.9616 23.2236 61.6864 23.3498C59.5852 24.1558 57.2142 23.958 55.0024 23.9848C54.4089 23.9949 53.8156 24.0124 53.2225 24.0372C48.018 24.2541 48.018 24.2541 46.6284 23.0147C45.9167 22.224 45.4073 21.358 44.888 20.4256C44.4879 19.9575 44.4879 19.9575 44.144 19.6596C44.096 19.9117 44.0481 20.1638 43.9986 20.4236C43.9341 20.7507 43.8695 21.0779 43.803 21.4149C43.7397 21.7408 43.6764 22.0666 43.6112 22.4023C43.4 23.2341 43.4 23.2341 42.904 23.7447C42.3924 23.8061 42.3924 23.8061 41.7549 23.8027C41.3975 23.8026 41.3975 23.8026 41.0328 23.8026C40.775 23.7999 40.5172 23.7973 40.2515 23.7946C39.988 23.7939 39.7245 23.7931 39.453 23.7924C38.6089 23.7895 37.765 23.7831 36.921 23.7766C36.3497 23.7741 35.7785 23.7717 35.2072 23.7696C33.8048 23.764 32.4024 23.7555 31 23.7447C30.7821 22.9539 30.7534 22.492 31 21.7022C30.6413 21.8912 30.6413 21.8912 30.2753 22.0841C29.9589 22.2494 29.6424 22.4146 29.326 22.5798C29.1687 22.6629 29.0114 22.746 28.8493 22.8316C26.7753 23.9104 24.4222 24.1629 22.1456 23.5702C21.5873 23.328 21.0953 23.0576 20.584 22.7234C20.3998 22.6033 20.2157 22.4832 20.026 22.3594C19.0053 21.6333 18.5084 21.1515 18.104 19.9149C17.9595 20.0446 17.815 20.1743 17.6661 20.3079C15.6215 22.0752 13.2817 23.7817 10.5189 23.7737C10.2955 23.7737 10.0722 23.7737 9.84206 23.7736C9.60306 23.7723 9.36407 23.771 9.11784 23.7696C8.87153 23.7693 8.62523 23.7689 8.37146 23.7686C7.58562 23.7671 6.7998 23.7639 6.01396 23.7607C5.48083 23.7594 4.94769 23.7582 4.41456 23.7572C3.10835 23.7544 1.80216 23.7501 0.495964 23.7447C0.321094 21.1517 0.851902 18.7252 1.35525 16.2028C1.44382 15.7495 1.53218 15.2962 1.62035 14.8429C1.80452 13.8988 1.99039 12.9551 2.17765 12.0116C2.41809 10.8001 2.65535 9.588 2.89151 8.3756C3.07343 7.44239 3.25641 6.5094 3.43978 5.57649C3.52767 5.12922 3.61538 4.6819 3.70289 4.23455C3.82479 3.61285 3.94796 2.99143 4.07156 2.37009C4.10777 2.18443 4.14398 1.99876 4.18129 1.80747C4.49081 0.264368 4.49081 0.264368 5.42309 0.226369ZM51.1965 12.8937C50.8891 13.1425 50.8891 13.1425 50.5755 13.3963C50.4172 13.5253 50.259 13.6543 50.096 13.7873C50.5281 14.5423 50.9661 15.223 51.584 15.8298C52.32 16.0145 52.8026 15.9385 53.568 15.8298C53.4503 15.5297 53.3327 15.2295 53.2115 14.9202C52.8517 13.9402 52.6812 13.0398 52.576 12C52.0624 12 51.5762 12.5853 51.1965 12.8937ZM9.67196 14.0426C9.43181 14.982 9.43181 14.982 9.42396 15.8298C10.8887 15.9754 10.8887 15.9754 12.152 15.2873C12.7239 14.4408 12.7816 14.0306 12.648 13.0213C12.3927 12.7094 12.3927 12.7094 11.8575 12.6702C10.8875 12.8034 10.2616 13.2615 9.67196 14.0426Z" fill="#FAF9F8"/>
<path d="M108.616 4.74933C109.076 4.74823 109.076 4.74823 109.545 4.74711C110.19 4.74659 110.835 4.74799 111.48 4.7512C112.465 4.7553 113.449 4.75123 114.434 4.74634C115.063 4.74684 115.691 4.74782 116.32 4.74933C116.613 4.74778 116.905 4.74623 117.207 4.74463C119.034 4.76058 120.635 4.84161 122.085 6.11169C122.221 6.28547 122.357 6.45925 122.497 6.63829C122.637 6.81207 122.777 6.98584 122.922 7.16489C124.069 8.86303 123.577 11.5182 123.268 13.4402C123.164 14.0033 123.057 14.5658 122.946 15.1277C122.895 15.41 122.845 15.6924 122.792 15.9834C122.288 18.6318 121.543 21.2263 119.282 22.8224C117.468 23.8526 115.867 23.9312 113.823 23.9142C113.492 23.9151 113.161 23.9163 112.83 23.9179C112.141 23.9198 111.452 23.9171 110.763 23.9111C109.884 23.9038 109.006 23.908 108.128 23.9157C107.283 23.9214 106.437 23.9174 105.592 23.9142C105.123 23.9181 105.123 23.9181 104.644 23.9221C102.843 23.8975 101.57 23.719 100.192 22.4681C98.8819 21.0126 98.6121 19.9446 98.6457 17.9965C98.741 16.5469 98.9891 15.1372 99.2719 13.7149C99.3711 13.2106 99.4629 12.7053 99.5543 12.1995C100.007 9.86798 100.595 8.01905 102.378 6.43084C102.528 6.29228 102.678 6.15372 102.832 6.01096C104.69 4.75814 106.458 4.73789 108.616 4.74933Z" fill="#F47921"/>
<path d="M5.42309 0.226369C5.73348 0.227706 6.04388 0.229043 6.36368 0.23042C6.61086 0.230962 6.61086 0.230962 6.86304 0.231515C7.39119 0.232948 7.91932 0.236154 8.44746 0.239396C8.80477 0.240676 9.16208 0.241841 9.51939 0.242887C10.3969 0.245707 11.2744 0.250118 12.152 0.255354C12.171 1.40897 12.1772 2.44936 11.904 3.5745C11.8349 3.86676 11.8349 3.86676 11.7645 4.16493C11.7287 4.30711 11.6929 4.44929 11.656 4.59578C12.0511 4.6565 12.0511 4.6565 12.4542 4.71845C14.4066 5.04177 16.026 5.33631 17.608 6.63833C17.8535 6.80684 18.099 6.97535 18.352 7.14897C18.398 6.72243 18.398 6.72243 18.445 6.28727C18.6 5.36174 18.6 5.36174 19.096 4.8511C19.7591 4.78502 19.7591 4.78502 20.5917 4.78328C20.89 4.78262 21.1882 4.78196 21.4956 4.78128C21.8085 4.78326 22.1215 4.78523 22.444 4.78727C22.7569 4.78529 23.0699 4.78332 23.3924 4.78128C23.6906 4.78194 23.9889 4.7826 24.2962 4.78328C24.571 4.78385 24.8458 4.78443 25.1289 4.78502C25.792 4.8511 25.792 4.8511 26.288 5.36174C26.1659 7.58346 25.656 9.76157 25.2286 11.9382C25.1738 12.2232 25.119 12.5082 25.0625 12.8019C25.0121 13.0587 24.9618 13.3155 24.9099 13.5801C24.8059 14.2593 24.7793 14.8884 24.8 15.5745C25.7556 15.6889 26.1571 15.6795 26.9291 15.0601C27.6409 14.1542 27.832 13.3556 28.0114 12.2364C28.047 12.0411 28.0826 11.8457 28.1193 11.6445C28.2316 11.0244 28.3374 10.4034 28.4425 9.78195C28.5512 9.15804 28.6614 8.53445 28.7736 7.9112C28.843 7.52433 28.9102 7.13703 28.9749 6.74931C29.2088 5.41852 29.2088 5.41852 29.76 4.8511C30.2261 4.79313 30.2261 4.79313 30.7849 4.80123C30.9847 4.80288 31.1845 4.80452 31.3904 4.80622C31.7035 4.81264 31.7035 4.81264 32.023 4.81918C32.339 4.82264 32.339 4.82264 32.6614 4.82617C33.1823 4.83219 33.7031 4.84135 34.224 4.8511C34.3002 4.38555 34.3002 4.38555 34.378 3.91061C34.4454 3.50601 34.5129 3.10142 34.5805 2.69684C34.6306 2.38953 34.6306 2.38953 34.6817 2.076C34.9399 0.539596 34.9399 0.539596 35.216 0.255354C35.5966 0.231559 35.9783 0.225365 36.3596 0.226369C36.6029 0.226388 36.8462 0.226407 37.0968 0.226427C37.3614 0.227745 37.6259 0.229063 37.8984 0.23042C38.3025 0.230962 38.3025 0.230962 38.7147 0.231515C39.579 0.232949 40.4432 0.236155 41.3075 0.239396C41.8918 0.240676 42.4761 0.241841 43.0604 0.242887C44.4963 0.245709 45.9321 0.249987 47.368 0.255354C47.6105 1.14567 47.5861 1.74583 47.4232 2.66094C47.3549 3.05342 47.3549 3.05342 47.2851 3.45382C47.211 3.86111 47.211 3.86111 47.1355 4.27663C47.087 4.55211 47.0386 4.82758 46.9887 5.1114C46.8689 5.79096 46.7473 6.4701 46.624 7.14897C46.7793 7.00449 46.9347 6.86 47.0948 6.71114C47.3988 6.43023 47.3988 6.43023 47.709 6.14365C47.9104 5.95704 48.1118 5.77043 48.3193 5.57816C49.1593 4.83983 49.6676 4.80995 50.7567 4.77031C51.0348 4.75962 51.3129 4.74892 51.5995 4.7379C52.0368 4.72284 52.0368 4.72284 52.483 4.70748C52.9232 4.69094 52.9232 4.69094 53.3723 4.67407C54.0988 4.64693 54.8254 4.62088 55.552 4.59578C55.5632 4.44008 55.5745 4.28439 55.5861 4.12397C55.6039 3.91862 55.6217 3.71327 55.6401 3.5017C55.6647 3.19706 55.6647 3.19706 55.6897 2.88628C55.8753 1.89597 56.3367 1.45631 57.04 0.765992C58.0866 0.117237 59.0704 0.101217 60.264 0.255354C60.5299 0.397535 60.7959 0.539716 61.07 0.686205C61.4076 0.852083 61.4076 0.852083 61.752 1.02131C62.1712 0.776359 62.5837 0.519244 62.992 0.255354C64.1406 0.0773185 64.9939 0.132365 66.03 0.686205C66.255 0.79679 66.4801 0.907375 66.712 1.02131C67.1312 0.776359 67.5437 0.519244 67.952 0.255354C69.1006 0.0773185 69.9539 0.132365 70.99 0.686205C71.215 0.79679 71.4401 0.907375 71.672 1.02131C72.0912 0.776359 72.5037 0.519244 72.912 0.255354C74.0606 0.0773185 74.9139 0.132365 75.95 0.686205C76.175 0.79679 76.4001 0.907375 76.632 1.02131C77.0512 0.776359 77.4637 0.519244 77.872 0.255354C79.0206 0.0773185 79.8739 0.132365 80.91 0.686205C81.135 0.79679 81.3601 0.907375 81.592 1.02131C82.0112 0.776359 82.4237 0.519244 82.832 0.255354C84.2592 0.0377697 85.0829 0.253091 86.304 1.02131C86.9737 0.856213 86.9737 0.856213 87.544 0.510673C88.8364 -0.154626 90.9006 0.175258 92.3399 0.165967C92.8195 0.161744 93.2991 0.154782 93.7787 0.145023C94.4712 0.131007 95.1633 0.125449 95.8558 0.12171C96.069 0.115922 96.2822 0.110134 96.5018 0.104171C97.5544 0.107965 98.2415 0.168837 99.0771 0.862921C99.6953 1.53121 99.9916 1.9164 100.192 2.80855C100.115 6.03175 99.1137 9.37084 98.456 12.5107C97.8831 12.6792 97.3102 12.8477 96.72 13.0213C96.8427 13.2056 96.9655 13.3899 97.092 13.5798C97.8063 15.0647 97.6915 16.9576 97.3012 18.5266C96.428 20.7587 94.8945 22.3906 92.797 23.4277C90.4231 24.2898 87.5968 23.9265 85.1221 23.8943C84.4758 23.8915 83.8295 23.8893 83.1832 23.8877C81.6629 23.883 80.1427 23.8705 78.6224 23.855C76.8897 23.8378 75.157 23.8295 73.4242 23.8218C69.864 23.8059 66.304 23.779 62.744 23.7447C62.6621 23.4919 62.5803 23.2392 62.496 22.9788C62.2288 23.1012 61.9616 23.2236 61.6864 23.3498C59.5852 24.1558 57.2142 23.958 55.0024 23.9848C54.4089 23.9949 53.8156 24.0124 53.2225 24.0372C48.018 24.2541 48.018 24.2541 46.6284 23.0147C45.9167 22.224 45.4073 21.358 44.888 20.4256C44.4879 19.9575 44.4879 19.9575 44.144 19.6596C44.096 19.9117 44.0481 20.1638 43.9987 20.4236C43.9341 20.7507 43.8695 21.0779 43.803 21.4149C43.7397 21.7408 43.6764 22.0666 43.6112 22.4023C43.4 23.2341 43.4 23.2341 42.904 23.7447C42.3924 23.8061 42.3924 23.8061 41.7549 23.8027C41.3975 23.8026 41.3975 23.8026 41.0328 23.8026C40.775 23.7999 40.5172 23.7973 40.2515 23.7946C39.988 23.7939 39.7245 23.7931 39.453 23.7924C38.609 23.7895 37.765 23.7831 36.921 23.7766C36.3497 23.7741 35.7785 23.7717 35.2072 23.7696C33.8048 23.764 32.4024 23.7555 31 23.7447C30.7821 22.9539 30.7534 22.492 31 21.7022C30.6413 21.8912 30.6413 21.8912 30.2753 22.0841C29.9589 22.2494 29.6424 22.4146 29.326 22.5798C29.1687 22.6629 29.0114 22.746 28.8493 22.8316C26.7753 23.9104 24.4222 24.1629 22.1456 23.5702C21.5873 23.328 21.0953 23.0576 20.584 22.7234C20.3998 22.6033 20.2157 22.4832 20.026 22.3594C19.0053 21.6333 18.5084 21.1515 18.104 19.9149C17.9595 20.0446 17.815 20.1743 17.6661 20.3079C15.6215 22.0752 13.2817 23.7817 10.5189 23.7737C10.2955 23.7737 10.0722 23.7737 9.84206 23.7736C9.60306 23.7723 9.36407 23.771 9.11784 23.7696C8.87154 23.7693 8.62523 23.7689 8.37146 23.7686C7.58562 23.7671 6.7998 23.7639 6.01396 23.7607C5.48083 23.7594 4.94769 23.7582 4.41456 23.7572C3.10835 23.7544 1.80216 23.7501 0.495964 23.7447C0.321094 21.1517 0.851902 18.7252 1.35525 16.2028C1.44382 15.7495 1.53218 15.2962 1.62035 14.8429C1.80452 13.8988 1.99039 12.9551 2.17765 12.0116C2.41809 10.8001 2.65535 9.588 2.89151 8.3756C3.07343 7.44239 3.25641 6.5094 3.43978 5.57649C3.52767 5.12922 3.61538 4.6819 3.70289 4.23455C3.82479 3.61285 3.94796 2.99143 4.07156 2.37009C4.10777 2.18443 4.14398 1.99876 4.18129 1.80747C4.49081 0.264368 4.49081 0.264368 5.42309 0.226369ZM5.20796 0.765992C4.39264 4.64817 3.5893 8.53234 2.81091 12.4225C2.72591 12.8472 2.6407 13.2718 2.55528 13.6963C2.11399 15.8914 1.68763 18.0881 1.30487 20.2949C1.25709 20.5681 1.25709 20.5681 1.20835 20.8467C1.08544 21.5692 0.991964 22.2435 0.991964 22.9788C2.4254 23.0042 3.85871 23.0226 5.29231 23.0349C5.77888 23.04 6.26544 23.0469 6.75197 23.0558C11.5398 23.1411 14.495 22.2138 18.104 18.8937C18.1826 19.0418 18.2612 19.1899 18.3423 19.3425C19.4302 21.2174 20.8002 22.287 22.816 22.9788C26.3836 23.2078 28.5603 22.5304 31.496 20.4256C31.5778 20.3413 31.6596 20.2571 31.744 20.1702C31.6621 21.0971 31.5803 22.0239 31.496 22.9788C35.1788 22.9788 38.8616 22.9788 42.656 22.9788C42.9833 21.5464 43.3107 20.1141 43.648 18.6383C43.8935 18.4698 44.139 18.3013 44.392 18.1277C44.4508 18.2558 44.5097 18.3839 44.5703 18.5159C44.6752 18.7248 44.78 18.9337 44.888 19.149C44.9591 19.2936 45.0302 19.4382 45.1035 19.5871C45.908 21.1203 46.8476 22.6557 48.5352 23.1921C50.1735 23.4556 51.8099 23.4133 53.462 23.3378C54.3431 23.2979 55.2214 23.2855 56.1032 23.278C56.6693 23.2663 57.2354 23.253 57.8014 23.2381C58.0613 23.2326 58.3213 23.2272 58.5891 23.2216C60.389 23.1328 61.696 22.6534 63.24 21.7022C63.24 22.1234 63.24 22.5447 63.24 22.9788C65.286 22.9788 67.332 22.9788 69.44 22.9788C69.6785 21.8513 69.916 20.7236 70.153 19.5958C70.2532 19.1228 70.2532 19.1228 70.3554 18.6403C70.7223 16.89 71.043 15.1579 71.2458 13.3786C71.4669 12.6182 71.7681 12.4039 72.416 12C72.3559 12.2113 72.2958 12.4226 72.2338 12.6403C71.6797 14.672 71.236 16.706 70.866 18.7819C70.8009 19.1417 70.8009 19.1417 70.7345 19.5086C70.6749 19.8524 70.6749 19.8524 70.6141 20.2032C70.5788 20.4061 70.5436 20.609 70.5073 20.8181C70.4216 21.5334 70.432 22.2581 70.432 22.9788C72.478 22.9788 74.524 22.9788 76.632 22.9788C76.8351 21.9758 77.038 20.9727 77.2405 19.9696C77.3426 19.4641 77.445 18.9587 77.5474 18.4533C77.8934 16.7376 78.224 15.0255 78.4863 13.2939C78.616 12.766 78.616 12.766 79.112 12.2554C78.9136 14.4666 78.4856 16.6134 78.0526 18.7869C77.9704 19.212 77.9704 19.212 77.8865 19.6456C77.8361 19.8998 77.7858 20.1539 77.7339 20.4157C77.6116 21.2789 77.606 22.1076 77.624 22.9788C79.4242 23.0085 81.2244 23.0311 83.0248 23.0449C83.861 23.0515 84.6972 23.0605 85.5333 23.0751C86.4974 23.0906 87.4613 23.0978 88.4255 23.1034C88.7219 23.11 89.0183 23.1166 89.3237 23.1234C91.4656 23.1241 93.1636 22.7246 94.7708 21.1979C96.4859 19.331 96.8844 17.7065 96.8449 15.1666C96.6622 13.8961 96.1187 13.1302 95.232 12.2554C95.4081 12.2399 95.5843 12.2244 95.7657 12.2085C95.9937 12.1871 96.2216 12.1657 96.4565 12.1437C96.6838 12.1229 96.9111 12.1022 97.1452 12.0808C97.7024 12.0612 97.7024 12.0612 97.96 11.7447C98.2101 10.7056 98.3961 9.65163 98.5955 8.6011C98.6535 8.31131 98.7115 8.02151 98.7713 7.72294C99.3771 4.88711 99.3771 4.88712 99.2 2.04259C98.4282 1.15496 97.8879 0.710039 96.7283 0.600808C96.3591 0.592461 95.9897 0.591358 95.6204 0.596444C95.423 0.595223 95.2255 0.594002 95.0221 0.592743C94.6063 0.591878 94.1905 0.594209 93.7747 0.599561C93.142 0.606391 92.5103 0.599622 91.8777 0.591458C91.4719 0.592301 91.0662 0.593937 90.6604 0.596444C90.3798 0.592568 90.3798 0.592568 90.0935 0.588614C88.6409 0.62131 87.9143 1.09121 86.8 2.04259C86.1815 1.73523 85.639 1.41596 85.064 1.02131C83.9241 0.829089 82.9227 0.858535 81.9485 1.53195C81.749 1.70046 81.5495 1.86897 81.344 2.04259C81.1854 1.87408 81.0268 1.70557 80.8635 1.53195C79.8492 0.850039 79.054 0.799277 77.872 1.02131C77.2897 1.30513 76.8873 1.61739 76.384 2.04259C76.2254 1.87408 76.0668 1.70557 75.9035 1.53195C74.8892 0.850039 74.094 0.799277 72.912 1.02131C72.3297 1.30513 71.9273 1.61739 71.424 2.04259C71.2654 1.87408 71.1068 1.70557 70.9435 1.53195C69.9292 0.850039 69.134 0.799277 67.952 1.02131C67.3697 1.30513 66.9673 1.61739 66.464 2.04259C66.3054 1.87408 66.1468 1.70557 65.9835 1.53195C64.9692 0.850039 64.174 0.799277 62.992 1.02131C62.4097 1.30513 62.0073 1.61739 61.504 2.04259C61.3454 1.87408 61.1868 1.70557 61.0235 1.53195C60.0111 0.851267 59.2116 0.767315 58.032 1.02131C57.2716 1.46233 56.6922 1.99269 56.296 2.80855C56.2565 3.29748 56.2565 3.29748 56.265 3.82982C56.2643 4.00886 56.2637 4.18791 56.263 4.37238C56.2677 4.87447 56.2677 4.87447 56.544 5.36174C56.3456 5.35209 56.1472 5.34244 55.9428 5.3325C51.4677 5.02705 51.4677 5.02705 47.5279 6.82215C46.8541 7.49672 46.2366 8.19519 45.632 8.93621C45.5501 8.93621 45.4683 8.93621 45.384 8.93621C45.429 8.70685 45.4741 8.47749 45.5206 8.24118C45.6873 7.39144 45.8537 6.54162 46.0197 5.69173C46.0917 5.32368 46.1639 4.95566 46.2362 4.58768C46.3401 4.05922 46.4433 3.53064 46.5465 3.00203C46.6088 2.68381 46.6711 2.36559 46.7354 2.03773C46.887 1.32194 46.887 1.32194 46.872 0.765992C43.1892 0.765992 39.5064 0.765992 35.712 0.765992C34.9247 3.93923 34.9247 3.93923 34.968 5.61706C33.3312 5.61706 31.6944 5.61706 30.008 5.61706C29.6448 6.73874 29.4023 7.66179 29.2272 8.80855C29.1773 9.11924 29.1274 9.42993 29.076 9.75004C28.974 10.3987 28.8739 11.0476 28.7757 11.6968C28.2236 15.0928 28.2236 15.0928 26.8305 16.1809C26.0494 16.4106 25.3586 16.402 24.552 16.3405C24.056 15.8298 24.056 15.8298 24.0394 15.3019C24.2563 13.2334 24.5849 11.1916 24.9395 9.14365C24.9982 8.79976 25.0568 8.45584 25.1153 8.1119C25.2572 7.28011 25.4004 6.44856 25.544 5.61706C23.498 5.61706 21.452 5.61706 19.344 5.61706C18.8862 7.17989 18.8862 7.17989 18.848 8.68089C18.6633 8.50513 18.6633 8.50513 18.475 8.32583C16.5301 6.51735 15.0011 5.57079 12.3225 5.6011C12.0574 5.6034 11.7924 5.60571 11.5194 5.60808C11.3189 5.61104 11.1185 5.614 10.912 5.61706C10.9893 5.09576 11.0669 4.57449 11.1445 4.05323C11.1876 3.76294 11.2308 3.47265 11.2752 3.17357C11.397 2.3702 11.5261 1.56802 11.656 0.765992C9.52812 0.765992 7.40028 0.765992 5.20796 0.765992Z" fill="#BBBCBF"/>
<path d="M6.20003 2.29785C7.42763 2.29785 8.65523 2.29785 9.92003 2.29785C9.86632 2.57793 9.81261 2.85802 9.75728 3.14659C9.68747 3.51792 9.61772 3.88926 9.54803 4.26062C9.4948 4.53683 9.4948 4.53683 9.4405 4.81863C9.26141 5.78 9.13077 6.67523 9.17603 7.65955C9.41963 7.53712 9.41963 7.53712 9.66815 7.41221C11.367 6.81411 13.6648 6.77683 15.3605 7.42917C16.7635 8.34411 17.8227 9.59931 18.352 11.234C18.5911 14.111 18.0946 16.4005 16.3244 18.6682C14.4525 20.6573 12.3383 21.7157 9.65405 21.7737C8.70391 21.7791 7.75451 21.7661 6.80453 21.75C6.40847 21.7461 6.01242 21.7426 5.61636 21.7395C4.65349 21.7311 3.6908 21.718 2.72803 21.7021C2.85525 19.0893 3.39505 16.5653 3.90603 14.0106C3.99594 13.5555 4.08571 13.1004 4.17534 12.6453C4.35308 11.7434 4.53152 10.8418 4.71057 9.94022C5.04694 8.2449 5.37569 6.54803 5.70403 4.85104C5.80215 4.34571 5.90031 3.84039 5.99853 3.33509C6.06502 2.9928 6.13152 2.65051 6.20003 2.29785ZM9.67203 14.0425C9.43187 14.9819 9.43187 14.9819 9.42403 15.8298C10.8888 15.9753 10.8888 15.9753 12.152 15.2872C12.724 14.4408 12.7817 14.0305 12.648 13.0213C12.3928 12.7093 12.3928 12.7093 11.8575 12.6702C10.8876 12.8033 10.2617 13.2615 9.67203 14.0425Z" fill="#F3781F"/>
<path d="M72.633 7.06919C72.9291 7.06491 73.2251 7.06064 73.5301 7.05623C74.474 7.15687 75.0607 7.45479 75.888 7.91494C76.5565 7.86578 76.9814 7.74962 77.5552 7.39732C78.9012 6.80549 80.7814 6.90294 82.1704 7.32451C83.2208 7.88997 83.8573 8.59692 84.32 9.70217C84.5518 12.3557 84.1139 14.844 83.5915 17.4256C83.5217 17.7862 83.4521 18.1469 83.3828 18.5077C82.879 21.0949 82.879 21.0949 82.584 21.7022C81.4383 21.7022 80.2925 21.7022 79.112 21.7022C79.3687 19.2799 79.7084 16.9503 80.2723 14.5833C80.5164 13.5343 80.6984 12.5768 80.6 11.4894C80.1205 10.8918 80.1205 10.8918 79.267 10.8671C78.3579 10.8865 78.3579 10.8865 77.8451 11.4912C77.2591 12.4459 77.0905 13.2805 76.9081 14.3817C76.8716 14.5833 76.835 14.7849 76.7974 14.9926C76.682 15.6328 76.5716 16.2738 76.4615 16.9149C76.3479 17.5596 76.2333 18.204 76.1177 18.8482C76.0462 19.2483 75.9761 19.6487 75.9074 20.0493C75.6673 21.4188 75.6673 21.4188 75.392 21.7022C74.8084 21.7207 74.2244 21.7235 73.6405 21.7181C73.3205 21.7158 73.0005 21.7135 72.6708 21.7111C72.4231 21.7082 72.1753 21.7052 71.92 21.7022C72.0739 20.686 72.2293 19.6701 72.385 18.6543C72.4498 18.2265 72.4498 18.2265 72.5158 17.7901C72.7106 16.524 72.9121 15.2668 73.1891 14.0167C73.3854 13.1243 73.4941 12.3979 73.408 11.4894C72.9444 10.9116 72.9444 10.9116 72.2145 10.8671C71.1376 11.0192 70.8621 11.3899 70.184 12.2554C69.923 12.9713 69.8021 13.6934 69.6832 14.4465C69.6464 14.6544 69.6096 14.8623 69.5717 15.0764C69.4561 15.7364 69.3472 16.3973 69.2385 17.0586C69.161 17.5079 69.083 17.9572 69.0046 18.4065C68.8139 19.5042 68.6293 20.6028 68.448 21.7022C67.2204 21.7022 65.9928 21.7022 64.728 21.7022C65.0904 19.0753 65.5135 16.4635 66.0455 13.8671C66.0892 13.6355 66.1329 13.4039 66.1779 13.1653C66.7252 10.5999 68.2502 8.7748 70.3778 7.3674C71.1423 7.06392 71.8157 7.07191 72.633 7.06919Z" fill="#0B3E87"/>
<path d="M42.4476 2.27295C42.9266 2.27739 42.9266 2.27739 43.4153 2.28193C43.7354 2.28423 44.0554 2.28653 44.3851 2.28891C44.6328 2.29187 44.8806 2.29483 45.1358 2.29788C44.9843 3.62883 44.7933 4.93665 44.5468 6.25333C44.5148 6.42491 44.4827 6.59649 44.4496 6.77327C44.3824 7.1316 44.3149 7.48988 44.247 7.84808C44.1431 8.39742 44.0407 8.94703 43.9385 9.49669C43.8727 9.84644 43.8068 10.1962 43.7408 10.5459C43.6814 10.8618 43.6219 11.1777 43.5607 11.5032C43.3998 12.2553 43.3998 12.2553 43.1518 12.766C43.3155 12.766 43.4792 12.766 43.6478 12.766C43.6478 12.5975 43.6478 12.4289 43.6478 12.2553C44.2627 11.6782 44.9174 11.1641 45.5737 10.6376C46.1269 10.1854 46.6172 9.71158 47.1005 9.18153C48.511 7.69267 49.5227 7.00146 51.5946 6.95652C52.5894 6.98099 53.5694 7.0483 54.5598 7.14895C53.7882 8.1438 53.0393 8.97271 52.0643 9.76597C51.0114 10.6329 49.9674 11.5083 48.9333 12.3989C48.6792 12.6174 48.4251 12.8358 48.1709 13.0542C47.8962 13.2907 47.8962 13.2907 47.6158 13.5319C48.6214 14.9332 49.66 16.3004 50.7313 17.6489C50.868 17.8217 51.0047 17.9945 51.1455 18.1726C51.2802 18.3427 51.415 18.5129 51.5538 18.6882C51.7486 18.9342 51.7486 18.9342 51.9473 19.1851C52.1962 19.4955 52.4482 19.8033 52.7036 20.1081C53.5678 21.141 53.5678 21.141 53.5678 21.7021C49.4939 22.3477 49.4939 22.3477 48.0402 21.2885C46.8912 20.1205 45.9923 18.7647 45.1358 17.3617C44.9722 17.1089 44.8085 16.8562 44.6398 16.5958C43.7884 16.9038 43.2749 17.2046 42.6558 17.8724C42.4922 17.8724 42.3285 17.8724 42.1598 17.8724C42.1269 18.1274 42.094 18.3825 42.0601 18.6453C42.0163 18.9747 41.9725 19.3042 41.9273 19.6436C41.8842 19.9724 41.841 20.3012 41.7966 20.64C41.6638 21.4468 41.6638 21.4468 41.4158 21.7021C40.8323 21.7207 40.2482 21.7235 39.6643 21.7181C39.1843 21.7146 39.1843 21.7146 38.6946 21.7111C38.4469 21.7082 38.1991 21.7052 37.9438 21.7021C38.5284 17.7927 39.2436 13.9206 40.0393 10.0518C40.1111 9.70158 40.1827 9.3513 40.2543 9.00101C40.2892 8.83066 40.3241 8.6603 40.36 8.48479C40.6668 6.96412 40.9281 5.43623 41.1729 3.90376C41.4347 2.30517 41.4347 2.30517 42.4476 2.27295Z" fill="#F3781F"/>
<path d="M108.616 4.74933C109.076 4.74823 109.076 4.74823 109.545 4.74711C110.19 4.74659 110.835 4.74799 111.48 4.7512C112.465 4.7553 113.449 4.75123 114.434 4.74634C115.063 4.74684 115.691 4.74782 116.32 4.74933C116.613 4.74778 116.905 4.74623 117.207 4.74463C119.034 4.76058 120.635 4.84161 122.085 6.11169C122.221 6.28547 122.357 6.45925 122.497 6.63829C122.637 6.81207 122.777 6.98584 122.922 7.16489C124.069 8.86303 123.577 11.5182 123.268 13.4402C123.164 14.0033 123.057 14.5658 122.946 15.1277C122.895 15.41 122.845 15.6924 122.792 15.9834C122.288 18.6318 121.543 21.2263 119.282 22.8224C117.468 23.8526 115.867 23.9312 113.823 23.9142C113.492 23.9151 113.161 23.9163 112.83 23.9179C112.141 23.9198 111.452 23.9171 110.763 23.9111C109.884 23.9038 109.006 23.908 108.128 23.9157C107.283 23.9214 106.437 23.9174 105.592 23.9142C105.123 23.9181 105.123 23.9181 104.644 23.9221C102.843 23.8975 101.57 23.719 100.192 22.4681C98.8819 21.0126 98.6121 19.9446 98.6457 17.9965C98.741 16.5469 98.9891 15.1372 99.2719 13.7149C99.3711 13.2106 99.4629 12.7053 99.5543 12.1995C100.007 9.86798 100.595 8.01905 102.378 6.43084C102.528 6.29228 102.678 6.15372 102.832 6.01096C104.69 4.75814 106.458 4.73789 108.616 4.74933ZM102.574 9.08576C101.974 10.4011 101.757 11.7561 101.51 13.1808C101.406 13.7533 101.301 14.3258 101.197 14.8983C101.13 15.2767 101.13 15.2767 101.062 15.6628C100.956 16.2362 100.827 16.796 100.688 17.3617C100.557 18.578 100.576 19.4317 101.122 20.5372C101.808 21.3412 102.268 21.6597 103.307 21.7687C103.666 21.7704 103.666 21.7704 104.032 21.7722C104.305 21.7747 104.577 21.7771 104.858 21.7796C105.151 21.7794 105.444 21.7792 105.746 21.7789C106.049 21.78 106.352 21.7811 106.663 21.7822C107.304 21.7837 107.945 21.7838 108.585 21.7827C109.563 21.7819 110.541 21.7879 111.519 21.7944C112.142 21.795 112.765 21.7951 113.388 21.7949C113.825 21.7984 113.825 21.7984 114.272 21.802C116.014 21.7919 117.4 21.726 118.774 20.5153C118.887 20.3698 119.001 20.2243 119.118 20.0745C119.234 19.9303 119.351 19.7861 119.471 19.6376C120.428 18.1439 120.611 16.3396 120.931 14.617C120.988 14.3254 121.045 14.0338 121.104 13.7334C121.678 10.9492 121.678 10.9492 121.241 8.20212C120.5 7.33704 119.759 6.9488 118.633 6.81674C117.816 6.77942 117.002 6.76736 116.183 6.76495C115.732 6.76113 115.732 6.76113 115.272 6.75723C114.636 6.75336 114.001 6.75155 113.365 6.75168C112.397 6.75 111.429 6.73609 110.46 6.72157C109.842 6.71932 109.223 6.7178 108.604 6.71708C108.316 6.71158 108.029 6.70607 107.732 6.7004C105.473 6.7199 104.106 7.3825 102.574 9.08576Z" fill="#FDFBFA"/>
<path d="M31.0001 6.89368C32.2277 6.89368 33.4553 6.89368 34.7201 6.89368C33.1856 17.0309 33.1856 17.0309 30.0081 19.915C27.924 21.362 26.0621 21.9149 23.5601 21.7022C22.0682 21.3774 20.8174 20.6117 19.8401 19.4043C18.1742 16.5205 18.873 13.5135 19.5921 10.4203C19.6631 10.1042 19.7341 9.78803 19.8072 9.46233C19.9809 8.69058 20.1581 7.91969 20.3361 7.149C21.4819 7.149 22.6277 7.149 23.8081 7.149C23.6895 8.71235 23.4711 10.2236 23.1726 11.7607C22.5812 14.5043 22.5812 14.5043 23.3121 17.1064C24.4251 17.8703 25.4798 17.7655 26.7841 17.6171C28.0321 17.2248 28.6733 16.4691 29.2914 15.3027C29.6392 14.524 29.7854 13.7433 29.9345 12.9027C29.9661 12.7295 29.9978 12.5564 30.0303 12.378C30.1293 11.8323 30.2238 11.2859 30.3181 10.7394C30.385 10.3662 30.4522 9.99302 30.5196 9.61991C30.6837 8.71182 30.8418 7.80292 31.0001 6.89368Z" fill="#F47921"/>
<path d="M91.7244 6.86867C91.8885 6.86903 92.0525 6.86939 92.2216 6.86976C92.7447 6.87119 93.2677 6.87439 93.7907 6.87764C94.1458 6.87892 94.5008 6.88009 94.8559 6.88113C95.7253 6.88373 96.5947 6.88873 97.4642 6.8936C97.2187 8.15743 96.9732 9.42126 96.7202 10.7234C94.4287 10.8076 92.1372 10.8919 89.7762 10.9787C89.6944 11.3157 89.6125 11.6527 89.5282 12C89.9618 12.4464 90.5968 12.3197 91.1867 12.351C92.8071 12.4835 93.7169 12.8081 94.9532 13.9149C95.6452 14.8447 95.655 15.7758 95.5994 16.9159C95.3041 18.6532 94.2317 19.7741 92.9615 20.8783C91.8321 21.6518 90.8581 21.7637 89.5156 21.752C89.3522 21.7513 89.1889 21.7505 89.0205 21.7498C88.5025 21.7469 87.9847 21.7405 87.4667 21.734C87.1139 21.7315 86.7611 21.7291 86.4084 21.727C85.5469 21.7214 84.6856 21.7126 83.8242 21.7021C83.9007 21.2019 83.9785 20.702 84.0567 20.2021C84.0999 19.9237 84.143 19.6452 84.1875 19.3584C84.3202 18.6383 84.3202 18.6383 84.5682 18.1276C84.7698 18.1212 84.9713 18.1148 85.179 18.1083C86.0863 18.0787 86.9935 18.0474 87.9007 18.0159C88.218 18.0059 88.5353 17.9959 88.8622 17.9855C89.1635 17.9748 89.4648 17.9641 89.7752 17.9531C90.1941 17.9391 90.1941 17.9391 90.6214 17.9247C91.2465 17.9458 91.2465 17.9458 91.5122 17.617C91.5223 17.1916 91.5228 16.7658 91.5122 16.3404C91.2609 16.3368 91.0097 16.3332 90.7508 16.3294C87.7254 16.2375 87.7254 16.2375 86.8467 15.4947C85.8083 14.1813 85.6679 13.1797 85.6997 11.4993C85.939 9.78778 87.0654 8.82489 88.3347 7.80317C89.4698 6.95726 90.3319 6.86262 91.7244 6.86867Z" fill="#0C3F88"/>
<path d="M62.3877 7.0532C62.7598 7.0609 63.132 7.06789 63.5042 7.07415C64.4088 7.08957 65.3114 7.11955 66.2162 7.14895C66.0525 8.32852 65.8888 9.5081 65.7202 10.7234C63.4287 10.8077 61.1371 10.8919 58.7762 10.9787C58.6943 11.4 58.6125 11.8213 58.5282 12.2553C58.8782 12.2652 58.8782 12.2652 59.2354 12.2753C62.3817 12.4228 62.3817 12.4228 63.4882 13.5319C64.3002 14.4999 64.6503 15.2588 64.5732 16.5599C64.2551 18.4288 63.4163 19.6264 62.0244 20.8315C60.1524 22.1271 57.4728 22.1357 55.3042 21.7021C54.3427 21.0932 53.8548 20.4136 53.3202 19.4043C53.0731 18.9781 52.8253 18.5525 52.5762 18.1277C52.799 18.1213 53.0217 18.1149 53.2513 18.1083C54.0768 18.084 54.9022 18.0587 55.7276 18.0326C56.0851 18.0215 56.4426 18.0109 56.8 18.0007C57.3135 17.986 57.8269 17.9697 58.3402 17.9531C58.6493 17.9438 58.9584 17.9344 59.2769 17.9248C59.9979 17.9227 59.9979 17.9227 60.5122 17.617C60.5122 17.1958 60.5122 16.7745 60.5122 16.3404C60.2638 16.3398 60.0154 16.3391 59.7595 16.3384C56.7586 16.2717 56.7586 16.2717 55.7227 15.383C54.7661 14.3174 54.4067 13.28 54.4526 11.8075C54.7609 10.1636 55.7229 8.87902 56.9627 7.8431C58.6184 6.75539 60.5033 6.9851 62.3877 7.0532Z" fill="#0A3D87"/>
<path d="M104.408 11.7446C105.44 12.1046 106.138 12.6156 106.966 13.3404C107.203 13.5438 107.441 13.7472 107.685 13.9567C108.108 14.3215 108.53 14.687 108.951 15.0538C109.119 15.194 109.288 15.3342 109.461 15.4787C109.606 15.6031 109.751 15.7275 109.901 15.8557C110.556 16.183 110.9 16.0225 111.6 15.8297C112.112 15.5943 112.616 15.3422 113.114 15.0787C113.541 14.8553 113.541 14.8553 113.977 14.6274C114.275 14.4698 114.573 14.3121 114.871 14.1542C115.457 13.8441 116.045 13.5356 116.633 13.2277C117.022 13.0215 117.022 13.0215 117.42 12.8112C118.048 12.5106 118.048 12.5106 118.544 12.5106C118.118 17.5942 118.118 17.5942 117.246 18.8087C116.65 19.2714 116.263 19.2429 115.521 19.2399C115.259 19.2407 114.996 19.2414 114.726 19.2422C114.443 19.2391 114.16 19.2359 113.869 19.2327C113.579 19.2322 113.289 19.2317 112.99 19.2312C112.377 19.2295 111.763 19.2259 111.15 19.2207C110.207 19.2127 109.265 19.2102 108.322 19.2087C107.727 19.2064 107.132 19.2037 106.537 19.2007C106.254 19.1997 105.97 19.1986 105.677 19.1975C105.416 19.195 105.156 19.1926 104.887 19.19C104.656 19.1883 104.426 19.1865 104.188 19.1847C103.664 19.1489 103.664 19.1489 103.416 18.8936C103.328 17.2523 103.578 15.7709 103.912 14.1702C103.959 13.9358 104.007 13.7015 104.056 13.4601C104.171 12.8878 104.289 12.3161 104.408 11.7446Z" fill="#FEFAF7"/>
<path d="M36.7039 2.29785C37.9315 2.29785 39.1591 2.29785 40.4239 2.29785C39.7334 6.45718 38.9727 10.596 38.1454 14.7287C38.0807 15.0522 38.0807 15.0522 38.0147 15.3823C37.8898 16.0059 37.7644 16.6295 37.6388 17.253C37.6019 17.4363 37.565 17.6195 37.5269 17.8084C37.2635 19.1089 36.9858 20.4057 36.7039 21.7021C35.5582 21.7021 34.4124 21.7021 33.2319 21.7021C33.3702 19.5645 33.7201 17.5139 34.1558 15.4226C34.3535 14.4733 34.5462 13.5228 34.7393 12.5725C34.7789 12.3784 34.8184 12.1844 34.8592 11.9845C35.2831 9.89803 35.678 7.80605 36.0684 5.71275C36.101 5.53857 36.1335 5.36439 36.167 5.18493C36.3467 4.22271 36.5255 3.26031 36.7039 2.29785Z" fill="#F47921"/>
<path d="M108.616 4.74933C109.076 4.74823 109.076 4.74823 109.545 4.74711C110.19 4.74659 110.835 4.74799 111.48 4.7512C112.465 4.7553 113.449 4.75123 114.434 4.74634C115.063 4.74684 115.691 4.74782 116.32 4.74933C116.613 4.74778 116.905 4.74623 117.207 4.74463C119.034 4.76058 120.635 4.84161 122.085 6.11169C122.221 6.28547 122.357 6.45925 122.497 6.63829C122.637 6.81207 122.777 6.98584 122.922 7.16489C124.069 8.86303 123.577 11.5182 123.268 13.4402C123.164 14.0033 123.057 14.5658 122.946 15.1277C122.895 15.41 122.845 15.6924 122.792 15.9834C122.288 18.6318 121.543 21.2263 119.282 22.8224C117.468 23.8526 115.867 23.9312 113.823 23.9142C113.492 23.9151 113.161 23.9163 112.83 23.9179C112.141 23.9198 111.452 23.9171 110.763 23.9111C109.884 23.9038 109.006 23.908 108.128 23.9157C107.283 23.9214 106.437 23.9174 105.592 23.9142C105.123 23.9181 105.123 23.9181 104.644 23.9221C102.843 23.8975 101.57 23.719 100.192 22.4681C98.8819 21.0126 98.6121 19.9446 98.6457 17.9965C98.741 16.5469 98.9891 15.1372 99.2719 13.7149C99.3711 13.2106 99.4629 12.7053 99.5543 12.1995C100.007 9.86798 100.595 8.01905 102.378 6.43084C102.528 6.29228 102.678 6.15372 102.832 6.01096C104.69 4.75814 106.458 4.73789 108.616 4.74933ZM101.439 8.52227C100.654 9.75144 100.517 11.2321 100.27 12.6542C100.217 12.9411 100.165 13.2279 100.11 13.5234C100.013 14.0564 99.9167 14.5896 99.8225 15.1232C99.7393 15.5887 99.6516 16.0533 99.5591 16.5169C99.2907 17.9439 99.2805 19.3968 99.7272 20.7766C100.387 21.7271 101.15 22.4503 102.176 22.9787C102.638 23.0072 103.101 23.0194 103.563 23.0239C103.999 23.0288 103.999 23.0288 104.444 23.0338C104.918 23.0367 104.918 23.0367 105.401 23.0396C105.888 23.0426 105.888 23.0426 106.384 23.0458C107.072 23.0496 107.76 23.0521 108.448 23.0541C109.325 23.0569 110.202 23.0657 111.078 23.0758C111.919 23.0842 112.76 23.0853 113.601 23.0874C113.913 23.0919 114.226 23.0964 114.547 23.101C116.623 23.0957 118.139 22.7801 119.851 21.5545C121.315 19.9213 121.621 17.9393 122.016 15.8298C122.091 15.4588 122.166 15.0877 122.241 14.7167C123.088 11.0512 123.088 11.0512 122.423 7.52991C121.564 6.43768 120.852 6.00449 119.536 5.61701C118.82 5.5378 118.82 5.5378 118.078 5.54284C117.797 5.53958 117.515 5.53632 117.225 5.53296C116.774 5.53211 116.774 5.53211 116.314 5.53124C116.002 5.52954 115.689 5.52784 115.367 5.52609C114.707 5.52351 114.047 5.52209 113.387 5.52239C112.546 5.52244 111.705 5.51547 110.864 5.50668C110.056 5.4996 109.248 5.49993 108.44 5.49933C108.14 5.49566 107.841 5.49199 107.532 5.48821C104.75 5.50365 103.232 6.29575 101.439 8.52227Z" fill="#BABBBE"/>
<path d="M13.4848 11.0585C14.1358 11.4894 14.1358 11.4894 14.6318 12.2553C14.8067 13.5889 14.7927 14.7266 14.2133 15.9415C13.3107 16.9713 12.2823 18.0306 10.8854 18.1857C10.6127 18.1816 10.6127 18.1816 10.3345 18.1776C10.1363 18.1759 9.93806 18.1743 9.73385 18.1726C9.52925 18.1683 9.32465 18.164 9.11385 18.1596C8.90541 18.1573 8.69698 18.155 8.48222 18.1526C7.9694 18.1466 7.45661 18.1375 6.94385 18.1277C7.07842 15.5717 7.33653 13.339 9.17585 11.4894C10.6043 10.509 11.9122 10.4289 13.4848 11.0585ZM9.67185 14.0426C9.43169 14.982 9.43169 14.982 9.42385 15.8298C10.8886 15.9754 10.8886 15.9754 12.1518 15.2873C12.7238 14.4408 12.7815 14.0306 12.6478 13.0213C12.3926 12.7094 12.3926 12.7094 11.8573 12.6702C10.8874 12.8034 10.2615 13.2615 9.67185 14.0426Z" fill="#FCF7F3"/>
<path d="M106.64 9.70215C110.405 9.70215 114.169 9.70215 118.048 9.70215C116.863 10.6172 115.62 11.3383 114.328 12.0798C113.957 12.3002 113.957 12.3002 113.578 12.5251C113.34 12.6615 113.101 12.798 112.856 12.9385C112.639 13.0647 112.422 13.1908 112.198 13.3208C111.6 13.5319 111.6 13.5319 111.086 13.3581C110.928 13.247 110.771 13.1358 110.608 13.0213C110.372 12.8554 110.372 12.8554 110.131 12.6861C109.97 12.5621 109.809 12.438 109.643 12.3102C109.38 12.107 109.38 12.107 109.11 11.8998C108.93 11.7591 108.749 11.6184 108.562 11.4734C108.377 11.3317 108.193 11.1901 108.002 11.0441C107.828 10.909 107.653 10.7739 107.473 10.6347C107.233 10.449 107.233 10.449 106.989 10.2596C106.874 10.1599 106.759 10.0602 106.64 9.95747C106.64 9.87321 106.64 9.78896 106.64 9.70215Z" fill="#FEFCFA"/>
<path d="M79.3598 12C79.1814 14.3394 78.7694 16.6219 78.3523 18.9255C78.1119 20.2631 77.8715 21.6006 77.6238 22.9787C82.0432 22.9787 86.4626 22.9787 91.0158 22.9787C91.0158 23.063 91.0158 23.1472 91.0158 23.234C89.0869 23.2405 87.158 23.245 85.2291 23.2481C84.5726 23.2494 83.9161 23.2511 83.2596 23.2533C82.3171 23.2564 81.3747 23.2578 80.4322 23.259C80.1377 23.2603 79.8432 23.2616 79.5398 23.263C79.1302 23.263 79.1302 23.263 78.7124 23.263C78.4717 23.2636 78.2311 23.2642 77.9831 23.2647C77.3758 23.234 77.3758 23.234 76.6318 22.9787C76.7722 20.9589 77.1101 18.9862 77.4934 17.0025C77.5937 16.4793 77.6897 15.9554 77.7856 15.4313C77.8496 15.0964 77.9139 14.7614 77.9784 14.4265C78.0353 14.1259 78.0921 13.8253 78.1507 13.5155C78.5897 12 78.5897 12 79.3598 12Z" fill="#C1C2C5"/>
<path d="M99.4481 14.5532C99.6117 14.6375 99.7754 14.7217 99.9441 14.8085C99.9031 15.1298 99.8622 15.451 99.8201 15.7819C99.4507 18.7478 99.4507 18.7478 100.44 21.4468C101.516 22.4468 102.12 22.7535 103.553 22.7759C103.985 22.7835 103.985 22.7835 104.425 22.7913C104.737 22.7956 105.049 22.7998 105.371 22.8042C105.69 22.8095 106.008 22.8148 106.336 22.8203C107.184 22.8344 108.031 22.847 108.878 22.8593C109.742 22.8721 110.607 22.8864 111.471 22.9005C113.167 22.9279 114.864 22.9538 116.56 22.9788C116.56 23.063 116.56 23.1473 116.56 23.2341C112.059 23.2341 107.558 23.2341 102.92 23.2341C102.92 23.4026 102.92 23.5711 102.92 23.7447C101.514 23.5744 100.571 22.9014 99.6341 21.8298C98.4661 20.1121 98.5055 18.4517 98.8077 16.4043C99.1213 14.8896 99.1213 14.8896 99.4481 14.5532Z" fill="#C4C5C7"/>
<path d="M53.5681 9.9574C53.5681 10.456 53.5542 10.9548 53.5245 11.4524C53.4465 13.4093 53.6174 14.5538 54.8081 16.0851C54.8899 16.2536 54.9717 16.4221 55.0561 16.5957C51.8363 16.9841 51.8363 16.9841 50.6386 16.0541C50.1214 15.399 49.6909 14.8117 49.3521 14.0425C49.6701 13.0601 50.1183 12.7833 50.9021 12.1436C51.1386 11.9491 51.3752 11.7545 51.6189 11.5541C51.8529 11.3642 52.0869 11.1743 52.3281 10.9787C52.7415 10.6385 53.1549 10.2981 53.5681 9.9574ZM51.1966 12.8936C50.8892 13.1424 50.8892 13.1424 50.5756 13.3962C50.4173 13.5252 50.2591 13.6543 50.0961 13.7872C50.5282 14.5422 50.9662 15.2229 51.5841 15.8297C52.32 16.0144 52.8027 15.9384 53.5681 15.8297C53.4504 15.5296 53.3328 15.2294 53.2116 14.9202C52.8518 13.9401 52.6813 13.0398 52.5761 12C52.0625 12 51.5763 12.5852 51.1966 12.8936Z" fill="#B9BABD"/>
<path d="M12.4002 12C12.9892 12.2713 12.9892 12.2713 13.3922 12.766C13.5621 13.6756 13.572 14.2596 13.0831 15.0579C12.4677 15.8258 12.0934 16.2755 11.1602 16.5958C10.7316 16.6131 10.3025 16.6175 9.87368 16.6117C9.53848 16.6083 9.53848 16.6083 9.19652 16.6047C9.02613 16.6018 8.85573 16.5988 8.68018 16.5958C8.68686 14.8851 8.88586 13.834 10.051 12.5815C10.8073 11.9061 11.4217 11.9194 12.4002 12ZM9.67218 14.0426C9.43202 14.982 9.43202 14.982 9.42418 15.8298C10.8889 15.9754 10.8889 15.9754 12.1522 15.2872C12.7241 14.4408 12.7819 14.0306 12.6482 13.0213C12.3929 12.7094 12.3929 12.7094 11.8577 12.6702C10.8877 12.8034 10.2618 13.2615 9.67218 14.0426Z" fill="#B8BABD"/>
<path d="M96.2551 2.23404C96.5218 2.23799 96.7884 2.24194 97.0631 2.24601C97.7121 2.29787 97.7121 2.29787 97.9601 2.55319C97.9999 3.6165 97.9558 4.58228 97.7121 5.61702C97.3848 5.61702 97.0574 5.61702 96.7201 5.61702C96.8838 4.77447 97.0475 3.93191 97.2161 3.06383C96.9706 3.06383 96.7251 3.06383 96.4721 3.06383C96.3903 3.82213 96.3085 4.58042 96.2241 5.3617C95.8968 5.44596 95.5694 5.53021 95.2321 5.61702C95.314 4.77447 95.3958 3.93191 95.4801 3.06383C95.2346 3.19021 95.2346 3.19021 94.9841 3.31915C94.8137 3.86003 94.8137 3.86003 94.7051 4.48404C94.6636 4.69501 94.622 4.90598 94.5792 5.12334C94.5492 5.28625 94.5191 5.44917 94.4881 5.61702C94.2426 5.61702 93.9971 5.61702 93.7441 5.61702C93.7658 5.20719 93.7926 4.79764 93.8216 4.3883C93.836 4.16021 93.8504 3.93213 93.8652 3.69714C93.9921 3.06383 93.9921 3.06383 94.2799 2.60206C94.9442 2.15918 95.4721 2.21462 96.2551 2.23404Z" fill="#F37821"/>
<path d="M84.2272 2.32974C85.0642 2.55314 85.0642 2.55314 85.5602 3.06378C85.6777 3.99128 85.6741 4.43071 85.1417 5.20208C84.5682 5.61697 84.5682 5.61697 83.9482 5.74463C83.1205 5.5742 82.8307 5.29336 82.3362 4.5957C82.1713 3.74708 82.2611 3.43654 82.7237 2.71272C83.3282 2.29782 83.3282 2.29782 84.2272 2.32974Z" fill="#F47922"/>
<path d="M79.2672 2.32974C80.1042 2.55314 80.1042 2.55314 80.6002 3.06378C80.7177 3.99128 80.7141 4.43071 80.1817 5.20208C79.6082 5.61697 79.6082 5.61697 78.9882 5.74463C78.1605 5.5742 77.8707 5.29336 77.3762 4.5957C77.2114 3.74708 77.3012 3.43654 77.7637 2.71272C78.3682 2.29782 78.3682 2.29782 79.2672 2.32974Z" fill="#103F88"/>
<path d="M74.3068 2.32974C75.1438 2.55314 75.1438 2.55314 75.6398 3.06378C75.7573 3.99128 75.7537 4.43071 75.2213 5.20208C74.6478 5.61697 74.6478 5.61697 74.0278 5.74463C73.2001 5.5742 72.9103 5.29336 72.4158 4.5957C72.2509 3.74708 72.3407 3.43654 72.8033 2.71272C73.4078 2.29782 73.4078 2.29782 74.3068 2.32974Z" fill="#264B90"/>
<path d="M69.3468 2.32974C70.1838 2.55314 70.1838 2.55314 70.6798 3.06378C70.7973 3.99128 70.7937 4.43071 70.2613 5.20208C69.6878 5.61697 69.6878 5.61697 69.0678 5.74463C68.2401 5.5742 67.9503 5.29336 67.4558 4.5957C67.291 3.74708 67.3808 3.43654 67.8433 2.71272C68.4478 2.29782 68.4478 2.29782 69.3468 2.32974Z" fill="#5165A2"/>
<path d="M64.3869 2.32974C65.2239 2.55314 65.2239 2.55314 65.7199 3.06378C65.8374 3.99128 65.8337 4.43071 65.3014 5.20208C64.7279 5.61697 64.7279 5.61697 64.1079 5.74463C63.2801 5.5742 62.9904 5.29336 62.4959 4.5957C62.331 3.74708 62.4208 3.43654 62.8834 2.71272C63.4879 2.29782 63.4879 2.29782 64.3869 2.32974Z" fill="#7984B7"/>
<path d="M59.4269 2.32974C60.2639 2.55314 60.2639 2.55314 60.7599 3.06378C60.8774 3.99128 60.8738 4.43071 60.3414 5.20208C59.7679 5.61697 59.7679 5.61697 59.1479 5.74463C58.3202 5.5742 58.0304 5.29336 57.5359 4.5957C57.371 3.74708 57.4609 3.43654 57.9234 2.71272C58.5279 2.29782 58.5279 2.29782 59.4269 2.32974Z" fill="#A7AED2"/>
<path d="M93.2478 2.29788C93.4114 2.46639 93.5751 2.6349 93.7438 2.80852C93.6985 3.66268 93.6382 4.34315 93.2168 5.09043C92.4794 5.52061 91.8424 5.43908 91.0158 5.36171C90.5198 4.85107 90.5198 4.85107 90.4268 4.11703C90.5198 3.31916 90.5198 3.31916 90.9073 2.71277C91.7269 2.15019 92.2825 2.18747 93.2478 2.29788Z" fill="#F3751C"/>
<path d="M43.8961 18.1277C44.5286 18.4533 44.6229 18.7413 44.8881 19.4043C44.8881 19.657 44.8881 19.9098 44.8881 20.1702C44.6426 20.0017 44.3971 19.8332 44.1441 19.6596C44.1019 19.9117 44.0597 20.1638 44.0162 20.4236C43.9561 20.7507 43.896 21.0779 43.8341 21.4149C43.7766 21.7408 43.719 22.0666 43.6597 22.4023C43.4001 23.2341 43.4001 23.2341 42.877 23.6031C42.7222 23.6498 42.5675 23.6966 42.4081 23.7447C42.4081 23.6605 42.4081 23.5762 42.4081 23.4894C37.0067 23.363 37.0067 23.363 31.4961 23.2341C31.4961 23.1498 31.4961 23.0656 31.4961 22.9787C35.1789 22.9787 38.8617 22.9787 42.6561 22.9787C42.7379 22.2205 42.8198 21.4622 42.9041 20.6809C43.0823 19.9628 43.0823 19.9628 43.2761 19.4043C43.34 19.2147 43.404 19.0251 43.4698 18.8298C43.6481 18.383 43.6481 18.383 43.8961 18.1277Z" fill="#C4C5C8"/>
<path d="M76.8801 22.7234C77.0438 22.8076 77.2075 22.8919 77.3761 22.9787C77.8116 23.0092 78.2481 23.024 78.6845 23.0311C78.9576 23.0362 79.2306 23.0413 79.512 23.0466C79.8078 23.0508 80.1036 23.0551 80.4083 23.0595C80.7104 23.0648 81.0124 23.0701 81.3236 23.0756C82.2914 23.0923 83.2593 23.1073 84.2271 23.1223C84.882 23.1333 85.5369 23.1445 86.1918 23.1557C87.7999 23.1831 89.408 23.2091 91.0161 23.234C91.0161 23.3183 91.0161 23.4025 91.0161 23.4893C76.3549 23.7983 76.3549 23.7983 70.4321 23.7447C70.4321 23.5762 70.4321 23.4076 70.4321 23.234C70.7119 23.2244 70.7119 23.2244 70.9973 23.2146C71.8371 23.1851 72.6769 23.1538 73.5166 23.1223C73.9571 23.1073 73.9571 23.1073 74.4064 23.0919C74.6854 23.0812 74.9643 23.0705 75.2517 23.0595C75.5101 23.0501 75.7686 23.0408 76.0348 23.0311C76.6197 23.0463 76.6197 23.0463 76.8801 22.7234Z" fill="#B5B6B9"/>
<path d="M69.4402 21.9574C69.522 22.2944 69.6039 22.6314 69.6882 22.9787C69.8519 22.9787 70.0155 22.9787 70.1842 22.9787C70.266 22.7259 70.3479 22.4731 70.4322 22.2127C70.4322 22.4655 70.4322 22.7182 70.4322 22.9787C72.4782 22.9787 74.5242 22.9787 76.6322 22.9787C76.6322 23.0629 76.6322 23.1472 76.6322 23.234C74.5862 23.234 72.5402 23.234 70.4322 23.234C70.4322 23.4025 70.4322 23.571 70.4322 23.7446C68.1407 23.7446 65.8491 23.7446 63.4882 23.7446C63.3245 23.4076 63.1608 23.0706 62.9922 22.7234C66.1839 22.8497 66.1839 22.8497 69.4402 22.9787C69.4402 22.6417 69.4402 22.3046 69.4402 21.9574Z" fill="#C7C8CB"/>
<path d="M90.5198 2.29786C90.5198 2.55062 90.5198 2.80339 90.5198 3.06381C89.9469 3.14807 89.374 3.23232 88.7838 3.31913C88.702 3.65615 88.6201 3.99318 88.5358 4.34041C89.0268 4.50892 89.5179 4.67743 90.0238 4.85105C90.0238 5.10381 90.0238 5.35658 90.0238 5.61701C88.442 5.70918 88.442 5.70918 87.8073 5.32977C87.4124 4.61229 87.4314 4.1291 87.5438 3.31913C88.3218 2.0509 89.1917 2.2067 90.5198 2.29786Z" fill="#F36E11"/>
<path d="M62.992 21.4468C63.1556 21.531 63.3193 21.6153 63.488 21.7021C63.3243 22.2076 63.1606 22.7132 62.992 23.234C65.1198 23.234 67.2476 23.234 69.44 23.234C69.44 23.3183 69.44 23.4025 69.44 23.4893C66.1254 23.6157 66.1254 23.6157 62.744 23.7446C62.6621 23.4919 62.5803 23.2391 62.496 22.9787C62.2504 22.8944 62.0049 22.8102 61.752 22.7234C61.752 22.5549 61.752 22.3864 61.752 22.2127C62.341 21.7819 62.341 21.7819 62.992 21.4468Z" fill="#B7B8BB"/>
<path d="M44.144 18.3829C45.2024 19.1761 45.9306 20.0576 46.7015 21.1276C46.8142 21.2813 46.9269 21.435 47.043 21.5934C47.3181 21.969 47.5913 22.346 47.864 22.7234C47.7822 22.8919 47.7004 23.0604 47.616 23.234C45.9711 21.8926 44.8154 20.4566 44.144 18.3829Z" fill="#B9BABD"/>
<path d="M41.6641 2.29785C42.8098 2.29785 43.9556 2.29785 45.1361 2.29785C45.0542 2.80338 44.9724 3.30892 44.8881 3.82977C44.8062 3.49275 44.7244 3.15572 44.6401 2.80849C43.7398 2.80849 42.8396 2.80849 41.9121 2.80849C41.8302 3.06126 41.7484 3.31402 41.6641 3.57445C41.6641 3.15317 41.6641 2.73189 41.6641 2.29785Z" fill="#F36F11"/>
<path d="M91.7602 3.06384C92.4112 3.15959 92.4112 3.15959 93.0002 3.31916C92.9183 3.65618 92.8365 3.9932 92.7522 4.34044C92.343 4.42469 91.9338 4.50895 91.5122 4.59576C91.3572 4.11703 91.3572 4.11703 91.2642 3.57448C91.4278 3.40597 91.5915 3.23746 91.7602 3.06384Z" fill="#FEF3EB"/>
<path d="M72.4162 12C71.9911 14.1884 71.9911 14.1884 70.9282 15.0638C70.9499 14.6965 70.9767 14.3295 71.0057 13.9628C71.0201 13.7584 71.0345 13.554 71.0493 13.3434C71.2297 12.5224 71.5596 12 72.4162 12Z" fill="#BFC0C3"/>
<path d="M36.9521 2.29785C38.0979 2.29785 39.2437 2.29785 40.4241 2.29785C40.2605 2.63487 40.0968 2.97189 39.9281 3.31913C39.9281 3.15062 39.9281 2.98211 39.9281 2.80849C39.0279 2.80849 38.1277 2.80849 37.2001 2.80849C37.1183 2.977 37.0365 3.14551 36.9521 3.31913C36.9521 2.98211 36.9521 2.64509 36.9521 2.29785Z" fill="#F37013"/>
<path d="M87.792 3.82983C87.9557 3.82983 88.1194 3.82983 88.288 3.82983C88.4517 4.0826 88.6154 4.33537 88.784 4.59579C89.4196 4.78209 89.4196 4.78209 90.024 4.85111C90.024 5.10388 90.024 5.35664 90.024 5.61707C89.4511 5.61707 88.8782 5.61707 88.288 5.61707C87.9258 4.94114 87.792 4.62273 87.792 3.82983Z" fill="#F47924"/>
<path d="M92.7521 4.08508C92.9976 4.16934 93.2432 4.25359 93.4961 4.3404C93.2326 4.85104 93.2326 4.85104 92.7521 5.36168C91.8376 5.42551 91.8376 5.42551 91.0161 5.36168C91.0161 5.10891 91.0161 4.85615 91.0161 4.59572C91.1798 4.67998 91.3435 4.76423 91.5121 4.85104C91.7116 4.72466 91.9111 4.59827 92.1166 4.46806C92.4312 4.27849 92.4312 4.27849 92.7521 4.08508Z" fill="#F26C0E"/>
<path d="M99.2002 16.3405C99.282 16.3405 99.3639 16.3405 99.4482 16.3405C99.42 16.8406 99.3883 17.3406 99.3552 17.8405C99.3379 18.1189 99.3207 18.3973 99.3029 18.6842C99.2002 19.4043 99.2002 19.4043 98.7042 19.9149C98.6907 19.5108 98.6811 19.1065 98.6732 18.7022C98.6674 18.477 98.6617 18.2519 98.6558 18.02C98.7063 17.3327 98.8616 16.9279 99.2002 16.3405Z" fill="#B7B8BB"/>
<path d="M12.4 12.0001C12.5637 12.2528 12.7274 12.5056 12.896 12.766C12.8142 13.0188 12.7323 13.2715 12.648 13.532C12.5662 13.3635 12.4843 13.1949 12.4 13.0213C11.8271 13.0213 11.2543 13.0213 10.664 13.0213C10.5822 12.7686 10.5003 12.5158 10.416 12.2554C11.1076 11.8994 11.6364 11.9345 12.4 12.0001Z" fill="#C1C2C5"/>
<path d="M99.1998 17.8723C99.2816 17.8723 99.3635 17.8723 99.4478 17.8723C99.6115 18.8834 99.7752 19.8944 99.9438 20.9361C99.6164 20.8519 99.2891 20.7676 98.9518 20.6808C98.6004 19.5956 98.9039 18.9655 99.1998 17.8723Z" fill="#C3C4C7"/>
<path d="M100.44 9.44678C100.604 9.53103 100.767 9.61529 100.936 9.7021C100.854 10.4604 100.772 11.2187 100.688 12C100.606 11.7472 100.524 11.4944 100.44 11.234C100.276 11.234 100.112 11.234 99.9438 11.234C100.108 10.6442 100.271 10.0544 100.44 9.44678Z" fill="#C0C1C4"/>
<path d="M95.4799 3.31909C95.5618 3.57186 95.6436 3.82462 95.7279 4.08505C95.8916 4.08505 96.0553 4.08505 96.2239 4.08505C96.2239 4.50633 96.2239 4.9276 96.2239 5.36164C95.8966 5.4459 95.5692 5.53016 95.2319 5.61696C95.3138 4.85867 95.3956 4.10037 95.4799 3.31909Z" fill="#F48233"/>
<path d="M98.4561 0.51062C99.0916 0.845726 99.0916 0.845726 99.6961 1.5319C99.7335 2.4885 99.6073 3.39917 99.4481 4.34041C99.3662 4.34041 99.2844 4.34041 99.2001 4.34041C99.1671 4.12812 99.1342 3.91584 99.1003 3.69712C99.0565 3.41967 99.0127 3.14222 98.9676 2.85636C98.9244 2.58089 98.8812 2.30541 98.8368 2.02159C98.7193 1.26398 98.7193 1.26398 98.4561 0.51062Z" fill="#C6C6C9"/>
<path d="M27.0321 22.9787C26.7866 23.1051 26.7866 23.1051 26.5361 23.234C26.5361 23.4025 26.5361 23.571 26.5361 23.7446C25.6359 23.6604 24.7356 23.5761 23.8081 23.4893C23.8081 23.4051 23.8081 23.3208 23.8081 23.234C24.8933 23.0825 25.9348 22.9434 27.0321 22.9787Z" fill="#B6B7BB"/>
<path d="M88.5361 2.29785C89.1909 2.29785 89.8456 2.29785 90.5201 2.29785C90.5201 2.55062 90.5201 2.80338 90.5201 3.06381C90.0291 3.06381 89.5381 3.06381 89.0321 3.06381C89.0321 2.8953 89.0321 2.72679 89.0321 2.55317C88.8685 2.46892 88.7048 2.38466 88.5361 2.29785Z" fill="#F3751B"/>
<path d="M90.52 3.31909C90.6019 3.4876 90.6837 3.65611 90.768 3.82973C90.9317 3.82973 91.0954 3.82973 91.264 3.82973C91.3459 3.99824 91.4277 4.16675 91.512 4.34037C91.7575 4.50888 92.0031 4.67739 92.256 4.85101C91.5095 5.08954 91.2971 5.11769 90.52 4.85101C90.52 4.34547 90.52 3.83994 90.52 3.31909Z" fill="#F48330"/>
</g>
<defs>
<clipPath id="clip0_2384_5672">
<rect width="124" height="24" fill="white"/>
</clipPath>
</defs>
</svg>
