<svg width="74" height="40" viewBox="0 0 74 40" fill="none" xmlns="http://www.w3.org/2000/svg">
<path d="M37.0001 39.7369C47.9472 39.7369 56.8216 30.9004 56.8216 20C56.8216 9.09967 47.9472 0.263184 37.0001 0.263184C26.0531 0.263184 17.1787 9.09967 17.1787 20C17.1787 30.9004 26.0531 39.7369 37.0001 39.7369Z" fill="#2D2D2D"/>
<path d="M31.6808 24.0658L22.1343 20.9498H28.5205L29.1523 17.9363L34.8237 17.94L36.2385 10.1316H41.9446C45.8073 10.1316 47.3732 11.6797 46.7946 14.8746L46.6707 15.5592C46.3325 17.4207 45.479 18.6579 44.0122 19.3721C45.4653 20.1123 45.9534 21.5123 45.588 23.5292L45.3055 25.0909C44.7406 28.2068 42.4389 29.8684 38.7 29.8684H32.6607L34.2254 21.2422H32.3299L31.6808 24.0658ZM37.9567 20.6772L36.7873 27.1287H39.1968C40.6264 27.1287 41.4205 26.4971 41.6906 25.007L41.9941 23.338C42.3385 21.4346 41.677 20.6772 39.8026 20.6772H37.9567ZM39.3727 12.8701L38.3519 18.5H40.1012C41.6968 18.5 42.6296 17.8216 42.9158 16.2426L43.1103 15.1744C43.389 13.6361 42.8117 12.8701 41.3487 12.8701H39.3727Z" fill="white"/>
</svg>
