<svg width="128" height="24" viewBox="0 0 128 24" fill="none" xmlns="http://www.w3.org/2000/svg">
<g clip-path="url(#clip0_2384_5565)">
<path d="M113.421 6.75352H111.261V16.1758C111.242 17.6912 109.985 18.9151 108.454 18.9345H100.15L99.9532 19.1288C100.189 19.9253 100.896 20.4887 101.74 20.5081H105.215L110.299 24.7044V20.4887H113.421C114.402 20.4887 115.364 19.595 115.364 18.6237V8.44371C115.364 7.47233 114.402 6.75352 113.421 6.75352ZM108.454 3.50915H91.6293C90.6477 3.50915 89.7446 4.28624 89.7446 5.25761V16.1564C89.7446 17.1278 90.6477 17.9631 91.6293 17.9631H94.8097V22.2177L99.8158 17.9631H108.454C109.455 17.9437 110.28 17.1472 110.319 16.1564V5.25761C110.26 4.26681 109.435 3.48972 108.454 3.50915Z" fill="#00A5FF"/>
<path d="M15.5358 8.2883C14.1419 7.88033 12.7088 7.66662 11.2757 7.6472C7.19222 7.6472 4.77749 10.1145 4.77749 13.7474C4.77749 17.4192 7.25111 19.867 11.0793 19.867C12.7284 19.8282 14.3382 19.5756 15.9088 19.1094L16.0855 19.867C14.456 20.411 12.748 20.7024 11.0204 20.7218C6.62289 20.7218 3.7959 17.9243 3.7959 13.7474C3.7959 9.57051 6.62289 6.77296 11.1775 6.77296C12.7088 6.79239 14.2401 7.00609 15.7125 7.45292L15.5358 8.2883ZM18.6965 20.4304H17.8327V6.77296H18.6965V20.4304ZM20.4634 8.0746C20.4438 7.68605 20.7775 7.35579 21.1701 7.37521C21.5628 7.35579 21.8965 7.68605 21.8965 8.0746C21.8965 8.46315 21.5628 8.77399 21.1701 8.77399C20.7775 8.79342 20.4438 8.46315 20.4634 8.0746ZM21.6217 20.4304H20.7186V11.4744H21.602L21.6217 20.4304ZM31.3787 12.3486C30.4364 12.0961 29.4744 11.9407 28.4928 11.9212C26.0388 11.9212 24.3898 13.5143 24.3898 15.9233C24.3898 18.3323 26.0192 19.9253 28.3358 19.9253C29.4548 19.8865 30.5542 19.7116 31.6143 19.4008L31.791 20.139C30.672 20.4887 29.5333 20.683 28.3554 20.7024C25.4695 20.7024 23.4671 18.818 23.4671 15.9038C23.4671 12.9897 25.4892 11.1247 28.4536 11.1247C29.4941 11.1441 30.5149 11.2996 31.5161 11.6104L31.3787 12.3486ZM35.953 15.4959L40.0757 11.4744H41.2143L37.0131 15.593L41.9996 20.4499H40.8609L36.5419 16.3507H34.4217V20.4499H33.5382V6.79239H34.4217V15.5153H35.953V15.4959ZM52.9149 9.35681C51.3247 8.89055 49.5971 8.57971 48.3603 8.57971C46.6327 8.57971 45.4941 9.29853 45.4941 10.6779C45.4941 11.9407 46.6131 12.3098 48.9296 12.776C51.8941 13.3783 53.818 14.136 53.818 16.6615C53.818 19.3425 51.6585 20.7218 48.6352 20.7218C46.7112 20.7024 44.8069 20.3139 43.0204 19.6145L43.4916 17.866C45.1407 18.5654 46.9076 18.9345 48.7137 18.9734C50.618 18.9734 51.9137 18.2546 51.9137 16.8364C51.9137 15.049 49.7542 14.7576 47.6928 14.3496C44.7088 13.7474 43.5112 12.8343 43.5112 10.7556C43.5112 8.38544 45.4941 6.88953 48.4388 6.88953C50.1468 6.90896 51.8155 7.20037 53.445 7.74433L52.9149 9.35681ZM64.2425 15.1462C64.2425 15.6124 64.2229 16.0593 64.1444 16.5255H56.8806C57.1554 18.0797 58.3137 19.1094 60.1395 19.1094C61.1407 19.1094 62.1223 18.9151 63.4769 18.6043L63.7517 20.0613C62.4364 20.4693 61.337 20.7218 60.0806 20.7218C56.7628 20.7218 54.937 18.6237 54.937 15.8067C54.937 12.8537 56.9984 10.9304 59.7468 10.9304C62.3579 10.9499 64.2229 12.6012 64.2425 15.1462ZM56.802 15.1267H62.5934C62.5542 13.4366 61.4352 12.3681 59.7861 12.3681C58.1174 12.3875 56.9984 13.4754 56.802 15.1267ZM74.5493 14.6216V20.4304H72.7431V15.1073C72.7431 13.5531 71.8204 12.6012 70.3481 12.6012C69.3468 12.6012 68.3456 12.6789 67.3444 12.8343V20.4304H65.5382V11.4161C67.2462 11.1247 68.9738 10.9693 70.7211 10.9693C73.0573 10.9693 74.5493 12.3486 74.5493 14.6216ZM85.2487 20.3333C83.5996 20.6247 81.9112 20.7607 80.2229 20.7218C77.5726 20.7218 75.7076 18.9151 75.7076 15.8261C75.7076 12.9315 77.3566 11.0081 80.4781 11.0081C81.4793 10.9887 82.4806 11.1053 83.4425 11.3384V6.75354H85.2487V20.3333ZM77.4744 15.8261C77.4744 17.866 78.5542 19.2454 80.5959 19.2454C81.5579 19.2454 82.5002 19.1676 83.4425 19.0122V12.8926C82.5395 12.6595 81.6168 12.5235 80.6941 12.5429C78.456 12.5429 77.4744 13.9028 77.4744 15.8261ZM117.543 9.45395H117.268V7.14209H116.247V6.88953H118.564V7.14209H117.543V9.45395ZM120.272 9.45395H120.036L119.094 7.47235L118.976 9.45395H118.701L118.858 6.88953H119.114L120.154 9.12368L121.195 6.88953H121.45L121.607 9.45395H121.332L121.214 7.47235L120.272 9.45395Z" fill="#32325C"/>
</g>
<defs>
<clipPath id="clip0_2384_5565">
<rect width="128" height="24" fill="white"/>
</clipPath>
</defs>
</svg>
