<svg width="132" height="22" viewBox="0 0 132 22" fill="none" xmlns="http://www.w3.org/2000/svg">
<path d="M50.7924 16.427C50.6746 16.5906 50.4978 16.8361 50.2031 17.1906C49.9085 17.5452 49.496 17.8997 48.9656 18.2543C48.4353 18.6088 47.7871 18.9088 47.021 19.1815C46.2549 19.4543 45.3415 19.5906 44.2808 19.5906C42.9844 19.5906 41.8353 19.3724 40.7746 18.9361C39.7139 18.4997 38.8005 17.8997 38.0344 17.1088C37.2683 16.3179 36.679 15.4179 36.296 14.3543C35.8835 13.2906 35.6772 12.1452 35.6772 10.8906C35.6772 9.69062 35.8835 8.54516 36.296 7.5088C36.7085 6.44517 37.2978 5.54517 38.0344 4.75426C38.8005 3.96335 39.7139 3.36335 40.7746 2.89971C41.8353 2.46335 43.0139 2.2179 44.2808 2.2179C45.3415 2.2179 46.2549 2.35426 47.021 2.62698C47.7871 2.89971 48.4353 3.19971 48.9656 3.55426C49.496 3.9088 49.9085 4.26335 50.2031 4.61789C50.4978 4.97244 50.704 5.21789 50.7924 5.38153L49.8201 6.0088C49.7022 5.87244 49.5255 5.65426 49.2897 5.38153C49.054 5.08153 48.7005 4.8088 48.2585 4.5088C47.8165 4.2088 47.2862 3.93608 46.638 3.71789C45.9897 3.49971 45.2237 3.36335 44.3103 3.36335C43.1612 3.36335 42.1594 3.55426 41.246 3.93608C40.3326 4.31789 39.596 4.86335 38.9478 5.54517C38.329 6.22698 37.8576 7.01789 37.504 7.94516C37.1799 8.87243 37.0031 9.85425 37.0031 10.9179C37.0031 11.9815 37.1799 12.9633 37.504 13.8906C37.8281 14.8179 38.329 15.6088 38.9478 16.2906C39.5665 16.9724 40.3326 17.5179 41.246 17.8997C42.1594 18.2815 43.1906 18.4724 44.3397 18.4724C45.1647 18.4724 45.9014 18.3633 46.5496 18.1179C47.1683 17.8997 47.7281 17.627 48.1701 17.327C48.6121 17.027 48.9656 16.727 49.2014 16.4543C49.4665 16.1543 49.6433 15.9633 49.7612 15.827L50.7924 16.427Z" fill="black"/>
<path d="M55.2119 2.60034H54.0039V19.1822H55.2119V2.60034Z" fill="black"/>
<path d="M58.9537 7.75425H60.1618V19.1815H58.9537V7.75425ZM58.7178 3.7179H60.3975V5.32699H58.7178V3.7179Z" fill="black"/>
<path d="M74.3349 17.491C73.8046 18.0637 73.1563 18.5546 72.3019 18.9091C71.4769 19.291 70.534 19.4546 69.4438 19.4546C68.5599 19.4546 67.7349 19.291 66.9688 18.991C66.2028 18.691 65.5546 18.2546 64.9947 17.7364C64.4349 17.191 64.0224 16.5637 63.6983 15.8273C63.4037 15.091 63.2563 14.3 63.2563 13.4546C63.2563 12.6091 63.4037 11.8182 63.7278 11.0819C64.0519 10.3455 64.4644 9.71823 65.0242 9.17277C65.584 8.62732 66.2322 8.21823 66.9983 7.91823C67.7644 7.61823 68.5599 7.45459 69.4438 7.45459C70.534 7.45459 71.4474 7.6455 72.2135 8.00004C72.9796 8.35459 73.6278 8.8455 74.1581 9.47277L73.2447 10.1273C72.8322 9.63641 72.3313 9.22732 71.7126 8.95459C71.0938 8.65459 70.3572 8.51823 69.4438 8.51823C68.7367 8.51823 68.0885 8.65459 67.4697 8.92732C66.8805 9.20004 66.3501 9.55459 65.9081 9.99095C65.4662 10.4273 65.1421 10.9728 64.8769 11.5728C64.6412 12.1728 64.5233 12.8273 64.5233 13.5091C64.5233 14.191 64.6412 14.8182 64.9063 15.4455C65.1421 16.0455 65.4956 16.5637 65.9376 17.0273C66.3796 17.4637 66.8805 17.8182 67.4992 18.091C68.0885 18.3637 68.7367 18.5 69.4438 18.5C70.3278 18.5 71.1233 18.3637 71.801 18.0637C72.4787 17.7637 73.0385 17.3819 73.451 16.8637L74.3349 17.491Z" fill="black"/>
<path d="M77.1631 2.60034H78.3711V13.4822L84.6765 7.75489H86.2381L81.5533 12.0094L87.1809 19.1822H85.7372L80.6988 12.8003L78.3711 14.9003V19.1822H77.1631V2.60034Z" fill="black"/>
<path d="M103.18 8.7906H100.705V7.75423H103.18V3.9906H104.388V7.75423H108.454V8.7906H104.388V15.3906C104.388 16.0724 104.447 16.6179 104.535 17.027C104.653 17.4361 104.8 17.736 105.006 17.9542C105.213 18.1724 105.448 18.3088 105.714 18.3633C105.979 18.4179 106.273 18.4724 106.597 18.4724C107.039 18.4724 107.422 18.3906 107.747 18.2542C108.071 18.1179 108.395 17.8451 108.719 17.4906L109.455 18.1724C109.102 18.6088 108.689 18.9361 108.247 19.1542C107.805 19.3724 107.187 19.5088 106.48 19.5088C106.008 19.5088 105.566 19.4542 105.154 19.3451C104.741 19.2361 104.388 19.0451 104.122 18.7451C103.828 18.4451 103.622 18.0633 103.445 17.5724C103.297 17.0815 103.209 16.4542 103.209 15.6906V8.7906H103.18Z" fill="black"/>
<path d="M121.476 12.8C121.329 11.3819 120.828 10.3182 120.033 9.58186C119.237 8.8455 118.176 8.49095 116.909 8.49095C116.261 8.49095 115.643 8.60004 115.112 8.81823C114.582 9.03641 114.11 9.33641 113.698 9.7455C113.315 10.1273 112.991 10.591 112.755 11.1091C112.519 11.6273 112.372 12.2 112.343 12.8H121.476ZM122.243 17.4637C121.712 18.091 120.976 18.5819 120.062 18.9364C119.149 19.291 118.206 19.4819 117.234 19.4819C116.32 19.4819 115.495 19.3455 114.7 19.0455C113.934 18.7455 113.256 18.3364 112.696 17.8182C112.136 17.3 111.724 16.6455 111.4 15.9091C111.076 15.1728 110.928 14.3546 110.928 13.4546C110.928 12.6364 111.076 11.8455 111.37 11.1091C111.665 10.3728 112.077 9.7455 112.578 9.20004C113.109 8.65459 113.727 8.21823 114.464 7.91823C115.201 7.59095 115.996 7.45459 116.88 7.45459C117.705 7.45459 118.501 7.59095 119.208 7.86368C119.944 8.13641 120.563 8.5455 121.093 9.06368C121.624 9.58186 122.036 10.2637 122.331 11.0273C122.626 11.8182 122.773 12.7182 122.773 13.7546H112.284C112.313 14.4091 112.431 15.0091 112.696 15.5819C112.932 16.1546 113.285 16.6455 113.727 17.0819C114.169 17.491 114.67 17.8455 115.259 18.0637C115.849 18.3091 116.526 18.4182 117.263 18.4182C117.646 18.4182 118.029 18.391 118.442 18.3091C118.854 18.2273 119.237 18.1182 119.62 17.9819C120.003 17.8455 120.327 17.6546 120.651 17.4637C120.976 17.2728 121.241 17.0546 121.447 16.7819L122.243 17.4637Z" fill="black"/>
<path d="M97.2278 13.3451C96.8448 13.2633 96.3733 13.1815 95.8135 13.1269C95.2537 13.0724 94.5465 13.0451 93.6626 13.0451C92.7492 13.0451 92.0421 13.1542 91.4823 13.3451C90.9519 13.5633 90.5394 13.8087 90.2742 14.1087C90.009 14.4087 89.8323 14.736 89.7439 15.0906C89.6555 15.4451 89.626 15.7724 89.626 16.0451C89.626 16.8633 89.9207 17.4906 90.5099 17.8724C91.0992 18.2542 91.8653 18.4451 92.8082 18.4451C93.4269 18.4451 93.9867 18.336 94.5171 18.1451C95.0474 17.9542 95.5189 17.6815 95.9314 17.3542C96.3439 17.0269 96.6385 16.6451 96.8742 16.236C97.1099 15.8269 97.2278 15.3906 97.2278 14.9542V13.3451ZM97.3457 19.1815C97.3162 19.0451 97.3162 18.8542 97.3162 18.6906C97.2867 18.5269 97.2867 18.336 97.2867 18.0906V17.2724C96.9626 17.7087 96.609 18.0633 96.226 18.3633C95.843 18.6633 95.4305 18.8815 95.018 19.0451C94.6055 19.2087 94.193 19.3178 93.7805 19.3996C93.368 19.4542 93.0144 19.5087 92.6608 19.5087C92.1305 19.5087 91.6296 19.4542 91.0992 19.3724C90.5689 19.2633 90.1269 19.0996 89.7144 18.8269C89.3019 18.5815 88.9778 18.2269 88.7126 17.7906C88.4474 17.3542 88.3296 16.7815 88.3296 16.0996C88.3296 15.5542 88.418 15.036 88.6242 14.5451C88.8305 14.0542 89.1251 13.6451 89.5671 13.2906C90.009 12.936 90.5394 12.6633 91.2171 12.4451C91.8948 12.2269 92.7198 12.1451 93.6921 12.1451C94.4287 12.1451 95.1064 12.1724 95.6957 12.2269C96.2849 12.2815 96.7858 12.336 97.1983 12.3906V11.736C97.1983 11.1087 97.1099 10.5906 96.9626 10.1815C96.8153 9.77237 96.5501 9.4451 96.226 9.19965C95.9019 8.95419 95.5189 8.79056 95.0474 8.68147C94.576 8.57237 94.0457 8.5451 93.4269 8.5451C92.3957 8.5451 91.6001 8.68147 91.0108 8.95419C90.4215 9.22692 89.9501 9.49965 89.626 9.7451L88.9778 8.98147C89.3019 8.68147 89.8617 8.38147 90.6278 8.02692C91.3939 7.69965 92.3073 7.53601 93.3974 7.53601C94.9885 7.53601 96.226 7.86328 97.0805 8.49056C97.9349 9.11783 98.3769 10.1542 98.3769 11.6269V16.8906V17.8178C98.3769 18.1178 98.3769 18.3633 98.4064 18.5815C98.4358 18.8542 98.4358 19.0724 98.4653 19.2906H97.3457V19.1815Z" fill="black"/>
<path d="M127.076 2.60034H125.868V19.1822H127.076V2.60034Z" fill="black"/>
<path d="M131.966 2.60034H130.758V19.1822H131.966V2.60034Z" fill="black"/>
<path d="M12.872 3.50031C8.57022 1.37304 3.23719 2.95485 0.997908 7.07304C-1.24137 11.1639 0.408626 16.2367 4.73987 18.3639C6.89075 19.4276 9.27736 19.5639 11.4283 18.9094C11.4283 18.9094 11.8702 18.8548 12.9604 18.2548C12.9604 18.2548 12.047 17.7367 10.9863 16.1003C10.9863 16.1003 10.9863 16.1003 10.9863 16.073C9.45415 16.6457 7.65683 16.6457 6.09522 15.8548C3.20773 14.4367 2.08809 11.0548 3.59077 8.32756C5.09344 5.60031 8.62915 4.5094 11.5166 5.95485C13.255 6.80031 14.3452 8.38211 14.6104 10.1003L17.5863 11.573C17.8515 8.32756 16.1131 5.1094 12.872 3.50031Z" fill="#29C3EC"/>
<path d="M16.0539 18.3641C20.3851 20.4913 25.6887 18.855 27.928 14.7368C30.1673 10.6186 28.4584 5.57312 24.1271 3.47312C21.9762 2.40949 19.5896 2.30039 17.4387 2.95494C17.4387 2.95494 16.9967 3.00948 15.9066 3.60948C15.9066 3.60948 16.82 4.12767 17.8807 5.73676C17.8807 5.73676 17.8807 5.73676 17.8807 5.76403C19.4128 5.16403 21.1807 5.1913 22.7717 5.95494C25.6592 7.37312 26.7789 10.7277 25.3057 13.4822C23.803 16.2368 20.2673 17.3004 17.3798 15.9095C15.6414 15.0641 14.5512 13.5095 14.2566 11.7913L11.2807 10.3459C11.045 13.5641 12.8128 16.7822 16.0539 18.3641Z" fill="#8DC63F"/>
</svg>
