<svg width="86" height="34" viewBox="0 0 86 34" fill="none" xmlns="http://www.w3.org/2000/svg">
<g clip-path="url(#clip0_2384_5608)">
<path d="M16.4324 18.6033C15.713 18.6033 15.1052 19.2098 15.1052 19.9274V30.5115C15.1052 31.2537 15.6988 31.8351 16.4565 31.8351C17.2133 31.8351 17.784 31.266 17.784 30.5115V19.9274C17.784 19.1849 17.1903 18.6033 16.4324 18.6033Z" fill="#1F1F1F"/>
<path d="M16.4329 16.748C17.1616 16.748 17.7114 16.26 17.7114 15.6138V15.3067C17.7114 14.6499 17.1737 14.1728 16.4329 14.1728C15.7062 14.1728 15.1785 14.6499 15.1785 15.3067V15.6138C15.1785 16.26 15.7176 16.748 16.4329 16.748Z" fill="#1F1F1F"/>
<path d="M11.2346 15.9945C11.4815 15.9945 11.7274 16.0342 11.9756 16.0744L12.2038 16.1102C12.9475 16.1814 13.5485 15.6369 13.5485 14.9301C13.5485 14.3633 13.128 13.8699 12.5566 13.7584C12.1055 13.6542 11.6089 13.6058 10.994 13.6058C9.76434 13.6058 8.73975 13.9728 8.03062 14.6673C7.24311 15.4391 6.82674 16.6221 6.82674 18.0882V18.7446H6.22867C5.57442 18.7446 5.02173 19.2863 5.02173 19.9274C5.02173 20.6035 5.55189 21.1332 6.22867 21.1332H6.82674V30.5115C6.82674 31.2413 7.43287 31.835 8.17789 31.835C8.92211 31.835 9.50521 31.2537 9.50521 30.5115V21.1332H12.2933C12.9722 21.1332 13.5245 20.6028 13.5245 19.9511C13.5245 19.288 12.9838 18.7686 12.2933 18.7686H9.48123V18.1829C9.48123 16.6489 10.0056 15.9945 11.2346 15.9945Z" fill="#1F1F1F"/>
<path d="M27.1798 18.5561C25.7929 18.5561 24.3374 19.3889 23.309 20.7292V19.9274C23.309 19.1849 22.7151 18.6033 21.9572 18.6033C21.2378 18.6033 20.6299 19.2096 20.6299 19.9274V30.5115C20.6299 31.2537 21.2236 31.835 21.9815 31.835C22.7259 31.835 23.309 31.2537 23.309 30.5115V26.3628C23.309 23.426 24.8122 21.496 27.3372 21.1996C28.0368 21.0968 28.5069 20.5665 28.5069 19.8798C28.5069 19.1251 27.9364 18.5561 27.1798 18.5561Z" fill="#1F1F1F"/>
<path d="M34.5509 20.8037C37.193 20.8037 37.8802 23.0986 38.0553 24.1427H30.9812C31.349 22.1341 32.7566 20.8037 34.5509 20.8037ZM40.7874 25.0427C40.7874 21.7726 38.6617 18.4621 34.5991 18.4621C31.0208 18.4621 28.2178 21.425 28.2178 25.2077V25.2545C28.2178 29.1001 31.0646 32 34.8398 32C36.8466 32 38.3801 31.3998 39.8043 30.0614C40.0815 29.8239 40.2342 29.5062 40.2342 29.1674C40.2342 28.5157 39.6818 27.9856 39.003 27.9856C38.6249 27.9856 38.3648 28.1639 38.1939 28.305C37.2189 29.1843 36.1373 29.6117 34.8877 29.6117C32.8693 29.6117 31.3615 28.3195 30.982 26.2953H39.5082C40.2136 26.2953 40.7874 25.7335 40.7874 25.0427Z" fill="#1F1F1F"/>
<path d="M49.1185 21.133C49.8104 21.133 50.3734 20.5922 50.3734 19.9275C50.3734 19.2739 49.7988 18.7217 49.1185 18.7217H46.306V16.2501C46.306 15.5325 45.6875 14.9261 44.955 14.9261C44.2105 14.9261 43.6273 15.5076 43.6273 16.2501V18.7217H42.77C42.1027 18.7217 41.5391 19.2739 41.5391 19.9275C41.5391 20.5698 42.1143 21.133 42.77 21.133H43.6273V28.0831C43.6273 30.5274 45.0585 31.9292 47.554 31.9292C48.2953 31.9292 48.9252 31.8152 49.5317 31.5723C50.0211 31.3878 50.3251 30.9723 50.3251 30.4877C50.3251 29.8466 49.7724 29.3052 49.1185 29.3052C49.0194 29.3052 48.9281 29.3285 48.8111 29.3585C48.6383 29.4029 48.377 29.4703 47.9872 29.4703C46.8245 29.4703 46.306 28.9697 46.306 27.8475V21.133H49.1185Z" fill="#DF3B8D"/>
<path d="M57.5605 20.8036C60.2026 20.8036 60.8898 23.0984 61.0647 24.1427H53.9913C54.3589 22.1339 55.7664 20.8036 57.5605 20.8036ZM57.6087 18.4621C54.0303 18.4621 51.2271 21.425 51.2271 25.2077V25.2545C51.2271 29.1001 54.0742 32 57.8495 32C59.856 32 61.3897 31.4 62.8144 30.0613C63.0912 29.8237 63.2438 29.5062 63.2438 29.1676C63.2438 28.5157 62.6916 27.9856 62.013 27.9856C61.6356 27.9856 61.375 28.1637 61.2036 28.305C60.2286 29.1841 59.1472 29.6115 57.8976 29.6115C55.8789 29.6115 54.3713 28.3193 53.9921 26.2951H62.5183C63.2237 26.2951 63.7975 25.7333 63.7975 25.0427C63.7975 21.7725 61.6717 18.4621 57.6087 18.4621Z" fill="#DF3B8D"/>
<path d="M72.0533 25.0665L75.7091 20.6852C75.9378 20.4229 76.0488 20.144 76.0488 19.8328C76.0488 19.1318 75.5093 18.6033 74.7936 18.6033C74.2416 18.6033 73.8925 18.9451 73.675 19.2055L70.437 23.2334L67.1715 19.1761C66.9661 18.9301 66.6245 18.6033 66.0335 18.6033C65.3039 18.6033 64.7538 19.1422 64.7538 19.8566C64.7538 20.1852 64.8845 20.4959 65.1357 20.7722L68.7504 25.1136L64.9144 29.7391C64.6799 29.9727 64.5613 30.2642 64.5613 30.6055C64.5613 31.2949 65.1128 31.835 65.8168 31.835C66.3679 31.835 66.7173 31.4938 66.9351 31.2335L70.3653 26.9683L73.8244 31.2622C74.0298 31.508 74.371 31.835 74.9615 31.835C75.691 31.835 76.241 31.2963 76.241 30.5817C76.241 30.2686 76.1251 29.9705 75.8832 29.6662L72.0533 25.0665Z" fill="#DF3B8D"/>
<path d="M84.6978 29.3052C84.5995 29.3052 84.5095 29.3282 84.3913 29.3584C84.2182 29.4029 83.9565 29.4702 83.5665 29.4702C82.4046 29.4702 81.8865 28.9697 81.8865 27.8474V21.133H84.6978C85.3899 21.133 85.953 20.5921 85.953 19.9275C85.953 19.2739 85.3783 18.7217 84.6978 18.7217H81.8865V16.2501C81.8865 15.5325 81.2675 14.926 80.5346 14.926C79.7902 14.926 79.2071 15.5078 79.2071 16.2501V18.7217H78.3502C77.6829 18.7217 77.1191 19.2739 77.1191 19.9275C77.1191 20.5697 77.6944 21.133 78.3502 21.133H79.2071V28.0831C79.2071 30.5274 80.6382 31.9293 83.1335 31.9293C83.8754 31.9293 84.5051 31.8152 85.1108 31.5723C85.6009 31.3881 85.9052 30.9724 85.9052 30.4877C85.9052 29.8467 85.3522 29.3052 84.6978 29.3052Z" fill="#DF3B8D"/>
<path d="M34.0045 11.3126C33.9557 11.2789 33.907 11.2107 33.907 11.1221C33.907 10.9994 34.0114 10.8971 34.1434 10.8971C34.1922 10.8971 34.2411 10.9113 34.2759 10.9378C34.6446 11.1835 35.0275 11.3126 35.417 11.3126C35.8486 11.3126 36.1615 11.0945 36.1615 10.754V10.7404C36.1615 10.3855 35.7369 10.2492 35.2641 10.1194C34.7001 9.96336 34.0739 9.77214 34.0739 9.12501V9.11145C34.0739 8.50499 34.5888 8.10189 35.2987 8.10189C35.6813 8.10189 36.0988 8.21808 36.4467 8.40268C36.5164 8.44335 36.5793 8.51839 36.5793 8.6207C36.5793 8.74398 36.4744 8.84566 36.3427 8.84566C36.294 8.84566 36.2521 8.8321 36.2243 8.81855C35.9182 8.64813 35.5911 8.54535 35.2848 8.54535C34.8604 8.54535 34.5888 8.764 34.5888 9.05659V9.07015C34.5888 9.40451 35.0344 9.53378 35.5144 9.67708C36.0711 9.84072 36.6696 10.0523 36.6696 10.6859V10.6997C36.6696 11.3675 36.1058 11.7561 35.389 11.7561C34.916 11.7561 34.3938 11.5852 34.0045 11.3126Z" fill="#808285"/>
<path d="M37.6648 8.39572C37.6648 8.25258 37.7829 8.12977 37.9289 8.12977C38.0821 8.12977 38.2001 8.24596 38.2001 8.39572V8.75689C38.437 8.40928 38.7573 8.08847 39.3625 8.08847C39.947 8.08847 40.3227 8.39572 40.5174 8.79078C40.7751 8.40266 41.1577 8.08847 41.7842 8.08847C42.6116 8.08847 43.1202 8.63471 43.1202 9.5068V11.4555C43.1202 11.6058 43.0018 11.7216 42.8556 11.7216C42.7029 11.7216 42.5846 11.6058 42.5846 11.4555V9.62898C42.5846 8.94811 42.2362 8.56566 41.6519 8.56566C41.109 8.56566 40.6639 8.96104 40.6639 9.65625V11.4555C40.6639 11.6058 40.5457 11.7216 40.392 11.7216C40.2461 11.7216 40.1278 11.6058 40.1278 11.4555V9.61589C40.1278 8.95457 39.773 8.56566 39.2026 8.56566C38.6316 8.56566 38.2001 9.02914 38.2001 9.67706V11.4555C38.2001 11.6058 38.0889 11.7216 37.936 11.7216C37.7829 11.7216 37.6648 11.6058 37.6648 11.4555V8.39572Z" fill="#808285"/>
<path d="M44.0878 11.3126C44.0398 11.2789 43.9907 11.2107 43.9907 11.1221C43.9907 10.9994 44.0949 10.8971 44.2273 10.8971C44.2762 10.8971 44.3247 10.9113 44.3596 10.9378C44.7282 11.1835 45.1104 11.3126 45.5007 11.3126C45.9319 11.3126 46.2449 11.0945 46.2449 10.754V10.7404C46.2449 10.3855 45.821 10.2492 45.3478 10.1194C44.7839 9.96336 44.1576 9.77214 44.1576 9.12501V9.11145C44.1576 8.50499 44.6723 8.10189 45.3824 8.10189C45.7652 8.10189 46.1828 8.21808 46.5303 8.40268C46.6001 8.44335 46.6624 8.51839 46.6624 8.6207C46.6624 8.74398 46.5581 8.84566 46.426 8.84566C46.3776 8.84566 46.3357 8.8321 46.3079 8.81855C46.0013 8.64813 45.6745 8.54535 45.3683 8.54535C44.944 8.54535 44.6723 8.764 44.6723 9.05659V9.07015C44.6723 9.40451 45.118 9.53378 45.5978 9.67708C46.1548 9.84072 46.753 10.0523 46.753 10.6859V10.6997C46.753 11.3675 46.1897 11.7561 45.4724 11.7561C44.9994 11.7561 44.4777 11.5852 44.0878 11.3126Z" fill="#808285"/>
<path d="M49.8362 8.39572C49.8362 8.25258 49.9542 8.12977 50.1008 8.12977C50.2538 8.12977 50.3721 8.24596 50.3721 8.39572V8.75689C50.6087 8.40928 50.9288 8.08847 51.5342 8.08847C52.1187 8.08847 52.4945 8.39572 52.6893 8.79078C52.9468 8.40266 53.3292 8.08847 53.9556 8.08847C54.7834 8.08847 55.2919 8.63471 55.2919 9.5068V11.4555C55.2919 11.6058 55.1732 11.7216 55.027 11.7216C54.874 11.7216 54.7558 11.6058 54.7558 11.4555V9.62898C54.7558 8.94811 54.408 8.56566 53.8233 8.56566C53.2808 8.56566 52.8356 8.96104 52.8356 9.65625V11.4555C52.8356 11.6058 52.7168 11.7216 52.5637 11.7216C52.4178 11.7216 52.2991 11.6058 52.2991 11.4555V9.61589C52.2991 8.95457 51.9449 8.56566 51.374 8.56566C50.8033 8.56566 50.3721 9.02914 50.3721 9.67706V11.4555C50.3721 11.6058 50.2611 11.7216 50.1075 11.7216C49.9542 11.7216 49.8362 11.6058 49.8362 11.4555V8.39572Z" fill="#808285"/>
<path d="M56.1826 10.6658V10.6521C56.1826 9.90907 56.8082 9.51291 57.72 9.51291C58.1795 9.51291 58.5065 9.57486 58.8262 9.66346V9.54081C58.8262 8.90661 58.4299 8.57965 57.7547 8.57965C57.3933 8.57965 57.0867 8.66115 56.8224 8.77734C56.7881 8.79074 56.7527 8.79752 56.725 8.79752C56.6 8.79752 56.4886 8.6952 56.4886 8.57303C56.4886 8.46362 56.5649 8.38228 56.6347 8.35516C56.9894 8.20477 57.3511 8.11633 57.8108 8.11633C58.3187 8.11633 58.7077 8.24592 58.9726 8.50477C59.2166 8.74376 59.3418 9.08411 59.3418 9.53356V11.4631C59.3418 11.6129 59.23 11.7217 59.0838 11.7217C58.9311 11.7217 58.8262 11.6129 58.8262 11.4761V11.1559C58.5762 11.4761 58.1581 11.7628 57.5256 11.7628C56.8573 11.7628 56.1826 11.3878 56.1826 10.6658ZM58.8332 10.3929V10.0522C58.5691 9.97686 58.2146 9.90166 57.776 9.90166C57.101 9.90166 56.725 10.1884 56.725 10.6311V10.6446C56.725 11.0879 57.1425 11.3468 57.6295 11.3468C58.2909 11.3468 58.8332 10.9516 58.8332 10.3929Z" fill="#808285"/>
<path d="M63.9066 11.4555C63.9066 11.6059 63.7882 11.7218 63.6417 11.7218C63.4887 11.7218 63.3704 11.6059 63.3704 11.4555V10.9787C63.0781 11.4015 62.6535 11.7629 61.9924 11.7629C61.1298 11.7629 60.2739 11.0945 60.2739 9.93599V9.92259C60.2739 8.77036 61.1298 8.08871 61.9924 8.08871C62.6611 8.08871 63.0923 8.44325 63.3704 8.83894V6.94452C63.3704 6.79381 63.4816 6.67763 63.635 6.67763C63.7882 6.67763 63.9066 6.79381 63.9066 6.94452V11.4555ZM60.824 9.91518V9.92937C60.824 10.7608 61.4149 11.2928 62.09 11.2928C62.7578 11.2928 63.3911 10.7403 63.3911 9.92937V9.91518C63.3911 9.10441 62.7578 8.55944 62.09 8.55944C61.3944 8.55944 60.824 9.06358 60.824 9.91518Z" fill="#808285"/>
<path d="M66.6757 11.7697C65.6878 11.7697 64.8804 11.0268 64.8804 9.93624V9.92268C64.8804 8.9065 65.6114 8.08848 66.6064 8.08848C67.671 8.08848 68.2765 8.94056 68.2765 9.87476C68.2765 10.0176 68.1582 10.1196 68.0259 10.1196H65.4234C65.5 10.8835 66.0493 11.3126 66.6896 11.3126C67.1351 11.3126 67.4621 11.1421 67.7264 10.904C67.7686 10.8698 67.8173 10.8422 67.8794 10.8422C68.0122 10.8422 68.1164 10.9445 68.1164 11.0675C68.1164 11.1291 68.0884 11.1903 68.033 11.2378C67.6918 11.5581 67.2883 11.7697 66.6757 11.7697ZM67.7407 9.7313C67.685 9.09079 67.3091 8.53194 66.5922 8.53194C65.9661 8.53194 65.4928 9.04318 65.4234 9.7313H67.7407Z" fill="#808285"/>
<path d="M72.8833 11.7697C71.8945 11.7697 71.0876 11.0268 71.0876 9.93624V9.92268C71.0876 8.9065 71.818 8.08848 72.8128 8.08848C73.8781 8.08848 74.4833 8.94056 74.4833 9.87476C74.4833 10.0176 74.365 10.1196 74.2327 10.1196H71.6299C71.7066 10.8835 72.2563 11.3126 72.8965 11.3126C73.3423 11.3126 73.6692 11.1421 73.9335 10.904C73.9753 10.8698 74.0238 10.8422 74.0867 10.8422C74.2187 10.8422 74.3238 10.9445 74.3238 11.0675C74.3238 11.1291 74.2955 11.1903 74.2401 11.2378C73.8989 11.5581 73.4954 11.7697 72.8833 11.7697ZM73.9475 9.7313C73.8918 9.09079 73.5165 8.53194 72.7995 8.53194C72.1732 8.53194 71.6999 9.04318 71.6299 9.7313H73.9475Z" fill="#808285"/>
<path d="M75.1584 10.6658V10.6521C75.1584 9.90907 75.7845 9.51291 76.6963 9.51291C77.1551 9.51291 77.4825 9.57486 77.8028 9.66346V9.54081C77.8028 8.90661 77.4064 8.57965 76.7307 8.57965C76.3689 8.57965 76.0631 8.66115 75.7989 8.77734C75.7638 8.79074 75.729 8.79752 75.7012 8.79752C75.5756 8.79752 75.4646 8.6952 75.4646 8.57303C75.4646 8.46362 75.5409 8.38228 75.6112 8.35516C75.9659 8.20477 76.3279 8.11633 76.7867 8.11633C77.2947 8.11633 77.6842 8.24592 77.9486 8.50477C78.1923 8.74376 78.3175 9.08411 78.3175 9.53356V11.4631C78.3175 11.6129 78.206 11.7217 78.0598 11.7217C77.9071 11.7217 77.8028 11.6129 77.8028 11.4761V11.1559C77.5522 11.4761 77.1347 11.7628 76.5014 11.7628C75.8335 11.7628 75.1584 11.3878 75.1584 10.6658ZM77.8096 10.3929V10.0522C77.5451 9.97686 77.1906 9.90166 76.752 9.90166C76.077 9.90166 75.7012 10.1884 75.7012 10.6311V10.6446C75.7012 11.0879 76.1183 11.3468 76.6057 11.3468C77.2672 11.3468 77.8096 10.9516 77.8096 10.3929Z" fill="#808285"/>
<path d="M79.2639 11.3126C79.2148 11.2789 79.166 11.2107 79.166 11.1221C79.166 10.9994 79.271 10.8971 79.4033 10.8971C79.4514 10.8971 79.5 10.9113 79.5351 10.9378C79.904 11.1835 80.2864 11.3126 80.6765 11.3126C81.1078 11.3126 81.4206 11.0945 81.4206 10.754V10.7404C81.4206 10.3855 80.9968 10.2492 80.5226 10.1194C79.9596 9.96336 79.3337 9.77214 79.3337 9.12501V9.11145C79.3337 8.50499 79.8481 8.10189 80.558 8.10189C80.9406 8.10189 81.3584 8.21808 81.7058 8.40268C81.7758 8.44335 81.8384 8.51839 81.8384 8.6207C81.8384 8.74398 81.7341 8.84566 81.6011 8.84566C81.553 8.84566 81.5115 8.8321 81.4832 8.81855C81.1774 8.64813 80.85 8.54535 80.5442 8.54535C80.1198 8.54535 79.8481 8.764 79.8481 9.05659V9.07015C79.8481 9.40451 80.2933 9.53378 80.7735 9.67708C81.3301 9.84072 81.9287 10.0523 81.9287 10.6859V10.6997C81.9287 11.3675 81.3649 11.7561 80.6483 11.7561C80.175 11.7561 79.6534 11.5852 79.2639 11.3126Z" fill="#808285"/>
<path d="M82.7709 12.6962C82.6872 12.6623 82.6042 12.5942 82.6042 12.4713C82.6042 12.3421 82.7154 12.2467 82.834 12.2467C82.8825 12.2467 82.924 12.2606 82.9657 12.2735C83.0703 12.3082 83.1752 12.3359 83.3561 12.3359C83.6896 12.3359 83.8842 12.1378 84.0791 11.708L84.1071 11.6536L82.6042 8.53212C82.5834 8.48451 82.5696 8.43611 82.5696 8.38913C82.5696 8.24599 82.6872 8.12965 82.8408 8.12965C82.9871 8.12965 83.0632 8.21824 83.1118 8.33396L84.3653 11.1016L85.4774 8.32733C85.5201 8.21824 85.5967 8.12965 85.7357 8.12965C85.8817 8.12965 86 8.24599 86 8.38913C86 8.42965 85.9858 8.47741 85.9718 8.51856L84.5663 11.8031C84.2531 12.5325 83.9056 12.7985 83.3627 12.7985C83.1261 12.7985 82.9523 12.7579 82.7709 12.6962Z" fill="#808285"/>
<path d="M5.72535 14.905C5.693 15.0683 3.40643 14.6833 2.44478 13.7407C1.48312 12.7998 1.31365 11.8577 0.0123934 11.4699C0.0123934 11.4699 1.33972 10.7193 2.84071 12.0241C2.84071 12.0241 2.67107 10.3621 0.521628 9.58617C0.521628 9.58617 1.4416 8.861 3.02531 9.47045C3.02531 9.47045 2.67928 7.26989 0 6.59249C0 6.59249 0.845935 5.52192 3.35107 6.81823C1.79101 5.93858 1.15318 5.40637 0.893092 4.27211C0.682735 3.35367 1.10216 2.54952 1.44787 1.99997C1.44787 1.99997 1.45447 3.35036 2.35819 4.06355C3.2928 4.80069 4.86364 4.98971 5.14256 7.69222C5.14256 7.69222 5.71022 6.42381 4.86171 4.53932C4.86171 4.53932 6.80643 5.36475 6.74334 7.64697C6.74334 7.64697 7.79222 7.17719 7.73541 5.23832C7.73541 5.23832 9.0056 6.04041 8.8358 8.31224C8.8358 8.31224 9.39927 6.88854 10.9854 7.09301C10.9854 7.09301 10.05 8.19416 10.2418 9.34371C10.4364 10.5076 10.0909 11.8829 10.0909 11.8829C10.0909 11.8829 6.41726 11.3751 5.72535 14.905Z" fill="#DF3B8D"/>
</g>
<defs>
<clipPath id="clip0_2384_5608">
<rect width="86" height="34" fill="white"/>
</clipPath>
</defs>
</svg>
