<svg width="52" height="32" viewBox="0 0 52 32" fill="none" xmlns="http://www.w3.org/2000/svg">
<g clip-path="url(#clip0_2384_5726)">
<path d="M21.9726 30.4H20.9396L20.6959 31.7731H18.328L18.5717 30.4H15.2173L15.5307 28.6525L19.8717 24.1248H22.0655L21.2762 28.5277H22.3092L21.9726 30.4ZM18.9084 28.5163L19.1521 27.0865L17.8057 28.5163H18.9084ZM25.6057 27.1546C26.0467 26.8709 26.5807 26.7348 27.1959 26.7348C27.811 26.7348 28.2985 26.8823 28.6467 27.2C28.995 27.5177 29.1691 27.9943 29.1691 28.6298C29.1691 29.6397 28.8325 30.4454 28.1709 31.0241C27.4976 31.6142 26.7084 31.9092 25.7798 31.9092C23.9226 31.9092 22.8896 30.7745 22.8896 28.9589C22.8896 27.166 23.5396 25.6227 24.8744 24.7149C25.5244 24.261 26.3021 24.0341 27.1842 24.0341C28.078 24.0341 29.32 24.295 29.32 25.2369C29.32 25.6 29.0646 26.0993 28.7164 26.4284C28.3101 26.0766 27.811 25.9064 27.2539 25.9064C26.2209 25.8951 25.8146 26.3603 25.6057 27.1546ZM25.211 28.6979C25.1414 29.2766 25.1762 30.0255 25.9423 30.0255C26.4762 30.0255 26.8244 29.6397 26.8244 28.9362C26.8244 28.5504 26.6039 28.3007 26.2441 28.3007C25.8842 28.3007 25.5476 28.4369 25.211 28.6979ZM35.0655 29.7986C35.228 30.0255 35.3092 30.2865 35.3092 30.5929C35.3092 31.5802 34.4155 31.8979 32.9994 31.8979C32.1753 31.8979 31.5021 31.6823 30.9566 31.2511C30.411 30.8312 30.1325 30.2185 30.1325 29.4241C30.1325 28.4823 30.4923 27.7107 31.1887 27.0979C31.8851 26.4851 32.686 26.1901 33.603 26.1901C34.3342 26.1901 34.903 26.3603 35.286 26.7007C35.6691 27.0411 35.878 27.4383 35.8664 27.8922C35.8664 29.0383 35.17 29.617 33.7539 29.617C33.1619 29.617 32.6396 29.5263 32.2101 29.356C32.1289 30.0029 32.6744 30.3433 33.4869 30.3433C34.2182 30.3433 34.7405 30.1617 35.0655 29.7986ZM32.4075 28.4482C32.6164 28.5277 32.9182 28.5617 33.3128 28.5617C33.8119 28.5617 34.0557 28.4142 34.0557 28.0965C34.0557 27.8695 33.8932 27.688 33.5798 27.688C33.0691 27.6766 32.6628 27.9376 32.4075 28.4482ZM38.3039 31.7731H36.0405L37.1896 25.4185C37.2941 24.9192 37.3173 24.5333 37.2592 24.2383C37.5842 24.1475 37.9441 24.1135 38.3735 24.1135C39.3021 24.1135 39.6387 24.5447 39.4762 25.4298L38.3039 31.7731ZM42.5753 27.1206C43.2021 26.4965 43.9798 26.1901 44.92 26.1901C45.8834 26.1901 46.3476 26.644 46.336 27.461C46.3128 28.5617 45.1405 29.3333 44.2816 29.4128C44.4092 29.8894 44.8619 30.2298 45.4423 30.2298C45.628 30.2298 45.8253 30.1844 46.0226 30.0936C46.1503 30.3433 46.1967 30.5929 46.1967 30.8653C46.1967 31.5575 45.7905 31.9092 44.9664 31.9092C44.3396 31.9092 43.8173 31.705 43.4226 31.2511C42.3548 30.0142 42.7959 28.5504 42.7959 28.5504C43.2369 28.5844 43.6316 28.539 43.9566 28.4255C44.2816 28.3007 44.4441 28.1532 44.4441 27.983C44.4441 27.7787 44.2816 27.6653 43.945 27.6653C43.3182 27.6653 42.7726 27.9943 42.2851 28.6298L41.7164 31.7844H39.4298L40.5789 25.4298C40.6834 24.9305 40.7066 24.5447 40.6485 24.2497C40.9735 24.1589 41.3334 24.1248 41.7744 24.1248C42.703 24.1248 43.0512 24.556 42.8887 25.4411L42.5753 27.1206ZM49.5164 30.105C49.5164 29.9688 49.2959 29.8326 48.8432 29.7192C48.3557 29.583 48.0655 29.4695 47.6825 29.2199C47.2878 28.9702 47.0789 28.6071 47.0789 28.1192C47.0789 27.4837 47.3342 26.9958 47.8566 26.6667C48.3789 26.3376 49.0405 26.1787 49.853 26.1787C50.6539 26.1787 51.9539 26.3943 51.9539 27.1773C51.9539 27.5291 51.7914 27.8922 51.4432 28.278C51.0718 27.9036 50.503 27.7107 49.7369 27.7107C49.3887 27.7107 49.2146 27.7901 49.2146 27.949C49.2146 28.0738 49.3887 28.1646 49.8646 28.3121C50.4566 28.4823 50.7351 28.5958 51.1182 28.8454C51.4896 29.095 51.6637 29.4468 51.6637 29.9348C51.6637 31.2397 50.6423 31.8979 48.7851 31.8979C47.3226 31.8979 46.5914 31.5461 46.5914 30.8426C46.5914 30.4341 46.7539 30.0482 47.0905 29.6965C47.4967 30.0823 48.286 30.366 49.0057 30.366C49.3423 30.3433 49.5164 30.2638 49.5164 30.105Z" fill="#37C1EA"/>
<path d="M23.8529 16.5674C23.6324 16.3972 23.3538 16.2496 23.0172 16.1248L17.2717 13.9688C17.585 13.9915 17.8868 14.0028 18.177 14.0028C20.1154 14.0028 21.7172 13.5376 22.9708 12.5957C25.6868 10.5645 25.6174 7.11489 25.6174 6.97872C25.6056 6.53617 25.2225 6.17305 24.7699 6.19574C24.3172 6.20709 23.9458 6.58156 23.969 7.02411C23.969 7.0468 24.027 9.78156 21.9725 11.3135C21.485 11.6766 20.9163 11.9489 20.2779 12.1305C22.1118 10.417 22.2047 7.87517 22.2047 7.75035C22.2163 7.3078 21.8565 6.93333 21.4038 6.92198C20.9511 6.91063 20.5681 7.26241 20.5565 7.70496C20.5565 7.72766 20.4752 10.0539 18.7574 11.2681C18.3975 11.5177 17.9913 11.7106 17.5386 11.8355C18.8618 10.4624 18.9315 8.56737 18.9315 8.47659C18.9431 8.03404 18.5833 7.65957 18.1306 7.64822C17.6779 7.63688 17.2949 7.98865 17.2833 8.4312C17.2833 8.4539 17.202 10.1674 15.9717 11.0411C15.194 11.5972 14.0797 11.6879 12.652 11.4156C10.7484 11.0525 9.5413 10.3603 9.0538 9.339C8.32255 7.81844 9.3788 5.91205 9.40201 5.87801C9.65737 5.43546 9.49487 4.86808 9.04219 4.61844C8.58951 4.36879 8.00915 4.51631 7.7538 4.97021C7.69576 5.07234 6.51183 7.14893 7.03415 9.29361C6.68594 8.96453 6.41898 8.61276 6.23326 8.2156C5.22344 6.10496 6.67433 3.52907 6.69755 3.48368C6.9529 3.04113 6.7904 2.47375 6.33773 2.22411C5.88505 1.97446 5.30469 2.12198 5.04933 2.57588C4.97969 2.70071 3.34308 5.57163 4.26005 8.37446C3.66808 7.86383 3.23862 7.29645 2.96005 6.66099C1.85737 4.18723 3.56362 1.50922 3.57523 1.47517C3.8538 1.04397 3.72612 0.476591 3.28505 0.192903C2.84398 -0.0794372 2.26362 0.0453856 1.97344 0.476591C1.88058 0.624109 -0.289953 3.99432 1.20737 7.37588C2.33326 9.91773 5.1654 11.6766 9.62255 12.6184C9.98237 12.7092 11.3752 13.0269 11.5261 13.061C11.5029 13.061 11.4797 13.061 11.4797 13.061L5.78058 13.4582C5.78058 13.4582 6.36094 16.6468 10.6904 14.7404L1.7413 21.0269C-0.986382 23.3305 -0.081025 27.0979 2.2404 28.0738C3.67969 28.6752 7.39398 30.3319 10.3074 31.6369C11.2359 28.766 14.2538 17.8723 20.1502 19.2227C20.4752 20.1532 21.369 20.8227 22.4368 20.8227C23.7717 20.8227 24.8511 19.7674 24.8511 18.4624C24.8395 17.6908 24.4449 16.9986 23.8529 16.5674ZM14.6833 16.6241C14.1958 16.6241 13.7895 16.2383 13.7895 15.7504C13.7895 15.2738 14.1842 14.8766 14.6833 14.8766C15.1708 14.8766 15.577 15.2624 15.577 15.7504C15.577 16.2269 15.1708 16.6241 14.6833 16.6241Z" fill="#37C1EA"/>
</g>
<defs>
<clipPath id="clip0_2384_5726">
<rect width="52" height="32" fill="white"/>
</clipPath>
</defs>
</svg>
