<svg width="104" height="29" viewBox="0 0 104 29" fill="none" xmlns="http://www.w3.org/2000/svg">
<g clip-path="url(#clip0_2384_5411)">
<path d="M86.1015 7.92371V13.4836C86.1015 14.4644 86.4613 15.1546 87.3573 15.1546C88.8921 15.1546 89.4702 12.9944 89.4702 10.6111V7.92371H92.4605L92.4485 17.5992H90.4154L89.7497 13.8324C89.3707 16.1348 88.2348 17.6219 86.3012 17.6219C84.0882 17.6219 83.1118 16.0533 83.1118 13.486V7.92371H86.1015Z" fill="#1F1F1F"/>
<path d="M37.9042 7.9053C37.9923 7.73513 38.04 7.54612 38.0434 7.35361C38.0434 6.88467 37.7645 6.61801 37.2463 6.59962L38.1459 5.15295C39.2224 5.19341 39.9001 5.80518 39.9001 6.66092C39.9001 7.29231 39.5613 7.78148 38.7439 8.27004C39.1872 8.50336 39.5593 8.85672 39.8194 9.29152C40.0796 9.72632 40.2179 10.2258 40.2192 10.7355C40.2192 12.4268 38.6443 13.8937 35.8339 13.8937C35.1232 13.9078 34.4153 13.7975 33.7409 13.5675C33.6077 13.6198 33.491 13.7082 33.4032 13.823C33.3154 13.9379 33.2599 14.0751 33.2425 14.2198C33.2425 14.7494 33.8008 14.9118 34.4983 14.9118H36.7108C39.6213 14.9118 41.0762 15.9919 41.0762 17.6421C41.0762 19.7208 39.1229 20.8003 35.6546 20.8003C32.7639 20.8003 30.4321 20.148 30.4321 18.5592C30.4321 17.4588 31.7671 16.8275 33.462 16.8072C31.7875 16.562 30.9305 16.0532 30.9305 14.9118C30.9305 13.8937 32.1066 13.3634 33.0032 13.2212C32.5437 12.9975 32.1556 12.6452 31.884 12.2053C31.6124 11.7653 31.4683 11.2557 31.4685 10.7355C31.4685 8.88119 33.1627 7.55712 35.8339 7.55712C36.538 7.55707 37.2373 7.67468 37.9042 7.9053ZM35.173 17.0328C33.9574 17.0328 33.2197 17.3589 33.2197 18.0927C33.2197 18.8663 34.1763 19.2739 35.771 19.2739C37.4058 19.2739 38.3426 18.7835 38.3426 17.9903C38.3426 17.4386 37.8245 17.0328 36.7479 17.0328H35.173ZM35.8327 9.10739C35.4098 9.10739 35.0042 9.27911 34.7051 9.58479C34.4061 9.89047 34.238 10.3051 34.238 10.7373C34.238 11.1696 34.4061 11.5842 34.7051 11.8899C35.0042 12.1956 35.4098 12.3673 35.8327 12.3673C36.0451 12.3789 36.2575 12.3446 36.4561 12.2668C36.6548 12.189 36.8351 12.0693 36.9855 11.9156C37.1359 11.7619 37.253 11.5775 37.3291 11.3745C37.4053 11.1715 37.4388 10.9544 37.4274 10.7373C37.4424 10.5192 37.4114 10.3003 37.3364 10.0955C37.2614 9.89067 37.1443 9.7047 36.9929 9.55015C36.8416 9.39561 36.6595 9.2761 36.459 9.19971C36.2585 9.12332 36.0443 9.09184 35.8309 9.10739H35.8327Z" fill="#1F1F1F"/>
<path d="M58.6142 17.6648C57.0195 17.6648 56.1625 16.6049 55.6641 15.4028V20.8021H52.6738V7.96658H54.4083L55.0458 10.9819C55.4248 9.47393 56.262 7.76245 58.5344 7.76245C61.0461 7.76245 62.4213 9.90181 62.4213 12.7136C62.4213 15.5254 61.0857 17.6648 58.6142 17.6648ZM57.5779 9.80005C56.5211 9.80005 55.6641 10.9034 55.6641 12.7136C55.6641 14.5238 56.5211 15.6272 57.5779 15.6272C58.7935 15.6272 59.4316 14.4251 59.4316 12.7136C59.4316 11.0021 58.7935 9.80005 57.5779 9.80005Z" fill="#1F1F1F"/>
<path d="M44.5215 7.92371V13.4836C44.5215 14.4644 44.8814 15.1546 45.7768 15.1546C47.3121 15.1546 47.8902 12.9944 47.8902 10.6111V7.92371H50.8799L50.8685 17.5992H48.8354L48.1691 13.8324C47.7901 16.1348 46.6542 17.6219 44.7206 17.6219C42.5082 17.6219 41.5312 16.0533 41.5312 13.486V7.92371H44.5215Z" fill="#1F1F1F"/>
<path d="M67.1389 17.6194C66.3097 17.6479 65.4854 17.4791 64.7311 17.1262C63.9767 16.7733 63.3129 16.2461 62.792 15.5861L64.1174 14.1915C64.4525 14.6736 64.8893 15.0725 65.3954 15.359C65.9016 15.6454 66.4642 15.8121 67.0417 15.8466C67.8214 15.8466 68.0745 15.4678 68.0745 15.0497C68.0745 14.5722 67.6654 14.2731 66.5931 13.9145C64.0394 13.0563 63.2796 12.1809 63.2796 10.6043C63.2796 8.73159 64.8389 7.9347 66.9637 7.9347C68.4401 7.92474 69.8638 8.49537 70.94 9.52849L69.9066 10.9635C69.1337 10.2134 68.1251 9.76844 67.0609 9.7081C66.4762 9.7081 66.1451 9.94717 66.1451 10.4057C66.1451 11.0628 66.6909 11.2026 68.0355 11.7402C69.8875 12.4758 70.94 13.155 70.94 14.7089C70.94 16.5436 69.4778 17.6194 67.1389 17.6194Z" fill="#1F1F1F"/>
<path d="M78.5274 17.6194V12.0577C78.5274 11.0769 78.1676 10.3867 77.2716 10.3867C75.7369 10.3867 75.1587 12.5463 75.1587 14.9302V17.6194H72.1685V4.05017H75.1587V11.3853C75.5372 9.18462 76.733 7.92124 78.3277 7.92124C80.5407 7.92124 81.5171 9.49051 81.5171 12.0577V17.6194H78.5274Z" fill="#1F1F1F"/>
<path d="M100.194 17.6648C98.5996 17.6648 97.742 16.6049 97.2436 15.4028V20.8021H94.2539V7.96658H95.9883L96.6259 10.9819C97.0049 9.47393 97.8421 7.76245 100.115 7.76245C102.626 7.76245 104.001 9.90181 104.001 12.7136C104.001 15.5254 102.666 17.6648 100.194 17.6648ZM99.1573 9.80005C98.1012 9.80005 97.2436 10.9034 97.2436 12.7136C97.2436 14.5238 98.1012 15.6272 99.1573 15.6272C100.374 15.6272 101.011 14.4251 101.011 12.7136C101.011 11.0021 100.374 9.80005 99.1573 9.80005Z" fill="#1F1F1F"/>
<path d="M19.0664 15.5217C19.0107 15.99 18.7967 16.4237 18.4613 16.7477C18.1313 17.0949 17.6965 17.3182 17.227 17.3816C15.2502 17.5704 13.2666 17.6778 11.2813 17.7034C10.5026 17.7125 9.75839 18.0334 9.20859 18.5971L6.60214 21.2618V19.1568C6.6013 18.7397 6.44638 18.3382 6.16838 18.0328C5.89038 17.7274 5.5098 17.5406 5.1028 17.5097C4.59243 17.4723 4.07786 17.4282 3.56928 17.3797C3.09984 17.3163 2.66502 17.093 2.33503 16.7459C2.00155 16.4229 1.78899 15.991 1.73409 15.5248C1.5014 12.4475 1.5014 9.35635 1.73409 6.279C1.78851 5.81072 2.00203 5.37683 2.33743 5.05301C2.66738 4.70575 3.10219 4.48224 3.57168 4.41856C8.11368 3.98271 12.6856 3.98271 17.2276 4.41856C17.6971 4.48224 18.1319 4.70575 18.4619 5.05301C18.7973 5.37706 19.0113 5.81072 19.067 6.279C19.2976 9.35542 19.2974 12.4454 19.0664 15.5217Z" fill="#5E34F1" stroke="#5E34F1"/>
<path d="M19.696 26.4975C19.5521 26.4974 19.4097 26.4682 19.2768 26.4118C19.144 26.3553 19.0233 26.2725 18.9218 26.1683L15.5279 22.7012C15.2657 22.4306 14.9097 22.2764 14.5371 22.2721C13.3551 22.2574 12.8075 22.242 11.8941 22.1801C11.6942 22.1579 11.5104 22.0576 11.3811 21.9001C11.2519 21.7427 11.1871 21.5402 11.2004 21.3351C11.2138 21.13 11.3041 20.9381 11.4526 20.7995C11.6011 20.6609 11.7962 20.5863 11.9973 20.5912C12.8747 20.6525 13.406 20.666 14.5557 20.6801C15.3348 20.6884 16.0794 21.0094 16.629 21.5739L19.2349 24.2373V22.1372C19.2357 21.7202 19.3905 21.3188 19.6684 21.0134C19.9463 20.708 20.3267 20.5211 20.7336 20.4901C21.244 20.4521 21.7597 20.4086 22.2671 20.3601C22.7375 20.2967 23.1733 20.0732 23.5044 19.7257C23.8396 19.4016 24.0532 18.9679 24.1083 18.4997C24.341 15.4223 24.341 12.3312 24.1083 9.25388C24.0447 8.83996 23.8687 8.45258 23.6004 8.13582C23.332 7.81907 22.9821 7.58564 22.5904 7.4621C22.4003 7.3948 22.2431 7.25503 22.1515 7.07201C22.0599 6.88898 22.0411 6.67686 22.0989 6.47997C22.1567 6.28308 22.2868 6.11665 22.4619 6.01546C22.6369 5.91427 22.8435 5.88615 23.0384 5.93697C23.7308 6.15233 24.3472 6.56851 24.8128 7.13499C25.2783 7.70147 25.573 8.3939 25.661 9.12822C25.8997 12.289 25.8997 15.4639 25.661 18.6248C25.5619 19.4684 25.1891 20.2539 24.6021 20.8556C24.015 21.4573 23.2476 21.8405 22.4224 21.9441H22.417C21.8983 21.9932 21.3705 22.0379 20.8487 22.0765C20.8343 22.0786 20.8211 22.086 20.8117 22.0973C20.8022 22.1085 20.797 22.123 20.7972 22.1378V25.3757C20.7971 25.5233 20.7685 25.6694 20.7131 25.8057C20.6577 25.942 20.5765 26.0658 20.4743 26.17C20.372 26.2742 20.2506 26.3568 20.1171 26.413C19.9835 26.4691 19.8405 26.4979 19.696 26.4975Z" fill="#FF3964"/>
<path d="M20.6184 6.1526C20.5191 5.30913 20.1462 4.52398 19.5591 3.92253C18.9721 3.32107 18.2049 2.938 17.3799 2.83446H17.3733C12.734 2.38851 8.06395 2.38851 3.42464 2.83446H3.41804C2.59269 2.93811 1.82515 3.32154 1.23808 3.92348C0.651006 4.52543 0.278284 5.31114 0.179473 6.15505C-0.0598242 9.31584 -0.0598242 12.4908 0.179473 15.6516C0.279159 16.4947 0.652268 17.2795 1.23926 17.8805C1.82626 18.4816 2.59332 18.8644 3.41804 18.9679H3.42464C3.94341 19.0182 4.47117 19.0623 4.99294 19.0997C5.00735 19.1018 5.02053 19.1091 5.03002 19.1204C5.03951 19.1317 5.04466 19.1461 5.04452 19.161V22.4C5.04457 22.6213 5.10896 22.8376 5.22952 23.0214C5.35008 23.2052 5.52137 23.3482 5.72162 23.4323C5.8548 23.4885 5.99738 23.5176 6.14143 23.5182C6.28506 23.5181 6.42727 23.4892 6.55992 23.4329C6.69257 23.3766 6.81306 23.2941 6.91449 23.1902L10.3102 19.7206C10.5723 19.4498 10.9283 19.2956 11.301 19.2915C13.3023 19.267 15.3468 19.1573 17.3739 18.9636H17.3805C18.2055 18.8601 18.9727 18.477 19.5597 17.8755C20.1468 17.2741 20.5197 16.4889 20.619 15.6455C20.8574 12.4859 20.8572 9.31217 20.6184 6.1526ZM19.0663 15.5216C19.0106 15.9899 18.7966 16.4236 18.4612 16.7476C18.1312 17.0947 17.6964 17.318 17.2269 17.3815C15.25 17.5703 13.2665 17.6776 11.2812 17.7033C10.5024 17.7124 9.75828 18.0333 9.20848 18.597L6.60203 21.2617V19.1567C6.60119 18.7395 6.44627 18.3381 6.16827 18.0327C5.89027 17.7273 5.50969 17.5405 5.10269 17.5096C4.59232 17.4722 4.07775 17.428 3.56917 17.3796C3.09973 17.3162 2.66491 17.0929 2.33492 16.7458C2.00144 16.4228 1.78888 15.9909 1.73398 15.5247C1.50129 12.4473 1.50129 9.35623 1.73398 6.27888C1.7884 5.8106 2.00192 5.37671 2.33732 5.05289C2.66727 4.70563 3.10208 4.48212 3.57157 4.41844C8.11357 3.98259 12.6855 3.98259 17.2275 4.41844C17.697 4.48212 18.1318 4.70563 18.4618 5.05289C18.7972 5.37694 19.0112 5.8106 19.0669 6.27888C19.2975 9.3553 19.2973 12.4452 19.0663 15.5216Z" fill="#5E34F1"/>
<path d="M7.55138 14.1406C7.41327 14.1407 7.27839 14.098 7.16455 14.018L4.21746 11.9578C4.12543 11.8933 4.05015 11.8069 3.99814 11.706C3.94613 11.6051 3.91895 11.4928 3.91895 11.3788C3.91895 11.2648 3.94613 11.1524 3.99814 11.0516C4.05015 10.9507 4.12543 10.8643 4.21746 10.7998L7.16455 8.73893C7.31479 8.6339 7.49968 8.59418 7.67857 8.62849C7.85746 8.66281 8.01568 8.76835 8.11843 8.92191C8.22118 9.07546 8.26005 9.26444 8.22648 9.44729C8.1929 9.63013 8.08964 9.79185 7.93941 9.89688L5.82055 11.3785L7.93941 12.8601C8.06022 12.9449 8.15134 13.0669 8.19944 13.2084C8.24754 13.3499 8.2501 13.5033 8.20675 13.6464C8.16339 13.7895 8.0764 13.9146 7.95849 14.0036C7.84057 14.0925 7.69792 14.1405 7.55138 14.1406Z" fill="white"/>
<path d="M23.5044 19.7256C23.8396 19.4016 24.0532 18.9679 24.1083 18.4996C24.341 15.4223 24.341 12.3312 24.1083 9.25384C24.0447 8.83991 23.8687 8.45254 23.6004 8.13578C23.332 7.81902 22.9821 7.58559 22.5904 7.46205C22.4417 7.41681 22.3099 7.32688 22.2119 7.20398C22.4693 10.7649 22.4649 14.3405 22.1987 17.9008C22.132 18.4519 21.8797 18.9621 21.4851 19.3437C21.096 19.753 20.5835 20.0165 20.0301 20.0916C17.6911 20.3147 15.3324 20.4416 13.0216 20.4704C12.7229 20.4757 12.4261 20.5195 12.1382 20.601C12.9364 20.6531 13.4708 20.6672 14.5599 20.6807C15.339 20.689 16.0836 21.01 16.6332 21.5744L19.239 24.2379V22.1372C19.2398 21.7208 19.394 21.32 19.671 21.0148C19.948 20.7095 20.3274 20.5221 20.7336 20.49C21.244 20.452 21.7597 20.4085 22.2671 20.3601C22.7375 20.2966 23.1733 20.0731 23.5044 19.7256Z" fill="#FF3964"/>
<path d="M13.2489 14.1406C13.1023 14.1405 12.9597 14.0925 12.8418 14.0036C12.7239 13.9146 12.6369 13.7895 12.5935 13.6464C12.5502 13.5033 12.5527 13.3499 12.6008 13.2084C12.6489 13.0669 12.74 12.9449 12.8609 12.8601L14.9797 11.3785L12.8609 9.89688C12.7106 9.79185 12.6074 9.63013 12.5738 9.44729C12.5402 9.26444 12.5791 9.07546 12.6818 8.92191C12.7846 8.76835 12.9428 8.66281 13.1217 8.62849C13.3006 8.59418 13.4855 8.6339 13.6357 8.73893L16.5828 10.7998C16.6748 10.8643 16.7501 10.9507 16.8021 11.0516C16.8541 11.1524 16.8813 11.2648 16.8813 11.3788C16.8813 11.4928 16.8541 11.6051 16.8021 11.706C16.7501 11.8069 16.6748 11.8933 16.5828 11.9578L13.6357 14.018C13.5218 14.0979 13.387 14.1406 13.2489 14.1406Z" fill="white"/>
<path d="M9.39537 16.1991C9.29101 16.1992 9.188 16.175 9.09418 16.1283C9.00036 16.0816 8.91819 16.0136 8.85394 15.9296C8.78969 15.8455 8.74505 15.7476 8.72341 15.6433C8.70177 15.5389 8.7037 15.4309 8.72906 15.3274L10.7454 7.08448C10.7895 6.90402 10.902 6.74888 11.058 6.65318C11.2141 6.55747 11.4009 6.52905 11.5775 6.57417C11.7541 6.61928 11.9058 6.73423 11.9995 6.89374C12.0931 7.05325 12.1209 7.24424 12.0768 7.4247L10.0611 15.6695C10.0236 15.8209 9.93775 15.9552 9.81717 16.0511C9.6966 16.147 9.54816 16.1991 9.39537 16.1991Z" fill="white"/>
</g>
<defs>
<clipPath id="clip0_2384_5411">
<rect width="104" height="28" fill="white" transform="translate(0 0.5)"/>
</clipPath>
</defs>
</svg>
