<svg width="80" height="20" viewBox="0 0 80 20" fill="none" xmlns="http://www.w3.org/2000/svg">
<g clip-path="url(#clip0_691_23870)">
<path d="M1.67625 19.9997H5.58751V9.71401L0 5.14258V18.1783C0 19.1783 0.755957 19.9997 1.67625 19.9997Z" fill="#4285F4"/>
<path d="M18.9648 19.9997H22.8761C23.7964 19.9997 24.5524 19.1783 24.5524 18.1783V5.14258L18.9648 9.67829" fill="#34A853"/>
<path d="M18.9646 1.82146V9.71431L24.5521 5.1786V2.71431C24.5521 0.464314 22.1856 -0.8214 20.5422 0.535743" fill="#FBBC04"/>
<path d="M5.58789 9.71317V1.82031L12.2929 7.2846L18.965 1.82031V9.71317L12.26 15.1417" fill="#EA4335"/>
<path d="M0 2.71419V5.14276L5.58751 9.67848V1.82133L4.00986 0.535618C2.36647 -0.785811 0 0.499904 0 2.71419Z" fill="#C5221F"/>
<path d="M47.8228 10.9297C47.8228 12.894 47.2969 14.5011 46.2123 15.6797C44.9962 17.0725 43.3856 17.7868 41.4136 17.7868C39.5072 17.7868 37.9296 17.0725 36.6149 15.644C35.3002 14.2154 34.6428 12.4654 34.6428 10.3583C34.6428 8.28683 35.3002 6.50112 36.6149 5.07254C37.9296 3.64397 39.5401 2.92969 41.4136 2.92969C42.3667 2.92969 43.287 3.10826 44.1416 3.50112C44.9962 3.85826 45.6864 4.39397 46.2451 5.07254L45.029 6.39397C44.6346 5.85826 44.1087 5.4654 43.4842 5.14397C42.8597 4.85826 42.1695 4.7154 41.4464 4.7154C40.0331 4.7154 38.817 5.25112 37.831 6.32255C36.845 7.39397 36.3848 8.75112 36.3848 10.394C36.3848 12.0368 36.8778 13.3583 37.831 14.4654C38.817 15.5368 40.0331 16.0725 41.4464 16.0725C42.7611 16.0725 43.8129 15.6797 44.7003 14.894C45.5549 14.1083 46.0479 13.0011 46.1794 11.6083H41.4136V9.89397H47.7242C47.7899 10.2154 47.8228 10.5725 47.8228 10.9297Z" fill="#444746"/>
<path d="M51.2409 17.4297H49.5647V7.7154H51.1752V9.07254H51.2409C51.5039 8.60826 51.8983 8.2154 52.4242 7.89397C52.9501 7.57255 53.476 7.42969 54.0018 7.42969C54.6592 7.42969 55.2508 7.60826 55.7438 7.92969C56.2368 8.25112 56.5984 8.7154 56.8285 9.28683C57.5844 8.03683 58.6033 7.42969 59.918 7.42969C60.9369 7.42969 61.7586 7.78683 62.3174 8.4654C62.8761 9.14397 63.1719 10.144 63.1719 11.394V17.4654H61.4628V11.644C61.4628 10.7154 61.2985 10.0725 61.0027 9.67969C60.7069 9.28683 60.181 9.07254 59.4579 9.07254C58.8005 9.07254 58.2746 9.35826 57.8474 9.9654C57.4201 10.5725 57.19 11.2511 57.19 12.0725V17.4297H55.5137V11.644C55.5137 10.7154 55.3494 10.0725 55.0536 9.67969C54.7578 9.28683 54.2319 9.07254 53.5088 9.07254C52.8515 9.07254 52.3256 9.35826 51.8983 9.9654C51.471 10.5725 51.2409 11.2511 51.2409 12.0725V17.4297Z" fill="#444746"/>
<path d="M68.3982 7.39258C69.6471 7.39258 70.6003 7.74972 71.3234 8.46401C72.0465 9.17829 72.408 10.1783 72.408 11.4283V17.4283H70.7975V16.0711H70.7318C70.0415 17.1783 69.1213 17.7497 67.9709 17.7497C66.9849 17.7497 66.1632 17.4283 65.5058 16.7854C64.8485 16.1426 64.5198 15.3569 64.5198 14.3926C64.5198 13.3926 64.8813 12.6069 65.5715 11.9997C66.2618 11.3926 67.2149 11.1069 68.3653 11.1069C69.3513 11.1069 70.173 11.3211 70.8304 11.714V11.2854C70.8304 10.6426 70.6003 10.1069 70.1402 9.67829C69.68 9.24972 69.1213 8.99972 68.5296 8.99972C67.6093 8.99972 66.8534 9.42829 66.2946 10.2854L64.8156 9.28543C65.6044 8.03543 66.8205 7.39258 68.3982 7.39258ZM66.2289 14.464C66.2289 14.9283 66.4261 15.3211 66.7876 15.6426C67.1492 15.964 67.5765 16.1069 68.1024 16.1069C68.7926 16.1069 69.4499 15.8211 69.9758 15.2497C70.5346 14.6783 70.7975 13.9997 70.7975 13.2497C70.2716 12.7854 69.5485 12.5711 68.5954 12.5711C67.9051 12.5711 67.3464 12.7497 66.8862 13.1069C66.459 13.4997 66.2289 13.9283 66.2289 14.464Z" fill="#444746"/>
<path d="M76.4832 4.39369C76.4832 4.75084 76.3518 5.03655 76.1217 5.32227C75.8916 5.57227 75.5958 5.71512 75.2671 5.71512C74.9385 5.71512 74.6755 5.57227 74.4126 5.32227C74.1825 5.07227 74.051 4.75084 74.051 4.39369C74.051 4.03655 74.1825 3.75084 74.4126 3.46512C74.6426 3.21512 74.9385 3.07227 75.2671 3.07227C75.5958 3.07227 75.8588 3.21512 76.1217 3.46512C76.3518 3.71512 76.4832 4.03655 76.4832 4.39369ZM76.1217 7.71512V17.4294H74.4454V7.71512H76.1217Z" fill="#444746"/>
<path d="M80.0007 3.25195V17.4305H78.3245V3.25195H80.0007Z" fill="#444746"/>
</g>
<defs>
<clipPath id="clip0_691_23870">
<rect width="80" height="20" fill="white"/>
</clipPath>
</defs>
</svg>
