<svg width="94" height="27" viewBox="0 0 94 27" fill="none" xmlns="http://www.w3.org/2000/svg">
<path d="M21.9461 21.2306C20.4192 22.7066 17.4339 23.5856 13.9572 23.5856C10.4806 23.5856 7.49187 22.7066 5.9695 21.2306C4.44712 19.7545 3.5283 16.8655 3.5283 13.5022C3.5283 10.1389 4.44262 7.25199 5.96837 5.77487C7.49415 4.29778 10.4839 3.41435 13.9617 3.41435C17.4396 3.41435 20.4237 4.29778 21.9506 5.77487C23.4775 7.25199 24.3851 10.1399 24.3851 13.5022C24.3851 16.8644 23.4674 19.7535 21.9461 21.2306ZM27.91 13.5C27.91 10.83 27.0915 8.21987 25.5582 5.9998C24.0248 3.77974 21.8453 2.04941 19.2953 1.02763C16.7454 0.00584947 13.9395 -0.261496 11.2325 0.259405C8.52551 0.780307 6.03897 2.06605 4.08733 3.95406C2.13569 5.84208 0.806601 8.24758 0.268147 10.8663C-0.270309 13.485 0.00604634 16.1994 1.06227 18.6662C2.11849 21.133 3.90713 23.2415 6.20202 24.7248C8.49694 26.2083 11.195 27 13.955 27C15.7876 27 17.6022 26.6508 19.2953 25.9724C20.9884 25.294 22.5268 24.2996 23.8227 23.0459C25.1185 21.7923 26.1464 20.3041 26.8477 18.6662C27.5491 17.0283 27.91 15.2728 27.91 13.5Z" fill="#FC6423"/>
<path d="M16.647 11.6106V15.3005C16.6479 15.5031 16.5657 15.6977 16.4185 15.8418C16.2713 15.9858 16.0711 16.0676 15.8617 16.069H12.0361C11.8278 16.0704 11.6275 15.9917 11.4792 15.8503C11.3308 15.7089 11.2467 15.5163 11.2451 15.3148C11.2451 15.3101 11.2451 15.3053 11.2452 15.3005V11.6106C11.2448 11.51 11.2648 11.4102 11.3042 11.3171C11.3436 11.224 11.4015 11.1393 11.4748 11.0678C11.548 10.9964 11.6351 10.9395 11.731 10.9007C11.8269 10.8617 11.9298 10.8416 12.0338 10.8411L12.0361 10.8411H15.8572C15.9612 10.8413 16.0642 10.8615 16.1601 10.9003C16.2561 10.939 16.3432 10.9957 16.4166 11.067C16.4899 11.1384 16.548 11.223 16.5875 11.3161C16.6271 11.4091 16.6473 11.5088 16.647 11.6095V11.6106Z" fill="#FC6423"/>
<path d="M20.4885 7.13008C19.407 6.08384 16.8391 5.40662 13.9458 5.40662C11.0525 5.40662 8.48445 6.08384 7.40294 7.13008C6.32149 8.17633 5.62256 10.6638 5.62256 13.4639C5.62256 16.2639 6.317 18.7515 7.40294 19.7988C8.48893 20.8461 11.0525 21.5211 13.9458 21.5211C16.8391 21.5211 19.407 20.8439 20.4885 19.7988C21.5701 18.7536 22.27 16.2639 22.27 13.4639C22.27 10.6638 21.5756 8.17086 20.4885 7.13008ZM17.9621 17.3232C17.7377 17.5402 17.0477 18.2066 13.9232 18.2066C10.7988 18.2066 10.1089 17.5435 9.88454 17.3232C9.66012 17.1029 8.97142 16.4398 8.97142 13.4161C8.97142 10.3925 9.65681 9.72613 9.88454 9.50907C10.1123 9.292 10.7933 8.62993 13.9232 8.62993C17.0533 8.62993 17.731 9.28873 17.9621 9.50907C18.1932 9.72933 18.8696 10.3925 18.8696 13.4161C18.8696 16.4398 18.1853 17.0996 17.9621 17.3188V17.3232Z" fill="#FC6423"/>
<path d="M44.4552 9.34778C43.2968 9.34778 42.3618 9.71583 41.6506 10.4517L41.2702 9.54864H38.8525V17.8295H41.8951V13.396C41.8951 12.4095 42.5346 11.7562 43.4859 11.7562C43.6596 11.7531 43.8322 11.783 43.9939 11.8445C44.1555 11.9059 44.3031 11.9976 44.4282 12.1143C44.5533 12.2309 44.6534 12.3701 44.7228 12.5242C44.7922 12.6782 44.8295 12.844 44.8327 13.012C44.8331 13.034 44.8328 13.0559 44.8321 13.078V17.8295H47.8758V12.5928C47.8758 11.6399 47.5651 10.8706 46.9245 10.2682C46.2884 9.64847 45.4751 9.34778 44.4552 9.34778Z" fill="#1F1F1F"/>
<path d="M37.2097 5.72302H34.166V8.66745H37.2097V5.72302Z" fill="#1F1F1F"/>
<path d="M37.2097 9.55322H34.166V17.834H37.2097V9.55322Z" fill="#1F1F1F"/>
<path d="M89.1785 10.5711C88.4331 9.75278 87.4829 9.35339 86.3255 9.35339C85.2841 9.35339 84.4396 9.66922 83.7809 10.3203L83.3983 9.55092H80.9814V21.3133H84.021V17.2478C84.6709 17.7615 85.4854 18.0398 86.324 18.0347C87.4821 18.0347 88.4324 17.6298 89.1771 16.83C89.9173 16.0084 90.2992 14.9709 90.2992 13.7C90.3014 12.4128 89.9144 11.3753 89.1785 10.5711ZM85.5118 15.7219C84.5946 15.7219 83.9718 15.0544 83.9718 14.1352V13.267C83.9718 12.3314 84.5946 11.6629 85.5118 11.6629C86.4981 11.6629 87.206 12.4985 87.206 13.7022C87.206 14.8873 86.4981 15.7219 85.5118 15.7219Z" fill="#1F1F1F"/>
<path d="M77.8129 5.6842C76.8266 5.6842 76.0827 6.38639 76.0827 7.37405C76.0776 7.58891 76.1165 7.80257 76.1973 8.00294C76.2773 8.20323 76.3978 8.38634 76.552 8.54159C76.7055 8.69691 76.8891 8.82146 77.0925 8.90808C77.2959 8.99469 77.5148 9.04172 77.7365 9.04649C77.7622 9.04705 77.7872 9.04698 77.8129 9.04649C78.8491 9.04649 79.5585 8.32694 79.5585 7.37405C79.5585 6.38639 78.8491 5.6842 77.8129 5.6842Z" fill="#1F1F1F"/>
<path d="M79.3382 9.55322H76.2949V17.834H79.3382V9.55322Z" fill="#1F1F1F"/>
<path d="M63.5985 10.5711C62.701 9.75278 61.5219 9.35339 60.0904 9.35339C58.6589 9.35339 57.4955 9.75278 56.5778 10.5711C55.6601 11.3894 55.2102 12.4302 55.2102 13.7C55.2102 14.9698 55.659 16.0084 56.5778 16.83C57.4955 17.6298 58.6544 18.0347 60.0904 18.0347C61.5264 18.0347 62.6988 17.6298 63.5985 16.83C64.5162 16.0084 64.9661 14.9709 64.9661 13.7C64.9661 12.4128 64.5162 11.3753 63.5985 10.5711ZM60.0904 15.7577C59.0493 15.7577 58.3223 14.9047 58.3223 13.6956C58.3223 12.4736 59.0493 11.6217 60.0904 11.6217C61.1315 11.6217 61.8719 12.4736 61.8719 13.6956C61.8719 14.9047 61.1259 15.7577 60.0904 15.7577Z" fill="#1F1F1F"/>
<path d="M53.9673 8.1941C54.3044 8.20021 54.6403 8.23396 54.9715 8.29507L55.3518 6.12443C54.6566 5.94443 53.9399 5.85428 53.2202 5.85636C52.2689 5.85636 51.4907 6.12406 50.8856 6.65947C50.2978 7.19454 50.0038 7.89781 50.0038 8.78448V9.55398H48.5723V11.7789H50.0083V17.8348H53.052V11.7789H54.8155V9.55398H53.052V9.08077C53.052 8.52841 53.4143 8.1941 53.9673 8.1941Z" fill="#1F1F1F"/>
<path d="M74.061 10.5709C73.3203 9.75264 72.3655 9.35325 71.2078 9.35325C70.3694 9.34138 69.5541 9.61877 68.9079 10.1358V6.05615H65.8643V17.8327H68.2853L68.6679 17.0632C69.3219 17.7144 70.1711 18.04 71.2078 18.04C72.3655 18.04 73.3203 17.6351 74.061 16.8353C74.8056 16.0137 75.1824 14.9762 75.1824 13.7053C75.1882 12.4127 74.8056 11.3752 74.061 10.5709ZM70.3989 15.7218C69.4812 15.7218 68.8586 15.0544 68.8586 14.1351V13.2668C68.8586 12.3314 69.4812 11.6628 70.3989 11.6628C71.3805 11.6628 72.0885 12.4985 72.0885 13.7021C72.0885 14.8872 71.3805 15.7218 70.3989 15.7218Z" fill="#1F1F1F"/>
</svg>
