<svg width="94" height="27" viewBox="0 0 94 27" fill="none" xmlns="http://www.w3.org/2000/svg">
<g clip-path="url(#clip0_2375_5061)">
<path d="M21.9461 21.2305C20.4192 22.7065 17.4339 23.5855 13.9572 23.5855C10.4806 23.5855 7.49187 22.7065 5.9695 21.2305C4.44712 19.7544 3.5283 16.8654 3.5283 13.5021C3.5283 10.1387 4.44262 7.25186 5.96837 5.77474C7.49415 4.29766 10.4839 3.41423 13.9617 3.41423C17.4396 3.41423 20.4237 4.29766 21.9506 5.77474C23.4775 7.25186 24.3851 10.1398 24.3851 13.5021C24.3851 16.8643 23.4674 19.7534 21.9461 21.2305ZM27.91 13.4999C27.91 10.8299 27.0915 8.21974 25.5582 5.99968C24.0248 3.77962 21.8453 2.04929 19.2953 1.02751C16.7454 0.0057274 13.9395 -0.261618 11.2325 0.259282C8.52551 0.780185 6.03897 2.06593 4.08733 3.95394C2.13569 5.84195 0.806601 8.24745 0.268147 10.8662C-0.270309 13.4849 0.00604634 16.1993 1.06227 18.6661C2.11849 21.1329 3.90713 23.2413 6.20202 24.7247C8.49694 26.2081 11.195 26.9999 13.955 26.9999C15.7876 26.9999 17.6022 26.6507 19.2953 25.9722C20.9884 25.2938 22.5268 24.2995 23.8227 23.0458C25.1185 21.7922 26.1464 20.304 26.8477 18.6661C27.5491 17.0282 27.91 15.2727 27.91 13.4999Z" fill="#FC6423"/>
<path d="M16.647 11.6104V15.3004C16.6479 15.503 16.5657 15.6976 16.4185 15.8417C16.2713 15.9857 16.0711 16.0674 15.8617 16.0689H12.0361C11.8278 16.0703 11.6275 15.9916 11.4792 15.8502C11.3308 15.7088 11.2467 15.5161 11.2451 15.3146C11.2451 15.3099 11.2451 15.3052 11.2452 15.3004V11.6104C11.2448 11.5098 11.2648 11.4101 11.3042 11.317C11.3436 11.2238 11.4015 11.1391 11.4748 11.0677C11.548 10.9963 11.6351 10.9394 11.731 10.9006C11.8269 10.8616 11.9298 10.8414 12.0338 10.841L12.0361 10.8409H15.8572C15.9612 10.8412 16.0642 10.8613 16.1601 10.9001C16.2561 10.9389 16.3432 10.9956 16.4166 11.0669C16.4899 11.1383 16.548 11.2229 16.5875 11.316C16.6271 11.409 16.6473 11.5087 16.647 11.6094V11.6104Z" fill="#FC6423"/>
<path d="M20.4885 7.12996C19.407 6.08372 16.8391 5.40649 13.9458 5.40649C11.0525 5.40649 8.48445 6.08372 7.40294 7.12996C6.32149 8.17621 5.62256 10.6637 5.62256 13.4637C5.62256 16.2638 6.317 18.7513 7.40294 19.7986C8.48893 20.846 11.0525 21.521 13.9458 21.521C16.8391 21.521 19.407 20.8438 20.4885 19.7986C21.5701 18.7535 22.27 16.2638 22.27 13.4637C22.27 10.6637 21.5756 8.17074 20.4885 7.12996ZM17.9621 17.323C17.7377 17.5401 17.0477 18.2065 13.9232 18.2065C10.7988 18.2065 10.1089 17.5434 9.88454 17.323C9.66012 17.1028 8.97142 16.4396 8.97142 13.416C8.97142 10.3923 9.65681 9.72601 9.88454 9.50894C10.1123 9.29188 10.7933 8.62981 13.9232 8.62981C17.0533 8.62981 17.731 9.28861 17.9621 9.50894C18.1932 9.72921 18.8696 10.3923 18.8696 13.416C18.8696 16.4396 18.1853 17.0995 17.9621 17.3187V17.323Z" fill="#FC6423"/>
<path d="M44.4557 9.34766C43.2972 9.34766 42.3623 9.71571 41.6511 10.4515L41.2707 9.54852H38.853V17.8294H41.8956V13.3959C41.8956 12.4094 42.5351 11.7561 43.4864 11.7561C43.6601 11.7529 43.8327 11.7829 43.9944 11.8444C44.156 11.9058 44.3036 11.9975 44.4287 12.1142C44.5538 12.2308 44.6539 12.37 44.7233 12.5241C44.7927 12.6781 44.83 12.8439 44.8332 13.0119C44.8336 13.0339 44.8333 13.0558 44.8326 13.0778V17.8294H47.8763V12.5927C47.8763 11.6398 47.5656 10.8705 46.925 10.2681C46.2889 9.64835 45.4755 9.34766 44.4557 9.34766Z" fill="#1F1F1F"/>
<path d="M37.2092 5.7229H34.1655V8.66733H37.2092V5.7229Z" fill="#1F1F1F"/>
<path d="M37.2092 9.5531H34.1655V17.8339H37.2092V9.5531Z" fill="#1F1F1F"/>
<path d="M89.179 10.571C88.4336 9.75266 87.4834 9.35327 86.326 9.35327C85.2846 9.35327 84.4401 9.6691 83.7814 10.3202L83.3988 9.5508H80.9819V21.3132H84.0215V17.2477C84.6714 17.7614 85.4859 18.0397 86.3245 18.0346C87.4826 18.0346 88.4329 17.6297 89.1776 16.8299C89.9178 16.0083 90.2997 14.9708 90.2997 13.6998C90.3019 12.4127 89.9149 11.3751 89.179 10.571ZM85.5123 15.7218C84.5951 15.7218 83.9723 15.0543 83.9723 14.135V13.2669C83.9723 12.3313 84.5951 11.6628 85.5123 11.6628C86.4986 11.6628 87.2065 12.4984 87.2065 13.702C87.2065 14.8872 86.4986 15.7218 85.5123 15.7218Z" fill="#1F1F1F"/>
<path d="M77.8127 5.68408C76.8264 5.68408 76.0825 6.38627 76.0825 7.37393C76.0773 7.58879 76.1163 7.80245 76.197 8.00281C76.2771 8.20311 76.3975 8.38621 76.5517 8.54146C76.7052 8.69678 76.8888 8.82134 77.0922 8.90795C77.2957 8.99457 77.5145 9.0416 77.7363 9.04636C77.762 9.04693 77.787 9.04686 77.8127 9.04636C78.8489 9.04636 79.5583 8.32681 79.5583 7.37393C79.5583 6.38627 78.8489 5.68408 77.8127 5.68408Z" fill="#1F1F1F"/>
<path d="M79.3382 9.5531H76.2949V17.8339H79.3382V9.5531Z" fill="#1F1F1F"/>
<path d="M63.5982 10.571C62.7007 9.75266 61.5217 9.35327 60.0902 9.35327C58.6587 9.35327 57.4953 9.75266 56.5776 10.571C55.6598 11.3893 55.21 12.4301 55.21 13.6998C55.21 14.9697 55.6587 16.0083 56.5776 16.8299C57.4953 17.6297 58.6542 18.0346 60.0902 18.0346C61.5262 18.0346 62.6985 17.6297 63.5982 16.8299C64.516 16.0083 64.9658 14.9708 64.9658 13.6998C64.9658 12.4127 64.516 11.3751 63.5982 10.571ZM60.0902 15.7576C59.0491 15.7576 58.3221 14.9045 58.3221 13.6955C58.3221 12.4735 59.0491 11.6216 60.0902 11.6216C61.1312 11.6216 61.8717 12.4735 61.8717 13.6955C61.8717 14.9045 61.1256 15.7576 60.0902 15.7576Z" fill="#1F1F1F"/>
<path d="M53.9669 8.19398C54.3039 8.20009 54.6398 8.23384 54.971 8.29495L55.3513 6.1243C54.6561 5.94431 53.9394 5.85416 53.2197 5.85624C52.2684 5.85624 51.4902 6.12394 50.8851 6.65935C50.2973 7.19441 50.0033 7.89769 50.0033 8.78436V9.55386H48.5718V11.7787H50.0078V17.8347H53.0515V11.7787H54.815V9.55386H53.0515V9.08065C53.0515 8.52828 53.4138 8.19398 53.9669 8.19398Z" fill="#1F1F1F"/>
<path d="M74.061 10.5708C73.3203 9.75251 72.3655 9.35313 71.2078 9.35313C70.3694 9.34126 69.5541 9.61865 68.9079 10.1356V6.05603H65.8643V17.8325H68.2853L68.6679 17.0631C69.3219 17.7143 70.1711 18.0399 71.2078 18.0399C72.3655 18.0399 73.3203 17.635 74.061 16.8352C74.8056 16.0136 75.1824 14.9761 75.1824 13.7052C75.1882 12.4126 74.8056 11.3751 74.061 10.5708ZM70.3989 15.7216C69.4812 15.7216 68.8586 15.0542 68.8586 14.135V13.2667C68.8586 12.3312 69.4812 11.6627 70.3989 11.6627C71.3805 11.6627 72.0885 12.4983 72.0885 13.702C72.0885 14.8871 71.3805 15.7216 70.3989 15.7216Z" fill="#1F1F1F"/>
</g>
<defs>
<clipPath id="clip0_2375_5061">
<rect width="94" height="27" fill="white"/>
</clipPath>
</defs>
</svg>
