<svg width="138" height="25" viewBox="0 0 138 25" fill="none" xmlns="http://www.w3.org/2000/svg">
<g clip-path="url(#clip0_2375_5097)">
<path fill-rule="evenodd" clip-rule="evenodd" d="M24.198 8.63309C24.1048 8.49751 23.9496 8.42795 23.7931 8.42795H14.8828L19.326 1.33622C19.4404 1.15411 19.4468 0.90484 19.3079 0.704978C19.2137 0.569232 19.0569 0.5 18.8998 0.5H11.2269C10.4565 0.5 9.73669 0.912515 9.30519 1.60116L0.585108 15.5198C0.471031 15.7021 0.466232 15.9514 0.603668 16.1512C0.696785 16.2867 0.851981 16.3561 1.00862 16.3561H9.91445L5.47073 23.4496C5.39073 23.5775 5.36625 23.7385 5.40273 23.892C5.45889 24.1297 5.66977 24.2858 5.89712 24.2858H13.5655C14.3417 24.2858 15.0669 23.8701 15.5015 23.1763L19.7732 16.3561L24.2163 9.26433C24.3305 9.08222 24.3353 8.83263 24.198 8.63309Z" fill="#4E48E0"/>
<path fill-rule="evenodd" clip-rule="evenodd" d="M19.7742 16.3545L15.5015 23.1762C15.067 23.8701 14.3415 24.2856 13.5656 24.2856H5.89714C5.66978 24.2856 5.45891 24.1298 5.40275 23.892C5.36627 23.7385 5.39075 23.5775 5.47075 23.4496L9.91527 16.3545H19.7742Z" fill="#4E48E0"/>
<path fill-rule="evenodd" clip-rule="evenodd" d="M14.8769 8.42798H23.793C23.9495 8.42798 24.1046 8.49753 24.1979 8.63296C24.3354 8.83266 24.3302 9.08209 24.2163 9.26436L19.7734 16.3561H9.91064L14.8769 8.42798Z" fill="#1C81C1"/>
<path fill-rule="evenodd" clip-rule="evenodd" d="M1.00858 16.3561C0.852101 16.3561 0.696905 16.2867 0.603788 16.1512C0.466192 15.9514 0.470991 15.7021 0.585228 15.52L9.3053 1.60116C9.73665 0.912515 10.4566 0.5 11.2269 0.5H18.8998C19.0569 0.5 19.2138 0.569392 19.3081 0.704978C19.4468 0.90484 19.4404 1.15411 19.3261 1.33638L9.91537 16.3561H1.00858Z" fill="#5CC4CD"/>
<path fill-rule="evenodd" clip-rule="evenodd" d="M77.1684 13.6174H77.398H81.9534C82.1199 13.6174 82.6148 13.6198 82.6148 13.6198C82.6148 13.6198 82.6146 13.5877 82.5868 13.4577C82.4876 12.9922 82.3084 12.5663 81.9959 12.2034C81.2695 11.3604 79.9801 11.0729 78.8776 11.5168C77.9315 11.8975 77.4156 12.6338 77.1684 13.6174ZM81.0513 15.4672C79.8206 15.4672 78.5902 15.4699 77.3597 15.464C77.1991 15.463 77.1688 15.4966 77.2119 15.6542C77.5344 16.8299 78.4718 17.6364 79.6784 17.7673C81.0358 17.9146 82.2789 17.5744 83.4413 16.8899L83.6491 16.7676L84.6301 18.5063C84.6301 18.5063 84.6021 18.522 84.4986 18.5909C83.0368 19.5672 81.4274 19.9896 79.6757 19.8875C78.8939 19.8419 78.1421 19.6742 77.4362 19.3314C76.3924 18.8247 75.6241 18.0398 75.1646 16.9768C74.5256 15.4988 74.4875 13.989 75.0558 12.4846C75.7855 10.5523 77.5648 9.34949 79.7269 9.28313C80.8415 9.24892 81.8998 9.45549 82.849 10.064C84.1896 10.9234 84.825 12.2013 84.9867 13.7479C85.0395 14.2535 85.0125 14.7571 84.9686 15.2625C84.9528 15.4459 84.948 15.4704 84.948 15.4704C84.948 15.4704 82.2753 15.4672 81.0513 15.4672Z" fill="#3A3945"/>
<path fill-rule="evenodd" clip-rule="evenodd" d="M105.427 13.6174H105.657H110.212C110.379 13.6174 110.874 13.6198 110.874 13.6198C110.874 13.6198 110.873 13.5877 110.846 13.4577C110.746 12.9922 110.567 12.5663 110.255 12.2034C109.528 11.3604 108.239 11.0729 107.137 11.5168C106.19 11.8975 105.674 12.6338 105.427 13.6174ZM109.31 15.4672C108.08 15.4672 106.849 15.4699 105.618 15.464C105.458 15.463 105.428 15.4966 105.471 15.6542C105.793 16.8299 106.731 17.6364 107.937 17.7673C109.295 17.9146 110.538 17.5744 111.7 16.8899L111.908 16.7676L112.889 18.5063C112.889 18.5063 112.861 18.522 112.757 18.5909C111.296 19.5672 109.686 19.9896 107.934 19.8875C107.153 19.8419 106.401 19.6742 105.695 19.3314C104.651 18.8247 103.883 18.0398 103.423 16.9768C102.784 15.4988 102.746 13.989 103.315 12.4846C104.044 10.5523 105.824 9.34949 107.986 9.28313C109.1 9.24892 110.159 9.45549 111.108 10.064C112.448 10.9234 113.084 12.2013 113.245 13.7479C113.298 14.2535 113.271 14.7571 113.227 15.2625C113.212 15.4459 113.207 15.4704 113.207 15.4704C113.207 15.4704 110.534 15.4672 109.31 15.4672Z" fill="#3A3945"/>
<path fill-rule="evenodd" clip-rule="evenodd" d="M98.1242 9.28149C99.2426 9.30292 100.361 9.69449 101.268 10.6148C101.372 10.7203 101.408 10.7565 101.408 10.7565L100.139 12.2997C100.139 12.2997 100.12 12.2812 100.018 12.1848C99.4314 11.6315 98.745 11.2953 97.9262 11.264C97.6692 11.2542 97.4195 11.2884 97.1854 11.4002C96.5521 11.7025 96.4593 12.4451 96.9974 12.8942C97.1755 13.0427 97.3849 13.1313 97.598 13.2146C98.3649 13.5133 99.1442 13.7817 99.8816 14.1516C100.421 14.4219 100.905 14.7644 101.245 15.2749C101.879 16.2268 101.773 17.6607 101.01 18.5744C100.342 19.3732 99.456 19.7525 98.4498 19.8738C97.0123 20.0472 95.6915 19.7466 94.5371 18.8382C94.2419 18.6059 93.9882 18.3324 93.7562 18.0372C93.6876 17.9497 93.6677 17.9218 93.6677 17.9218L95.0459 16.4396C95.0459 16.4396 95.063 16.4599 95.1536 16.5686C95.7077 17.2339 96.4044 17.6688 97.2633 17.822C97.7539 17.9093 98.2375 17.8912 98.6879 17.648C99.1437 17.4023 99.3423 16.9693 99.2009 16.543C99.1236 16.3101 98.958 16.147 98.7602 16.0122C98.4964 15.8322 98.1986 15.7218 97.9059 15.6029C97.2785 15.3483 96.6374 15.1269 96.0257 14.8349C95.2117 14.4464 94.5989 13.87 94.3741 12.9645C94.0154 11.5206 94.7632 10.142 96.1854 9.59424C96.7619 9.37215 97.3591 9.28277 98.1242 9.28149Z" fill="#3A3945"/>
<path fill-rule="evenodd" clip-rule="evenodd" d="M57.5142 17.5363C55.8954 17.5363 54.5783 16.2203 54.5783 14.6024C54.5783 12.9846 55.8954 11.6685 57.5142 11.6685C59.1331 11.6685 60.4502 12.9846 60.4502 14.6024C60.4502 16.2203 59.1331 17.5363 57.5142 17.5363ZM60.7111 9.28027L60.471 10.5085C59.7243 9.7374 58.6076 9.28891 57.5142 9.28891C54.5825 9.28891 52.1973 11.6725 52.1973 14.6024C52.1973 17.5323 54.5825 19.916 57.5142 19.916C58.6076 19.916 59.6747 19.4799 60.471 18.6965L60.7111 19.9208H62.8522V9.28027H60.7111Z" fill="#3A3945"/>
<path fill-rule="evenodd" clip-rule="evenodd" d="M131.892 17.5363C130.273 17.5363 128.956 16.2202 128.956 14.6023C128.956 12.9845 130.273 11.6685 131.892 11.6685C133.511 11.6685 134.828 12.9845 134.828 14.6023C134.828 16.2202 133.511 17.5363 131.892 17.5363ZM134.849 5.72925V10.5085C134.097 9.8181 132.986 9.28886 131.892 9.28886C128.96 9.28886 126.575 11.6725 126.575 14.6023C126.575 17.5323 128.96 19.9159 131.892 19.9159C132.986 19.9159 134.032 19.4137 134.849 18.6963L135.089 19.9207H137.23V5.72925H134.849Z" fill="#3A3945"/>
<path fill-rule="evenodd" clip-rule="evenodd" d="M65.4619 19.9207H67.8431V9.78064H65.4619V19.9207Z" fill="#3A3945"/>
<path fill-rule="evenodd" clip-rule="evenodd" d="M120.094 9.28817C119.212 9.28817 118.201 9.84699 117.675 10.524L117.275 9.27954H115.294V13.9434V19.92H117.675H117.694V13.9434C117.694 12.6887 118.77 11.6678 120.094 11.6678C121.417 11.6678 122.493 12.6887 122.493 13.9434V19.92H124.893V13.9434C124.893 11.3766 122.74 9.28817 120.094 9.28817Z" fill="#3A3945"/>
<path fill-rule="evenodd" clip-rule="evenodd" d="M70.3242 19.9207H72.7054V5.72937H70.3242V19.9207Z" fill="#3A3945"/>
<path fill-rule="evenodd" clip-rule="evenodd" d="M68.2073 7.01023C68.2073 6.15226 67.511 5.45642 66.6525 5.45642C65.7938 5.45642 65.0977 6.15226 65.0977 7.01023C65.0977 7.86835 65.7938 8.56403 66.6525 8.56403C67.511 8.56403 68.2073 7.86835 68.2073 7.01023Z" fill="#3A3945"/>
<path fill-rule="evenodd" clip-rule="evenodd" d="M91.4117 9.2985C90.6178 9.36166 89.8957 9.81398 89.2716 10.2545L89.0316 9.28027H86.8904V14.1698C86.8688 14.3576 86.8564 14.5442 86.8564 14.7282V19.8536H86.8904V19.9207H89.2716V19.8536H89.3055V14.7282C89.3055 13.5979 90.2714 11.8444 91.6056 11.7384C91.9368 11.7125 92.2512 11.753 92.694 11.8786L93.3639 9.52458C92.8761 9.38596 92.2129 9.23518 91.4117 9.2985Z" fill="#3A3945"/>
<path fill-rule="evenodd" clip-rule="evenodd" d="M45.7036 9.28442C44.3246 9.28442 43.0842 9.88705 42.2306 10.8417C41.3768 9.88705 40.1364 9.28442 38.7574 9.28442C36.1888 9.28442 34.0991 11.3729 34.0991 13.9396V19.9163H36.4803V13.9396C36.4803 12.685 37.5017 11.6641 38.7574 11.6641C40.013 11.6641 41.0344 12.685 41.0344 13.9396V19.9163H41.0453H42.2306H43.4157H43.4265V13.9396C43.4265 12.685 44.448 11.6641 45.7036 11.6641C46.9592 11.6641 47.9807 12.685 47.9807 13.9396V19.9163H50.3619V13.9396C50.3619 11.3729 48.2722 9.28442 45.7036 9.28442Z" fill="#3A3945"/>
</g>
<defs>
<clipPath id="clip0_2375_5097">
<rect width="137" height="24" fill="white" transform="translate(0.5 0.5)"/>
</clipPath>
</defs>
</svg>
