<svg width="116" height="31" viewBox="0 0 116 31" fill="none" xmlns="http://www.w3.org/2000/svg">
<g clip-path="url(#clip0_2375_5027)">
<mask id="mask0_2375_5027" style="mask-type:luminance" maskUnits="userSpaceOnUse" x="0" y="0" width="116" height="31">
<path d="M115.5 0.5H0.5V30.5H115.5V0.5Z" fill="white"/>
</mask>
<g mask="url(#mask0_2375_5027)">
<path d="M9.42794 21.3601L6.97764 22.7913C6.64524 23.0066 6.79713 23.3766 6.97764 23.4511L16.4938 28.7019C17.0559 29.0121 17.7484 29.0121 18.3105 28.7019L27.9527 23.3816C28.2448 23.2112 28.1969 22.8648 27.9527 22.7479L25.3619 21.3694C25.1432 21.2273 24.6556 21.2745 24.4828 21.3903L18.3105 24.796C17.7484 25.1061 17.0559 25.1061 16.4938 24.796L10.2668 21.3601C10.0347 21.2195 9.66695 21.2274 9.42794 21.3601Z" fill="#202C45"/>
<path d="M16.4933 0.732619C17.0554 0.42246 17.7479 0.42246 18.31 0.732619C18.31 0.732619 25.5244 4.71341 25.9732 4.96102C26.2791 5.11345 26.3068 5.52265 25.9732 5.70718C25.468 5.98491 24.7904 6.35708 24.2282 6.66584C23.5713 7.02657 22.7717 7.0255 22.1157 6.66346L18.31 4.56358C17.7479 4.25342 17.0554 4.25342 16.4933 4.56358L12.6831 6.66596C12.0265 7.02823 11.2262 7.0289 10.569 6.66789C9.98448 6.34684 9.27544 5.95761 8.7645 5.67782C8.48108 5.55797 8.42209 5.20215 8.7645 4.9972L16.4933 0.732619Z" fill="#202C45"/>
<path d="M29.3952 7.09729C29.9573 7.40745 30.3036 7.98063 30.3036 8.60094V20.834C30.3036 21.4395 29.9186 21.5524 29.5079 21.341L26.6701 19.8326V11.6083L18.3102 16.2212C17.748 16.5313 17.0556 16.5313 16.4935 16.2212L8.1335 11.6083V19.8316L5.55485 21.3392C5.24752 21.5317 4.5 21.5923 4.5 20.834V8.60094C4.5 7.98063 4.84627 7.40745 5.40837 7.09729C6.31277 6.6309 7.24727 7.09729 7.24727 7.09729L17.4018 12.7126L27.5404 7.09729C27.5404 7.09729 28.4408 6.56253 29.3952 7.09729Z" fill="#22D172"/>
<path fill-rule="evenodd" clip-rule="evenodd" d="M65.9432 6.13696C65.2611 6.13696 64.7081 6.68151 64.7081 7.35324C64.7081 8.025 65.2611 8.56953 65.9432 8.56953C66.6253 8.56953 67.1783 8.025 67.1783 7.35324C67.1783 6.68151 66.6253 6.13696 65.9432 6.13696ZM69.1001 6.13698C69.0328 6.13698 68.9783 6.19069 68.9783 6.25695V18.1993C68.9783 18.2655 69.0328 18.3192 69.1001 18.3192H70.9756C71.0429 18.3192 71.0975 18.2655 71.0975 18.1993V6.25695C71.0975 6.19069 71.0429 6.13698 70.9756 6.13698H69.1001ZM73.2551 6.13698C73.1878 6.13698 73.1333 6.19069 73.1333 6.25695V18.1993C73.1333 18.2655 73.1878 18.3192 73.2551 18.3192H75.1306C75.1979 18.3192 75.2525 18.2655 75.2525 18.1993V11.8277H77.1493C77.2164 11.8277 77.2713 11.7739 77.2713 11.7077V9.94016C77.2713 9.8739 77.2164 9.82023 77.1493 9.82023H75.2525V6.25695C75.2525 6.19069 75.1979 6.13698 75.1306 6.13698H73.2551ZM43.9325 9.45584C41.8651 9.45584 40.1892 11.1063 40.1892 13.1421V18.1993C40.1892 18.2656 40.2438 18.3193 40.3111 18.3193H42.1866C42.2539 18.3193 42.3084 18.2656 42.3084 18.1993V13.1421C42.3084 12.2589 43.0356 11.5428 43.9325 11.5428C44.8294 11.5428 45.5564 12.2589 45.5564 13.1421V18.1993C45.5564 18.2656 45.611 18.3193 45.6783 18.3193H47.5538C47.6211 18.3193 47.6756 18.2656 47.6756 18.1993L47.6759 13.1421C47.6759 12.2589 48.4029 11.5428 49.2998 11.5428C50.1967 11.5428 50.9238 12.2589 50.9238 13.1421V18.1993C50.9238 18.2656 50.9783 18.3193 51.0456 18.3193H52.9212C52.9885 18.3193 53.0431 18.2656 53.0431 18.1993V13.1421C53.0431 11.1063 51.3671 9.45584 49.2998 9.45584C48.2473 9.45584 47.2961 9.88379 46.6161 10.5723C45.9362 9.88379 44.985 9.45584 43.9325 9.45584ZM58.6018 9.45584C56.093 9.45584 54.0591 11.4588 54.0591 13.9295V14.1157C54.0591 16.5865 56.093 18.5894 58.6018 18.5894C59.5029 18.5894 60.3313 18.2784 61.0255 17.7882V18.1993C61.0255 18.2656 61.08 18.3193 61.1472 18.3193H63.0228C63.0901 18.3193 63.1447 18.2656 63.1447 18.1993V13.9295C63.1447 11.4588 61.1108 9.45584 58.6018 9.45584ZM87.0495 9.45584C84.5411 9.45584 82.5069 11.4588 82.5069 13.9295V14.1157C82.5069 16.5865 84.5411 18.5894 87.0495 18.5894C87.9331 18.5894 88.8051 18.2016 89.4735 17.7049V18.1993C89.4735 18.2656 89.5277 18.3193 89.5948 18.3193H91.4709C91.538 18.3193 91.5922 18.2656 91.5922 18.1993V13.9295C91.5922 11.4588 89.5587 9.45584 87.0495 9.45584ZM97.707 9.45584C95.1978 9.45584 93.1644 11.4588 93.1644 13.9295V21.7217C93.1644 21.7879 93.2185 21.8417 93.2864 21.8417H95.1617C95.2289 21.8417 95.2837 21.7879 95.2837 21.7217V17.9003C95.9846 18.3368 96.8162 18.5894 97.707 18.5894C100.216 18.5894 102.25 16.5865 102.25 14.1157V13.9295C102.25 11.4588 100.216 9.45584 97.707 9.45584ZM81.863 9.75114C79.6339 9.75114 77.8264 11.5309 77.8264 13.7265V18.1993C77.8264 18.2656 77.8813 18.3193 77.9484 18.3193H79.8238C79.8909 18.3193 79.9458 18.2656 79.9458 18.1993V13.7265C79.9458 12.6835 80.8041 11.8381 81.863 11.8381C81.8955 11.8381 81.9265 11.8255 81.9496 11.803C81.972 11.7805 81.985 11.75 81.985 11.7181V9.87113C81.985 9.80488 81.9301 9.75114 81.863 9.75114ZM65.0262 9.82023C64.9589 9.82023 64.9043 9.8739 64.9043 9.94016V18.1994C64.9043 18.2656 64.9589 18.3193 65.0262 18.3193H66.9018C66.9691 18.3193 67.0236 18.2656 67.0236 18.1994V9.94016C67.0236 9.8739 66.9691 9.82023 66.9018 9.82023H65.0262ZM56.1783 13.9295C56.1783 12.6114 57.2634 11.5428 58.6018 11.5428C59.9404 11.5428 61.0255 12.6114 61.0255 13.9295V14.1157C61.0255 15.4339 59.9404 16.5025 58.6018 16.5025C57.2634 16.5025 56.1783 15.4339 56.1783 14.1157V13.9295ZM84.6263 13.9295C84.6263 12.6114 85.7112 11.5428 87.0495 11.5428C88.3879 11.5428 89.4735 12.6114 89.4735 13.9295V14.1157C89.4735 15.4339 88.3879 16.5025 87.0495 16.5025C85.7112 16.5025 84.6263 15.4339 84.6263 14.1157V13.9295ZM95.2837 13.9295C95.2837 12.6114 96.3687 11.5428 97.707 11.5428C99.0453 11.5428 100.13 12.6114 100.13 13.9295V14.1157C100.13 15.4339 99.0453 16.5025 97.707 16.5025C96.3687 16.5025 95.2837 15.4339 95.2837 14.1157V13.9295Z" fill="#202C45"/>
<g opacity="0.5">
<path d="M42.1376 26.3968C42.9814 26.3968 43.6938 25.7702 43.6938 24.7213C43.6938 23.6723 42.9814 23.0457 42.1376 23.0457C41.6119 23.0457 41.2592 23.2705 41.0586 23.6111H41.0448V21.5269H40.3669V26.2947H41.0448V25.8315H41.0586C41.2592 26.172 41.6119 26.3968 42.1376 26.3968ZM41.9923 25.743C41.3975 25.743 41.0102 25.3207 41.0102 24.7213C41.0102 24.1219 41.3975 23.6996 41.9923 23.6996C42.5872 23.6996 42.9744 24.1219 42.9744 24.7213C42.9744 25.3207 42.5872 25.743 41.9923 25.743Z" fill="#202C45"/>
<path d="M46.6483 23.1478L45.7975 25.2116L44.9191 23.1478H44.1099L45.4517 26.0085L44.684 27.6568H45.4033L47.3952 23.1478H46.6483Z" fill="#202C45"/>
<path d="M51.9973 23.0525H51.9488C51.4094 23.0525 51.0428 23.3658 50.8907 23.8358H50.8768V23.1479H50.199V26.2946H50.8768V24.8983C50.8768 24.1491 51.2296 23.8358 51.8935 23.8358H51.9973V23.0525Z" fill="#202C45"/>
<path d="M54.0034 26.3969C54.5291 26.3969 54.8818 26.1721 55.0824 25.8316H55.0963V26.2947H55.7741V23.148H55.0963V23.6111H55.0824C54.8818 23.2706 54.5291 23.0458 54.0034 23.0458C53.1596 23.0458 52.4473 23.6724 52.4473 24.7214C52.4473 25.7703 53.1596 26.3969 54.0034 26.3969ZM54.1487 25.743C53.5539 25.743 53.1665 25.3208 53.1665 24.7214C53.1665 24.122 53.5539 23.6997 54.1487 23.6997C54.7435 23.6997 55.1308 24.122 55.1308 24.7214C55.1308 25.3208 54.7435 25.743 54.1487 25.743Z" fill="#202C45"/>
<path d="M57.5675 21.595H56.7375V22.4123H57.5675V21.595ZM56.8136 26.2947H57.4914V23.1479H56.8136V26.2947Z" fill="#202C45"/>
<path d="M59.2378 21.5269H58.5601V26.2947H59.2378V21.5269Z" fill="#202C45"/>
<path d="M61.2612 26.3969C62.0082 26.3969 62.5062 26.0836 62.5062 25.4433C62.5062 25.0211 62.2849 24.7486 61.8699 24.5579L61.2751 24.2786C60.9984 24.1492 60.9085 24.0539 60.9085 23.904C60.9085 23.761 61.0053 23.6656 61.3027 23.6656C61.614 23.6656 61.9114 23.7678 62.1534 23.87L62.4301 23.291C62.0912 23.1412 61.6901 23.0458 61.3234 23.0458C60.6249 23.0458 60.1892 23.3591 60.1892 23.9381C60.1892 24.299 60.3759 24.6192 60.8601 24.844L61.441 25.1232C61.7108 25.2526 61.7799 25.348 61.7799 25.4774C61.7799 25.6749 61.6071 25.7703 61.282 25.7703C60.9016 25.7703 60.5627 25.6409 60.2653 25.4706L59.9609 26.0631C60.3275 26.2743 60.8047 26.3969 61.2612 26.3969Z" fill="#202C45"/>
<path d="M67.0251 23.1478L66.3819 25.4159L65.6419 23.1478H64.9848L64.2447 25.4159L63.6015 23.1478H62.8545L63.9266 26.2946H64.549L65.3167 24.04L66.0776 26.2946H66.7L67.7721 23.1478H67.0251Z" fill="#202C45"/>
<path d="M69.7413 26.3969C70.267 26.3969 70.6197 26.1721 70.8203 25.8316H70.834V26.2947H71.5119V23.148H70.834V23.6111H70.8203C70.6197 23.2706 70.267 23.0458 69.7413 23.0458C68.8975 23.0458 68.1851 23.6724 68.1851 24.7214C68.1851 25.7703 68.8975 26.3969 69.7413 26.3969ZM69.8865 25.743C69.2917 25.743 68.9044 25.3208 68.9044 24.7214C68.9044 24.122 69.2917 23.6997 69.8865 23.6997C70.4814 23.6997 70.8686 24.122 70.8686 24.7214C70.8686 25.3208 70.4814 25.743 69.8865 25.743Z" fill="#202C45"/>
<path d="M74.3146 23.0525H74.2662C73.7268 23.0525 73.3602 23.3658 73.208 23.8358H73.1942V23.1479H72.5164V26.2946H73.1942V24.8983C73.1942 24.1491 73.5469 23.8358 74.2109 23.8358H74.3146V23.0525Z" fill="#202C45"/>
<path d="M76.3974 23.0458C75.3737 23.0458 74.7651 23.7746 74.7651 24.7282C74.7651 25.7226 75.4152 26.3969 76.432 26.3969C77.2207 26.3969 77.6423 25.9678 77.8776 25.6477L77.4005 25.205C77.2409 25.4161 76.9435 25.7567 76.4181 25.7567C75.8717 25.7567 75.4775 25.3889 75.4498 24.8303H77.926V24.7214C77.926 23.7065 77.3723 23.0458 76.3974 23.0458ZM76.3559 23.6588C76.8403 23.6588 77.1652 23.9108 77.1926 24.3467H75.4844C75.5674 23.8904 75.8994 23.6588 76.3559 23.6588Z" fill="#202C45"/>
</g>
<path d="M104.838 14.0065H113.5V17.5608C113.5 17.9534 113.177 18.2717 112.778 18.2717H105.56C105.161 18.2717 104.838 17.9534 104.838 17.5608V14.0065Z" fill="#FFBB6B"/>
<path d="M104.838 10.4522C104.838 10.0596 105.161 9.74133 105.56 9.74133H112.778C113.177 9.74133 113.5 10.0596 113.5 10.4522V14.0066H104.838V10.4522Z" fill="#457ACA"/>
</g>
</g>
<defs>
<clipPath id="clip0_2375_5027">
<rect width="115" height="30" fill="white" transform="translate(0.5 0.5)"/>
</clipPath>
</defs>
</svg>
