<svg width="102" height="31" viewBox="0 0 102 31" fill="none" xmlns="http://www.w3.org/2000/svg">
<g clip-path="url(#clip0_2375_5017)">
<path d="M78.4019 11.0902H75.7012V12.464C74.7771 11.3797 73.4264 10.8011 72.005 10.8011C68.8064 10.8011 66.4609 13.4756 66.4609 17.235C66.4609 20.8493 68.8068 23.4516 71.9341 23.4516C73.4267 23.4516 74.5638 22.9456 75.6299 21.7166V23.379C75.6299 25.9091 74.6352 27.1381 72.6449 27.1381C71.5785 27.1381 70.5124 26.6321 70.0152 25.7648C69.7305 25.2588 69.6596 24.8249 69.5886 23.8129H66.9589C66.9589 27.4272 69.162 29.6682 72.6449 29.6682C74.6352 29.6682 76.4121 28.8731 77.4072 27.3546C78.189 26.1982 78.4019 25.1862 78.4019 22.8008V11.0902ZM72.5026 13.1869C74.4928 13.1869 75.7722 14.7771 75.7722 17.0181C75.7722 19.3313 74.4219 20.9215 72.5026 20.9215C70.5124 20.9215 69.233 19.4035 69.233 17.0903C69.233 14.7767 70.5124 13.1869 72.5026 13.1869Z" fill="#C02428"/>
<path d="M25.9465 11.0902V23.0899H28.6472V16.9455C28.6472 14.4154 29.2871 13.3312 30.8508 13.3312C32.0592 13.3312 32.6277 14.3432 32.6277 16.5121V23.1625H35.3284V17.0181C35.3284 14.488 35.9683 13.4038 37.5323 13.4038C38.8117 13.4038 39.3092 14.2711 39.3092 16.5842V23.2346H42.0099V15.6444C42.0099 12.3917 40.6596 10.7289 38.0295 10.7289C36.6081 10.7289 35.3997 11.3797 34.5469 12.4639C33.8361 11.3071 32.6987 10.7289 31.4193 10.7289C30.2822 10.7289 29.6423 11.018 28.6476 12.1748V11.0902H25.9465ZM52.1744 11.0902V12.4639C50.966 11.235 49.9704 10.7289 48.4782 10.7289C45.2795 10.7289 42.9341 13.4034 42.9341 16.9455C42.9341 20.7046 45.2799 23.379 48.5491 23.379C49.9708 23.379 50.895 22.9455 52.1744 21.7888V23.0177H54.8751V11.0906L52.1744 11.0902ZM48.9757 13.1869C50.966 13.1869 52.3163 14.7771 52.3163 17.0181C52.3163 19.3312 50.966 20.9215 48.9757 20.9215C47.0565 20.9215 45.7061 19.3312 45.7061 17.0181C45.7061 14.8493 47.1278 13.1869 48.9757 13.1869ZM59.7797 11.0902H57.0786V23.0899H59.7793L59.7797 11.0902ZM58.4289 4.36762C58.1949 4.36526 57.9628 4.41039 57.7462 4.50038C57.5296 4.59036 57.3327 4.72338 57.1673 4.89167C57.0018 5.05995 56.871 5.2601 56.7825 5.48042C56.6941 5.70074 56.6497 5.9368 56.652 6.17477C56.652 7.18681 57.4338 7.98192 58.4289 7.98192C59.424 7.98192 60.2059 7.18681 60.2059 6.17477C60.2082 5.9368 60.1638 5.70074 60.0753 5.48042C59.9869 5.2601 59.8561 5.05995 59.6906 4.89167C59.5251 4.72338 59.3283 4.59036 59.1117 4.50038C58.895 4.41039 58.6629 4.36526 58.4289 4.36762ZM62.2675 1.33191H64.9681V23.0177H62.2675V1.33191Z" fill="#525357"/>
<path d="M82.738 11.0903H80.0369V18.0302C80.0369 19.9095 80.3921 20.9211 81.2453 21.9336C82.1691 22.9456 83.5198 23.4516 85.0125 23.4516C86.5761 23.4516 87.8551 22.9456 88.8506 21.9336C89.7748 20.9215 90.059 19.9095 90.059 18.0302V11.0903H87.3579V17.9572C87.3579 19.9813 86.6471 20.9211 85.0121 20.9211C83.4485 20.9211 82.738 19.9813 82.738 17.9572V11.0903ZM91.9069 11.0903V23.0899H94.6076V17.3072C94.6076 14.3433 95.2475 13.2591 97.0954 13.2591C98.8014 13.2591 99.2993 14.0542 99.2993 16.3674V23.0899H102V15.7174C102 12.3922 100.65 10.7294 97.7353 10.7294C96.4559 10.7294 95.6031 11.0911 94.5367 12.1753V11.0903H91.9069ZM12.0864 12.0301C9.8115 12.0301 7.89263 13.9098 7.89263 16.2952C7.89263 18.6809 9.74053 20.5599 12.0864 20.5599C14.3609 20.5599 16.2797 18.6805 16.2797 16.2952C16.2797 13.9094 14.3609 12.0301 12.0864 12.0301ZM5.54717 16.223C5.54717 12.6083 8.46115 9.64477 12.015 9.64477C15.5689 9.64477 18.4837 12.6083 18.4837 16.2226C18.4837 16.4391 18.4837 16.7286 18.4127 16.9451C18.3417 17.5959 18.8389 18.1019 19.4788 18.1019C20.5449 18.1019 20.6872 16.7286 20.6872 16.2226C20.6872 11.3789 16.7777 7.40337 12.0154 7.40337C7.25353 7.40337 3.34404 11.3793 3.34404 16.2226C3.34404 21.0655 7.25353 25.0414 12.0154 25.0414C14.5742 25.0414 16.8491 23.9572 18.4127 22.1501L20.1896 23.6681C18.2704 25.9813 15.285 27.4268 12.0868 27.4268C10.6387 27.4317 9.20393 27.1452 7.86513 26.5839C6.52632 26.0226 5.3099 25.1975 4.28587 24.1562C3.26185 23.1149 2.45046 21.8779 1.8984 20.5164C1.34634 19.1548 1.06451 17.6957 1.06915 16.223C1.06915 10.0786 5.97376 5.01843 12.0864 5.01843C18.128 5.01843 23.0323 10.0786 23.0323 16.223C23.0323 18.6809 21.8952 20.7046 19.5494 20.7046C18.5542 20.7046 17.9147 20.1986 17.5591 19.6926C16.4221 21.5719 14.3609 22.8008 12.015 22.8008C8.46115 22.8008 5.54717 19.9095 5.54717 16.223ZM12.0864 14.2711C12.3387 14.27 12.5887 14.3198 12.822 14.4175C13.0553 14.5153 13.2673 14.659 13.4457 14.8405C13.6241 15.0219 13.7654 15.2375 13.8614 15.4748C13.9575 15.7121 14.0063 15.9664 14.0053 16.223C14.0063 16.4796 13.9574 16.7338 13.8613 16.9711C13.7653 17.2083 13.6239 17.4239 13.4456 17.6053C13.2672 17.7867 13.0552 17.9304 12.8219 18.0281C12.5887 18.1258 12.3387 18.1756 12.0864 18.1745C11.8341 18.1756 11.584 18.1259 11.3507 18.0282C11.1174 17.9306 10.9054 17.7869 10.727 17.6054C10.5485 17.424 10.4072 17.2084 10.3111 16.9712C10.215 16.7339 10.1661 16.4796 10.1671 16.223C10.166 15.9664 10.2149 15.7121 10.311 15.4747C10.407 15.2374 10.5484 15.0218 10.7268 14.8403C10.9053 14.6589 11.1173 14.5151 11.3506 14.4174C11.584 14.3197 11.834 14.27 12.0864 14.2711Z" fill="#C02428"/>
</g>
<defs>
<clipPath id="clip0_2375_5017">
<rect width="102" height="30" fill="white" transform="translate(0 0.5)"/>
</clipPath>
</defs>
</svg>
