<svg width="122" height="32" viewBox="0 0 122 32" fill="none" xmlns="http://www.w3.org/2000/svg">
<path d="M19.7274 17.406L10.7563 4.47998V15.546L15.8478 22.939L19.7274 17.406Z" fill="#1A1918"/>
<path d="M19.7275 17.406L23.5583 22.986L28.6498 15.688V4.47998L19.7275 17.406Z" fill="#ED9D4A"/>
<path d="M19.6785 17.406L15.8477 22.939L19.6785 28.472L23.5093 22.939L19.6785 17.406Z" fill="#BA7730"/>
<path d="M4.40234 28.5199H10.7545V15.5939L4.40234 6.38794V28.5199Z" fill="#4CB2D4"/>
<path d="M4.40234 4.47998V6.38798L10.7545 15.546V4.47998H4.40234Z" fill="#1C82AD"/>
<path d="M28.6497 15.69V28.52H35.0018V6.53003L28.6497 15.69Z" fill="#C02439"/>
<path d="M35.0018 4.47998H28.6497V15.64L35.0018 6.48198V4.47998Z" fill="#8F212F"/>
<path d="M45.5467 16.75L42.5435 12.408H40.4451V20.451H42.5801V16.145L45.5833 20.487L46.8846 18.637L48.5967 16.18V20.486H50.7317V12.408H48.5967L45.5467 16.75ZM59.3683 17.105H57.462L58.438 14.305L59.3683 17.105ZM59.8024 12.408H57.0879L54.1568 20.558H56.363L56.9425 18.85H59.837L60.452 20.558H62.6582L62.6216 20.451L59.8024 12.408ZM71.7767 12.48V17.38L68.5203 12.398H66.1688V20.548H68.2672V15.566L71.5591 20.619H73.8751V12.4H71.7767V12.47M80.4611 18.733H79.5928V14.213H80.3523C81.1839 14.213 81.799 14.391 82.1975 14.747C82.5961 15.103 82.8126 15.672 82.8126 16.491C82.8126 17.274 82.595 17.843 82.1975 18.199C81.8 18.555 81.2215 18.733 80.4611 18.733ZM83.8618 13.503C83.4471 13.1283 82.953 12.8489 82.4151 12.685C81.8356 12.507 81.2215 12.4 80.4977 12.4H77.3684V20.55H80.3716C81.131 20.55 81.7827 20.443 82.3612 20.265C82.9397 20.087 83.447 19.802 83.8455 19.447C84.2441 19.092 84.5328 18.664 84.7605 18.13C84.9781 17.632 85.0859 17.062 85.0859 16.422C85.0859 15.817 84.9771 15.282 84.7961 14.785C84.5786 14.287 84.2898 13.86 83.8811 13.505L83.8618 13.503ZM91.6871 16.25L90.7467 16.286V14.186H91.5427C92.049 14.186 92.411 14.256 92.6285 14.436C92.8461 14.616 92.9905 14.836 92.9905 15.148C92.9905 15.504 92.8817 15.788 92.6651 15.931C92.4476 16.109 92.1222 16.216 91.6891 16.251L91.6871 16.25ZM94.8347 16.464C95.1244 16.064 95.2688 15.564 95.2688 15.004C95.2688 14.221 94.9791 13.581 94.4006 13.082C93.8211 12.619 92.9894 12.37 91.9047 12.37H88.5761V20.52H90.8189V17.922L91.6505 17.852L93.2772 20.522H95.8188L93.7204 17.319C94.1545 17.141 94.5521 16.856 94.8418 16.465L94.8347 16.464ZM99.247 20.557H101.453V12.407H99.247V20.557ZM107.172 12.407H104.929V20.557H110.574V18.707H107.173V12.407M116.289 18.705V12.442H114.047V20.592H119.691V18.742H116.29" fill="#313131"/>
</svg>
