<svg width="114" height="24" viewBox="0 0 114 24" fill="none" xmlns="http://www.w3.org/2000/svg">
<path d="M15.2345 0.888922L13.651 4.84774L15.2345 8.0148L17.016 3.85804H20.7769V18.1098C20.7769 18.7036 20.579 19.0995 20.1831 19.4954C19.7872 19.8913 19.1934 20.0892 18.7975 20.0892C18.4016 20.0892 17.6098 19.8913 17.4119 19.2974L15.2345 14.3489L11.4737 6.23333L9.89014 2.86833C9.09838 1.08686 7.11897 0.493042 5.73338 0.493042C4.34779 0.493042 3.16015 1.08686 2.17044 2.07657C1.18074 3.06627 0.586914 4.25392 0.586914 5.63951V23.0583H8.30661L10.286 18.7036L8.7025 15.5366L6.52514 19.8913H3.35809V5.63951C3.35809 5.04568 3.55603 4.6498 3.95191 4.25392C4.34779 3.85804 4.94162 3.6601 5.3375 3.6601C5.53544 3.6601 6.52515 3.6601 6.92103 4.6498L8.7025 8.41068L9.29632 9.59833L12.8593 17.9118C13.4531 19.2974 14.2448 20.881 14.4428 21.4748C15.0366 22.8604 16.8181 23.4542 18.4016 23.4542C18.9954 23.4542 19.7872 23.2563 20.381 23.0583C20.9748 22.8604 21.5687 22.4645 21.9645 21.8707C22.3604 21.4748 22.7563 20.881 23.1522 20.2871C23.3501 19.6933 23.5481 18.9016 23.5481 18.3077V0.888922H15.2345Z" fill="#EC6225"/>
<path d="M28.8927 19.4953V4.84766C28.8927 4.84766 28.8927 4.84766 29.0906 4.84766H32.0597H32.2577C32.2577 4.84766 32.2577 4.84766 32.4556 5.0456L38.9877 15.3385V5.0456C38.9877 5.0456 38.9877 5.0456 39.1856 5.0456H41.7588C41.7588 5.0456 41.7588 5.0456 41.9568 5.0456V19.6932C41.9568 19.6932 41.9568 19.6932 41.7588 19.6932H38.7897H38.5918C38.5918 19.6932 38.5918 19.6932 38.5918 19.4953L31.8618 9.20236V19.4953C31.8618 19.4953 31.8618 19.4953 31.6638 19.4953H29.0906C29.0906 19.4953 29.0906 19.4953 28.8927 19.4953Z" fill="#1F1F1F"/>
<path d="M58.7815 16.3284V10.5881H57.198V8.80665C57.198 8.6087 57.198 8.6087 57.3959 8.6087H58.7815V5.44165H61.3548C61.3548 5.44165 61.3548 5.44165 61.5527 5.44165C61.5527 5.44165 61.5527 5.44165 61.5527 5.63959V8.6087C61.5527 8.80664 61.5527 8.80665 61.7506 8.80665H64.5218C64.5218 8.80665 64.5218 8.80665 64.7198 8.80665C64.7198 8.80665 64.7198 8.80665 64.7198 9.00459V10.7861H61.7506V17.516C61.7506 17.714 61.7506 17.714 61.9486 17.714H64.7198V19.4955C64.7198 19.4955 64.7198 19.4955 64.7198 19.6934C64.7198 19.6934 64.7198 19.6934 64.5218 19.6934H61.9486C61.5527 19.6934 60.9589 19.6934 60.563 19.4955C60.1671 19.2975 59.7712 19.0996 59.3753 18.7037C58.9795 18.3078 58.7815 17.9119 58.5836 17.516C58.7815 17.1202 58.7815 16.7243 58.7815 16.3284Z" fill="#1F1F1F"/>
<path d="M93.4209 19.4955V11.5778C93.4209 11.1819 93.4209 10.5881 93.6188 10.1922C93.8168 9.79636 94.0147 9.40048 94.4106 9.0046C94.8065 8.60872 95.2024 8.41078 95.5982 8.21283C95.9941 8.01489 96.588 8.01489 96.9838 8.01489H100.349C100.349 8.01489 100.349 8.01489 100.547 8.01489C100.547 8.01489 100.547 8.01489 100.547 8.21283V10.1922C100.547 10.1922 100.547 10.1922 100.547 10.3902H96.7859C96.588 10.3902 96.588 10.3902 96.588 10.5881V19.0996C96.588 19.2975 96.588 19.2975 96.39 19.2975H93.8168C93.8168 19.2975 93.8168 19.2975 93.6188 19.2975C93.4209 19.6934 93.4209 19.6934 93.4209 19.4955C93.4209 19.6934 93.4209 19.6934 93.4209 19.4955Z" fill="#1F1F1F"/>
<path d="M85.3057 17.5161C87.0871 17.5161 88.2748 16.1306 88.2748 13.9532C88.2748 11.5779 87.2851 10.3903 85.3057 10.3903C83.5242 10.3903 82.3365 11.7759 82.3365 13.9532C82.3365 16.3285 83.5242 17.5161 85.3057 17.5161ZM79.3674 14.1511C79.3674 13.1614 79.3674 12.3697 79.7633 11.7759C79.9612 10.9841 80.5551 10.3903 80.951 9.79645C81.5448 9.20262 82.1386 8.80674 82.9304 8.6088C83.9201 8.21292 86.4933 8.21292 87.6809 8.6088C88.4727 8.80674 89.0665 9.40057 89.6604 9.79645C90.2542 10.3903 90.6501 10.9841 91.0459 11.7759C91.2439 12.5676 91.4418 13.1614 91.4418 13.9532V14.1511C91.4418 14.9429 91.4418 15.7347 91.0459 16.3285C90.848 17.1203 90.2542 17.7141 89.6604 18.3079C89.0665 18.9017 88.4727 19.2976 87.6809 19.4956C86.2954 20.0894 84.316 20.0894 82.9304 19.4956C82.1386 19.2976 81.5448 18.7038 80.951 18.3079C80.3571 17.7141 79.9613 17.1203 79.5654 16.3285C79.3674 15.5367 79.3674 14.9429 79.3674 14.1511Z" fill="#1F1F1F"/>
<path d="M66.5012 13.9531C66.5012 13.1614 66.5012 12.3696 66.8971 11.5778C67.095 10.7861 67.6889 10.1922 68.2827 9.59842C68.8765 9.0046 69.4703 8.60872 70.2621 8.41078C71.0539 8.21284 71.8456 8.01489 72.6374 8.01489C75.6065 8.01489 77.7839 9.40048 77.9818 12.1717C77.9818 12.1717 77.9818 12.1717 77.9818 12.3696C77.9818 12.3696 77.9818 12.3696 77.7839 12.3696L75.2106 12.5675C75.0127 12.5675 75.0127 12.5675 75.0127 12.3696C75.0127 12.1717 74.8147 11.7758 74.8147 11.5778C74.6168 11.3799 74.4189 11.1819 74.2209 10.984C74.023 10.7861 73.825 10.5881 73.4292 10.5881C73.2312 10.5881 72.8353 10.5881 72.6374 10.5881C70.8559 10.5881 69.8662 11.9737 69.8662 14.1511C69.8662 16.3284 70.8559 17.714 72.6374 17.714C73.2312 17.714 73.825 17.714 74.2209 17.3181C74.6168 16.9222 75.0127 16.5264 75.0127 15.9325C75.0127 15.9325 75.0127 15.9325 75.0127 15.7346C75.0127 15.7346 75.0127 15.7346 75.2106 15.7346H77.7839C77.9818 15.7346 77.9818 15.7346 77.9818 15.9325C77.5859 18.5058 75.4086 20.0893 72.4395 19.8914C71.6477 19.8914 70.8559 19.8914 70.0642 19.4955C69.2724 19.2975 68.6786 18.7037 68.0847 18.3078C67.4909 17.714 67.095 17.1202 66.6992 16.3284C66.5012 15.5367 66.5012 14.7449 66.5012 13.9531Z" fill="#1F1F1F"/>
<path d="M52.8432 12.9634C52.8432 12.5675 52.8432 12.1717 52.6453 11.9737C52.4473 11.5778 52.2494 11.3799 52.0514 11.1819C51.8535 10.984 51.4576 10.7861 51.2597 10.5881C50.8638 10.3902 50.6658 10.3902 50.27 10.3902C49.8741 10.3902 49.4782 10.3902 49.2803 10.5881C48.8844 10.7861 48.6864 10.984 48.2906 11.1819C48.0926 11.3799 47.8947 11.7758 47.6967 11.9737C47.4988 12.3696 47.4988 12.7655 47.4988 12.9634H52.8432ZM44.1338 13.9531C44.1338 13.1614 44.1338 12.3696 44.5297 11.5778C44.7276 10.7861 45.3214 10.1922 45.9153 9.59842C46.5091 9.0046 47.1029 8.60872 47.8947 8.41078C48.6864 8.21284 49.4782 8.01489 50.27 8.01489C53.8329 8.01489 55.8123 10.1922 55.8123 13.9531V14.5469V14.7449H55.6144H47.4988C47.4988 15.1408 47.4988 15.5367 47.6967 15.9325C47.8947 16.3284 48.0926 16.5264 48.2906 16.9222C48.4885 17.1202 48.8844 17.3181 49.2803 17.5161C49.6761 17.714 50.072 17.714 50.4679 17.714C51.0617 17.714 51.4576 17.714 51.8535 17.5161C52.2494 17.3181 52.6453 16.9222 52.8432 16.5264V16.3284H53.0411L55.6144 16.5264C55.8123 16.5264 55.8123 16.5264 55.8123 16.7243C55.2185 18.5058 52.8432 19.8914 50.27 19.8914C49.4782 19.8914 48.6864 19.8914 47.8947 19.4955C47.1029 19.2975 46.5091 18.7037 45.9153 18.3078C45.3214 17.714 44.9256 17.1202 44.5297 16.3284C44.3317 15.5367 44.1338 14.7449 44.1338 13.9531Z" fill="#1F1F1F"/>
<path d="M110.246 12.9634C110.246 12.5675 110.246 12.1717 110.048 11.9737C109.85 11.5778 109.652 11.3799 109.454 11.1819C109.256 10.984 108.861 10.7861 108.663 10.5881C108.267 10.3902 108.069 10.3902 107.673 10.3902C107.277 10.3902 106.881 10.3902 106.683 10.5881C106.287 10.7861 106.089 10.984 105.693 11.1819C105.496 11.3799 105.298 11.7758 105.1 11.9737C104.902 12.3696 104.902 12.7655 104.902 12.9634H110.246ZM101.735 13.9531C101.735 13.1614 101.735 12.3696 102.131 11.5778C102.328 10.7861 102.922 10.1922 103.516 9.59842C104.11 9.0046 104.704 8.60872 105.496 8.41078C106.287 8.21284 107.079 8.01489 107.871 8.01489C111.434 8.01489 113.413 10.1922 113.413 13.9531V14.5469V14.7449H113.215H105.1C105.1 15.1408 105.1 15.5367 105.298 15.9325C105.496 16.3284 105.693 16.5264 105.891 16.9222C106.089 17.1202 106.485 17.3181 106.881 17.5161C107.277 17.714 107.673 17.714 108.069 17.714C108.663 17.714 109.058 17.714 109.454 17.5161C109.85 17.3181 110.246 16.9222 110.444 16.5264V16.3284H110.642L113.215 16.5264C113.413 16.5264 113.413 16.5264 113.413 16.7243C113.017 18.9017 110.642 20.2872 107.871 20.0893C107.079 20.0893 106.287 20.0893 105.496 19.6934C104.704 19.4955 104.11 18.9016 103.516 18.5058C102.922 17.9119 102.526 17.3181 102.131 16.5264C101.735 15.5366 101.537 14.7449 101.735 13.9531Z" fill="#1F1F1F"/>
</svg>
