<svg width="90" height="28" viewBox="0 0 90 28" fill="none" xmlns="http://www.w3.org/2000/svg">
<path d="M14.2498 1.0002C11.8215 1.00907 9.58171 1.86088 7.77228 3.29623C5.96366 4.73072 4.58453 6.74875 3.87905 9.08643C3.85047 9.18223 3.80638 9.2702 3.75086 9.34772C3.6937 9.42611 3.62511 9.49317 3.54754 9.54717C2.42889 10.3232 1.50866 11.3945 0.88646 12.6583C0.263446 13.9212 -0.0615339 15.3766 0.0103209 16.9199C0.113204 19.1513 1.06365 21.1188 2.51218 22.5255C3.95989 23.9329 5.9065 24.7804 8.00172 24.7727H14.3266H20.6514C22.7458 24.7647 24.6867 23.8911 26.1263 22.4628C27.5658 21.0326 28.5032 19.0477 28.5914 16.8145C28.6543 15.2712 28.3187 13.8184 27.6875 12.559C27.0571 11.3004 26.1304 10.2361 25.0076 9.46965C24.9284 9.41478 24.859 9.34772 24.8027 9.27107C24.7455 9.19356 24.7023 9.10646 24.6729 9.01065C23.9519 6.6782 22.5605 4.67062 20.7413 3.24833C18.9237 1.82691 16.6782 0.990782 14.2498 1.0002ZM14.2596 3.9659C16.0519 3.95904 17.7536 4.5931 19.136 5.6853C20.5192 6.77836 21.5815 8.32956 22.0967 10.1595L22.2078 10.5558L22.3196 10.952C22.349 11.0548 22.3956 11.1489 22.4568 11.2325C22.5172 11.3161 22.5932 11.3867 22.6797 11.4415L23.0137 11.6514L23.3484 11.8622C24.1495 12.3656 24.7839 13.0702 25.2093 13.8977C25.6347 14.7242 25.8503 15.6727 25.8152 16.6656C25.7637 18.107 25.1554 19.3848 24.2238 20.3036C23.2913 21.2225 22.0338 21.7825 20.6825 21.7869L14.3168 21.8113L7.9511 21.834C6.59974 21.8391 5.33819 21.2887 4.4 20.3759C3.4618 19.464 2.84695 18.1907 2.78571 16.7501C2.74325 15.7572 2.95392 14.8078 3.37362 13.9769C3.79331 13.1469 4.42368 12.4379 5.22225 11.9284L5.55539 11.7159L5.88772 11.5034C5.97346 11.4476 6.04858 11.3762 6.109 11.2926C6.16942 11.209 6.21597 11.1132 6.24373 11.0104L6.35314 10.6132L6.46256 10.2169C6.96473 8.38356 8.01805 6.82365 9.39391 5.72101C10.7689 4.61836 12.4665 3.9721 14.2596 3.9659Z" fill="#03A94A"/>
<path d="M12.0943 11.1653C12.0943 11.3395 12.029 11.498 11.922 11.613C11.8151 11.728 11.6673 11.7994 11.5031 11.8002L10.9063 11.802L10.3086 11.8046C10.1453 11.8046 9.99746 11.7341 9.88968 11.62C9.7819 11.5067 9.71494 11.3491 9.71413 11.1749L9.71168 10.5373L9.70923 9.8998C9.70923 9.7256 9.77537 9.56709 9.88233 9.45212C9.9893 9.33715 10.1371 9.26573 10.3012 9.26486L10.8981 9.26312L11.4958 9.26051C11.6591 9.26051 11.8069 9.33193 11.9147 9.44515C12.0225 9.55925 12.0894 9.71689 12.0902 9.89109L12.0927 10.5286L12.0943 11.1653ZM15.4737 11.1653C15.4745 11.3395 15.4084 11.498 15.3014 11.613C15.1944 11.728 15.0467 11.7994 14.8825 11.8002L14.2856 11.802L13.6879 11.8046C13.5246 11.8046 13.3768 11.7341 13.2691 11.62C13.1613 11.5067 13.0943 11.3491 13.0935 11.1749L13.0911 10.5373L13.0894 9.8998C13.0886 9.7256 13.1547 9.56709 13.2617 9.45212C13.3687 9.33715 13.5173 9.26573 13.6806 9.26486L14.2775 9.26312L14.8752 9.26051C15.0385 9.26051 15.1863 9.33193 15.2941 9.44515C15.4018 9.55925 15.4688 9.71689 15.4696 9.89109L15.4721 10.5286L15.4737 11.1653ZM18.8538 11.1662C18.8538 11.3404 18.7877 11.4989 18.6807 11.6139C18.5737 11.7288 18.426 11.8002 18.2618 11.8011L17.6649 11.8029L17.0672 11.8046C16.9039 11.8055 16.7553 11.7349 16.6475 11.6208C16.5398 11.5076 16.4728 11.3491 16.4728 11.1749L16.4704 10.5373L16.4687 9.90067C16.4679 9.7256 16.534 9.56709 16.641 9.45212C16.748 9.33715 16.8958 9.26573 17.0599 9.26486L17.6568 9.26312L18.2545 9.26051C18.4186 9.25702 18.5688 9.32322 18.6791 9.43557C18.7893 9.54706 18.8604 9.70296 18.8644 9.87802V9.88499V9.89109L18.8587 10.5286L18.8538 11.1662ZM12.0959 14.7691C12.0959 14.9433 12.0305 15.1018 11.9228 15.2168C11.8158 15.3318 11.6688 15.4032 11.5047 15.4041L10.9078 15.4058L10.3101 15.4084C10.1468 15.4084 9.99902 15.3379 9.89123 15.2238C9.78345 15.1105 9.7165 14.9529 9.71486 14.7787L9.71323 14.1403L9.71078 13.5036C9.71078 13.3294 9.77692 13.1709 9.88388 13.0559C9.99085 12.941 10.1386 12.8695 10.3019 12.8687L10.8997 12.8661L11.4974 12.8643C11.6607 12.8643 11.8085 12.9357 11.9162 13.049C12.024 13.1631 12.091 13.3207 12.0918 13.4949L12.0942 14.1324L12.0959 14.7691ZM15.4753 14.7691C15.4753 14.9433 15.4099 15.1018 15.303 15.2168C15.196 15.3318 15.0482 15.4032 14.8841 15.4041L14.2872 15.4058L13.6895 15.4084C13.5262 15.4084 13.3784 15.3379 13.2706 15.2238C13.1628 15.1105 13.0959 14.9529 13.0951 14.7787L13.0926 14.1403L13.0902 13.5036C13.0902 13.3294 13.1563 13.1709 13.2633 13.0559C13.3702 12.941 13.518 12.8695 13.6821 12.8687L14.279 12.8661L14.8767 12.8643C15.04 12.8643 15.1878 12.9357 15.2956 13.049C15.4034 13.1631 15.4704 13.3207 15.4712 13.4949L15.4736 14.1324L15.4753 14.7691ZM18.8546 14.7691C18.8546 14.9433 18.7893 15.1018 18.6823 15.2168C18.5754 15.3318 18.4276 15.4032 18.2635 15.4041L17.6666 15.4058L17.0689 15.4084C16.9056 15.4084 16.757 15.3387 16.6492 15.2246C16.5414 15.1114 16.4744 14.9529 16.4744 14.7787L16.472 14.1403L16.4695 13.5036C16.4695 13.3294 16.5349 13.1709 16.6426 13.0559C16.7496 12.941 16.8974 12.8695 17.0615 12.8687L17.6584 12.8661L18.2561 12.8643C18.4194 12.8643 18.5672 12.9357 18.675 13.049C18.7828 13.1631 18.8497 13.3207 18.8506 13.4949L18.853 14.1324L18.8546 14.7691ZM12.0975 18.3721C12.0983 18.5463 12.0322 18.7057 11.9252 18.8207C11.8182 18.9348 11.6705 19.0071 11.5063 19.0071L10.9094 19.0088L10.3117 19.0106C10.1476 19.0114 9.99983 18.9409 9.89205 18.8268C9.78427 18.7136 9.71731 18.5559 9.7165 18.3808L9.71486 17.7433L9.71241 17.1066C9.71241 16.9324 9.77855 16.7739 9.88552 16.6589C9.99248 16.544 10.1403 16.4726 10.3036 16.4717L10.9005 16.4691L11.499 16.4673C11.6623 16.4665 11.8101 16.5379 11.9179 16.6511C12.0256 16.7652 12.0926 16.9237 12.0934 17.0979L12.0951 17.7355L12.0975 18.3721ZM15.4769 18.3721C15.4777 18.5463 15.4116 18.7057 15.3046 18.8207C15.1976 18.9348 15.0498 19.0071 14.8857 19.0071L14.2888 19.0088L13.6911 19.0106C13.527 19.0114 13.3792 18.9409 13.2714 18.8268C13.1637 18.7136 13.0967 18.5559 13.0959 18.3808L13.0942 17.7433L13.0918 17.1066C13.0918 16.9324 13.1579 16.7739 13.2649 16.6589C13.3719 16.544 13.5197 16.4726 13.683 16.4717L14.2807 16.4691L14.8784 16.4673C15.0417 16.4665 15.1895 16.5379 15.2972 16.6511C15.405 16.7652 15.472 16.9237 15.4728 17.0979L15.4753 17.7355L15.4769 18.3721ZM18.8562 18.3721C18.857 18.5463 18.7909 18.7057 18.6839 18.8207C18.5769 18.9348 18.4291 19.0071 18.265 19.0071L17.6681 19.0088L17.0704 19.0106C16.9063 19.0114 16.7585 18.9409 16.6507 18.8268C16.543 18.7136 16.476 18.5559 16.4752 18.3808L16.4735 17.7433L16.4711 17.1066C16.4711 16.9324 16.5364 16.773 16.6434 16.6581C16.7503 16.5431 16.899 16.4717 17.0631 16.4717L17.66 16.4691L18.2577 16.4673C18.421 16.4665 18.5688 16.5379 18.6765 16.6511C18.7843 16.7652 18.8513 16.9237 18.8521 17.0979L18.8546 17.7355L18.8562 18.3721Z" fill="#03A94A"/>
<path d="M42.5796 15.4836C42.8213 15.2041 43.0018 14.874 43.121 14.4916C43.2418 14.1101 43.3006 13.6773 43.2991 13.193C43.2974 12.7079 43.2353 12.275 43.1128 11.8953C42.9904 11.5138 42.8075 11.1845 42.5649 10.9067C42.3224 10.6297 42.0448 10.4216 41.7345 10.2831C41.4234 10.1455 41.0789 10.0767 40.7008 10.0784C40.3219 10.0802 39.9782 10.1507 39.6687 10.2909C39.3592 10.4312 39.0832 10.6411 38.8424 10.9206C38.6007 11.2002 38.4194 11.5303 38.3002 11.9118C38.1802 12.2942 38.1214 12.727 38.1229 13.2122C38.1246 13.6955 38.1859 14.1284 38.3092 14.5099C38.4308 14.8896 38.6137 15.2189 38.8563 15.4976C39.0996 15.7745 39.3764 15.9827 39.6875 16.1203C39.9978 16.2588 40.3423 16.3276 40.7212 16.3259C41.0993 16.3241 41.443 16.2536 41.7525 16.1134C42.0628 15.9731 42.3379 15.7624 42.5796 15.4836ZM44.1515 7.24255C44.6095 7.51952 45.0211 7.85484 45.3869 8.24939C45.7511 8.64306 46.0679 9.09684 46.339 9.6081C46.6092 10.1194 46.8125 10.6733 46.9481 11.2673C47.0844 11.8622 47.1539 12.4988 47.1556 13.1773C47.1579 13.8549 47.0926 14.4916 46.9603 15.0874C46.8281 15.6831 46.628 16.2379 46.3618 16.7509C46.0948 17.2648 45.7796 17.7194 45.4179 18.1166C45.0554 18.5137 44.6463 18.8517 44.1898 19.1321C43.7326 19.4126 43.25 19.6234 42.7413 19.7645C42.2326 19.9047 41.6994 19.9761 41.1385 19.9787C40.4199 19.9813 39.7781 19.869 39.2106 19.6408C38.6423 19.4143 38.1475 19.0703 37.7229 18.6122L37.7237 21.2503V23.8885C37.7245 24.1263 37.6347 24.3414 37.4902 24.4982C37.344 24.6541 37.1432 24.7516 36.9203 24.7525L35.5697 24.7568L34.22 24.7612C33.9971 24.7621 33.7946 24.6671 33.6484 24.5121C33.5023 24.3571 33.4108 24.1419 33.4108 23.905L33.3896 15.6639L33.3691 7.42284C33.3683 7.18594 33.4582 6.97081 33.6035 6.81403C33.7488 6.65726 33.9505 6.56058 34.1726 6.55971L35.4203 6.55535L36.6688 6.551C36.8917 6.55013 37.0934 6.64593 37.2395 6.8001C37.3865 6.956 37.4771 7.17026 37.4779 7.40803L37.473 7.68239L37.4682 7.95674C37.8674 7.44723 38.3696 7.064 38.9738 6.80793C39.5781 6.551 40.2852 6.4221 41.096 6.41855C41.6553 6.41687 42.1893 6.48393 42.6989 6.62155C43.2092 6.75829 43.6926 6.96645 44.1515 7.24255ZM49.9229 2.01169L51.2726 2.00646L52.624 2.00123C52.8461 2.00037 53.0477 2.09617 53.1947 2.25121C53.3417 2.40624 53.4323 2.62137 53.4332 2.85914V10.9827V19.1062C53.434 19.3431 53.3441 19.5582 53.1988 19.715C53.0535 19.8709 52.8526 19.9676 52.6289 19.9684L51.2791 19.9737L49.9286 19.9789C49.7057 19.9798 49.504 19.8848 49.3578 19.7289C49.2117 19.5739 49.121 19.3588 49.1202 19.1219V10.9975L49.1194 2.87395C49.1186 2.63704 49.2084 2.42192 49.3538 2.26514C49.4983 2.10924 49.7008 2.01256 49.9229 2.01169ZM75.4315 7.9928L74.3341 10.8548L73.2367 13.7177L72.1393 16.5805L71.041 19.4434C71.01 19.5244 70.9683 19.5976 70.9194 19.6629C70.8687 19.7282 70.8108 19.7848 70.7454 19.831C70.6809 19.878 70.6099 19.9146 70.534 19.9399C70.4588 19.9643 70.3796 19.9782 70.298 19.9782H69.4537H68.6094L67.7643 19.9791H66.92C66.8383 19.9791 66.7583 19.966 66.6824 19.9416C66.6072 19.9172 66.5354 19.8806 66.4701 19.8353C66.4056 19.7883 66.3468 19.7326 66.2961 19.6672C66.2455 19.6028 66.2039 19.5288 66.172 19.4486L65.0713 16.5866L63.9715 13.7255L62.87 10.8644L61.7701 8.00238C61.7146 7.86128 61.6983 7.7167 61.7121 7.57822C61.7268 7.44061 61.7717 7.30996 61.8428 7.19586C61.913 7.08264 62.0094 6.9877 62.1229 6.91977C62.2363 6.85183 62.3678 6.81351 62.5115 6.81264L63.1803 6.81003L63.8482 6.80741L64.5169 6.8048L65.1848 6.80298C65.2681 6.80219 65.3482 6.81525 65.4249 6.84051C65.5017 6.86577 65.5743 6.90322 65.6397 6.95025C65.7058 6.99728 65.7646 7.05564 65.8152 7.12183C65.865 7.18802 65.9067 7.26293 65.9377 7.34567L66.6309 9.20954L67.3242 11.0752L68.0182 12.9399L68.7123 14.8046L69.4267 12.9408L70.1428 11.0769L70.8589 9.21303L71.575 7.34915C71.6052 7.26902 71.6469 7.19412 71.6975 7.12793C71.7473 7.06173 71.8069 7.00338 71.8714 6.95548C71.9359 6.90757 72.0078 6.86925 72.0821 6.84312C72.158 6.81699 72.2372 6.80298 72.3189 6.80298L72.9101 6.80393L73.5012 6.8048L74.0916 6.80567L74.6828 6.80654C74.8265 6.80654 74.9587 6.84486 75.0731 6.91106C75.1866 6.97812 75.2821 7.07306 75.3539 7.18541C75.425 7.29864 75.4723 7.43015 75.487 7.56777C75.5025 7.70538 75.4854 7.85083 75.4315 7.9928ZM84.7411 15.3254C84.982 15.0467 85.1633 14.714 85.2825 14.3273C85.4025 13.9423 85.4621 13.5025 85.4605 13.0104C85.4589 12.5261 85.3968 12.095 85.2743 11.7152C85.1518 11.3372 84.9689 11.0106 84.7256 10.7363C84.4831 10.4636 84.2063 10.259 83.8952 10.1222C83.5849 9.98636 83.2403 9.91929 82.8615 9.92015C82.4834 9.92191 82.1388 9.99158 81.8302 10.1301C81.5199 10.2685 81.2447 10.4758 81.0039 10.7502C80.7622 11.0254 80.5809 11.3529 80.4617 11.7335C80.3416 12.1133 80.2829 12.5453 80.2844 13.0295C80.2861 13.5225 80.3474 13.9606 80.4707 14.3456C80.5923 14.7305 80.7752 15.0615 81.0177 15.3393C81.2611 15.6172 81.5379 15.8245 81.849 15.9621C82.1592 16.1014 82.5038 16.1694 82.8827 16.1685C83.2607 16.1667 83.6037 16.0962 83.914 15.956C84.2243 15.8149 84.4994 15.605 84.7411 15.3254ZM79.3267 18.966C78.7968 18.6777 78.3232 18.332 77.9076 17.9296C77.4919 17.5272 77.1343 17.0691 76.833 16.5535C76.5325 16.0378 76.3072 15.4883 76.1553 14.9038C76.0042 14.3186 75.9275 13.6993 75.9257 13.0461C75.9234 12.3998 75.9961 11.7866 76.1438 11.2048C76.2908 10.623 76.5137 10.0735 76.811 9.55523C77.1082 9.03787 77.4626 8.57713 77.8733 8.17387C78.2848 7.77149 78.7527 7.42571 79.2777 7.13742C79.8027 6.84913 80.3629 6.63226 80.9581 6.48681C81.5542 6.34136 82.1846 6.26645 82.8508 6.26457C83.5163 6.2621 84.1475 6.33091 84.7468 6.472C85.3445 6.6131 85.9096 6.82562 86.4395 7.11042C86.9703 7.3961 87.443 7.73665 87.8562 8.13468C88.2694 8.53271 88.6254 8.98736 88.9218 9.49949C89.2182 10.0099 89.4419 10.5568 89.5913 11.1395C89.7407 11.7222 89.8167 12.3406 89.8184 12.9947C89.8208 13.6479 89.7489 14.268 89.6036 14.8542C89.4574 15.4395 89.2386 15.9917 88.9438 16.509C88.6507 17.0264 88.2987 17.488 87.888 17.893C87.4765 18.298 87.0062 18.6464 86.4779 18.939C85.9488 19.2317 85.3862 19.452 84.7893 19.5992C84.1916 19.7464 83.5596 19.8213 82.8933 19.8241C82.236 19.8265 81.6089 19.756 81.0153 19.6132C80.42 19.4703 79.8583 19.2543 79.3267 18.966ZM59.4917 5.87234H58.1599H56.8289C56.6019 5.87234 56.3954 5.77392 56.2459 5.61454C56.0973 5.45515 56.0042 5.23566 56.0042 4.99266V3.93618V2.88057C56.0042 2.63757 56.0973 2.41808 56.2459 2.25957C56.3954 2.10018 56.6019 2.00176 56.8289 2.00176H58.1599H59.4917C59.7187 2.00176 59.9252 2.10018 60.0747 2.25957C60.2233 2.41808 60.3155 2.63757 60.3155 2.88057V3.93618V4.99266C60.3155 5.23566 60.2233 5.45515 60.0747 5.61454C59.9252 5.77392 59.7187 5.87234 59.4917 5.87234ZM59.4917 19.9788H58.1599H56.8289C56.6019 19.9788 56.3954 19.8804 56.2459 19.721C56.0973 19.5616 56.0042 19.343 56.0042 19.0991V13.3952V7.69205C56.0042 7.44905 56.0973 7.22957 56.2459 7.07018C56.3954 6.9108 56.6019 6.81325 56.8289 6.81325H58.1599H59.4917C59.7187 6.81325 59.9252 6.9108 60.0747 7.07018C60.2233 7.22957 60.3155 7.44905 60.3155 7.69205V13.3952V19.0991C60.3155 19.343 60.2233 19.5616 60.0747 19.721C59.9252 19.8804 59.7187 19.9788 59.4917 19.9788Z" fill="#1F1F1F"/>
</svg>
