<svg width="82" height="27" viewBox="0 0 82 27" fill="none" xmlns="http://www.w3.org/2000/svg">
<g clip-path="url(#clip0_2375_5123)">
<path d="M18.3318 3.14172C19.5557 4.15949 20.4881 5.38692 20.7145 6.98087C20.7388 7.36349 20.7453 7.74089 20.7411 8.12422C20.74 8.25982 20.7388 8.39543 20.7377 8.53515C20.6777 10.6172 19.7752 12.2478 18.3619 13.7781C16.3333 15.6264 13.5333 16.5853 10.7975 16.5391C10.773 16.7389 10.773 16.7389 10.7481 16.9428C9.78144 24.5054 9.78144 24.5054 8.30758 25.7993C7.27196 26.5701 6.23996 26.5362 4.97984 26.4662C3.594 26.231 2.38644 25.2656 1.58887 24.1643C0.30878 22.1639 -0.00606684 19.8844 8.7948e-05 17.5628C7.26641e-05 17.4737 5.73801e-05 17.3847 4.16333e-05 17.2929C0.00405527 15.6396 0.184952 14.0598 0.553394 12.4441C0.572977 12.3538 0.592561 12.2634 0.612738 12.1703C0.891479 10.9074 1.37511 9.75584 1.94456 8.59731C2.04825 8.38593 2.04825 8.38592 2.15403 8.17027C3.7965 5.01175 6.44694 2.99777 9.8435 1.89404C12.567 1.15452 16.079 1.39424 18.3318 3.14172Z" fill="#1F1F1F"/>
<path d="M11.8206 4.6279C11.9773 4.62647 11.9773 4.62647 12.1371 4.625C13.4976 4.62919 14.6209 4.93051 15.6538 5.85615C16.3857 6.64709 16.6076 7.53218 16.5932 8.59081C16.5922 8.68802 16.5913 8.78523 16.5903 8.88538C16.5487 10.3682 16.0156 11.6373 14.9507 12.6776C13.8463 13.4564 12.5895 14.0708 11.2086 14.0708C11.2781 13.4457 11.3732 12.8286 11.4802 12.2088C11.5081 12.0455 11.5359 11.8823 11.5638 11.719C11.6065 11.4682 11.6497 11.2174 11.6943 10.9669C11.9093 9.75578 11.9911 8.61244 11.9524 7.38336C11.2062 7.06673 10.525 7.05385 9.72104 7.13568C9.14192 7.40501 8.88709 7.68793 8.60538 8.25025C8.49914 8.63589 8.43021 9.02608 8.36181 9.41996C8.33064 9.59137 8.33064 9.59137 8.29883 9.76624C8.07197 11.028 7.8688 12.2938 7.66792 13.5599C7.45265 14.9158 7.23025 16.2656 6.95268 17.6103C6.81986 18.2897 6.72669 18.9739 6.62973 19.6591C6.17662 22.7041 6.17662 22.7041 5.38237 23.3588C5.02598 23.3898 5.02598 23.3898 4.6386 23.235C3.7022 22.4037 3.31671 20.9654 3.15105 19.7674C3.13549 19.44 3.12502 19.1158 3.12151 18.7883C3.12031 18.695 3.11911 18.6016 3.11787 18.5055C3.11478 18.2037 3.11322 17.902 3.11231 17.6002C3.11199 17.4974 3.11166 17.3947 3.11133 17.2888C3.11077 15.6335 3.22848 14.0691 3.6469 12.4608C3.70059 12.2393 3.70059 12.2393 3.75537 12.0134C4.2182 10.3228 5.02778 8.74476 6.12614 7.38336C6.21818 7.25565 6.31022 7.12794 6.40505 6.99636C7.88475 5.45091 9.69111 4.60846 11.8206 4.6279Z" fill="#FAFAFA"/>
<path d="M25.4268 22.3182V6.5H31.3327C32.5426 6.5 33.5576 6.72656 34.3779 7.17969C35.2033 7.63281 35.8262 8.25586 36.2466 9.04883C36.6721 9.83665 36.8848 10.7326 36.8848 11.7367C36.8848 12.7511 36.6721 13.6522 36.2466 14.44C35.821 15.2278 35.193 15.8483 34.3625 16.3014C33.532 16.7494 32.5092 16.9734 31.2942 16.9734H27.38V14.6176H30.9097C31.6172 14.6176 32.1965 14.4941 32.6476 14.2469C33.0988 13.9997 33.432 13.6599 33.6473 13.2274C33.8678 12.7948 33.978 12.2979 33.978 11.7367C33.978 11.1754 33.8678 10.6811 33.6473 10.2537C33.432 9.82635 33.0962 9.49423 32.64 9.25737C32.1888 9.01536 31.6069 8.89435 30.8943 8.89435H28.2797V22.3182H25.4268Z" fill="#1F1F1F"/>
<path d="M42.0237 6.5V22.3182H39.2399V6.5H42.0237Z" fill="#1F1F1F"/>
<path d="M52.4147 17.3287V10.4545H55.1985V22.3182H52.4993V20.2096H52.3763C52.1097 20.8738 51.6714 21.4171 51.0613 21.8393C50.4564 22.2615 49.7104 22.4727 48.8235 22.4727C48.0494 22.4727 47.365 22.3002 46.7703 21.9552C46.1807 21.605 45.7193 21.0978 45.3861 20.4336C45.0529 19.7642 44.8862 18.9558 44.8862 18.0083V10.4545H47.67V17.5758C47.67 18.3276 47.8751 18.9249 48.2852 19.3677C48.6953 19.8105 49.2336 20.032 49.9001 20.032C50.3102 20.032 50.7076 19.9316 51.0921 19.7307C51.4766 19.5299 51.7918 19.2313 52.0379 18.8348C52.2891 18.4332 52.4147 17.9311 52.4147 17.3287Z" fill="#1F1F1F"/>
<path d="M60.8449 15.3668V22.3182H58.0611V10.4545H60.7218V12.4704H60.8602C61.132 11.8062 61.5652 11.2784 62.1599 10.8871C62.7597 10.4957 63.5005 10.3001 64.3823 10.3001C65.1974 10.3001 65.9074 10.4751 66.5124 10.8253C67.1225 11.1754 67.5941 11.6826 67.9273 12.3469C68.2657 13.0111 68.4323 13.8169 68.4272 14.7644V22.3182H65.6434V15.1969C65.6434 14.4039 65.4383 13.7835 65.0282 13.3355C64.6232 12.8875 64.0618 12.6635 63.3441 12.6635C62.8571 12.6635 62.4239 12.7717 62.0445 12.9879C61.6703 13.199 61.3755 13.5054 61.1602 13.907C60.95 14.3087 60.8449 14.7953 60.8449 15.3668Z" fill="#1F1F1F"/>
<path d="M73.7948 18.5953L73.7871 15.2201H74.2331L78.478 10.4545H81.7309L76.5093 16.2937H75.9326L73.7948 18.5953ZM71.2571 22.3182V6.5H74.0409V22.3182H71.2571ZM78.6702 22.3182L74.8252 16.9193L76.7016 14.9498L82 22.3182H78.6702Z" fill="#1F1F1F"/>
</g>
<defs>
<clipPath id="clip0_2375_5123">
<rect width="82" height="26" fill="white" transform="translate(0 0.5)"/>
</clipPath>
</defs>
</svg>
