<svg width="114" height="19" viewBox="0 0 114 19" fill="none" xmlns="http://www.w3.org/2000/svg">
<g clip-path="url(#clip0_2375_5079)">
<path fill-rule="evenodd" clip-rule="evenodd" d="M20.8313 14.6956H22.7284V16.7945H16.6968V14.6956H18.5715V2.60104H16.6968V0.61853H23.0728C27.1859 0.61853 29.1512 2.08671 29.1512 5.55921C29.1512 9.03171 27.2093 10.5934 23.0728 10.5934H20.8313V14.6956ZM20.8313 8.65869H22.7284C25.4019 8.65869 26.7274 7.93655 26.7274 5.62883C26.7274 3.3211 25.4029 2.59896 22.7284 2.59896H20.8313V8.65869ZM40.9801 11.1296C40.9801 14.7662 38.649 17.1186 35.3815 17.1186C32.1141 17.1186 29.8053 14.788 29.8053 11.1296C29.8053 7.47106 32.113 5.14047 35.3815 5.14047C38.65 5.14047 40.9801 7.49392 40.9801 11.1296ZM35.3815 15.0218C37.4151 15.0218 38.7407 13.6233 38.7407 11.1067C38.7407 8.61298 37.461 7.19156 35.3815 7.19156C33.3234 7.19156 32.0224 8.61298 32.0224 11.1067C32.0224 13.6004 33.3703 15.0218 35.3815 15.0218ZM42.7886 16.7934V12.9489H44.5716C44.7315 14.441 45.8288 15.3263 47.4753 15.3263C48.8232 15.3263 49.6454 14.627 49.6454 13.7646C49.6454 12.9022 48.9598 12.5281 47.6118 12.2029L45.8981 11.8081C43.7504 11.2958 42.7448 10.316 42.7448 8.54544C42.7448 6.65748 44.3678 5.14255 46.6296 5.14255C47.7952 5.14255 48.7998 5.53739 49.6006 6.28551V5.42309H51.3143V9.12834H49.6006C49.4865 7.77758 48.3678 6.86737 46.7438 6.86737C45.5558 6.86737 44.8242 7.44924 44.8242 8.33555C44.8242 9.17406 45.4417 9.54708 46.6296 9.80373L48.5267 10.1986C50.6521 10.6661 51.6801 11.7135 51.6801 13.4383C51.6801 15.6058 50.1029 17.1207 47.5894 17.1207C46.4014 17.1207 45.35 16.7467 44.5736 16.0256V16.7945L42.7886 16.7934ZM56.4351 13.6472C56.4351 14.6966 56.6185 15.0914 57.3266 15.0914C57.6934 15.0914 58.0581 14.9751 58.5146 14.7652V16.7467C57.9206 17.0033 57.3266 17.1207 56.755 17.1207C54.6969 17.1207 54.4239 16.0256 54.4239 13.9973V7.30897H52.9608V5.41894H54.4239V3.904L56.4351 2.20308V5.41894H58.5135V7.30689H56.4351V13.6472ZM63.5976 7.1687C64.9914 6.00496 66.157 5.42102 67.4366 5.42102C68.7846 5.42102 69.6537 6.02678 69.996 7.23935C71.3898 6.02782 72.6246 5.42102 73.9267 5.42102C76.2344 5.42102 76.6236 6.91309 76.6236 9.47643V14.7901H78.2467V16.7955H74.5452V9.26758C74.5452 7.89291 74.0867 7.24143 73.1514 7.24143C72.1692 7.24143 71.2084 7.8233 70.158 8.98911V14.7922H71.781V16.7976H68.0785V9.29355C68.0785 7.89499 67.62 7.24247 66.6623 7.24247C65.6801 7.24247 64.7428 7.82434 63.6913 8.99015V14.7932H65.3144V16.7986H60.0123V14.7932H61.6353V7.31209H60.0123V5.41894H63.5986L63.5976 7.1687ZM86.8601 16.7934V15.7211C85.7393 16.6531 84.6206 17.1197 83.3175 17.1197C81.1239 17.1197 79.6598 15.6515 79.6598 13.5069C79.6598 11.2698 81.237 9.77671 83.613 9.77671C84.4586 9.77671 85.5101 10.0573 86.7897 10.5924V9.91698C86.7897 7.89084 86.0816 6.93491 84.4464 6.93491C83.2584 6.93491 82.4352 7.42326 81.7495 8.40309L79.8065 7.89084C80.5146 6.14316 82.2294 5.14047 84.5951 5.14047C87.7719 5.14047 88.7999 6.70216 88.7999 9.87126V14.7891H90.4912V16.7945L86.8601 16.7934ZM86.8601 13.6243V12.7858C85.831 12.1561 84.9854 11.7603 84.0032 11.7603C82.7011 11.7603 81.8554 12.4595 81.8554 13.4383C81.8554 14.3236 82.587 15.0229 83.6833 15.0229C84.6206 15.0229 85.6497 14.5345 86.8601 13.6243ZM93.3114 14.788V7.30689H91.5386V5.41894H95.4714V7.65601C96.3456 5.90833 97.503 5.20905 99.4571 5.20905L100.409 5.23191V7.42222L99.4571 7.37547C96.6288 7.37547 95.5753 8.86754 95.5753 11.781V14.787H97.8117V16.7924H91.5386V14.787L93.3114 14.788ZM102.518 2.50648H100.918V0.61853H104.529V14.788H106.152V16.7934H100.919V14.788H102.519L102.518 2.50648ZM108.939 7.30689H107.387V5.41894H112.817V7.30689H111.435L107.288 10.663L111.338 14.788H113.037V16.7934H110.346L104.599 10.8272L108.939 7.30689Z" fill="black"/>
<path fill-rule="evenodd" clip-rule="evenodd" d="M0.963379 2.572C3.46976 1.16617 6.68118 0.516761 10.5956 0.623783C18.3012 1.36359 20.5253 6.09957 28.6048 5.90735C35.3497 5.69954 38.5203 2.58239 38.5203 2.58239V3.56325C38.5203 3.56325 35.0338 6.56195 28.289 6.76976C20.2095 6.96198 18.1922 2.21872 10.4856 1.481C6.57114 1.37398 3.3964 2.06287 0.963379 3.54455V2.49511" fill="black" fill-opacity="0.2"/>
<path d="M0.963421 6.48716C3.4698 5.08133 6.68122 4.43192 10.5957 4.53894C18.3012 5.27875 20.5254 10.0147 28.6049 9.82251C35.3497 9.6147 38.5204 6.49755 38.5204 6.49755V7.47842C38.5204 7.47842 35.0328 10.4969 28.288 10.7047C20.2085 10.8969 18.1912 6.15363 10.4846 5.4159C6.57017 5.30888 3.39542 5.99777 0.962402 7.47945V6.43001" fill="black" fill-opacity="0.2"/>
<path d="M0.963421 10.4116C3.4698 9.00577 6.68122 8.35636 10.5957 8.46338C18.3012 9.20319 20.5254 13.9392 28.6049 13.7469C35.3497 13.5391 38.5204 10.422 38.5204 10.422V11.4029C38.5204 11.4029 35.0328 14.4213 28.288 14.6291C20.2085 14.8213 18.1912 10.0781 10.4846 9.34034C6.57017 9.23332 3.39542 9.92221 0.962402 11.4039V10.3545" fill="black" fill-opacity="0.2"/>
<path fill-rule="evenodd" clip-rule="evenodd" d="M0.963379 14.4587C3.46976 13.0529 6.68118 12.4035 10.5956 12.5105C18.3012 13.2503 20.5253 17.9863 28.6048 17.7941C35.3497 17.5863 38.5203 14.4691 38.5203 14.4691V15.45C38.5203 15.45 35.0338 18.4695 28.289 18.6773C20.2095 18.8695 18.1922 14.1262 10.4856 13.3885C6.57114 13.2815 3.3964 13.9704 0.963379 15.4521V14.4026" fill="black" fill-opacity="0.2"/>
</g>
<defs>
<clipPath id="clip0_2375_5079">
<rect width="113" height="18" fill="white" transform="translate(0.5 0.5)"/>
</clipPath>
</defs>
</svg>
