<svg width="90" height="29" viewBox="0 0 90 29" fill="none" xmlns="http://www.w3.org/2000/svg">
<path d="M1.52441 23.3511H5.3358V17.4491H8.53738L11.5356 23.3511H15.7536L12.2471 16.5701C14.102 15.6911 15.2962 13.8828 15.2962 11.6225C15.2962 8.05621 12.6791 5.77075 8.76604 5.77075H1.52441V23.3511ZM8.46112 8.91008C10.2652 8.91008 11.4086 9.96493 11.4086 11.6225C11.4086 13.255 10.2652 14.3098 8.46112 14.3098H5.3358V8.91008H8.46112ZM23.3315 23.5018C26.8125 23.5018 29.0739 21.4926 29.4805 18.9811H25.9486C25.6437 20.1866 24.6273 20.8145 23.179 20.8145C21.375 20.8145 20.1807 19.7095 20.1045 17.8761V17.7003H29.5821C29.6583 17.2984 29.6838 16.8715 29.6838 16.4947C29.633 12.7024 26.9904 10.2914 23.0774 10.2914C19.0373 10.2914 16.3694 12.9034 16.3694 16.9217C16.3694 20.9149 18.9865 23.5018 23.3315 23.5018ZM20.1807 15.3897C20.384 13.8577 21.5528 12.9284 23.1028 12.9284C24.729 12.9284 25.8216 13.8075 26.0757 15.3897H20.1807ZM30.9326 19.0565C31.0851 21.8191 33.5498 23.5018 37.1832 23.5018C40.6898 23.5018 43.129 21.8693 43.129 19.3076C43.129 16.3943 40.6389 15.7162 37.6406 15.4148C35.7603 15.1888 34.6424 15.0883 34.6424 14.1088C34.6424 13.2801 35.5571 12.7778 36.9546 12.7778C38.4029 12.7778 39.3939 13.4056 39.4955 14.4353H42.9257C42.7479 11.7983 40.334 10.2663 36.8276 10.2663C33.4735 10.2412 31.2121 11.9239 31.2121 14.4855C31.2121 17.1477 33.5751 17.8258 36.6243 18.1774C38.7332 18.4537 39.6225 18.5291 39.6225 19.5839C39.6225 20.488 38.7078 20.9652 37.2087 20.9652C35.4554 20.9652 34.4645 20.1866 34.3374 19.0565H30.9326ZM51.4702 23.5018C54.9513 23.5018 57.2127 21.4926 57.6192 18.9811H54.0873C53.7824 20.1866 52.7661 20.8145 51.3177 20.8145C49.5137 20.8145 48.3194 19.7095 48.2432 17.8761V17.7003H57.7209C57.7971 17.2984 57.8225 16.8715 57.8225 16.4947C57.7717 12.7024 55.1291 10.2914 51.2161 10.2914C47.1761 10.2914 44.508 12.9034 44.508 16.9217C44.508 20.9149 47.1252 23.5018 51.4702 23.5018ZM48.3194 15.3897C48.5227 13.8577 49.6916 12.9284 51.2415 12.9284C52.8677 12.9284 53.9603 13.8075 54.2144 15.3897H48.3194ZM67.2761 10.2914C65.2691 10.2914 64.0745 11.0449 63.2363 12.0494L62.9057 10.4421H59.7804V23.3511H63.3629V16.7459C63.3629 14.5107 64.4303 13.2047 66.2849 13.2047C68.0891 13.2047 68.9279 14.36 68.9279 16.545V23.3511H72.5105V16.1934C72.5105 11.7732 70.0967 10.2914 67.2761 10.2914ZM84.1961 12.0494C83.3573 10.9946 82.0613 10.2914 80.2577 10.2914C76.7765 10.2914 74.2103 12.8782 74.2103 16.8715C74.2103 20.9652 76.7765 23.5018 80.2829 23.5018C82.1633 23.5018 83.4335 22.673 84.2975 21.568L84.6533 23.3511H87.7787V5.77075H84.1961V12.0494ZM81.0707 20.6136C79.1141 20.6136 77.8691 19.1067 77.8691 16.8966C77.8691 14.6865 79.1141 13.1796 81.0707 13.1796C83.0273 13.1796 84.2465 14.7116 84.2465 16.9217C84.2465 19.1067 83.0273 20.6136 81.0707 20.6136Z" fill="#1F1F1F"/>
</svg>
