<svg width="158" height="24" viewBox="0 0 158 24" fill="none" xmlns="http://www.w3.org/2000/svg">
<path d="M19.3641 13.6181L18.4253 19.1748H13.1665L15.9644 3.32825H23.5616C24.7308 3.32825 25.7736 3.45074 26.607 3.5563C27.4234 3.6788 28.1304 3.90816 28.5899 4.2574C29.0508 4.48546 29.5287 4.95851 29.7591 5.29212C29.9896 5.74823 30.1146 6.22128 30.1146 6.79988C30.1146 7.15174 30.1146 7.50099 29.9909 7.8346C29.8671 8.76376 29.53 9.57042 28.9454 10.2715C28.3608 10.9726 27.6525 11.4287 26.6084 11.7793L27.5471 12.1311C27.7776 12.2536 28.008 12.3592 28.2555 12.5873C28.503 12.8153 28.611 13.0434 28.7163 13.2884C28.8401 13.5164 28.8401 13.9895 28.8401 14.3231C28.8401 14.7792 28.8401 15.3578 28.7163 15.9351C28.5926 16.5124 28.4859 16.9698 28.4859 17.3204C28.3622 17.6722 28.3622 18.0215 28.3622 18.1283C28.3622 18.4802 28.4859 18.7069 28.7177 18.7069L28.5939 19.163H23.1034V17.7778C23.1034 17.4259 23.2272 16.9698 23.3338 16.4981C23.4576 16.0419 23.4576 15.5689 23.4576 15.2183C23.4576 14.6397 23.2272 14.2892 22.873 14.0611C22.6426 13.7093 21.9342 13.605 20.9954 13.605H19.3667L19.3641 13.6181ZM20.0553 10.1477H22.162C22.9783 10.1477 23.5616 10.0252 24.0395 9.79587C24.5004 9.56781 24.7479 9.21726 24.8559 8.63865V8.2868C24.8559 7.83069 24.7321 7.47883 24.395 7.35764C24.0395 7.12959 23.5787 7.00578 22.9954 7.00578H20.5333L20.0553 10.1477Z" fill="#0074AE"/>
<path d="M37.3576 7.6066H41.5709L41.2154 9.46492C41.9238 8.76381 42.5084 8.1852 43.1983 7.8529C43.9067 7.50104 44.598 7.27429 45.5354 7.27429C46.8284 7.27429 47.7474 7.62615 48.4584 8.20345C49.043 8.78206 49.3972 9.71121 49.3972 10.8671C49.3972 11.3232 49.3972 11.7963 49.2734 12.2524L48.1042 19.1931H43.4301L44.4755 13.0591C44.4755 12.831 44.5993 12.4804 44.5993 12.2511C44.5993 11.8992 44.4755 11.55 44.3689 11.2164C44.1384 10.9883 43.7843 10.8645 43.3234 10.8645C42.6151 10.8645 42.0305 11.0926 41.8 11.4431C41.4445 11.8992 41.2154 12.4778 41.0917 13.1789L40.0462 19.1905H35.3721L37.3576 7.6066Z" fill="#0074AE"/>
<path d="M53.8258 19.5083C53.8258 19.7364 53.9496 19.8602 54.0562 19.9644C54.18 20.1925 54.5171 20.1925 54.995 20.1925C55.7034 20.1925 56.1642 20.07 56.5184 19.7364C56.8726 19.4028 57.103 18.8072 57.2268 18.0006L57.4572 17.0714C57.1017 17.4233 56.6409 17.65 56.0576 18.0006C55.473 18.2286 54.7646 18.3524 53.9509 18.3524C53.3079 18.358 52.6701 18.2389 52.0733 18.0019C51.4887 17.7738 51.1346 17.4233 50.7804 17.0727C50.4262 16.7222 50.1958 16.2647 49.964 15.6874C49.7323 15.1101 49.7336 14.6527 49.7336 13.9516V13.373C49.7336 13.145 49.7336 13.0212 49.8574 12.7944C49.9812 12.0933 50.2129 11.4091 50.442 10.7093C50.7975 10.0082 51.1504 9.32407 51.735 8.85102C52.1958 8.27241 52.9042 7.8163 53.6125 7.46575C54.3209 7.1152 55.1359 7.00964 56.18 7.00964C56.8884 7.00964 57.5796 7.13214 58.0576 7.46575C58.6422 7.81761 59.103 8.27372 59.3506 8.85102L59.581 7.34326H63.6719L62.0431 16.7026C61.9108 17.5284 61.7154 18.343 61.4585 19.1395C61.2281 19.8406 60.8739 20.5248 60.4131 21.1021C59.9523 21.6794 59.2439 22.1368 58.3064 22.3818C57.3677 22.7337 56.3235 22.8379 54.8002 22.8379C53.7547 22.8379 52.9226 22.7154 52.2327 22.6099C51.5243 22.3818 50.9397 22.1538 50.4789 21.9088C50.018 21.5569 49.7705 21.3302 49.5401 20.874C49.3097 20.5222 49.1846 20.0661 49.1846 19.7168V19.5943H53.8587V19.507L53.8258 19.5083ZM56.6237 10.2715C56.2682 10.2715 56.0391 10.394 55.685 10.4995C55.4545 10.622 55.2241 10.8514 54.9766 11.0781C54.7462 11.3062 54.6211 11.5342 54.5158 11.8861C54.392 12.238 54.2853 12.5872 54.2853 12.9208V13.4994C54.2853 13.9555 54.4091 14.3074 54.6408 14.6566C54.8726 15.0059 55.2254 15.1127 55.81 15.2352H55.9338C56.2893 15.2352 56.5184 15.1127 56.8726 15.0072C57.103 14.8847 57.3334 14.6553 57.581 14.4286C57.8114 14.2005 57.9365 13.9725 58.0418 13.6206C58.1908 13.3329 58.2697 13.0147 58.2722 12.6915C58.2722 12.4634 58.396 12.2353 58.396 11.9903C58.396 11.5342 58.2722 11.0612 58.0405 10.7106C57.685 10.5021 57.2083 10.2715 56.6237 10.2715Z" fill="#0074AE"/>
<path d="M74.5235 9.4479V9.20291C74.5235 8.5018 74.2931 7.9232 73.9389 7.59089C73.5834 7.23904 73.0001 7.01229 72.1851 7.01229C71.7603 7.00118 71.3387 7.08904 70.9545 7.26877C70.5703 7.4485 70.2341 7.71507 69.9731 8.047C69.3898 8.72986 68.9277 9.90532 68.6801 11.2893C68.6801 11.5173 68.5564 11.8679 68.5564 12.0972V12.7983C68.5564 13.1502 68.5564 13.4995 68.6801 13.8331C68.7751 14.1113 68.8936 14.3812 69.0343 14.6397C69.2647 14.8678 69.4951 15.0958 69.7427 15.2183C70.0982 15.3408 70.451 15.4464 70.9119 15.4464C71.6383 15.4671 72.3461 15.2169 72.8948 14.7453C73.3556 14.2892 73.7111 13.7106 73.9402 12.887H78.7197C78.4893 13.8161 78.0113 14.7453 77.5505 15.5506C77.0185 16.2869 76.3867 16.9472 75.6729 17.5132C74.9646 18.0905 74.1496 18.4424 73.2108 18.7929C72.272 19.021 71.3332 19.249 70.4129 19.249C69.3674 19.249 68.3062 19.1265 67.4899 18.7929C66.6735 18.5649 65.9665 18.0918 65.3832 17.6357C64.7986 17.0571 64.3378 16.4785 64.0902 15.6731C63.7347 14.8652 63.6294 14.0611 63.6294 13.132V12.2028C63.6294 11.8509 63.7532 11.6242 63.7532 11.2736C63.9836 10.1164 64.3378 8.96052 64.9224 8.03136C65.507 7.1022 66.2153 6.17304 67.029 5.49018C67.8454 4.78908 68.7828 4.33297 69.7203 3.87817C70.7657 3.52631 71.7032 3.29956 72.7657 3.29956C74.9777 3.29956 76.6262 3.75567 77.6716 4.68483C78.7171 5.61399 79.3004 6.99795 79.3004 8.73377V9.43487C79.3004 9.45181 74.5209 9.45181 74.5209 9.45181L74.5235 9.4479ZM84.0917 14.0741V14.5303C84.0891 14.7883 84.1396 15.0442 84.2401 15.2824C84.3406 15.5205 84.489 15.7359 84.6763 15.9155C85.0318 16.2674 85.4926 16.3716 86.0759 16.3716C86.4314 16.3716 86.7843 16.2491 87.1214 16.1436C87.4769 16.0211 87.706 15.6875 87.9377 15.3356H92.3828C92.0273 16.0367 91.6744 16.6153 91.0898 17.1939C90.5052 17.65 89.9206 18.1231 89.336 18.3511C88.7514 18.703 88.043 18.8073 87.3531 19.0522C86.6447 19.1747 85.9535 19.2803 85.2464 19.2803C84.4537 19.2838 83.6652 19.1651 82.9093 18.9284C82.201 18.6991 81.6164 18.4723 81.1555 17.9993C80.6947 17.5432 80.2168 17.0701 79.9863 16.4915C79.7559 15.9129 79.5255 15.2118 79.5255 14.4065V13.8278C79.5255 13.5998 79.5255 13.476 79.6493 13.2492C79.773 12.3201 80.1101 11.3909 80.5881 10.7081C81.0489 9.9001 81.6335 9.3228 82.3419 8.7455C83.0502 8.16819 83.8652 7.81634 84.6789 7.46579C85.4926 7.11523 86.4327 7.00968 87.3702 7.00968C88.3077 7.00968 89.124 7.13218 89.8324 7.36153C90.5455 7.58727 91.1907 7.98494 91.7099 8.51875C92.1708 8.97486 92.5263 9.55346 92.8791 10.2546C93.1174 10.9603 93.2374 11.6998 93.2346 12.4439C93.2346 12.9 93.1109 13.4786 93.0042 14.1797H84.1325V14.0755L84.0917 14.0741ZM88.6434 11.761V11.4092C88.6434 10.9531 88.5197 10.48 88.1826 10.252C87.8271 9.9001 87.4742 9.79585 86.8896 9.79585C86.2559 9.78802 85.6381 9.99186 85.1358 10.3745C84.675 10.7263 84.4275 11.1824 84.3195 11.8822H88.6408L88.6434 11.761Z" fill="#FF8800"/>
<path d="M94.5934 7.60648H98.8068L98.4513 9.46479C99.1596 8.76369 99.7442 8.18508 100.434 7.85277C101.143 7.50092 101.834 7.27417 102.771 7.27417C104.064 7.27417 104.983 7.62602 105.694 8.20333C106.279 8.78193 106.633 9.71109 106.633 10.867C106.633 11.3231 106.633 11.7962 106.509 12.2523L105.34 19.1929H100.666L101.711 13.0589C101.711 12.8309 101.835 12.4803 101.835 12.251C101.835 11.8991 101.711 11.5499 101.605 11.2163C101.374 10.9882 101.02 10.8644 100.559 10.8644C99.8509 10.8644 99.2663 11.0924 99.0359 11.443C98.6804 11.8991 98.4513 12.4777 98.3275 13.1788L97.2821 19.1903H92.6079L94.5934 7.60648Z" fill="#FF8800"/>
<path d="M113.984 19.1747C113.523 19.1747 112.938 19.1747 112.584 19.2972H111.415C110.707 19.2972 110.122 19.2972 109.661 19.1747L108.492 18.8228C108.215 18.6699 108.006 18.4197 107.907 18.1217C107.784 17.8937 107.677 17.5431 107.677 17.087V16.1592C107.677 15.8073 107.801 15.458 107.801 15.1244L108.617 10.1463H106.988L107.449 7.48266H109.203L109.911 3.88983H114.463L113.755 7.48266H115.967L115.506 10.1463H113.294L112.585 14.4233C112.585 14.5458 112.585 14.6514 112.462 14.7752V15.127C112.472 15.3398 112.553 15.5433 112.692 15.7056C112.922 15.8281 113.153 15.9337 113.738 15.9337H114.446L113.984 19.1747ZM116.92 7.60646H121.133L120.778 9.91958C121.717 8.18376 123.115 7.25591 124.869 7.25591H125.577L124.761 11.8822C124.637 11.8822 124.405 11.7597 124.3 11.7597H123.839C122.9 11.7597 122.085 11.9877 121.627 12.5676C121.042 13.0237 120.688 13.9529 120.458 15.2313L119.749 19.2802H115.077L116.92 7.60646ZM131.746 19.2802V17.6682C131.037 18.2468 130.222 18.7029 129.534 18.9479C128.845 19.1929 128.01 19.2998 127.071 19.2998C126.611 19.2998 126.133 19.2998 125.672 19.1773C125.211 19.0548 124.855 18.9492 124.503 18.5987C124.147 18.3706 123.918 18.0201 123.686 17.6695C123.455 17.319 123.456 16.8616 123.456 16.3898C123.456 16.1618 123.456 15.9337 123.58 15.6887C123.703 14.7596 124.04 14.1809 124.518 13.6036C124.979 13.1475 125.564 12.7957 126.272 12.4464L128.379 11.8678C129.087 11.7453 129.778 11.6398 130.486 11.6398L132.114 11.2879C132.575 11.1654 132.823 10.9361 132.823 10.4799V10.235C132.823 10.0069 132.823 9.8831 132.699 9.77884C132.575 9.65634 132.468 9.55079 132.343 9.55079C132.218 9.55079 132.113 9.42829 131.882 9.42829H131.066C130.836 9.42829 130.711 9.55079 130.605 9.55079C130.482 9.67329 130.25 9.77884 130.144 9.90264C130.021 10.0251 129.914 10.2545 129.789 10.4812H125.344C125.471 9.92221 125.668 9.3808 125.929 8.86923C126.284 8.41312 126.637 7.94007 127.221 7.58952C127.806 7.23897 128.514 7.01092 129.328 6.78156C130.142 6.5522 131.206 6.5535 132.374 6.5535C133.419 6.5535 134.251 6.676 134.941 6.78156C135.631 6.88711 136.11 7.13341 136.57 7.36017C136.925 7.58822 137.278 7.93877 137.386 8.28932C137.51 8.64118 137.617 9.09729 137.617 9.56903V10.377C137.617 10.7289 137.493 10.9556 137.493 11.3062L136.554 16.7404C136.554 16.9684 136.43 17.1965 136.43 17.319C136.43 17.4415 136.43 17.6708 136.554 17.7751C136.678 17.8976 136.678 18.0031 136.91 18.2312V18.8098H131.775V19.2828L131.746 19.2802ZM129.534 16.6348C129.889 16.6348 130.242 16.5123 130.579 16.4068C130.934 16.2843 131.164 16.0549 131.395 15.8281C131.627 15.6014 131.751 15.2495 131.856 14.899C131.98 14.5471 132.087 14.1979 132.087 13.7418C131.626 13.9698 131.27 14.0936 130.794 14.0936C130.333 14.2161 129.977 14.2161 129.624 14.3217C129.272 14.4272 128.916 14.5497 128.686 14.7778C128.455 15.0058 128.225 15.2339 128.225 15.5858V15.7083C128.225 15.9363 128.349 16.1644 128.58 16.2869C128.828 16.5149 129.182 16.6387 129.536 16.6387L129.534 16.6348ZM142.035 19.176H137.361L140.159 3.32947H144.833L142.035 19.176Z" fill="#FF8800"/>
<path d="M33.9697 19.1747H29.418L31.9855 9.79712H35.3693L33.9697 19.1747Z" fill="#0074AE"/>
<path d="M37.0036 5.64268C37.0036 5.52018 37.0036 5.52018 37.0036 5.64268C36.8798 5.41463 36.7732 5.29082 36.5428 5.18657C36.1873 4.95852 35.7264 4.60797 34.789 4.37861C34.3281 4.25611 33.9726 4.25611 33.7435 4.37861C33.0352 4.50111 32.5743 4.73046 32.3439 4.83472H32.2201C32.1121 4.94169 31.9655 5.00178 31.8126 5.00178C31.6598 5.00178 31.5132 4.94169 31.4051 4.83472C31.297 4.72775 31.2363 4.58266 31.2363 4.43139C31.2363 4.28011 31.297 4.13503 31.4051 4.02806C31.4051 4.02806 32.1135 3.32695 33.5118 3.22009C33.9726 3.22009 34.4506 3.22009 34.9114 3.34259C37.0181 3.69445 37.8344 5.07841 37.8344 5.20091C37.9582 5.42896 37.8344 5.77951 37.604 5.90201H37.3736C37.3565 5.86682 37.1076 5.74563 37.0023 5.63877L37.0036 5.64268ZM35.7106 6.81553L35.4802 6.58748C35.3749 6.48322 35.0194 6.23562 34.5414 6.13137H33.97C33.5092 6.13137 33.2616 6.35942 33.2616 6.35942C33.0312 6.58748 32.8008 6.58748 32.5533 6.35942C32.3228 6.13137 32.3228 5.90331 32.5533 5.65832C32.5533 5.65832 33.0141 5.20221 33.8462 5.07971H34.6626C35.9555 5.30777 36.4164 6.11443 36.5401 6.23692C36.6639 6.46498 36.5401 6.69303 36.3097 6.81553H36.1859C35.9555 7.16739 35.7251 7.04358 35.7251 6.81553H35.7106ZM35.2498 7.95711C35.2498 8.53571 34.6652 8.99182 34.0806 8.99182C33.3722 8.99182 32.9114 8.53571 32.9114 7.95711C32.9114 7.3785 33.496 6.92239 34.0806 6.92239C34.7718 6.90545 35.2498 7.3785 35.2498 7.95711Z" fill="#FF8800"/>
</svg>
