<svg width="106" height="31" viewBox="0 0 106 31" fill="none" xmlns="http://www.w3.org/2000/svg">
<path d="M23.9985 23.6915L26.4745 21.7431C27.1705 22.9525 28.2814 23.6512 29.5528 23.6512C30.9314 23.6512 31.6675 22.7509 31.6675 21.77C31.6675 20.6009 30.2488 20.2247 28.7364 19.7544C26.8359 19.1631 24.7079 18.4241 24.7079 15.6963C24.7079 13.4119 26.6887 11.5979 29.4324 11.5979C31.7478 11.5979 33.0728 12.4713 34.2238 13.6673L31.9887 15.3604C31.3998 14.4869 30.57 14.0166 29.4591 14.0166C28.2011 14.0166 27.5185 14.7019 27.5185 15.6022C27.5185 16.6907 28.8836 17.0669 30.396 17.5775C32.3233 18.2091 34.5048 19.0556 34.5048 21.7969C34.5048 24.0678 32.7114 26.2446 29.5796 26.2446C26.9965 26.2581 25.2834 25.1562 23.9985 23.6915ZM45.7607 16.2875H48.4107V17.376C49.0397 16.5697 49.9899 16.086 51.1008 16.086C53.3894 16.086 54.7814 17.5641 54.7814 20.0903V26.0431H52.0644V20.4397C52.0644 19.1363 51.4622 18.3703 50.271 18.3703C49.2538 18.3703 48.424 19.0691 48.424 20.7084V26.0431H45.7607V16.2875ZM55.397 21.1787C55.397 17.7253 57.9266 16.0994 60.1215 16.0994C61.3796 16.0994 62.3834 16.5697 63.0258 17.255V11.7995H65.6892V26.0565H63.0258V24.9681C62.3834 25.734 61.3528 26.2581 60.0947 26.2581C58.0203 26.2581 55.397 24.6053 55.397 21.1787ZM63.0927 21.1519C63.0927 19.7006 62.0488 18.5316 60.6033 18.5316C59.1311 18.5316 57.9935 19.6469 57.9935 21.1519C57.9935 22.6569 59.1177 23.7856 60.6033 23.7856C62.0488 23.7856 63.0927 22.6031 63.0927 21.1519ZM66.3048 18.9347C66.3048 14.8766 69.3564 11.6113 73.5589 11.6113C75.6601 11.6113 77.4268 12.3773 78.7117 13.5866C79.2336 14.0838 79.6753 14.6482 80.0233 15.2663L77.6543 16.7175C76.7844 15.0916 75.4326 14.2585 73.5857 14.2585C71.0026 14.2585 68.995 16.3816 68.995 18.9481C68.995 21.5684 70.9624 23.6378 73.6793 23.6378C75.7405 23.6378 77.1993 22.4687 77.7079 20.6547H73.2511V18.0613H80.6256V19.1497C80.6256 22.9793 77.9086 26.2715 73.6793 26.2715C69.2359 26.2581 66.3048 22.8718 66.3048 18.9347ZM81.2948 16.2875H83.9448V17.8866C84.4266 16.8653 85.3099 16.2875 86.6349 16.2875H87.7056L86.742 18.881H86.0192C84.6006 18.881 83.9715 19.62 83.9715 21.4341V26.0431H81.3081V16.2875H81.2948ZM88.3882 16.2875H91.0516V26.0565H88.3882V18.8944H87.4245L88.3882 16.2875ZM89.7266 14.8094C90.6099 14.8094 91.3192 14.0973 91.3192 13.2104C91.3192 12.3235 90.6099 11.6113 89.7266 11.6113C88.8432 11.6113 88.1339 12.3235 88.1339 13.2104C88.1339 14.0838 88.8432 14.8094 89.7266 14.8094ZM91.6806 21.1787C91.6806 17.7253 94.2102 16.0994 96.4051 16.0994C97.6632 16.0994 98.667 16.5697 99.3094 17.255V11.7995H101.973V26.0565H99.3094V24.9681C98.667 25.734 97.6364 26.2581 96.3783 26.2581C94.3038 26.2581 91.6806 24.6053 91.6806 21.1787ZM99.3897 21.1519C99.3897 19.7006 98.3458 18.5316 96.9003 18.5316C95.4281 18.5316 94.2905 19.6469 94.2905 21.1519C94.2905 22.6569 95.4147 23.7856 96.9003 23.7856C98.3324 23.7856 99.3897 22.6031 99.3897 21.1519ZM45.1316 21.1519C45.1316 18.3435 43.0839 16.0994 40.1127 16.0994C37.3155 16.0994 35.0536 18.3703 35.0536 21.1787C35.0536 23.9872 37.1548 26.2581 40.193 26.2581C42.2942 26.2581 43.8066 25.2368 44.6498 23.7856L42.5351 22.5225C42.0935 23.3825 41.2235 23.92 40.2064 23.92C38.8011 23.92 37.9311 23.2212 37.6233 22.1462H45.1316V21.1519ZM37.7437 19.9828C38.1586 19.0691 39.0018 18.4375 40.1394 18.4375C41.2637 18.4375 42.1069 18.9616 42.4548 19.9828H37.7437Z" fill="#243746"/>
<path d="M15.1235 20.3583H9.44873V26.0557H15.1235V20.3583Z" fill="#99E1F4"/>
<path d="M9.44818 14.6439H3.77344V20.3548H9.44818V14.6439Z" fill="#99E1F4"/>
<path d="M9.44818 20.3583H3.77344V26.0557H9.44818V20.3583Z" fill="#1A82E2"/>
<path d="M20.8115 14.6439H15.1367V20.3548H20.8115V14.6439Z" fill="#00B2E3"/>
<path d="M15.1235 8.94836H9.44873V14.6458H15.1235V8.94836Z" fill="#00B2E3"/>
<path d="M9.44873 14.6439V20.3548H15.1369V14.6439H9.44873Z" fill="#009DD9"/>
<path d="M20.8115 8.94836H15.1367V14.6458H20.8115V8.94836Z" fill="#1A82E2"/>
<path d="M26.6863 5.50927V8.8283H25.9234V5.50927H24.7456V4.8374H27.8774V5.49583H26.6863V5.50927Z" fill="#243746"/>
<path d="M33.4441 8.82929H32.7213L31.838 5.92681L30.9547 8.82929H30.232L29.1211 4.82495L29.9241 4.83839L30.6602 7.66023L31.49 4.83839H32.2529L33.0827 7.66023L33.8054 4.83839H34.5683L33.4441 8.82929Z" fill="#243746"/>
<path d="M36.0962 8.8283V4.8374H36.8591V8.8283H36.0962Z" fill="#243746"/>
<path d="M38.6382 8.8283V4.8374H39.4011V8.15643H40.7261L40.7394 8.8283H38.6382Z" fill="#243746"/>
<path d="M42.3198 8.8283V4.8374H43.0827V8.8283H42.3198Z" fill="#243746"/>
<path d="M46.5747 8.90934C45.4505 8.90934 44.7144 8.07622 44.7144 6.83998C44.7144 5.60375 45.4505 4.77063 46.5881 4.77063C47.7257 4.77063 48.4484 5.60375 48.4484 6.83998C48.4351 8.06278 47.7123 8.90934 46.5747 8.90934ZM46.5747 5.40219C45.8921 5.40219 45.4906 5.96656 45.4906 6.83998C45.4906 7.71341 45.9055 8.27778 46.5747 8.27778C47.2573 8.27778 47.6722 7.71341 47.6722 6.83998C47.6722 5.96656 47.2573 5.40219 46.5747 5.40219Z" fill="#243746"/>
</svg>
