<svg width="56" height="32" viewBox="0 0 56 32" fill="none" xmlns="http://www.w3.org/2000/svg">
<g id="ses">
<g id="g1865">
<path id="path1857" d="M15.9466 11.8954C15.9466 12.5128 16.0201 13.0133 16.1487 13.3804C16.2957 13.7475 16.4795 14.1479 16.7367 14.5818C16.8285 14.7152 16.8653 14.8487 16.8653 14.9655C16.8653 15.1324 16.755 15.2992 16.5162 15.4661L15.3587 16.1669C15.1934 16.267 15.028 16.317 14.881 16.317C14.6973 16.317 14.5136 16.2336 14.3298 16.0834C14.0726 15.8331 13.8521 15.5662 13.6684 15.2992C13.4847 15.0156 13.301 14.6986 13.0989 14.3148C11.6658 15.8498 9.86523 16.6174 7.69724 16.6174C6.15392 16.6174 4.92294 16.2169 4.02268 15.416C3.12241 14.6151 2.66309 13.5473 2.66309 12.2125C2.66309 10.7942 3.21427 9.64294 4.33501 8.77531C5.45576 7.90767 6.94395 7.47386 8.83636 7.47386C9.46103 7.47386 10.1041 7.52392 10.7839 7.60734C11.4637 7.69077 12.1618 7.82425 12.8968 7.97442V6.7564C12.8968 5.48832 12.6028 4.604 12.0332 4.08676C11.4453 3.56952 10.4532 3.31924 9.03846 3.31924C8.39541 3.31924 7.73399 3.38598 7.05419 3.53615C6.3744 3.68632 5.71298 3.86986 5.06993 4.10345C4.77596 4.22024 4.55549 4.28699 4.42688 4.32036C4.29827 4.35373 4.2064 4.37041 4.13291 4.37041C3.87569 4.37041 3.74708 4.20356 3.74708 3.85317V3.03559C3.74708 2.76863 3.78383 2.56841 3.87569 2.45161C3.96756 2.33482 4.13291 2.21802 4.39013 2.10122C5.03318 1.80089 5.80484 1.55061 6.70511 1.35039C7.60538 1.13348 8.56076 1.03337 9.57127 1.03337C11.7576 1.03337 13.3561 1.48387 14.3849 2.38487C15.3955 3.28587 15.9099 4.65406 15.9099 6.48943V11.8954H15.9466ZM8.48727 14.4316C9.09358 14.4316 9.71825 14.3315 10.3797 14.1313C11.0411 13.931 11.629 13.564 12.1251 13.0634C12.4191 12.7464 12.6395 12.396 12.7498 11.9956C12.86 11.5951 12.9335 11.1112 12.9335 10.5439V9.84316C12.4007 9.72636 11.8311 9.62625 11.2432 9.55951C10.6553 9.49277 10.0857 9.4594 9.51615 9.4594C8.28517 9.4594 7.3849 9.67631 6.7786 10.1268C6.1723 10.5773 5.87833 11.2113 5.87833 12.0456C5.87833 12.8298 6.0988 13.4138 6.55812 13.8142C6.99907 14.2314 7.64212 14.4316 8.48727 14.4316ZM23.2407 16.2336C22.9099 16.2336 22.6895 16.1835 22.5425 16.0667C22.3955 15.9666 22.2669 15.733 22.1567 15.416L17.839 2.51835C17.7288 2.18465 17.6737 1.96774 17.6737 1.85095C17.6737 1.58398 17.8207 1.43382 18.1146 1.43382H19.9152C20.2643 1.43382 20.5031 1.48387 20.6317 1.60067C20.7787 1.70078 20.8889 1.93437 20.9992 2.25139L24.0858 13.297L26.952 2.25139C27.0438 1.91769 27.1541 1.70078 27.301 1.60067C27.448 1.50056 27.7052 1.43382 28.036 1.43382H29.5058C29.8549 1.43382 30.0937 1.48387 30.2407 1.60067C30.3877 1.70078 30.5163 1.93437 30.5898 2.25139L33.4927 13.4305L36.6712 2.25139C36.7814 1.91769 36.91 1.70078 37.0386 1.60067C37.1856 1.50056 37.4245 1.43382 37.7552 1.43382H39.4639C39.7578 1.43382 39.9232 1.5673 39.9232 1.85095C39.9232 1.93437 39.9048 2.0178 39.8864 2.11791C39.8681 2.21802 39.8313 2.3515 39.7578 2.53504L35.33 15.4327C35.2197 15.7664 35.0911 15.9833 34.9441 16.0834C34.7972 16.1835 34.5583 16.2503 34.246 16.2503H32.6659C32.3168 16.2503 32.078 16.2002 31.931 16.0834C31.784 15.9666 31.6554 15.7497 31.5819 15.416L28.7341 4.65406L25.9047 15.3993C25.8128 15.733 25.7026 15.9499 25.5556 16.0667C25.4086 16.1835 25.1514 16.2336 24.8207 16.2336H23.2407ZM46.8497 16.6841C45.8943 16.6841 44.939 16.584 44.0203 16.3838C43.1017 16.1835 42.3851 15.9666 41.9074 15.7164C41.6135 15.5662 41.4114 15.3993 41.3379 15.2492C41.2644 15.099 41.2276 14.9321 41.2276 14.782V13.931C41.2276 13.5806 41.3746 13.4138 41.6502 13.4138C41.7605 13.4138 41.8707 13.4305 41.9809 13.4638C42.0912 13.4972 42.2565 13.564 42.4403 13.6307C43.0649 13.881 43.7447 14.0812 44.4613 14.2147C45.1962 14.3482 45.9127 14.4149 46.6476 14.4149C47.8051 14.4149 48.7054 14.2314 49.3301 13.8643C49.9547 13.4972 50.2854 12.9633 50.2854 12.2792C50.2854 11.812 50.1201 11.4283 49.7894 11.1112C49.4587 10.7942 48.834 10.5106 47.9337 10.2436L45.2697 9.49277C43.9285 9.10901 42.9363 8.54171 42.33 7.79088C41.7237 7.05673 41.4114 6.23915 41.4114 5.37152C41.4114 4.67074 41.5767 4.05339 41.9074 3.51947C42.2382 2.98554 42.6791 2.51835 43.2303 2.15128C43.7815 1.76752 44.4061 1.48387 45.1411 1.28365C45.876 1.08343 46.6476 1 47.456 1C47.8602 1 48.2828 1.01669 48.687 1.06674C49.1096 1.1168 49.4954 1.18354 49.8812 1.25028C50.2487 1.3337 50.5978 1.41713 50.9285 1.51724C51.2592 1.61735 51.5164 1.71746 51.7002 1.81758C51.9574 1.95106 52.1411 2.08454 52.2513 2.23471C52.3616 2.36819 52.4167 2.55172 52.4167 2.78532V3.56952C52.4167 3.91991 52.2697 4.10345 51.9941 4.10345C51.8471 4.10345 51.6083 4.03671 51.296 3.90323C50.2487 3.46941 49.0728 3.2525 47.7684 3.2525C46.7211 3.2525 45.8943 3.40267 45.3248 3.71969C44.7552 4.03671 44.4613 4.52058 44.4613 5.20467C44.4613 5.67186 44.645 6.0723 45.0125 6.38932C45.3799 6.70634 46.0597 7.02336 47.0335 7.30701L49.6424 8.05784C50.9652 8.4416 51.9206 8.97553 52.4902 9.65962C53.0597 10.3437 53.3353 11.1279 53.3353 11.9956C53.3353 12.713 53.17 13.3637 52.8576 13.931C52.5269 14.4983 52.086 14.9989 51.5164 15.3993C50.9469 15.8165 50.2671 16.1168 49.477 16.3337C48.6503 16.5673 47.7867 16.6841 46.8497 16.6841Z" fill="#252F3E"/>
<g id="g1863">
<path id="path1859" fill-rule="evenodd" clip-rule="evenodd" d="M50.3221 24.7932C44.2775 28.8477 35.4953 31.0001 27.944 31.0001C17.3613 31.0001 7.82578 27.4461 0.623635 21.5396C0.0540778 21.0724 0.568517 20.4384 1.24831 20.8054C9.03839 24.91 18.6474 27.3961 28.5871 27.3961C35.2932 27.3961 42.6607 26.128 49.4402 23.5251C50.4507 23.108 51.3143 24.1258 50.3221 24.7932Z" fill="#FF9900"/>
<path id="path1861" fill-rule="evenodd" clip-rule="evenodd" d="M52.8392 22.1903C52.0675 21.2893 47.7315 21.7565 45.7656 21.9734C45.1777 22.0401 45.0858 21.5729 45.6186 21.2225C49.0727 19.0201 54.7499 19.6541 55.4113 20.3883C56.0728 21.1391 55.2276 26.2948 51.994 28.7642C51.4979 29.148 51.0202 28.9478 51.2407 28.4472C51.9756 26.7954 53.6108 23.0746 52.8392 22.1903Z" fill="#FF9900"/>
</g>
</g>
</g>
</svg>
