<svg width="136" height="24" viewBox="0 0 136 24" fill="none" xmlns="http://www.w3.org/2000/svg">
<g clip-path="url(#clip0_3026_2691)">
<path d="M32.7048 20.5208C29.5206 20.5208 27.5388 18.7689 27.3418 16.0342H30.0505C30.1184 17.4607 31.0185 18.3741 32.6522 18.3741C34.0057 18.3741 34.9737 17.7617 34.9737 16.7162C34.9737 15.9021 34.3606 15.4219 33.2873 15.2044L31.2155 14.7852C29.3015 14.406 27.819 13.3448 27.819 11.1981C27.819 8.89653 29.8076 7.23865 32.5316 7.23865C35.2555 7.23865 37.4412 8.93478 37.6144 11.6313H34.9057C34.814 10.283 33.9004 9.361 32.5689 9.361C31.2375 9.361 30.526 10.1195 30.526 11.0189C30.526 11.9183 31.3207 12.2819 32.2361 12.4593L34.3996 12.9081C36.6158 13.3569 37.8114 14.4042 37.8114 16.3178C37.8114 18.7899 35.8754 20.5173 32.7133 20.5173H32.7048V20.5208Z" fill="#121424"/>
<path d="M42.5578 20.3416V10.7179H44.8114V12.0887C45.4992 11.1128 46.3772 10.5387 47.6254 10.5387C48.8736 10.5387 49.8942 11.1511 50.3714 12.2505C51.1119 11.1893 52.0578 10.5387 53.4656 10.5387C55.3642 10.5387 56.6498 11.8174 56.6498 14.1259V20.3398H54.2213V14.9156C54.2213 13.5674 53.6609 12.7533 52.5876 12.7533C51.6196 12.7533 50.8249 13.5274 50.8249 14.9695V20.3398H48.3964V14.9156C48.3964 13.5674 47.836 12.7533 46.7626 12.7533C45.7794 12.7533 44.9999 13.5274 44.9999 14.9695V20.3398H42.5562L42.5578 20.3416Z" fill="#121424"/>
<path d="M63.0063 20.5208C61.9025 20.5208 60.9497 20.032 60.245 19.096V23.8139H57.8013V10.7179H60.0548V12.1201C60.7732 11.0902 61.8176 10.5319 63.0131 10.5319C65.5469 10.5319 67.1806 12.6942 67.1806 15.5211C67.1806 18.348 65.5469 20.5104 63.0131 20.5104L63.0047 20.5174L63.0063 20.5208ZM62.4612 12.7568C61.2656 12.7568 60.2603 13.7101 60.2603 15.5315C60.2603 17.353 61.2656 18.2906 62.4612 18.2906C63.6568 18.2906 64.6621 17.3686 64.6621 15.5315C64.6621 13.6945 63.6568 12.7568 62.4612 12.7568Z" fill="#121424"/>
<path d="M68.1655 20.3415V7.4021H70.6314V20.3415H68.1655Z" fill="#121424"/>
<path d="M71.5825 15.4915C71.5825 12.6246 73.5338 10.5319 76.2428 10.5319C79.2158 10.5319 81.1892 13.0039 80.7425 16.1335H74.0792C74.2386 17.6991 74.9793 18.5672 76.2274 18.5672C77.3023 18.5672 78.0203 18.0244 78.2989 17.0711H80.7279C80.1978 19.2491 78.5643 20.4964 76.2801 20.4964C73.4658 20.4964 71.5825 18.4976 71.5825 15.4915ZM74.1165 14.5539H78.1629C78.0956 13.2213 77.3549 12.3758 76.1967 12.3758C75.0385 12.3758 74.3351 13.1344 74.1246 14.5539H74.1165Z" fill="#121424"/>
<path d="M83.3463 20.3415V9.87409H79.376V7.4021H90.0191V9.87409H86.0246V20.3415H83.3463Z" fill="#121424"/>
<path d="M88.3765 15.4915C88.3765 12.6246 90.3273 10.5319 93.0363 10.5319C96.0078 10.5319 97.9835 13.0039 97.5367 16.1335H90.8727C91.0307 17.6991 91.7728 18.5672 93.0209 18.5672C94.0943 18.5672 94.8145 18.0244 95.0931 17.0711H97.5214C96.9913 19.2491 95.3578 20.4964 93.0736 20.4964C90.2593 20.4964 88.3765 18.4976 88.3765 15.4915ZM90.91 14.5539H94.9571C94.8891 13.2213 94.147 12.3758 92.9902 12.3758C91.8335 12.3758 91.1294 13.1344 90.9188 14.5539H90.9115H90.91Z" fill="#121424"/>
<path d="M120.028 20.3416H117.584V10.7179H119.838V12.0887C120.525 11.1354 121.493 10.5387 122.72 10.5387C124.603 10.5387 125.904 11.8017 125.904 14.1259V20.3398H123.476V14.9695C123.476 13.543 122.93 12.7533 121.818 12.7533C120.85 12.7533 120.024 13.543 120.024 15.0931V20.3381L120.028 20.3416Z" fill="#121424"/>
<path d="M127.204 20.3728H129.565C129.671 21.4723 130.36 22.0464 131.516 22.0464C132.87 22.0464 133.573 21.3106 133.573 19.924V18.5219C133.067 19.4439 132.097 19.978 130.956 19.978C128.648 19.978 126.924 17.9791 126.924 15.2584C126.924 12.5376 128.543 10.5387 130.865 10.5387C132.128 10.5387 133.081 11.0432 133.768 12.0348V10.7179H136V19.8928C136 22.45 134.314 24 131.53 24C128.996 24 127.31 22.5979 127.203 20.3815V20.3746L127.204 20.3728ZM131.425 17.8156C132.71 17.8156 133.551 16.7857 133.551 15.274C133.551 13.7623 132.704 12.6941 131.425 12.6941C130.146 12.6941 129.368 13.6857 129.368 15.2514C129.368 16.8171 130.163 17.8087 131.425 17.8087V17.8174V17.8156Z" fill="#121424"/>
<path d="M113.062 12.8647V10.718H110.368V7.8667H107.94V10.711H104.082L102.145 14.0267L100.231 10.711H97.4176L100.375 15.4306L97.2056 20.3346H99.9278L101.984 16.8797L104.095 20.3346H106.872L103.725 15.5228L105.343 12.8577H107.931V17.2207C107.931 19.3831 109.142 20.5208 111.078 20.5208C111.796 20.5208 112.364 20.3973 112.962 20.0877V17.9096C112.613 18.1114 112.19 18.2192 111.728 18.2192C110.851 18.2192 110.36 17.7704 110.36 16.6536V12.8647H113.06H113.062Z" fill="#121424"/>
<path d="M40.1223 10.7335C39.1696 10.7335 38.5039 10.1055 38.5039 9.25303C38.5039 8.40066 39.1696 7.74133 40.1223 7.74133C41.075 7.74133 41.7561 8.36931 41.7561 9.25303C41.7561 10.1368 41.0903 10.7335 40.1223 10.7335Z" fill="#121424"/>
<path d="M40.1754 11.4781C39.7288 11.4781 39.306 11.3702 38.9272 11.1841V20.3432H41.371V11.2154C41.0076 11.3789 40.6 11.4781 40.1754 11.4781Z" fill="#121424"/>
<path d="M115.299 10.7335C114.346 10.7335 113.68 10.1055 113.68 9.25303C113.68 8.40066 114.346 7.74133 115.299 7.74133C116.251 7.74133 116.932 8.36931 116.932 9.25303C116.932 10.1368 116.266 10.7335 115.299 10.7335Z" fill="#121424"/>
<path d="M115.351 11.4781C114.905 11.4781 114.481 11.3702 114.103 11.1841V20.3432H116.547V11.2154C116.183 11.3789 115.775 11.4781 115.351 11.4781Z" fill="#121424"/>
<path d="M28.7356 4.23784C28.4742 4.23784 28.2432 4.19261 28.0428 4.10215C27.8423 4.0082 27.6844 3.87599 27.569 3.70551C27.4535 3.53155 27.3941 3.32105 27.3906 3.07402H28.0784C28.0852 3.24451 28.1447 3.3889 28.2568 3.50719C28.3722 3.622 28.5302 3.67941 28.7306 3.67941C28.9038 3.67941 29.0413 3.63767 29.1433 3.55416C29.2451 3.46718 29.2961 3.35237 29.2961 3.20972C29.2961 3.06707 29.2502 2.94355 29.1586 2.86004C29.0702 2.77655 28.9513 2.7087 28.8019 2.65651C28.6524 2.60432 28.4928 2.54865 28.323 2.48951C28.0479 2.39209 27.8373 2.26683 27.6912 2.11374C27.5486 1.96066 27.4773 1.75712 27.4773 1.50313C27.4738 1.28741 27.5231 1.10302 27.625 0.949928C27.7303 0.793358 27.873 0.673326 28.0529 0.589823C28.2329 0.502842 28.4402 0.459351 28.6745 0.459351C28.9089 0.459351 29.1212 0.502842 29.3012 0.589823C29.4846 0.676805 29.6272 0.798578 29.7291 0.955148C29.8344 1.11171 29.8905 1.29785 29.8973 1.51357H29.1993C29.1959 1.38484 29.1466 1.27176 29.0515 1.17434C28.9598 1.07344 28.8308 1.02299 28.6643 1.02299C28.5217 1.01951 28.4011 1.05605 28.3026 1.13259C28.2075 1.20566 28.16 1.31351 28.16 1.45616C28.16 1.57793 28.1973 1.67536 28.2721 1.74842C28.3468 1.81801 28.4486 1.87715 28.5777 1.92587C28.7068 1.97457 28.8545 2.02676 29.0209 2.08243C29.1976 2.14505 29.3589 2.21812 29.505 2.30162C29.651 2.38513 29.7682 2.49647 29.8565 2.63564C29.9448 2.77133 29.989 2.94703 29.989 3.16274C29.989 3.35411 29.9414 3.53155 29.8463 3.69507C29.7512 3.85859 29.6103 3.99081 29.4235 4.09171C29.2366 4.18913 29.0073 4.23784 28.7356 4.23784ZM31.0164 4.17521V0.523717H31.6685V4.17521H31.0164ZM32.8182 4.17521V0.523717H33.4703L35.1465 3.0949V0.523717H35.7986V4.17521H35.1465L33.4703 1.60925V4.17521H32.8182ZM38.5616 4.23784C38.2017 4.23784 37.8925 4.15955 37.6344 4.00298C37.3763 3.84294 37.1776 3.62201 37.0384 3.34019C36.8991 3.05489 36.8295 2.72609 36.8295 2.35382C36.8295 1.98153 36.8991 1.65274 37.0384 1.36744C37.1776 1.08214 37.3763 0.859463 37.6344 0.69942C37.8925 0.539373 38.2017 0.459351 38.5616 0.459351C38.9896 0.459351 39.3395 0.568947 39.6112 0.788138C39.8863 1.00385 40.0578 1.30829 40.1257 1.70145H39.4074C39.3632 1.50313 39.2681 1.34831 39.1221 1.23697C38.9794 1.12215 38.7893 1.06475 38.5515 1.06475C38.222 1.06475 37.9639 1.17956 37.7771 1.40919C37.5903 1.63883 37.4969 1.9537 37.4969 2.35382C37.4969 2.75393 37.5903 3.06881 37.7771 3.29843C37.9639 3.52459 38.222 3.63767 38.5515 3.63767C38.7893 3.63767 38.9794 3.58547 39.1221 3.4811C39.2681 3.37324 39.3632 3.22537 39.4074 3.03749H40.1257C40.0578 3.41325 39.8863 3.70725 39.6112 3.91949C39.3395 4.13172 38.9896 4.23784 38.5616 4.23784ZM41.16 4.17521V0.523717H41.8121V2.04068H43.4119V0.523717H44.0639V4.17521H43.4119V2.58344H41.8121V4.17521H41.16Z" fill="#121424"/>
<path d="M11.548 23.659C17.9266 23.659 23.096 18.3636 23.096 11.8295C23.096 5.29545 17.9266 0 11.548 0C5.16943 0 0 5.29545 0 11.8295C0 18.3636 5.16943 23.659 11.548 23.659Z" fill="#121424"/>
<path d="M17.3458 7.65791C16.9349 6.87677 16.3371 6.25747 15.5763 5.84517C14.8138 5.42418 13.9324 5.20325 12.5738 5.20325H10.1912C8.83092 5.20325 7.94948 5.42592 7.1887 5.84517C6.42619 6.26616 5.82161 6.87851 5.41913 7.65791C5.00816 8.43896 4.79248 9.34181 4.79248 10.7336V11.5286C4.79248 12.922 5.00985 13.8249 5.41913 14.6043C5.83011 15.3853 6.42789 16.0047 7.1887 16.4169C7.95123 16.8379 8.8326 17.0589 10.1912 17.0589H12.8506C12.8506 17.0589 12.9253 17.0432 12.9695 17.0971C13.0069 17.1354 13.0137 17.1894 12.9916 17.2433C12.7606 17.7477 12.5212 18.1009 12.387 18.2453C12.2529 18.3914 12.0949 18.5358 12.0949 18.5358C12.0508 18.5741 12.0134 18.6054 11.9675 18.6437C11.7875 18.7898 11.5939 18.9273 11.4156 19.0716C11.2883 19.1708 11.2594 19.2943 11.3103 19.4317C11.3409 19.5083 11.385 19.5692 11.4597 19.6005C11.4665 19.6005 11.4818 19.6074 11.4903 19.6074H11.5345C11.8113 19.6074 14.2755 19.6683 16.0756 17.6416C17.0249 16.57 17.7857 14.9261 17.9505 12.3845C17.9725 12.1166 17.981 11.833 17.981 11.5269V10.7318C17.981 9.33836 17.7636 8.43551 17.3543 7.65611H17.3476L17.3458 7.65791Z" fill="white"/>
<path d="M11.5296 11.8052H7.27891C7.11418 11.8052 6.98682 11.9427 6.98682 12.1044V13.3065C6.98682 13.4753 7.12097 13.6057 7.27891 13.6057H11.5296C11.6943 13.6057 11.8217 13.4683 11.8217 13.3065V12.1044C11.8217 11.9357 11.6875 11.8052 11.5296 11.8052Z" fill="#121424"/>
<path d="M15.4882 8.65295H7.27891C7.11418 8.65295 6.98682 8.79043 6.98682 8.9522V10.1543C6.98682 10.3231 7.12097 10.4535 7.27891 10.4535H15.4882C15.653 10.4535 15.7803 10.3161 15.7803 10.1543V8.9522C15.7803 8.78345 15.6462 8.65295 15.4882 8.65295Z" fill="#121424"/>
</g>
<defs>
<clipPath id="clip0_3026_2691">
<rect width="136" height="24" fill="white"/>
</clipPath>
</defs>
</svg>
