<svg width="76" height="30" viewBox="0 0 76 30" fill="none" xmlns="http://www.w3.org/2000/svg">
<path d="M64.1467 3.75C66.6518 5.6272 68.43 8.11688 69.3761 11.25C69.7397 15.5254 69.4186 18.828 66.8268 22.2187C64.7763 24.5845 62.7856 26.0381 59.7317 26.4023C56.4178 26.4867 54.0881 26.0404 51.2476 24C51.0175 23.7525 50.7874 23.505 50.5504 23.25C49.8824 23.228 49.8824 23.228 49.1341 23.3672C48.8573 23.4078 48.5804 23.4484 48.2952 23.4902C48.004 23.5347 47.7128 23.5792 47.4128 23.625C46.8247 23.6974 46.2364 23.7678 45.6479 23.8359C45.1949 23.8901 44.7419 23.9442 44.2751 24C45.0074 22.7747 45.71 21.6965 46.6501 20.6484C47.5279 19.5819 47.5279 19.5819 47.3474 18.375C47.3016 18.157 47.2557 17.939 47.2085 17.7144C46.6272 14.3341 46.772 10.842 48.4586 7.875C52.1805 2.44793 58.3945 0.102133 64.1467 3.75Z" fill="#5B8F29"/>
<path d="M24.4041 8.24998C24.6989 8.45881 24.9937 8.66764 25.2975 8.88279C25.5779 9.04522 25.8583 9.20764 26.1472 9.37498C26.8564 9.02675 27.553 8.64841 28.239 8.24998C29.6881 8.1156 30.8735 8.04359 32.0738 8.99998C32.901 10.3375 32.8516 11.5308 32.8392 13.1074C32.8382 13.355 32.8372 13.6026 32.8362 13.8577C32.8323 14.6448 32.8235 15.4317 32.8147 16.2187C32.8112 16.7539 32.808 17.289 32.8051 17.8242C32.7975 19.1328 32.7854 20.4414 32.7711 21.75C31.6206 21.75 30.4702 21.75 29.2848 21.75C29.1123 16.9237 29.1123 16.9237 28.9362 12C28.476 12 28.0159 12 27.5417 12C26.635 12.9753 26.74 13.433 26.7001 14.792C26.6866 15.1956 26.6732 15.5992 26.6593 16.0151C26.6485 16.4381 26.6377 16.8611 26.6266 17.2969C26.6131 17.7227 26.5996 18.1486 26.5857 18.5874C26.5528 19.6415 26.523 20.6957 26.4959 21.75C25.3454 21.75 24.1949 21.75 23.0096 21.75C22.8946 18.4087 22.7795 15.0675 22.661 11.625C22.0858 11.8725 21.5105 12.12 20.9179 12.375C20.8028 15.4687 20.6878 18.5625 20.5692 21.75C19.4188 21.75 18.2683 21.75 17.083 21.75C17.083 17.4187 17.083 13.0875 17.083 8.62498C18.4636 8.62498 19.8441 8.62498 21.2665 8.62498C22.3348 8.05043 23.2246 8.16396 24.4041 8.24998Z" fill="#FE8F00"/>
<path d="M41.6387 8.7422C42.532 9.37501 42.532 9.37501 43.2293 10.5C42.8841 11.1188 42.539 11.7375 42.1834 12.375C41.3384 12.1653 40.5424 11.908 39.7212 11.6016C38.7102 11.193 38.7102 11.193 37.6513 11.25C37.6513 11.6213 37.6513 11.9925 37.6513 12.375C37.9955 12.5515 38.3397 12.7279 38.6944 12.9097C39.1457 13.1454 39.5969 13.3812 40.0481 13.6172C40.3885 13.7909 40.3885 13.7909 40.7358 13.968C41.9034 14.583 42.4937 14.9382 43.2293 16.125C43.4196 17.3969 43.4179 18.6029 43.2293 19.875C42.3484 21.1299 41.821 21.6299 40.4403 22.125C37.8234 22.4024 36.0665 22.0864 33.8164 20.625C34.0779 18.8438 34.0779 18.8438 34.8623 18C35.7975 18.1059 36.4815 18.3001 37.3026 18.7969C38.2264 19.2316 38.7911 19.0345 39.743 18.75C39.743 18.3788 39.743 18.0075 39.743 17.625C39.3988 17.4529 39.0545 17.2808 38.6999 17.1035C38.2485 16.8713 37.7973 16.6389 37.3462 16.4063C37.1193 16.2936 36.8923 16.181 36.6585 16.065C35.721 15.5764 34.9849 15.1778 34.357 14.2676C34.0015 12.8463 34.1367 11.5301 34.5137 10.125C36.4616 7.91943 39.0766 7.68994 41.6387 8.7422Z" fill="#FE8E00"/>
<path d="M13.7488 8.7422C14.6421 9.37501 14.6421 9.37501 15.3394 10.5C14.9942 11.1188 14.6491 11.7375 14.2935 12.375C13.4485 12.1653 12.6525 11.908 11.8313 11.6016C10.8204 11.193 10.8204 11.193 9.76138 11.25C9.76138 11.6213 9.76138 11.9925 9.76138 12.375C10.1056 12.5515 10.4499 12.7279 10.8045 12.9097C11.2558 13.1454 11.707 13.3812 12.1582 13.6172C12.4986 13.7909 12.4986 13.7909 12.8459 13.968C14.0135 14.583 14.6038 14.9382 15.3394 16.125C15.5297 17.3969 15.528 18.6029 15.3394 19.875C14.4585 21.1299 13.9311 21.6299 12.5504 22.125C9.93353 22.4024 8.17663 22.0864 5.92651 20.625C6.18798 18.8438 6.18798 18.8438 6.97239 18C7.90764 18.1059 8.59165 18.3001 9.41275 18.7969C10.3365 19.2316 10.9012 19.0345 11.8531 18.75C11.8531 18.3788 11.8531 18.0075 11.8531 17.625C11.5089 17.4529 11.1646 17.2808 10.81 17.1035C10.3587 16.8713 9.90744 16.6389 9.45633 16.4063C9.22938 16.2936 9.00244 16.181 8.76862 16.065C7.83115 15.5764 7.09501 15.1778 6.46715 14.2676C6.11161 12.8463 6.24678 11.5301 6.62376 10.125C8.57169 7.91943 11.1867 7.68994 13.7488 8.7422Z" fill="#FE8E00"/>
<path d="M58.917 10.875C60.5276 10.875 62.1383 10.875 63.7977 10.875C63.7977 12.75 63.7977 12.75 63.3184 13.5703C62.5055 15.0837 62.317 16.665 62.0546 18.375C61.3643 18.375 60.6741 18.375 59.9629 18.375C59.6899 16.0851 60.6224 14.6233 61.706 12.75C60.7856 12.75 59.8652 12.75 58.917 12.75C58.917 12.1313 58.917 11.5125 58.917 10.875Z" fill="#F1F4EB"/>
<path d="M52.6426 10.875C54.2532 10.875 55.8639 10.875 57.5233 10.875C57.3507 12.6579 56.9891 14.137 56.3726 15.7998C56.0785 16.6445 55.9095 17.4849 55.7802 18.375C55.0899 18.375 54.3996 18.375 53.6884 18.375C53.8509 16.2348 54.3639 14.9402 55.4316 13.125C54.5112 13.0013 53.5908 12.8775 52.6426 12.75C52.6426 12.1313 52.6426 11.5125 52.6426 10.875Z" fill="#F1F5EC"/>
</svg>
