<svg width="74" height="30" viewBox="0 0 74 30" fill="none" xmlns="http://www.w3.org/2000/svg">
<g clip-path="url(#clip0_2384_5462)">
<path d="M0.182129 0H73.9478V30H0.182129V0Z" fill="white"/>
<path d="M26.2287 14.2908C26.2287 21.4362 20.702 27.2168 13.8705 27.2168C7.03888 27.2168 1.51221 21.4362 1.51221 14.2908C1.51221 7.14542 7.03888 1.36487 13.8705 1.36487C20.6765 1.36487 26.2287 7.14542 26.2287 14.2908Z" fill="#5E3678"/>
<path d="M13.8459 27.2702C20.6995 27.2702 26.2554 21.4591 26.2554 14.2908C26.2554 7.12239 20.6995 1.31128 13.8459 1.31128C6.99241 1.31128 1.43652 7.12239 1.43652 14.2908C1.43652 21.4591 6.99241 27.2702 13.8459 27.2702Z" fill="#5E3678"/>
<path d="M13.8455 14.2908L18.451 11.6146L25.7943 17.8769L13.8455 14.2908Z" fill="url(#paint0_linear_2384_5462)"/>
<path d="M18.4507 11.6145L25.794 17.8768L25.052 17.4753L18.4507 11.8286V11.6145Z" fill="#E53121"/>
<path d="M13.8455 14.2908L18.451 11.6146L18.4254 11.8287L14.2548 14.2373L13.8455 14.2908Z" fill="#F08465"/>
<path d="M25.7943 17.8769L13.8455 14.2908L14.2804 14.2373L25.0523 17.4755L25.7943 17.8769Z" fill="#B82B18"/>
<path d="M13.8455 14.2909L18.451 11.6147L17.274 1.79309L13.8455 14.2909Z" fill="#F5B0AC"/>
<path d="M17.274 1.79309L13.8455 14.2909L14.1269 13.943L17.2229 2.64947L17.274 1.79309Z" fill="#D47785"/>
<path d="M18.4503 11.6146L17.2733 1.79297L17.2222 2.64935L18.2968 11.5075L18.4503 11.6146Z" fill="#D99E9B"/>
<path d="M13.8455 14.2908L18.451 11.6146L18.2719 11.5076L14.1013 13.9161L13.8455 14.2908Z" fill="#F9D1CD"/>
<path d="M16.4032 19.1079L10.416 26.7886L10.7998 26.0125L16.1986 19.0812L16.4032 19.1079Z" fill="#F9F9FC"/>
<path d="M13.8455 14.2908L16.4041 19.1079L16.1994 19.0811L13.8966 14.719L13.8455 14.2908Z" fill="#F3F2F9"/>
<path d="M10.416 26.7885L13.8446 14.2908L13.8958 14.7457L10.7998 26.0124L10.416 26.7885Z" fill="#DCDAEE"/>
<path d="M13.8455 14.2908L16.4041 19.1079L25.7943 17.8769L13.8455 14.2908Z" fill="#2B2B85"/>
<path d="M25.7943 17.8769L13.8455 14.2908L14.1781 14.5852L24.9756 17.8233L25.7943 17.8769Z" fill="#484293"/>
<path d="M16.4043 19.1079L25.7945 17.8769L24.9758 17.8234L16.5066 18.9474L16.4043 19.1079Z" fill="#24236F"/>
<path d="M13.8455 14.2908L16.4041 19.1079L16.5064 18.9206L14.2037 14.5584L13.8455 14.2908Z" fill="#8F88C0"/>
<path d="M13.8451 14.2908L9.23955 16.967L1.89624 10.7047L13.8451 14.2908Z" fill="url(#paint1_linear_2384_5462)"/>
<path d="M9.23955 16.967L1.89624 10.7047L2.63825 11.1061L9.26513 16.7529L9.23955 16.967Z" fill="#BBB7DB"/>
<path d="M13.8458 14.2908L9.24023 16.967L9.26582 16.7529L13.4364 14.3443L13.8458 14.2908Z" fill="#B0AAD4"/>
<path d="M1.89624 10.7047L13.8451 14.2908L13.4101 14.3443L2.63825 11.1061L1.89624 10.7047Z" fill="#D1CCE6"/>
<path d="M13.8458 14.2908L9.24023 16.967L10.4172 26.7885L13.8458 14.2908Z" fill="#FFDD00"/>
<path d="M10.416 26.7885L13.8446 14.2908L13.5631 14.6387L10.4928 25.9322L10.416 26.7885Z" fill="#DBBB85"/>
<path d="M9.24023 16.9669L10.4172 26.7885L10.4684 25.9321L9.39375 17.074L9.24023 16.9669Z" fill="#EBC536"/>
<path d="M13.8458 14.2908L9.24023 16.967L9.41934 17.074L13.5899 14.6654L13.8458 14.2908Z" fill="#FFE167"/>
<path d="M13.8453 14.2909L11.2866 9.47373L17.2738 1.79309L13.8453 14.2909Z" fill="#E53121"/>
<path d="M11.2866 9.47373L17.2738 1.79309L16.8901 2.56918L11.4913 9.50049L11.2866 9.47373Z" fill="#EA583C"/>
<path d="M13.8453 14.2908L11.2866 9.47363L11.4913 9.50039L13.7941 13.8626L13.8453 14.2908Z" fill="#D42F1E"/>
<path d="M17.2737 1.79297L13.8451 14.2907L13.7939 13.8358L16.8899 2.56906L17.2737 1.79297Z" fill="#C22C1A"/>
<path d="M13.8451 14.2908L11.2865 9.47363L1.89624 10.7047L13.8451 14.2908Z" fill="#F3F2F9"/>
<path d="M1.89624 10.7047L13.8451 14.2908L13.5125 13.9964L2.71501 10.785L1.89624 10.7047Z" fill="#F9F8FB"/>
<path d="M11.2865 9.47363L1.89624 10.7047L2.71501 10.7582L11.1841 9.6342L11.2865 9.47363Z" fill="#DCDAEE"/>
<path d="M13.8448 14.2909L11.2862 9.47375L11.1838 9.66109L13.4866 14.0233L13.8448 14.2909Z" fill="#F9F9FC"/>
<path d="M22.8004 5.27213C21.2652 3.61289 19.3718 2.43537 17.2737 1.79309L18.4507 11.6147L22.8004 5.27213Z" fill="url(#paint2_linear_2384_5462)"/>
<path d="M17.2737 1.79309L18.4507 11.6147L18.553 11.1597L17.4528 1.84661C17.4016 1.84661 17.3249 1.81985 17.2737 1.79309Z" fill="#8F88C0"/>
<path d="M22.6732 5.13818L18.5794 11.1596L18.4771 11.6145L22.8012 5.24523C22.75 5.21847 22.7244 5.16495 22.6732 5.13818Z" fill="#A59FCE"/>
<path d="M22.8004 5.27213C21.2652 3.61289 19.3718 2.43537 17.2737 1.79309L17.504 2.22128C19.3974 2.8368 21.0861 3.93404 22.4933 5.40594L22.8004 5.27213Z" fill="url(#paint3_linear_2384_5462)"/>
<path d="M18.4507 11.6147L22.7748 5.24536C24.2844 6.87783 25.359 8.91173 25.8963 11.133L18.4507 11.6147Z" fill="url(#paint4_linear_2384_5462)"/>
<path d="M22.8004 5.27197L18.4507 11.6145L18.7833 11.4272L22.9027 5.40578C22.8771 5.35226 22.826 5.29873 22.8004 5.27197Z" fill="#ED6F50"/>
<path d="M25.8715 10.9724L18.8097 11.4274L18.4771 11.6147L25.9227 11.133C25.8971 11.0795 25.8715 11.0259 25.8715 10.9724Z" fill="#A62714"/>
<path d="M25.5389 10.9992C25.0271 9.01878 24.0549 7.19897 22.7244 5.67355L22.8011 5.24536C24.3107 6.87783 25.3854 8.91173 25.9227 11.133L25.5389 10.9992Z" fill="url(#paint5_linear_2384_5462)"/>
<path d="M18.4507 11.6146L25.8963 11.1329C26.4081 13.2739 26.4081 15.5754 25.794 17.8502L18.4507 11.6146Z" fill="url(#paint6_linear_2384_5462)"/>
<path d="M25.9227 11.1597L18.4771 11.6414L18.912 11.7752L25.9739 11.3202C25.9483 11.2667 25.9227 11.2132 25.9227 11.1597Z" fill="#D1CEE8"/>
<path d="M25.794 17.877C25.8196 17.8235 25.8196 17.7432 25.8452 17.6897L18.8857 11.7753L18.4507 11.6415L25.794 17.877Z" fill="#F3F2F9"/>
<path d="M25.5635 17.4487C26.0752 15.388 26.0752 13.3006 25.6147 11.347L25.9217 11.1597C26.4334 13.3006 26.4334 15.6021 25.8193 17.8769L25.5635 17.4487Z" fill="url(#paint7_linear_2384_5462)"/>
<path d="M5.22248 4.95093C3.68729 6.47635 2.5359 8.42996 1.89624 10.7047L11.2865 9.47368L5.22248 4.95093Z" fill="url(#paint8_linear_2384_5462)"/>
<path d="M1.89624 10.7047L11.2865 9.47362L10.8515 9.36658L1.94741 10.5173C1.94741 10.5709 1.92183 10.6511 1.89624 10.7047Z" fill="#FFCB00"/>
<path d="M5.09473 5.05797L10.8517 9.33987L11.2866 9.44691L5.22266 4.95093C5.17149 4.97769 5.1459 5.03121 5.09473 5.05797Z" fill="#FFDD00"/>
<path d="M5.22248 4.95093C3.63612 6.52988 2.51031 8.51025 1.89624 10.7047L2.30562 10.4639C2.89411 8.48349 3.94316 6.71721 5.35041 5.24531C5.376 5.27207 5.22248 4.95093 5.22248 4.95093Z" fill="#FFF8C7"/>
<path d="M11.2869 9.47372L5.2229 4.95098C6.78367 3.37203 8.72824 2.24803 10.8519 1.68604L11.2869 9.47372Z" fill="url(#paint9_linear_2384_5462)"/>
<path d="M5.2229 4.95098L11.3125 9.47372L11.1334 9.12582L5.35083 4.81717C5.29966 4.87069 5.24849 4.89745 5.2229 4.95098ZM10.6728 1.7128L11.1078 9.09906L11.2869 9.44696L10.8519 1.68604L10.6728 1.7128Z" fill="#E53121"/>
<path d="M10.6976 2.08746C8.80422 2.6227 7.06434 3.63965 5.60592 5.03126L5.19653 4.95098C6.75731 3.37203 8.70188 2.24803 10.8255 1.68604L10.6976 2.08746Z" fill="url(#paint10_linear_2384_5462)"/>
<path d="M11.287 9.47377L10.8521 1.68608C12.899 1.15084 15.0994 1.15084 17.2742 1.79313L11.287 9.47377Z" fill="url(#paint11_linear_2384_5462)"/>
<path d="M10.8521 1.68597L11.3126 9.47366L11.4405 9.01871L11.0056 1.63245C10.9544 1.65921 10.9032 1.65921 10.8521 1.68597Z" fill="#1E398E"/>
<path d="M17.2734 1.79303C17.2222 1.76626 17.1455 1.76626 17.0943 1.7395L11.4397 9.01872L11.3118 9.47367L17.2734 1.79303Z" fill="#2F2482"/>
<path d="M16.8649 2.03389C14.8947 1.49865 12.899 1.49865 11.0312 1.98037L10.8521 1.65922C12.899 1.12399 15.0994 1.12399 17.2742 1.76627L16.8649 2.03389Z" fill="url(#paint12_linear_2384_5462)"/>
<path d="M4.91504 23.3362C6.42464 24.9687 8.34362 26.173 10.4417 26.7885L9.26473 16.9669L4.91504 23.3362Z" fill="#2B2B85"/>
<path d="M10.4163 26.7885L9.23931 16.9669L9.13696 17.4219L10.2628 26.735C10.3139 26.7617 10.3651 26.7617 10.4163 26.7885Z" fill="#24236F"/>
<path d="M5.01738 23.4433L9.11122 17.4219L9.21356 16.9669L4.91504 23.3362L5.01738 23.4433Z" fill="#5B549F"/>
<path d="M4.91504 23.3364C6.42464 24.9688 8.34362 26.1731 10.4417 26.7886L10.2114 26.3604C8.31804 25.7449 6.62933 24.6477 5.22208 23.1758L4.91504 23.3364Z" fill="url(#paint13_linear_2384_5462)"/>
<path d="M9.24009 16.9669L4.91598 23.3362C3.41218 21.6844 2.33758 19.6576 1.79443 17.4486L9.24009 16.9669Z" fill="url(#paint14_linear_2384_5462)"/>
<path d="M4.91602 23.3362L9.24013 16.9669L8.9075 17.1543L4.78809 23.2024C4.83926 23.2292 4.86485 23.2827 4.91602 23.3362Z" fill="#B0AAD4"/>
<path d="M1.82002 17.6092L8.88188 17.1543L9.2145 16.9669L1.79443 17.4486C1.79443 17.5022 1.82002 17.5557 1.82002 17.6092Z" fill="#DAD8ED"/>
<path d="M2.17823 17.5825C2.68996 19.5629 3.66224 21.3827 4.99274 22.9081L4.91598 23.3363C3.41218 21.6845 2.33758 19.6577 1.79443 17.4487L2.17823 17.5825Z" fill="url(#paint15_linear_2384_5462)"/>
<path d="M9.23965 16.967L1.794 17.4487C1.28227 15.3077 1.28227 13.0062 1.89634 10.7314L9.23965 16.967Z" fill="#E53121"/>
<path d="M1.79312 17.4487L9.23877 16.9669L8.8038 16.8331L1.74194 17.2613C1.76753 17.3148 1.76753 17.3684 1.79312 17.4487Z" fill="#CA2D0A"/>
<path d="M1.89627 10.7047C1.87068 10.7582 1.87068 10.8385 1.8451 10.892L8.80461 16.8332L9.23958 16.967L1.89627 10.7047ZM2.12655 11.1329C1.61482 13.1936 1.61482 15.281 2.07538 17.2346L1.76834 17.4219C1.25661 15.2275 1.30778 12.8992 1.89627 10.7047L2.12655 11.1329Z" fill="#ED6F50"/>
<path d="M22.4939 23.6575C24.0546 22.0786 25.206 20.0714 25.7945 17.877L16.4043 19.108L22.4939 23.6575Z" fill="url(#paint16_linear_2384_5462)"/>
<path d="M25.7945 17.877L16.4043 19.108L16.8393 19.215L25.7433 18.0375C25.7689 18.0108 25.7689 17.9305 25.7945 17.877Z" fill="#7B73B3"/>
<path d="M22.5962 23.5236L16.8393 19.2417L16.4043 19.1346L22.4939 23.6574C22.5195 23.6039 22.5706 23.5503 22.5962 23.5236Z" fill="#D1CEE8"/>
<path d="M22.4934 23.6574C24.003 22.132 25.1799 20.1516 25.794 17.8768L25.3846 18.1177C24.7961 20.0981 23.7471 21.8643 22.3398 23.3362L22.4934 23.6574Z" fill="#655EA5"/>
<path d="M16.4043 19.1079L22.4939 23.6307C20.9331 25.2096 18.9885 26.3336 16.8649 26.8956L16.4043 19.1079Z" fill="url(#paint17_linear_2384_5462)"/>
<path d="M22.4939 23.6574L16.4043 19.1079L16.5834 19.4558L22.3404 23.7645C22.3915 23.7377 22.4427 23.6842 22.4939 23.6574ZM17.0184 26.8688L16.5834 19.4826L16.4043 19.1347L16.8649 26.9224C16.916 26.8956 16.9672 26.8688 17.0184 26.8688Z" fill="#E53121"/>
<path d="M16.9924 26.5209C18.8858 25.9857 20.6257 24.9688 22.0841 23.5771L22.4935 23.6574C20.9327 25.2364 18.9882 26.3604 16.8645 26.9224L16.9924 26.5209Z" fill="url(#paint18_linear_2384_5462)"/>
<path d="M16.404 19.1079L16.8646 26.8956C14.8177 27.4308 12.6172 27.4308 10.4424 26.7886L16.404 19.1079Z" fill="url(#paint19_linear_2384_5462)"/>
<path d="M16.8646 26.8956L16.4041 19.1079L16.2761 19.5629L16.7111 26.9491C16.7367 26.9224 16.8134 26.9224 16.8646 26.8956Z" fill="#F5B0AC"/>
<path d="M10.416 26.7886L10.5951 26.8421L16.2753 19.5629L16.4032 19.1079L10.416 26.7886Z" fill="#FAD9D5"/>
<path d="M10.8254 26.5477C12.7956 27.083 14.7913 27.083 16.6591 26.6013L16.8382 26.9224C14.7145 27.4844 12.5141 27.4309 10.416 26.8153L10.8254 26.5477Z" fill="url(#paint20_linear_2384_5462)"/>
<path d="M39.2273 13.2739C38.7923 13.1669 36.5407 12.5246 36.464 12.4978C35.4149 12.1767 35.1591 11.695 35.1591 11.0794V10.4639C35.1591 9.95545 35.4405 9.55402 35.7987 9.42021C36.0802 9.31316 36.3872 9.2864 36.9245 9.2864H41.7092C41.8371 9.2864 41.9395 9.17935 41.9395 9.04555V7.89479C41.9395 7.38631 41.9139 6.87784 41.4533 6.47641C41.1975 6.26232 40.7369 6.07498 40.0972 5.94117C39.4064 5.80737 38.3062 5.70032 36.8222 5.70032C34.4426 5.70032 33.1121 6.20879 32.191 7.30603C31.9608 7.57365 31.2188 8.69764 31.2188 10.4639V11.7485C31.3979 14.4782 33.1121 15.2543 34.8776 15.7092C35.3126 15.8163 37.4618 16.4318 37.5386 16.4586C38.5876 16.7797 38.8691 17.2614 38.8691 17.8769V18.5995C38.8691 19.108 38.5621 19.5094 38.2038 19.6432C37.9224 19.7503 37.5386 19.777 37.0013 19.777H31.449C31.3211 19.777 31.2188 19.8841 31.2188 20.0179V20.6067C31.2443 21.5968 31.3723 22.3194 31.9863 22.8011C32.4725 23.1758 33.4192 23.6575 36.464 23.6575H36.7966C38.5365 23.604 39.6623 23.3364 40.4299 22.9885C41.0951 22.6673 41.4789 22.3194 41.786 21.9447C42.1953 21.4898 42.8094 20.3658 42.8862 18.8939V17.4488C42.7582 14.7191 40.9928 13.7556 39.2273 13.2739ZM58.3404 5.94117H56.2935C55.5515 5.94117 55.3723 6.12851 55.3723 6.9046V15.4951H55.27C54.7839 14.7726 50.6644 8.59059 49.7433 7.19898C49.2316 6.44965 48.5408 5.94117 47.4917 5.94117H46.0589C45.931 5.94117 45.8286 6.04822 45.8286 6.18203V22.48C45.8286 23.2561 45.9821 23.4434 46.7497 23.4434H48.7966C49.5386 23.4434 49.7177 23.2561 49.7177 22.48V13.8627H49.8201L55.4747 22.3194C55.9864 22.9885 56.7028 23.4166 57.5728 23.4166H58.98C59.108 23.4166 59.2103 23.3096 59.2103 23.1758V6.87784C59.2615 6.12851 59.108 5.94117 58.3404 5.94117ZM73.9481 17.4488C73.769 14.7191 72.0035 13.7556 70.2637 13.3007C69.8287 13.1936 67.5771 12.5513 67.5003 12.5246C66.4513 12.2034 66.1954 11.7217 66.1954 11.1062V10.4907C66.1954 9.98221 66.4769 9.58078 66.8351 9.44697C67.1165 9.33993 67.4236 9.31316 67.9609 9.31316H72.7455C72.8735 9.31316 72.9758 9.20612 72.9758 9.07231V7.92155C72.9758 7.41307 72.9502 6.9046 72.4897 6.50317C72.2338 6.28908 71.7733 6.10174 71.1336 5.96794C70.4428 5.83413 69.3425 5.72708 67.8585 5.72708C65.479 5.72708 64.1485 6.23555 63.2274 7.33279C62.9971 7.60041 62.2551 8.7244 62.2551 10.4907V11.7753C62.4342 14.505 64.1741 15.2811 65.914 15.736C66.3489 15.843 68.4982 16.4586 68.575 16.4853C69.624 16.8065 69.9054 17.2882 69.9054 17.9037V18.6263C69.9054 19.1348 69.5984 19.5362 69.2402 19.67C68.9587 19.777 68.575 19.8038 68.0376 19.8038H62.4854C62.3574 19.8038 62.2551 19.9108 62.2551 20.0447V20.6334C62.2807 21.6236 62.4086 22.3462 63.0227 22.8279C63.5088 23.2026 64.4555 23.6843 67.5003 23.6843H67.8329C69.5728 23.6307 70.6986 23.3631 71.4662 23.0152C72.1315 22.6941 72.5153 22.3462 72.8223 21.9715C73.2317 21.5166 73.8458 20.3926 73.9225 18.9207C73.9481 18.6798 73.9481 17.5558 73.9481 17.4488Z" fill="#5E3678"/>
</g>
<defs>
<linearGradient id="paint0_linear_2384_5462" x1="19.1436" y1="13.8662" x2="23.9185" y2="15.1552" gradientUnits="userSpaceOnUse">
<stop stop-color="#E53121"/>
<stop offset="1" stop-color="#C22C1A"/>
</linearGradient>
<linearGradient id="paint1_linear_2384_5462" x1="1.97097" y1="12.7738" x2="13.9536" y2="16.0085" gradientUnits="userSpaceOnUse">
<stop stop-color="#DCDAEE"/>
<stop offset="1" stop-color="#8F88C0"/>
</linearGradient>
<linearGradient id="paint2_linear_2384_5462" x1="22.3807" y1="7.97025" x2="16.03" y2="6.34342" gradientUnits="userSpaceOnUse">
<stop stop-color="#7B73B3"/>
<stop offset="1" stop-color="#C6C2E2"/>
</linearGradient>
<linearGradient id="paint3_linear_2384_5462" x1="22.9316" y1="5.22021" x2="17.1126" y2="2.008" gradientUnits="userSpaceOnUse">
<stop stop-color="#6C62A8"/>
<stop offset="1" stop-color="#CBCAE6"/>
</linearGradient>
<linearGradient id="paint4_linear_2384_5462" x1="19.9728" y1="6.88586" x2="23.599" y2="12.8909" gradientUnits="userSpaceOnUse">
<stop stop-color="#E53121"/>
<stop offset="1" stop-color="#A62714"/>
</linearGradient>
<linearGradient id="paint5_linear_2384_5462" x1="22.8137" y1="5.28069" x2="26.3277" y2="11.0998" gradientUnits="userSpaceOnUse">
<stop stop-color="#E84D2C"/>
<stop offset="1" stop-color="#811F08"/>
</linearGradient>
<linearGradient id="paint6_linear_2384_5462" x1="21.7907" y1="10.2739" x2="24.9299" y2="18.5198" gradientUnits="userSpaceOnUse">
<stop stop-color="#F3F2F9"/>
<stop offset="1" stop-color="#BBB7DB"/>
</linearGradient>
<linearGradient id="paint7_linear_2384_5462" x1="24.8069" y1="14.1993" x2="26.7624" y2="14.7353" gradientUnits="userSpaceOnUse">
<stop stop-color="white"/>
<stop offset="1" stop-color="#BBB7DB"/>
</linearGradient>
<linearGradient id="paint8_linear_2384_5462" x1="3.42741" y1="7.78904" x2="11.3518" y2="9.92824" gradientUnits="userSpaceOnUse">
<stop stop-color="#FFF098"/>
<stop offset="1" stop-color="#FFD530"/>
</linearGradient>
<linearGradient id="paint9_linear_2384_5462" x1="5.63433" y1="3.51066" x2="12.7953" y2="6.00277" gradientUnits="userSpaceOnUse">
<stop stop-color="#F4A286"/>
<stop offset="1" stop-color="#E53121"/>
</linearGradient>
<linearGradient id="paint10_linear_2384_5462" x1="5.08753" y1="5.02404" x2="11.0924" y2="1.70934" gradientUnits="userSpaceOnUse">
<stop stop-color="#F4A286"/>
<stop offset="1" stop-color="#E53121"/>
</linearGradient>
<linearGradient id="paint11_linear_2384_5462" x1="10.6218" y1="4.55311" x2="16.6147" y2="6.1709" gradientUnits="userSpaceOnUse">
<stop stop-color="#4464AC"/>
<stop offset="1" stop-color="#1D3584"/>
</linearGradient>
<linearGradient id="paint12_linear_2384_5462" x1="10.9216" y1="1.652" x2="17.3541" y2="1.652" gradientUnits="userSpaceOnUse">
<stop stop-color="#4464AC"/>
<stop offset="0.373" stop-color="#2F4B97"/>
<stop offset="0.728" stop-color="#223B89"/>
<stop offset="1" stop-color="#1D3584"/>
</linearGradient>
<linearGradient id="paint13_linear_2384_5462" x1="4.62591" y1="24.0207" x2="10.7761" y2="25.7069" gradientUnits="userSpaceOnUse">
<stop stop-color="#5B62A2"/>
<stop offset="0.152" stop-color="#4C579A"/>
<stop offset="0.482" stop-color="#31438C"/>
<stop offset="0.776" stop-color="#213783"/>
<stop offset="1" stop-color="#1B3380"/>
</linearGradient>
<linearGradient id="paint14_linear_2384_5462" x1="5.50063" y1="17.0095" x2="6.09418" y2="23.4956" gradientUnits="userSpaceOnUse">
<stop stop-color="white"/>
<stop offset="1" stop-color="#DAD8ED"/>
</linearGradient>
<linearGradient id="paint15_linear_2384_5462" x1="1.05908" y1="19.7039" x2="5.59162" y2="20.9464" gradientUnits="userSpaceOnUse">
<stop stop-color="white"/>
<stop offset="1" stop-color="#D1CEE8"/>
</linearGradient>
<linearGradient id="paint16_linear_2384_5462" x1="17.0994" y1="18.6869" x2="25.4889" y2="20.9517" gradientUnits="userSpaceOnUse">
<stop stop-color="#D1CEE8"/>
<stop offset="1" stop-color="#7B73B3"/>
</linearGradient>
<linearGradient id="paint17_linear_2384_5462" x1="16.2851" y1="19.1138" x2="20.3813" y2="25.8975" gradientUnits="userSpaceOnUse">
<stop stop-color="#E53121"/>
<stop offset="1" stop-color="#B02916"/>
</linearGradient>
<linearGradient id="paint18_linear_2384_5462" x1="16.7883" y1="27.0955" x2="22.7929" y2="23.7808" gradientUnits="userSpaceOnUse">
<stop stop-color="#E53121"/>
<stop offset="1" stop-color="#9D2511"/>
</linearGradient>
<linearGradient id="paint19_linear_2384_5462" x1="13.0415" y1="22.5489" x2="17.4281" y2="26.7429" gradientUnits="userSpaceOnUse">
<stop stop-color="#F5B0AC"/>
<stop offset="1" stop-color="#EF8495"/>
</linearGradient>
<linearGradient id="paint20_linear_2384_5462" x1="10.5058" y1="26.9302" x2="16.9377" y2="26.9302" gradientUnits="userSpaceOnUse">
<stop stop-color="#F5B0AC"/>
<stop offset="1" stop-color="#EE788F"/>
</linearGradient>
<clipPath id="clip0_2384_5462">
<rect width="74" height="30" fill="white"/>
</clipPath>
</defs>
</svg>
