<svg width="98" height="27" viewBox="0 0 98 27" fill="none" xmlns="http://www.w3.org/2000/svg">
<path d="M4.81982 22.416L6.19784 20.6612C7.15356 21.5035 8.15374 22.0182 9.37617 22.0182C10.3319 22.0182 10.9098 21.6205 10.9098 20.9653V20.9419C10.9098 20.3102 10.5542 20.006 8.75384 19.5147C6.64236 18.9298 5.24212 18.298 5.24212 16.0753V16.0519C5.24212 14.0163 6.79794 12.6593 8.9761 12.6593C10.5319 12.6593 11.8433 13.174 12.9323 14.0865L11.7099 15.9349C10.7764 15.2564 9.84292 14.8352 8.93165 14.8352C8.0426 14.8352 7.55363 15.2798 7.55363 15.8179V15.8413C7.55363 16.59 8.02038 16.824 9.84292 17.3154C11.9988 17.9003 13.2213 18.7192 13.2213 20.6846V20.708C13.2213 22.9307 11.5988 24.1942 9.30949 24.1942C7.73144 24.1942 6.10894 23.6092 4.81982 22.416ZM14.6882 12.8231H19.0445C21.5783 12.8231 23.1341 14.4141 23.1341 16.707V16.7304C23.1341 19.3275 21.2227 20.6846 18.8222 20.6846H17.0442V24.0538H14.6882V12.8231ZM18.8889 18.4852C20.0669 18.4852 20.7559 17.7365 20.7559 16.7772V16.7538C20.7559 15.6542 20.0225 15.0458 18.8445 15.0458H17.0219V18.4852H18.8889ZM26.4458 12.7529H28.6017L33.1803 24.0538H30.7354L29.7575 21.5269H25.2456L24.2676 24.0538H21.8894L26.4458 12.7529ZM28.9129 19.3509L27.4904 15.7009L26.0679 19.3509H28.9129ZM34.2916 12.8231H39.1591C40.5149 12.8231 41.5595 13.2208 42.2708 13.9695C42.8709 14.6013 43.182 15.467 43.182 16.5433V16.5666C43.182 18.3682 42.2485 19.5147 40.8927 20.0528L43.4932 24.0538H40.7594L38.4701 20.474H36.6253V24.0538H34.2694V12.8231H34.2916ZM39.0035 18.2747C40.1371 18.2747 40.8038 17.6429 40.8038 16.6836V16.6602C40.8038 15.6074 40.0926 15.0458 38.9591 15.0458H36.6253V18.2747H39.0035ZM55.6508 12.8231H59.5182C61.8741 12.8231 63.4744 14.0865 63.4744 16.2625V16.2859C63.4744 18.649 61.5408 19.8657 59.3181 19.8657H56.451V24.0538H55.6508V12.8231ZM59.3626 19.0936C61.3407 19.0936 62.6743 17.9939 62.6743 16.3327V16.3093C62.6743 14.5311 61.3629 13.5952 59.4515 13.5952H56.4288V19.0936H59.3626ZM76.1655 22.416L76.6767 21.7842C77.8547 22.9307 78.9215 23.4455 80.4996 23.4455C82.0999 23.4455 83.1889 22.5096 83.1889 21.2227V21.1993C83.1889 20.0061 82.5888 19.3275 80.1662 18.8128C77.6102 18.2747 76.5656 17.3622 76.5656 15.6542V15.6308C76.5656 13.9695 78.0103 12.6827 79.9884 12.6827C81.5442 12.6827 82.5666 13.1272 83.6335 14.0397L83.1223 14.6949C82.1221 13.7824 81.1219 13.4314 79.9439 13.4314C78.3659 13.4314 77.3435 14.3673 77.3435 15.5372V15.5606C77.3435 16.7538 77.9214 17.4791 80.4551 18.0173C82.9222 18.5554 83.9669 19.4679 83.9669 21.1057V21.1291C83.9669 22.9307 82.4999 24.1942 80.4329 24.1942C78.7437 24.1942 77.4324 23.6092 76.1655 22.416ZM88.5454 13.5952H84.8337V12.8231H93.0573V13.5952H89.3456V24.0538H88.5454V13.5952ZM47.1383 17.5493L50.8278 12.8231H53.695L49.3609 18.1577L54.0061 24.0538H50.9834L47.1383 19.0234V24.0304H44.8045V12.7997H47.1383V17.5493Z" fill="#55555A"/>
<path d="M73.7205 10.2729C72.5425 11.2087 72.298 12.87 72.2758 13.993C70.4088 11.7001 75.743 4.98507 69.6753 0.84375C73.4315 5.96776 64.3188 11.0216 64.3188 18.5789C64.3188 21.5504 66.0747 24.1475 69.942 25.0599C73.7205 24.2176 75.6097 21.5504 75.6097 18.5789C75.5875 14.1568 72.9648 12.6828 73.7205 10.2729ZM69.942 22.6266C67.875 22.6266 66.2081 20.8718 66.2081 18.6959C66.2081 16.5199 67.875 14.7651 69.942 14.7651C72.0091 14.7651 73.676 16.5199 73.676 18.6959C73.676 20.8718 71.9868 22.6266 69.942 22.6266Z" fill="#FA6423"/>
</svg>
