<svg width="94" height="29" viewBox="0 0 94 29" fill="none" xmlns="http://www.w3.org/2000/svg">
<g clip-path="url(#clip0_2384_5436)">
<path d="M14.1396 0C21.9446 0 28.2792 6.4554 28.2792 14.4094C28.2792 22.3634 21.9446 28.8188 14.1396 28.8188C6.33454 28.8188 0 22.3634 0 14.4094C0 6.4554 6.33454 0 14.1396 0ZM14.1396 3.80408C8.37064 3.80408 3.73285 8.53035 3.73285 14.4094C3.73285 20.2884 8.37064 25.0147 14.1396 25.0147C19.9085 25.0147 24.5463 20.2884 24.5463 14.4094C24.5463 8.53035 19.9085 3.80408 14.1396 3.80408ZM86.8171 9.74074C91.0024 9.74074 94 12.8532 94 16.542V16.5996C94 20.2884 91.0024 23.4585 86.7605 23.4585C82.5752 23.4585 79.5776 20.346 79.5776 16.6572V16.5996C79.5776 12.9108 82.5752 9.74074 86.8171 9.74074ZM38.1203 5.70611C38.29 5.64848 38.4597 5.82139 38.4597 5.93666V10.0866H45.9819C46.1516 10.0866 46.2647 10.2018 46.3213 10.3171L46.9434 12.6803L47.509 15.0434L47.5656 15.1587L47.6221 14.9281L49.0361 10.1442C49.0927 10.0289 49.2623 9.91365 49.3755 9.91365H53.1083C53.278 9.91365 53.3911 10.0289 53.4477 10.1442L54.9182 15.2739L54.9747 15.0434L56.219 10.2595C56.2756 10.1442 56.4452 10.0289 56.5584 10.0289H66.1733C66.2864 10.0289 66.3995 10.1442 66.3995 10.3171V22.8821C66.3995 22.9974 66.2864 23.1126 66.1733 23.1126H61.3658C61.2527 23.1126 61.1396 22.9974 61.1396 22.8821V10.7782L57.5199 22.8821C57.4633 22.9974 57.2936 23.1126 57.1805 23.1126H53.2214C53.0517 23.1126 52.9386 22.9974 52.8821 22.8821L52.0903 20.346L51.2419 17.5794L49.5451 22.9397C49.4886 23.055 49.3189 23.1703 49.2058 23.1703H45.2467C45.077 23.1703 44.9639 23.055 44.9073 22.9397L41.3442 10.8935V14.0059C41.3442 14.1212 41.231 14.2365 41.1179 14.2365H38.4031V17.5218C38.4031 18.5016 38.8556 18.8475 39.704 18.8475C40.1564 18.8475 40.5523 18.7898 41.0614 18.5593C41.1745 18.5593 41.3442 18.6169 41.3442 18.7898V22.5939C40.4958 23.055 39.2515 23.3432 37.9507 23.3432C34.84 23.3432 33.1432 21.8446 33.1432 18.6746V14.1788H31.8989C31.7858 14.1788 31.6727 14.0636 31.6727 13.9483V10.2595C31.6727 10.1442 31.7858 10.0289 31.8989 10.0289H33.1432V7.43524C33.1432 7.31996 33.1998 7.26233 33.3694 7.20469L38.1203 5.70611ZM72.5078 5.64848C72.6209 5.64848 72.7341 5.76375 72.7341 5.87903V22.8821C72.7341 22.9974 72.6209 23.1126 72.5078 23.1126H67.7004C67.5872 23.1126 67.4741 22.9974 67.4741 22.8821V5.87903C67.4741 5.76375 67.5872 5.64848 67.7004 5.64848H72.5078ZM78.8424 10.0289C78.9555 10.0289 79.0686 10.1442 79.0686 10.3171V22.8821C79.0686 22.9974 78.9555 23.1126 78.8424 23.1126H74.0349C73.9218 23.1126 73.8087 22.9974 73.8087 22.8821V10.2595C73.8087 10.1442 73.9218 10.0289 74.0349 10.0289H78.8424ZM17.6462 14.9858C19.2705 14.9858 20.5872 16.3276 20.5872 17.9829C20.5872 19.6382 19.2705 20.9801 17.6462 20.9801C16.0219 20.9801 14.7052 19.6382 14.7052 17.9829C14.7052 16.3276 16.0219 14.9858 17.6462 14.9858ZM10.633 14.9858C12.2573 14.9858 13.574 16.3276 13.574 17.9829C13.574 19.6382 12.2573 20.9801 10.633 20.9801C9.00868 20.9801 7.69194 19.6382 7.69194 17.9829C7.69194 16.3276 9.00868 14.9858 10.633 14.9858ZM86.7605 14.2365C85.5728 14.2365 84.7244 15.2163 84.7244 16.4843V16.542C84.7244 17.81 85.6294 18.8475 86.8171 18.8475C88.0048 18.8475 88.8532 17.8676 88.8532 16.5996C88.8532 15.2739 87.9483 14.2365 86.7605 14.2365ZM17.6462 7.8387C19.2705 7.8387 20.5872 9.18057 20.5872 10.8359C20.5872 12.4911 19.2705 13.833 17.6462 13.833C16.0219 13.833 14.7052 12.4911 14.7052 10.8359C14.7052 9.18057 16.0219 7.8387 17.6462 7.8387ZM10.633 7.8387C12.2573 7.8387 13.574 9.18057 13.574 10.8359C13.574 12.4911 12.2573 13.833 10.633 13.833C9.00868 13.833 7.69194 12.4911 7.69194 10.8359C7.69194 9.18057 9.00868 7.8387 10.633 7.8387ZM66.2298 5.64848C66.3995 5.64848 66.5126 5.76375 66.4561 5.87903V8.81854C66.4561 8.93382 66.343 9.04909 66.2298 9.04909H61.2527C61.1396 9.04909 61.0265 8.93382 61.0265 8.81854V5.87903C61.0265 5.76375 61.1396 5.64848 61.2527 5.64848H66.2298ZM78.8989 5.64848C79.0686 5.64848 79.1817 5.76375 79.1252 5.87903V8.81854C79.1252 8.93382 79.012 9.04909 78.8989 9.04909H73.9218C73.8087 9.04909 73.6955 8.93382 73.6955 8.81854V5.87903C73.6955 5.76375 73.8087 5.64848 73.9218 5.64848H78.8989Z" fill="#F12E45"/>
</g>
<defs>
<clipPath id="clip0_2384_5436">
<rect width="94" height="29" fill="white"/>
</clipPath>
</defs>
</svg>
