<svg width="98" height="26" viewBox="0 0 98 26" fill="none" xmlns="http://www.w3.org/2000/svg">
<path d="M7.68031 3.34045H3.20117L9.58921 18.2561C9.6343 18.3642 9.79964 18.3642 9.84473 18.2561L11.9641 13.1144L7.68031 3.34045ZM21.3282 3.34045C21.3282 3.34045 14.4591 19.4914 13.5423 20.9892C12.4751 22.7185 11.7687 23.3825 10.446 23.5986C10.4309 23.5986 10.4309 23.6141 10.4309 23.6295C10.4309 23.6449 10.446 23.6604 10.461 23.6604H14.5644C16.338 23.6604 17.6306 22.1318 18.3371 20.7884C19.1487 19.2598 25.8975 3.35589 25.8975 3.35589H21.3282V3.34045ZM39.2748 16.2952C39.2598 16.3106 39.2297 16.3106 39.2297 16.2952L35.8177 8.63661H33.9088C33.9088 8.63661 37.426 16.7584 37.7717 17.376C38.1174 17.9628 38.5233 18.4569 39.2598 18.4569C39.9963 18.4569 40.4021 17.9628 40.7478 17.376C41.0935 16.7738 44.6107 8.63661 44.6107 8.63661H42.6868L39.2748 16.2952ZM49.661 16.9591C47.8122 16.9591 46.5947 15.7239 46.5947 13.485C46.5947 11.2461 47.8122 10.0108 49.661 10.0108C51.5098 10.0108 52.7272 11.2461 52.7272 13.485C52.7272 15.7239 51.5098 16.9591 49.661 16.9591ZM49.661 8.405C46.7601 8.405 44.8963 10.3351 44.8963 13.485C44.8963 16.6349 46.7601 18.565 49.661 18.565C52.5469 18.565 54.4257 16.6349 54.4257 13.485C54.4257 10.3351 52.5619 8.405 49.661 8.405ZM64.2257 8.63661V18.3488H62.2567L57.6874 11.2461V18.3488H56.019V8.63661H57.988L62.5573 15.7856V8.63661H64.2257ZM68.7048 14.3651L70.3582 10.3968C70.3733 10.3814 70.4033 10.3814 70.4033 10.3968L72.0567 14.3651H68.7048ZM70.3733 8.52852C69.6818 8.52852 69.261 9.06894 68.9904 9.60937C68.7049 10.1652 65.3079 18.3488 65.3079 18.3488H67.0515L68.0285 16.0018H72.7331L73.7101 18.3488H75.4536C75.4536 18.3488 72.0567 10.1498 71.7711 9.60937C71.4855 9.0535 71.0647 8.52852 70.3733 8.52852ZM80.1883 14.5967H83.1794C83.1644 16.1099 81.7966 16.9591 80.3386 16.9591C78.5199 16.9591 77.3174 15.7239 77.3174 13.485C77.3174 11.0762 78.4147 9.99539 80.4288 9.99539C81.6914 9.99539 82.7285 10.5204 82.9539 11.7402H84.6825C84.3818 9.60937 82.4579 8.405 80.3236 8.405C77.4677 8.405 75.634 10.3351 75.634 13.485C75.634 16.6349 77.4677 18.5186 80.3236 18.5186C81.526 18.5186 82.7435 17.8547 83.1644 17.1599V18.3334H84.7726V15.3379V13.099H80.1733V14.5967H80.1883ZM93.3852 10.2579V8.63661H86.5914V18.3488H93.3852V16.7275H88.2598V14.1798H92.9794V12.5585H88.2598V10.2733H93.3852V10.2579Z" fill="#1F1F1F"/>
</svg>
